<svg width="145" height="73" viewBox="0 0 145 73" fill="none" xmlns="http://www.w3.org/2000/svg">
<path d="M134.402 0.869629H48.1336C47.6623 0.869629 47.2102 1.0584 46.877 1.39441C46.5437 1.73042 46.3564 2.18615 46.3564 2.66134C46.3564 3.13654 46.5437 3.59227 46.877 3.92828C47.2102 4.26429 47.6623 4.45306 48.1336 4.45306H134.402C136.212 4.49382 137.933 5.25664 139.186 6.57431C140.44 7.89198 141.124 9.65702 141.089 11.4826V48.786C141.124 50.6116 140.44 52.3766 139.186 53.6943C137.933 55.012 136.212 55.7748 134.402 55.8155H122.726C122.254 55.8155 121.802 56.0043 121.469 56.3403C121.136 56.6763 120.949 57.1321 120.949 57.6073C120.949 58.0824 121.136 58.5382 121.469 58.8742C121.802 59.2102 122.254 59.399 122.726 59.399H134.402C137.155 59.3581 139.779 58.2177 141.7 56.228C143.62 54.2383 144.679 51.5619 144.644 48.786V11.4826C144.679 8.7067 143.62 6.03029 141.7 4.04062C139.779 2.05094 137.155 0.910534 134.402 0.869629Z" fill="white"/>
<path d="M8.69342 17.8317V44.2296C8.69385 45.0922 8.89188 45.9431 9.27206 46.716C9.65224 47.4888 10.2043 48.1626 10.8852 48.685L10.9208 48.7149H10.9563C11.9112 49.4326 13.0706 49.8202 14.2618 49.8197H60.2658C61.7421 49.8182 63.1576 49.2262 64.2015 48.1737C65.2454 47.1212 65.8326 45.6942 65.8342 44.2057V17.8257C65.8326 16.3373 65.2454 14.9102 64.2015 13.8577C63.1576 12.8052 61.7421 12.2133 60.2658 12.2117H14.2558C12.7795 12.2133 11.3641 12.8052 10.3202 13.8577C9.27623 14.9102 8.68907 16.3373 8.6875 17.8257L8.69342 17.8317ZM14.9371 46.2542L25.2148 32.3266L33.8754 45.1732C34.0068 45.3678 34.175 45.5344 34.3702 45.6634C34.5655 45.7924 34.7841 45.8814 35.0135 45.9252C35.2429 45.969 35.4786 45.9668 35.7072 45.9188C35.9358 45.8707 36.1527 45.7777 36.3456 45.6451L36.4404 45.5734L48.6789 35.928L56.7885 46.2602L14.9371 46.2542ZM62.2977 17.8257V44.2236C62.2911 44.5999 62.1806 44.9669 61.9787 45.2834C61.7767 45.5998 61.4913 45.8533 61.1544 46.0153L50.3613 32.2789C50.0697 31.9079 49.6445 31.6682 49.1783 31.6123C48.7122 31.5563 48.243 31.6886 47.8733 31.9803L35.7473 41.548L26.7432 28.2296C26.5836 27.9932 26.3703 27.7987 26.121 27.6623C25.8717 27.526 25.5936 27.4518 25.3101 27.446C25.0265 27.4401 24.7457 27.5028 24.4911 27.6287C24.2364 27.7547 24.0154 27.9402 23.8464 28.1699L12.2418 43.937V17.8317C12.2418 17.2931 12.454 16.7766 12.8317 16.3958C13.2094 16.015 13.7217 15.8011 14.2558 15.8011H60.2658C60.5303 15.8003 60.7924 15.852 61.037 15.9534C61.2817 16.0547 61.5041 16.2036 61.6917 16.3916C61.8793 16.5796 62.0283 16.803 62.1302 17.0491C62.2322 17.2951 62.285 17.559 62.2858 17.8257H62.2977Z" fill="white"/>
<path d="M127.169 19.6831C127.169 19.2079 126.982 18.7522 126.649 18.4161C126.316 18.0801 125.864 17.8914 125.392 17.8914H75.6326C75.1613 17.8914 74.7093 18.0801 74.376 18.4161C74.0427 18.7522 73.8555 19.2079 73.8555 19.6831C73.8555 20.1583 74.0427 20.614 74.376 20.95C74.7093 21.286 75.1613 21.4748 75.6326 21.4748H125.392C125.864 21.4748 126.316 21.286 126.649 20.95C126.982 20.614 127.169 20.1583 127.169 19.6831Z" fill="white"/>
<path d="M75.928 28.0439C75.4567 28.0439 75.0047 28.2327 74.6714 28.5687C74.3381 28.9047 74.1509 29.3605 74.1509 29.8357C74.1509 30.3109 74.3381 30.7666 74.6714 31.1026C75.0047 31.4386 75.4567 31.6274 75.928 31.6274H109.397C109.869 31.6274 110.321 31.4386 110.654 31.1026C110.987 30.7666 111.174 30.3109 111.174 29.8357C111.174 29.3605 110.987 28.9047 110.654 28.5687C110.321 28.2327 109.869 28.0439 109.397 28.0439H75.928Z" fill="white"/>
<path d="M38.3116 0.272705C38.7217 0.272705 39.1225 0.395301 39.4635 0.62499C39.8044 0.854679 40.0702 1.18114 40.2271 1.5631C40.384 1.94506 40.4251 2.36536 40.3451 2.77084C40.2651 3.17633 40.0676 3.54879 39.7777 3.84113C39.4877 4.13347 39.1183 4.33255 38.7161 4.41321C38.3139 4.49386 37.897 4.45247 37.5182 4.29426C37.1393 4.13604 36.8155 3.86812 36.5877 3.52437C36.3599 3.18061 36.2383 2.77647 36.2383 2.36304C36.2383 1.80865 36.4567 1.27696 36.8455 0.88495C37.2344 0.492937 37.7617 0.272705 38.3116 0.272705Z" fill="white"/>
<path d="M117.187 46.4329L103.705 38.7226C103.243 38.443 102.724 38.2729 102.187 38.2253C101.65 38.1776 101.11 38.2536 100.607 38.4475C100.103 38.6413 99.6504 38.9481 99.2819 39.3444C98.9135 39.7407 98.6392 40.2164 98.4799 40.7353L93.5276 55.5408C93.498 55.6304 93.4862 55.726 93.4625 55.8155H10.9324C9.12187 55.7748 7.40119 55.012 6.14754 53.6943C4.89389 52.3766 4.20954 50.6116 4.24449 48.786V11.4826C4.20954 9.65702 4.89389 7.89198 6.14754 6.57431C7.40119 5.25664 9.12187 4.49382 10.9324 4.45306H27.8685C28.3398 4.45306 28.7919 4.26429 29.1251 3.92828C29.4584 3.59227 29.6456 3.13654 29.6456 2.66134C29.6456 2.18615 29.4584 1.73042 29.1251 1.39441C28.7919 1.0584 28.3398 0.869629 27.8685 0.869629H10.9324C8.18028 0.9121 5.55715 2.0532 3.63826 4.0427C1.71936 6.0322 0.661319 8.70772 0.696146 11.4826V48.786C0.66133 51.5619 1.72018 54.2383 3.64035 56.228C5.56052 58.2177 8.18517 59.3581 10.9384 59.399H94.0312C94.3244 59.8832 94.7064 60.3069 95.1567 60.6472C95.3961 60.8235 95.6754 60.9366 95.9692 60.9763C96.2631 61.0159 96.5621 60.9808 96.839 60.8741L102.419 58.7301L106.507 69.5341C106.999 70.8196 107.978 71.8557 109.227 72.4154C110.476 72.9751 111.894 73.0129 113.171 72.5203L113.763 72.2993C115.038 71.8024 116.066 70.8162 116.621 69.5568C117.176 68.2974 117.214 66.8675 116.725 65.5804L114.646 60.0619C114.474 59.6351 114.145 59.2917 113.728 59.103C113.311 58.9142 112.838 58.8947 112.407 59.0485C111.976 59.2023 111.621 59.5175 111.414 59.9286C111.208 60.3398 111.167 60.8153 111.299 61.2564V61.3221L113.396 66.8644C113.548 67.2668 113.536 67.7136 113.361 68.1067C113.187 68.4998 112.865 68.807 112.466 68.9608L111.874 69.1817C111.474 69.3352 111.031 69.3226 110.641 69.1468C110.252 68.971 109.947 68.6463 109.794 68.2441L105.055 55.7678C104.887 55.3245 104.551 54.9667 104.121 54.773C103.691 54.5793 103.203 54.5655 102.763 54.7345L97.0582 56.9264C97.0083 56.8022 96.9447 56.684 96.8686 56.574L101.791 41.87C101.793 41.8462 101.793 41.8222 101.791 41.7984L101.868 41.8342L115.345 49.5505C115.445 49.6118 115.531 49.6956 115.594 49.7954L109.67 52.0828C109.223 52.2341 108.854 52.5582 108.644 52.9838C108.434 53.4094 108.4 53.9017 108.55 54.3523C108.7 54.803 109.022 55.175 109.444 55.3867C109.866 55.5984 110.354 55.6324 110.801 55.4811L110.938 55.4273L118.176 52.6442C118.453 52.5371 118.699 52.3618 118.892 52.1344C119.084 51.907 119.217 51.6347 119.278 51.3422C119.467 50.4002 119.362 49.4222 118.977 48.5429C118.592 47.6637 117.946 46.9265 117.128 46.4329" fill="white"/>
</svg>
