<?xml version="1.0" encoding="utf-8"?>
<!-- Generator: Adobe Illustrator 25.0.1, SVG Export Plug-In . SVG Version: 6.00 Build 0)  -->
<svg version="1.1" id="Capa_1" xmlns="http://www.w3.org/2000/svg" xmlns:xlink="http://www.w3.org/1999/xlink" x="0px" y="0px"
	 viewBox="0 0 544 316" style="enable-background:new 0 0 544 316;" xml:space="preserve">
<style type="text/css">
	.st0{fill:#1A0D2E;fill-opacity:0.2;}
	.st1{fill:#80B951;}
	.st2{fill:#ED9920;}
	.st3{fill:#FFFFFF;}
	.st4{fill:#E0E0E0;}
</style>
<g>
	<path class="st0" d="M333.2,36.2c-21-21.5-48.9-34.3-78.4-35.9c-38.3-2.1-84.7,6.3-91.3,57.1C152.1,145.9,40.4,78,3.9,183.5
		c-19.1,55.3,33.4,156.2,145.7,127.1c112.2-29.1,153-19.5,212.6-12c44.8,5.6,157-23.1,142.3-157.7c-9.2-83.6-117.8-58-133.4-69.1
		C363.2,66.2,347.3,50.5,333.2,36.2"/>
</g>
<path class="st1" d="M533.1,211.2c-2.1,0-4.2,0-6.2,0c-0.7,0-1.4-0.3-2-0.8c-0.5-0.5-0.8-1.2-0.8-2c0-0.7,0.3-1.4,0.8-2
	c0.5-0.5,1.2-0.8,2-0.8c2.2,0,4.4,0,6.6,0c0.7,0,1.4,0.3,2,0.8c0.5,0.5,0.8,1.2,0.8,2c0,0.7-0.3,1.4-0.8,2c-0.5,0.5-1.2,0.8-2,0.8
	H533.1z"/>
<path class="st1" d="M513.6,210.9L513.6,210.9c-4.5-0.1-9-0.3-13.4-0.6c-0.4,0-0.7-0.1-1.1-0.3c-0.3-0.2-0.6-0.4-0.9-0.6
	c-0.2-0.3-0.4-0.6-0.6-0.9c-0.1-0.3-0.2-0.7-0.2-1.1c0-0.4,0.1-0.7,0.3-1.1c0.2-0.3,0.4-0.6,0.7-0.9c0.3-0.2,0.6-0.4,0.9-0.6
	c0.3-0.1,0.7-0.2,1.1-0.2c4.3,0.2,8.8,0.4,13.2,0.5c0.4,0,0.7,0.1,1.1,0.2c0.3,0.1,0.6,0.4,0.9,0.6c0.3,0.3,0.5,0.6,0.6,0.9
	c0.1,0.3,0.2,0.7,0.2,1.1c0,0.4-0.1,0.7-0.2,1.1c-0.1,0.3-0.4,0.6-0.6,0.9c-0.3,0.3-0.6,0.5-0.9,0.6
	C514.3,210.8,513.9,210.9,513.6,210.9z M487.1,209.5h-0.2c-4.4-0.3-8.9-0.7-13.3-1.1c-0.4,0-0.7-0.1-1.1-0.3
	c-0.3-0.2-0.6-0.4-0.9-0.7s-0.4-0.6-0.5-1c-0.1-0.4-0.2-0.7-0.1-1.1c0-0.4,0.1-0.7,0.3-1.1c0.2-0.3,0.4-0.6,0.7-0.9
	c0.3-0.2,0.6-0.4,1-0.5c0.4-0.1,0.7-0.1,1.1-0.1c4.3,0.4,8.8,0.8,13.2,1.1c0.7,0.1,1.4,0.4,1.9,0.9c0.5,0.5,0.7,1.2,0.7,2
	c0,0.7-0.3,1.4-0.9,1.9C488.5,209.2,487.8,209.5,487.1,209.5L487.1,209.5z M460.7,206.9h-0.3c-4.4-0.5-8.9-1.1-13.2-1.7
	c-0.4,0-0.7-0.2-1-0.3c-0.3-0.2-0.6-0.4-0.8-0.7c-0.2-0.3-0.4-0.6-0.5-1c-0.1-0.4-0.1-0.7-0.1-1.1c0.1-0.4,0.2-0.7,0.4-1
	c0.2-0.3,0.4-0.6,0.7-0.8c0.3-0.2,0.6-0.4,1-0.5c0.4-0.1,0.7-0.1,1.1,0c4.3,0.6,8.7,1.2,13.1,1.7c0.7,0.1,1.3,0.4,1.8,1
	c0.4,0.5,0.7,1.2,0.6,1.9c0,0.7-0.3,1.4-0.9,1.9C462,206.7,461.4,206.9,460.7,206.9L460.7,206.9z M434.4,203.1c-0.2,0-0.3,0-0.5,0
	c-4.4-0.8-8.8-1.5-13.1-2.4c-0.4-0.1-0.7-0.2-1-0.4c-0.3-0.2-0.6-0.5-0.8-0.8c-0.2-0.3-0.3-0.6-0.4-1c-0.1-0.4-0.1-0.7,0-1.1
	c0.1-0.4,0.2-0.7,0.4-1c0.2-0.3,0.5-0.6,0.8-0.8s0.6-0.3,1-0.4c0.4-0.1,0.7-0.1,1.1,0c4.3,0.8,8.6,1.6,13,2.4c0.7,0.1,1.3,0.5,1.7,1
	c0.4,0.6,0.6,1.2,0.6,1.9c-0.1,0.7-0.4,1.3-0.9,1.8C435.7,202.9,435.1,203.1,434.4,203.1L434.4,203.1z M408.4,198.1
	c-0.2,0-0.4,0-0.6-0.1c-4.3-1-8.7-2-13-3.1c-0.7-0.2-1.3-0.7-1.6-1.3s-0.5-1.4-0.3-2.1c0.2-0.7,0.6-1.3,1.2-1.7
	c0.6-0.4,1.3-0.5,2.1-0.4c4.2,1.1,8.6,2.1,12.8,3.1c0.7,0.1,1.3,0.5,1.7,1.1c0.4,0.6,0.6,1.2,0.5,1.9c-0.1,0.7-0.4,1.3-0.9,1.8
	C409.7,197.9,409.1,198.1,408.4,198.1L408.4,198.1z M382.7,191.7c-0.3,0-0.5,0-0.8-0.1c-4.3-1.2-8.6-2.4-12.8-3.7
	c-0.4-0.1-0.7-0.3-1-0.5c-0.3-0.2-0.5-0.5-0.7-0.8c-0.2-0.3-0.3-0.7-0.3-1c0-0.4,0-0.7,0.1-1.1c0.1-0.4,0.3-0.7,0.5-1
	c0.2-0.3,0.5-0.5,0.8-0.7c0.3-0.2,0.7-0.3,1-0.3c0.4,0,0.7,0,1.1,0.1c4.2,1.3,8.4,2.5,12.7,3.7c0.7,0.2,1.2,0.6,1.6,1.2
	c0.4,0.6,0.5,1.2,0.4,1.9c-0.1,0.7-0.4,1.3-0.9,1.7C383.9,191.4,383.3,191.7,382.7,191.7L382.7,191.7z M357.2,183.9
	c-0.3,0-0.6,0-0.9-0.1c-4.2-1.4-8.4-2.9-12.6-4.4c-0.3-0.1-0.7-0.3-0.9-0.6c-0.3-0.2-0.5-0.5-0.7-0.9s-0.2-0.7-0.3-1.1
	c0-0.4,0-0.7,0.2-1.1c0.1-0.3,0.3-0.7,0.6-0.9c0.3-0.3,0.6-0.5,0.9-0.6c0.3-0.2,0.7-0.2,1.1-0.2c0.4,0,0.7,0.1,1.1,0.2
	c4.1,1.5,8.3,3,12.4,4.4c0.6,0.2,1.2,0.6,1.5,1.2c0.3,0.6,0.5,1.2,0.4,1.9c-0.1,0.7-0.4,1.2-0.9,1.7
	C358.5,183.6,357.9,183.9,357.2,183.9L357.2,183.9z M332.3,174.7c-0.4,0-0.7-0.1-1-0.2c-4.1-1.6-8.3-3.4-12.3-5.1
	c-0.7-0.3-1.2-0.8-1.5-1.5c-0.3-0.7-0.3-1.5,0-2.1c0.3-0.7,0.8-1.2,1.5-1.5c0.7-0.3,1.5-0.3,2.1,0c4,1.7,8.1,3.4,12.2,5.1
	c0.6,0.3,1.1,0.7,1.4,1.3c0.3,0.6,0.4,1.2,0.3,1.8c-0.1,0.6-0.5,1.2-0.9,1.6C333.6,174.5,333,174.7,332.3,174.7L332.3,174.7z
	 M308,164.1c-0.4,0-0.8-0.1-1.2-0.3c-4-1.9-8-3.8-12-5.8c-0.3-0.2-0.6-0.4-0.9-0.7c-0.3-0.3-0.4-0.6-0.6-1c-0.1-0.4-0.2-0.7-0.2-1.1
	c0-0.4,0.1-0.7,0.3-1.1c0.2-0.3,0.4-0.6,0.7-0.9c0.3-0.2,0.6-0.4,1-0.5c0.4-0.1,0.7-0.1,1.1-0.1c0.4,0,0.7,0.2,1.1,0.3
	c3.9,2,7.9,3.9,11.9,5.8c0.6,0.3,1.1,0.7,1.4,1.3c0.3,0.6,0.4,1.2,0.2,1.9c-0.1,0.6-0.5,1.2-1,1.6C309.3,164,308.7,164.2,308,164.1
	L308,164.1z M284.3,152.2c-0.5,0-0.9-0.1-1.3-0.3c-3.9-2.1-7.8-4.3-11.6-6.6c-0.6-0.4-1.1-1-1.3-1.7c-0.2-0.7-0.1-1.5,0.3-2.1
	c0.4-0.6,1-1.1,1.7-1.3c0.7-0.2,1.5-0.1,2.1,0.3c3.8,2.2,7.6,4.4,11.5,6.5c0.5,0.3,1,0.8,1.2,1.3c0.2,0.6,0.3,1.2,0.1,1.8
	s-0.5,1.1-1,1.5C285.6,152,285,152.2,284.3,152.2z M261.4,138.8c-0.5,0-1-0.1-1.5-0.4c-3.8-2.3-7.5-4.8-11.2-7.2
	c-0.3-0.2-0.6-0.5-0.8-0.8c-0.2-0.3-0.4-0.6-0.4-1c-0.1-0.4-0.1-0.7,0-1.1c0.1-0.4,0.2-0.7,0.4-1c0.2-0.3,0.5-0.6,0.8-0.8
	c0.3-0.2,0.7-0.3,1-0.4c0.4-0.1,0.7-0.1,1.1,0c0.4,0.1,0.7,0.2,1,0.4c3.6,2.4,7.4,4.8,11.1,7.2c0.5,0.3,0.9,0.8,1.1,1.4
	c0.2,0.6,0.2,1.2,0.1,1.8c-0.2,0.6-0.5,1.1-1,1.5C262.6,138.6,262,138.8,261.4,138.8L261.4,138.8z M239.4,124.1
	c-0.6,0-1.1-0.2-1.6-0.5c-3.6-2.6-7.2-5.2-10.8-7.9c-0.3-0.2-0.6-0.5-0.7-0.8c-0.2-0.3-0.3-0.7-0.4-1c-0.1-0.4,0-0.7,0.1-1.1
	c0.1-0.4,0.3-0.7,0.5-1c0.2-0.3,0.5-0.5,0.8-0.7c0.3-0.2,0.7-0.3,1-0.3c0.4,0,0.7,0,1.1,0.1c0.4,0.1,0.7,0.3,1,0.5
	c3.5,2.6,7,5.3,10.6,7.8c0.5,0.3,0.8,0.8,1,1.4c0.2,0.6,0.2,1.2,0,1.7c-0.2,0.6-0.5,1.1-1,1.4C240.5,123.9,239.9,124.1,239.4,124.1z
	 M218.3,108c-0.6,0-1.3-0.2-1.8-0.6c-3.4-2.8-6.9-5.7-10.2-8.6c-0.3-0.2-0.5-0.5-0.7-0.9c-0.2-0.3-0.3-0.7-0.3-1
	c0-0.4,0-0.7,0.1-1.1c0.1-0.3,0.3-0.7,0.5-0.9c0.2-0.3,0.5-0.5,0.9-0.7c0.3-0.2,0.7-0.3,1-0.3c0.4,0,0.7,0,1.1,0.1
	c0.3,0.1,0.7,0.3,0.9,0.5c3.3,2.9,6.7,5.7,10.1,8.5c0.4,0.4,0.8,0.9,0.9,1.4c0.2,0.6,0.1,1.1-0.1,1.7c-0.2,0.5-0.5,1-1,1.3
	C219.4,107.8,218.8,108,218.3,108z M198.2,90.6c-0.7,0-1.4-0.3-1.9-0.8c-3.3-3.1-6.5-6.1-9.6-9.3c-0.5-0.5-0.8-1.2-0.8-2
	c0-0.7,0.3-1.4,0.8-1.9s1.2-0.8,1.9-0.8c0.7,0,1.4,0.3,2,0.8c3.1,3.1,6.3,6.1,9.5,9.2c0.4,0.4,0.7,0.9,0.8,1.4
	c0.1,0.5,0.1,1.1-0.1,1.6c-0.2,0.5-0.6,1-1,1.3C199.3,90.4,198.8,90.6,198.2,90.6L198.2,90.6z M179.4,71.9c-0.4,0-0.8-0.1-1.1-0.2
	c-0.3-0.2-0.7-0.4-0.9-0.6c-3.1-3.3-6.1-6.6-9-9.9c-0.2-0.3-0.4-0.6-0.5-0.9c-0.1-0.3-0.2-0.7-0.1-1.1c0-0.4,0.1-0.7,0.3-1
	c0.2-0.3,0.4-0.6,0.7-0.9c0.3-0.2,0.6-0.4,0.9-0.5c0.3-0.1,0.7-0.2,1.1-0.1c0.7,0.1,1.4,0.4,1.9,0.9c2.9,3.3,5.8,6.6,8.9,9.8
	c0.4,0.4,0.6,0.9,0.7,1.4c0.1,0.5,0,1.1-0.2,1.6c-0.2,0.5-0.6,0.9-1,1.2C180.5,71.7,179.9,71.9,179.4,71.9L179.4,71.9z M161.9,51.9
	c-0.4,0-0.8-0.1-1.2-0.3c-0.4-0.2-0.7-0.4-1-0.8c-2.9-3.5-5.6-7.1-8.2-10.6c-0.4-0.6-0.6-1.3-0.5-2.1c0.1-0.7,0.5-1.4,1.1-1.8
	c0.6-0.4,1.3-0.6,2.1-0.5c0.7,0.1,1.4,0.5,1.8,1.1c2.5,3.4,5.2,6.9,8.1,10.4c0.3,0.4,0.5,0.9,0.6,1.4c0.1,0.5,0,1-0.3,1.5
	c-0.2,0.5-0.6,0.9-1,1.2C163,51.7,162.4,51.8,161.9,51.9"/>
<path class="st1" d="M146.2,30.4c-0.5,0-0.9-0.1-1.3-0.3c-0.4-0.2-0.8-0.5-1-0.9c-2.4-3.7-3.6-5.7-3.6-5.8c-0.4-0.6-0.4-1.4-0.2-2.1
	s0.7-1.3,1.3-1.7c0.6-0.4,1.4-0.5,2.1-0.3c0.7,0.2,1.3,0.7,1.7,1.3c0,0,1.1,2,3.4,5.5c0.3,0.4,0.4,0.9,0.5,1.4c0,0.5-0.1,1-0.3,1.4
	c-0.2,0.4-0.6,0.8-1,1.1C147.2,30.3,146.7,30.4,146.2,30.4"/>
<path class="st2" d="M540.9,252.9H99.3c-0.7,0-1.4-0.3-2-0.8c-0.5-0.5-0.8-1.2-0.8-2V19.6c0-0.7,0.3-1.4,0.8-2
	c0.5-0.5,1.2-0.8,2-0.8c0.7,0,1.4,0.3,2,0.8c0.5,0.5,0.8,1.2,0.8,2v227.8h438.7c0.7,0,1.4,0.3,2,0.8c0.5,0.5,0.8,1.2,0.8,2
	c0,0.7-0.3,1.4-0.8,2C542.3,252.6,541.6,252.9,540.9,252.9z"/>
<path class="st3" d="M316,144.5c-0.5,0-1-0.1-1.5-0.4L203.8,74.7c-0.6-0.4-1-1-1.2-1.7c-0.2-0.7,0-1.4,0.4-2.1
	c0.4-0.6,1-1.1,1.7-1.2c0.7-0.2,1.4-0.1,2.1,0.3l106.8,66.9l0.7-9.7c0-0.4,0.1-0.7,0.3-1.1c0.2-0.3,0.4-0.6,0.7-0.9
	c0.3-0.2,0.6-0.4,1-0.6c0.4-0.1,0.7-0.2,1.1-0.1c0.4,0,0.7,0.1,1.1,0.3c0.3,0.2,0.6,0.4,0.9,0.7c0.2,0.3,0.4,0.6,0.5,1
	c0.1,0.4,0.2,0.7,0.1,1.1l-1,14.4c0,0.7-0.4,1.4-0.9,1.8C317.4,144.2,316.7,144.5,316,144.5"/>
<path class="st3" d="M303.8,149.1c-0.7,0-1.3-0.2-1.8-0.6c-0.5-0.4-0.8-1-1-1.6c-0.1-0.6,0-1.3,0.3-1.9c0.3-0.6,0.8-1,1.4-1.2
	l12.2-4.6c0.7-0.3,1.5-0.2,2.1,0.1c0.7,0.3,1.2,0.9,1.5,1.6c0.3,0.7,0.2,1.5-0.1,2.1c-0.3,0.7-0.9,1.2-1.6,1.5l-12.2,4.6
	C304.4,149,304.1,149.1,303.8,149.1z"/>
<path class="st2" d="M110.5,101.7h-2.8c-0.1,0-0.3,0-0.4-0.1s-0.3-0.1-0.4-0.2c-0.1-0.1-0.2-0.2-0.2-0.4c-0.1-0.1-0.1-0.3-0.1-0.4
	c0-0.1,0-0.3,0.1-0.4c0.1-0.1,0.1-0.3,0.2-0.4c0.1-0.1,0.2-0.2,0.4-0.2s0.3-0.1,0.4-0.1h2.8c0.1,0,0.3,0,0.4,0.1
	c0.1,0.1,0.3,0.1,0.4,0.2c0.1,0.1,0.2,0.2,0.2,0.4c0.1,0.1,0.1,0.3,0.1,0.4c0,0.1,0,0.3-0.1,0.4c-0.1,0.1-0.1,0.3-0.2,0.4
	c-0.1,0.1-0.2,0.2-0.4,0.2C110.8,101.7,110.7,101.7,110.5,101.7z"/>
<path class="st2" d="M189.7,101.7h-5.7c-0.1,0-0.3,0-0.4-0.1s-0.3-0.1-0.4-0.2c-0.1-0.1-0.2-0.2-0.2-0.4c-0.1-0.1-0.1-0.3-0.1-0.4
	c0-0.1,0-0.3,0.1-0.4c0.1-0.1,0.1-0.3,0.2-0.4c0.1-0.1,0.2-0.2,0.4-0.2s0.3-0.1,0.4-0.1h5.7c0.1,0,0.3,0,0.4,0.1
	c0.1,0.1,0.3,0.1,0.4,0.2c0.1,0.1,0.2,0.2,0.2,0.4c0.1,0.1,0.1,0.3,0.1,0.4c0,0.1,0,0.3-0.1,0.4c-0.1,0.1-0.1,0.3-0.2,0.4
	c-0.1,0.1-0.2,0.2-0.4,0.2C190,101.7,189.9,101.7,189.7,101.7z M178.4,101.7h-5.7c-0.1,0-0.3,0-0.4-0.1c-0.1-0.1-0.3-0.1-0.4-0.2
	c-0.1-0.1-0.2-0.2-0.2-0.4c-0.1-0.1-0.1-0.3-0.1-0.4c0-0.1,0-0.3,0.1-0.4c0.1-0.1,0.1-0.3,0.2-0.4c0.1-0.1,0.2-0.2,0.4-0.2
	c0.1-0.1,0.3-0.1,0.4-0.1h5.7c0.1,0,0.3,0,0.4,0.1c0.1,0.1,0.3,0.1,0.4,0.2c0.1,0.1,0.2,0.2,0.2,0.4c0.1,0.1,0.1,0.3,0.1,0.4
	c0,0.1,0,0.3-0.1,0.4c-0.1,0.1-0.1,0.3-0.2,0.4c-0.1,0.1-0.2,0.2-0.4,0.2C178.7,101.7,178.5,101.7,178.4,101.7z M167.1,101.7h-5.7
	c-0.1,0-0.3,0-0.4-0.1c-0.1-0.1-0.3-0.1-0.4-0.2c-0.1-0.1-0.2-0.2-0.2-0.4c-0.1-0.1-0.1-0.3-0.1-0.4c0-0.1,0-0.3,0.1-0.4
	c0.1-0.1,0.1-0.3,0.2-0.4c0.1-0.1,0.2-0.2,0.4-0.2c0.1-0.1,0.3-0.1,0.4-0.1h5.7c0.3,0,0.6,0.1,0.8,0.3c0.2,0.2,0.3,0.5,0.3,0.8
	c0,0.3-0.1,0.6-0.3,0.8C167.7,101.6,167.4,101.7,167.1,101.7z M155.8,101.7h-5.7c-0.1,0-0.3,0-0.4-0.1c-0.1-0.1-0.3-0.1-0.4-0.2
	c-0.1-0.1-0.2-0.2-0.2-0.4c-0.1-0.1-0.1-0.3-0.1-0.4c0-0.1,0-0.3,0.1-0.4c0.1-0.1,0.1-0.3,0.2-0.4c0.1-0.1,0.2-0.2,0.4-0.2
	c0.1-0.1,0.3-0.1,0.4-0.1h5.7c0.1,0,0.3,0,0.4,0.1c0.1,0.1,0.3,0.1,0.4,0.2c0.1,0.1,0.2,0.2,0.2,0.4c0.1,0.1,0.1,0.3,0.1,0.4
	c0,0.1,0,0.3-0.1,0.4c-0.1,0.1-0.1,0.3-0.2,0.4c-0.1,0.1-0.2,0.2-0.4,0.2C156.1,101.7,155.9,101.7,155.8,101.7z M144.4,101.7h-5.7
	c-0.3,0-0.6-0.1-0.8-0.3c-0.2-0.2-0.3-0.5-0.3-0.8c0-0.3,0.1-0.6,0.3-0.8c0.2-0.2,0.5-0.3,0.8-0.3h5.7c0.1,0,0.3,0,0.4,0.1
	c0.1,0.1,0.3,0.1,0.4,0.2c0.1,0.1,0.2,0.2,0.2,0.4c0.1,0.1,0.1,0.3,0.1,0.4c0,0.1,0,0.3-0.1,0.4c-0.1,0.1-0.1,0.3-0.2,0.4
	c-0.1,0.1-0.2,0.2-0.4,0.2C144.7,101.7,144.6,101.7,144.4,101.7z M133.1,101.7h-5.6c-0.3,0-0.6-0.1-0.8-0.3
	c-0.2-0.2-0.3-0.5-0.3-0.8c0-0.3,0.1-0.6,0.3-0.8c0.2-0.2,0.5-0.3,0.8-0.3h5.7c0.3,0,0.6,0.1,0.8,0.3c0.2,0.2,0.3,0.5,0.3,0.8
	c0,0.3-0.1,0.6-0.3,0.8C133.7,101.6,133.5,101.7,133.1,101.7L133.1,101.7z M121.8,101.7h-5.7c-0.1,0-0.3,0-0.4-0.1
	c-0.1-0.1-0.3-0.1-0.4-0.2c-0.1-0.1-0.2-0.2-0.2-0.4c-0.1-0.1-0.1-0.3-0.1-0.4c0-0.1,0-0.3,0.1-0.4c0.1-0.1,0.1-0.3,0.2-0.4
	c0.1-0.1,0.2-0.2,0.4-0.2c0.1-0.1,0.3-0.1,0.4-0.1h5.7c0.3,0,0.6,0.1,0.8,0.3c0.2,0.2,0.3,0.5,0.3,0.8c0,0.3-0.1,0.6-0.3,0.8
	C122.4,101.6,122.2,101.7,121.8,101.7"/>
<path class="st2" d="M198.2,104.5c-0.3,0-0.6-0.1-0.8-0.3c-0.2-0.2-0.3-0.5-0.3-0.8v-1.7h-1.7c-0.3,0-0.6-0.1-0.8-0.3
	c-0.2-0.2-0.3-0.5-0.3-0.8c0-0.3,0.1-0.6,0.3-0.8c0.2-0.2,0.5-0.3,0.8-0.3h2.8c0.3,0,0.6,0.1,0.8,0.3c0.2,0.2,0.3,0.5,0.3,0.8v2.8
	c0,0.3-0.1,0.6-0.3,0.8S198.5,104.5,198.2,104.5z"/>
<path class="st2" d="M198.2,237.5c-0.3,0-0.6-0.1-0.8-0.3c-0.2-0.2-0.3-0.5-0.3-0.8v-5.5c0-0.3,0.1-0.6,0.3-0.8
	c0.2-0.2,0.5-0.3,0.8-0.3c0.3,0,0.6,0.1,0.8,0.3s0.3,0.5,0.3,0.8v5.5c0,0.3-0.1,0.6-0.3,0.8C198.8,237.3,198.5,237.5,198.2,237.5z
	 M198.2,226.4c-0.3,0-0.6-0.1-0.8-0.3c-0.2-0.2-0.3-0.5-0.3-0.8v-5.5c0-0.3,0.1-0.6,0.3-0.8c0.2-0.2,0.5-0.3,0.8-0.3
	c0.3,0,0.6,0.1,0.8,0.3c0.2,0.2,0.3,0.5,0.3,0.8v5.5c0,0.3-0.1,0.6-0.3,0.8S198.5,226.4,198.2,226.4z M198.2,215.3
	c-0.3,0-0.6-0.1-0.8-0.3c-0.2-0.2-0.3-0.5-0.3-0.8v-5.5c0-0.3,0.1-0.6,0.3-0.8c0.2-0.2,0.5-0.3,0.8-0.3c0.3,0,0.6,0.1,0.8,0.3
	s0.3,0.5,0.3,0.8v5.5c0,0.3-0.1,0.6-0.3,0.8S198.5,215.3,198.2,215.3z M198.2,204.2c-0.3,0-0.6-0.1-0.8-0.3
	c-0.2-0.2-0.3-0.5-0.3-0.8v-5.5c0-0.3,0.1-0.6,0.3-0.8c0.2-0.2,0.5-0.3,0.8-0.3c0.3,0,0.6,0.1,0.8,0.3s0.3,0.5,0.3,0.8v5.5
	c0,0.3-0.1,0.6-0.3,0.8S198.5,204.2,198.2,204.2L198.2,204.2z M198.2,193.1c-0.3,0-0.6-0.1-0.8-0.3c-0.2-0.2-0.3-0.5-0.3-0.8v-5.5
	c0-0.3,0.1-0.6,0.3-0.8c0.2-0.2,0.5-0.3,0.8-0.3c0.3,0,0.6,0.1,0.8,0.3c0.2,0.2,0.3,0.5,0.3,0.8v5.5c0,0.3-0.1,0.6-0.3,0.8
	S198.5,193.1,198.2,193.1L198.2,193.1z M198.2,182c-0.3,0-0.6-0.1-0.8-0.3c-0.2-0.2-0.3-0.5-0.3-0.8v-5.5c0-0.3,0.1-0.6,0.3-0.8
	c0.2-0.2,0.5-0.3,0.8-0.3c0.3,0,0.6,0.1,0.8,0.3s0.3,0.5,0.3,0.8v5.5c0,0.3-0.1,0.6-0.3,0.8C198.8,181.9,198.5,182,198.2,182z
	 M198.2,170.9c-0.3,0-0.6-0.1-0.8-0.3c-0.2-0.2-0.3-0.5-0.3-0.8v-5.5c0-0.3,0.1-0.6,0.3-0.8c0.2-0.2,0.5-0.3,0.8-0.3
	c0.3,0,0.6,0.1,0.8,0.3s0.3,0.5,0.3,0.8v5.6c0,0.3-0.1,0.6-0.3,0.8S198.5,171,198.2,170.9L198.2,170.9z M198.2,159.9
	c-0.3,0-0.6-0.1-0.8-0.3c-0.2-0.2-0.3-0.5-0.3-0.8v-5.5c0-0.3,0.1-0.6,0.3-0.8c0.2-0.2,0.5-0.3,0.8-0.3c0.3,0,0.6,0.1,0.8,0.3
	s0.3,0.5,0.3,0.8v5.5c0,0.3-0.1,0.6-0.3,0.8C198.8,159.8,198.5,159.9,198.2,159.9L198.2,159.9z M198.2,148.8c-0.3,0-0.6-0.1-0.8-0.3
	c-0.2-0.2-0.3-0.5-0.3-0.8v-5.5c0-0.3,0.1-0.6,0.3-0.8c0.2-0.2,0.5-0.3,0.8-0.3c0.3,0,0.6,0.1,0.8,0.3s0.3,0.5,0.3,0.8v5.5
	c0,0.3-0.1,0.6-0.3,0.8S198.5,148.8,198.2,148.8z M198.2,137.7c-0.3,0-0.6-0.1-0.8-0.3c-0.2-0.2-0.3-0.5-0.3-0.8v-5.5
	c0-0.3,0.1-0.6,0.3-0.8c0.2-0.2,0.5-0.3,0.8-0.3c0.3,0,0.6,0.1,0.8,0.3s0.3,0.5,0.3,0.8v5.5c0,0.3-0.1,0.6-0.3,0.8
	C198.8,137.6,198.5,137.7,198.2,137.7z M198.2,126.6c-0.3,0-0.6-0.1-0.8-0.3c-0.2-0.2-0.3-0.5-0.3-0.8V120c0-0.3,0.1-0.6,0.3-0.8
	c0.2-0.2,0.5-0.3,0.8-0.3c0.3,0,0.6,0.1,0.8,0.3s0.3,0.5,0.3,0.8v5.5c0,0.3-0.1,0.6-0.3,0.8S198.5,126.6,198.2,126.6z M198.2,115.5
	c-0.3,0-0.6-0.1-0.8-0.3c-0.2-0.2-0.3-0.5-0.3-0.8v-5.5c0-0.3,0.1-0.6,0.3-0.8c0.2-0.2,0.5-0.3,0.8-0.3c0.3,0,0.6,0.1,0.8,0.3
	s0.3,0.5,0.3,0.8v5.5c0,0.3-0.1,0.6-0.3,0.8C198.8,115.4,198.5,115.5,198.2,115.5z"/>
<path class="st2" d="M198.2,245.8c-0.3,0-0.6-0.1-0.8-0.3c-0.2-0.2-0.3-0.5-0.3-0.8v-2.8c0-0.3,0.1-0.6,0.3-0.8
	c0.2-0.2,0.5-0.3,0.8-0.3c0.3,0,0.6,0.1,0.8,0.3c0.2,0.2,0.3,0.5,0.3,0.8v2.8c0,0.3-0.1,0.6-0.3,0.8S198.5,245.8,198.2,245.8z"/>
<path class="st2" d="M109.5,177.9h-2.8c-0.3,0-0.6-0.1-0.8-0.3s-0.3-0.5-0.3-0.8c0-0.3,0.1-0.6,0.3-0.8s0.5-0.3,0.8-0.3h2.8
	c0.3,0,0.6,0.1,0.8,0.3c0.2,0.2,0.3,0.5,0.3,0.8c0,0.3-0.1,0.6-0.3,0.8C110,177.8,109.8,177.9,109.5,177.9z"/>
<path class="st2" d="M287.5,177.9h-5.6c-0.3,0-0.6-0.1-0.8-0.3c-0.2-0.2-0.3-0.5-0.3-0.8c0-0.3,0.1-0.6,0.3-0.8
	c0.2-0.2,0.5-0.3,0.8-0.3h5.6c0.3,0,0.6,0.1,0.8,0.3c0.2,0.2,0.3,0.5,0.3,0.8c0,0.3-0.1,0.6-0.3,0.8
	C288,177.8,287.8,177.9,287.5,177.9z M276.3,177.9h-5.6c-0.3,0-0.6-0.1-0.8-0.3c-0.2-0.2-0.3-0.5-0.3-0.8c0-0.3,0.1-0.6,0.3-0.8
	c0.2-0.2,0.5-0.3,0.8-0.3h5.6c0.3,0,0.6,0.1,0.8,0.3c0.2,0.2,0.3,0.5,0.3,0.8c0,0.3-0.1,0.6-0.3,0.8
	C276.9,177.8,276.6,177.9,276.3,177.9z M265.2,177.9h-5.6c-0.3,0-0.6-0.1-0.8-0.3c-0.2-0.2-0.3-0.5-0.3-0.8c0-0.3,0.1-0.6,0.3-0.8
	c0.2-0.2,0.5-0.3,0.8-0.3h5.6c0.3,0,0.6,0.1,0.8,0.3c0.2,0.2,0.3,0.5,0.3,0.8c0,0.3-0.1,0.6-0.3,0.8
	C265.8,177.8,265.5,177.9,265.2,177.9L265.2,177.9z M254.1,177.9h-5.6c-0.3,0-0.6-0.1-0.8-0.3s-0.3-0.5-0.3-0.8
	c0-0.3,0.1-0.6,0.3-0.8s0.5-0.3,0.8-0.3h5.6c0.3,0,0.6,0.1,0.8,0.3s0.3,0.5,0.3,0.8c0,0.3-0.1,0.6-0.3,0.8S254.4,177.9,254.1,177.9z
	 M243,177.9h-5.6c-0.3,0-0.6-0.1-0.8-0.3s-0.3-0.5-0.3-0.8c0-0.3,0.1-0.6,0.3-0.8s0.5-0.3,0.8-0.3h5.6c0.3,0,0.6,0.1,0.8,0.3
	s0.3,0.5,0.3,0.8c0,0.3-0.1,0.6-0.3,0.8S243.3,177.9,243,177.9z M231.8,177.9h-5.6c-0.3,0-0.6-0.1-0.8-0.3s-0.3-0.5-0.3-0.8
	c0-0.3,0.1-0.6,0.3-0.8s0.5-0.3,0.8-0.3h5.6c0.3,0,0.6,0.1,0.8,0.3c0.2,0.2,0.3,0.5,0.3,0.8c0,0.3-0.1,0.6-0.3,0.8
	C232.4,177.8,232.1,177.9,231.8,177.9z M220.7,177.9h-5.6c-0.3,0-0.6-0.1-0.8-0.3s-0.3-0.5-0.3-0.8c0-0.3,0.1-0.6,0.3-0.8
	s0.5-0.3,0.8-0.3h5.6c0.3,0,0.6,0.1,0.8,0.3c0.2,0.2,0.3,0.5,0.3,0.8c0,0.3-0.1,0.6-0.3,0.8C221.3,177.8,221,177.9,220.7,177.9z
	 M209.6,177.9H204c-0.3,0-0.6-0.1-0.8-0.3c-0.2-0.2-0.3-0.5-0.3-0.8c0-0.3,0.1-0.6,0.3-0.8c0.2-0.2,0.5-0.3,0.8-0.3h5.5
	c0.3,0,0.6,0.1,0.8,0.3c0.2,0.2,0.3,0.5,0.3,0.8c0,0.3-0.1,0.6-0.3,0.8C210.1,177.8,209.8,177.9,209.6,177.9L209.6,177.9z
	 M198.4,177.9h-5.6c-0.3,0-0.6-0.1-0.8-0.3s-0.3-0.5-0.3-0.8c0-0.3,0.1-0.6,0.3-0.8s0.5-0.3,0.8-0.3h5.6c0.3,0,0.6,0.1,0.8,0.3
	c0.2,0.2,0.3,0.5,0.3,0.8c0,0.3-0.1,0.6-0.3,0.8C199,177.8,198.7,177.9,198.4,177.9z M187.3,177.9h-5.6c-0.3,0-0.6-0.1-0.8-0.3
	s-0.3-0.5-0.3-0.8c0-0.3,0.1-0.6,0.3-0.8s0.5-0.3,0.8-0.3h5.6c0.3,0,0.6,0.1,0.8,0.3s0.3,0.5,0.3,0.8c0,0.3-0.1,0.6-0.3,0.8
	S187.6,177.9,187.3,177.9z M176.2,177.9h-5.5c-0.3,0-0.6-0.1-0.8-0.3s-0.3-0.5-0.3-0.8c0-0.3,0.1-0.6,0.3-0.8s0.5-0.3,0.8-0.3h5.6
	c0.3,0,0.6,0.1,0.8,0.3c0.2,0.2,0.3,0.5,0.3,0.8c0,0.3-0.1,0.6-0.3,0.8C176.8,177.8,176.5,177.9,176.2,177.9L176.2,177.9z
	 M165.1,177.9h-5.6c-0.3,0-0.6-0.1-0.8-0.3c-0.2-0.2-0.3-0.5-0.3-0.8c0-0.3,0.1-0.6,0.3-0.8c0.2-0.2,0.5-0.3,0.8-0.3h5.6
	c0.3,0,0.6,0.1,0.8,0.3s0.3,0.5,0.3,0.8c0,0.3-0.1,0.6-0.3,0.8S165.4,177.9,165.1,177.9z M154,177.9h-5.6c-0.3,0-0.6-0.1-0.8-0.3
	s-0.3-0.5-0.3-0.8c0-0.3,0.1-0.6,0.3-0.8s0.5-0.3,0.8-0.3h5.6c0.3,0,0.6,0.1,0.8,0.3s0.3,0.5,0.3,0.8c0,0.3-0.1,0.6-0.3,0.8
	S154.3,177.9,154,177.9z M142.8,177.9h-5.6c-0.3,0-0.6-0.1-0.8-0.3s-0.3-0.5-0.3-0.8c0-0.3,0.1-0.6,0.3-0.8s0.5-0.3,0.8-0.3h5.6
	c0.3,0,0.6,0.1,0.8,0.3s0.3,0.5,0.3,0.8c0,0.3-0.1,0.6-0.3,0.8S143.1,177.9,142.8,177.9z M131.7,177.9h-5.6c-0.3,0-0.6-0.1-0.8-0.3
	s-0.3-0.5-0.3-0.8c0-0.3,0.1-0.6,0.3-0.8s0.5-0.3,0.8-0.3h5.6c0.3,0,0.6,0.1,0.8,0.3s0.3,0.5,0.3,0.8c0,0.3-0.1,0.6-0.3,0.8
	S132,177.9,131.7,177.9z M120.6,177.9H115c-0.3,0-0.6-0.1-0.8-0.3c-0.2-0.2-0.3-0.5-0.3-0.8c0-0.3,0.1-0.6,0.3-0.8
	c0.2-0.2,0.5-0.3,0.8-0.3h5.6c0.3,0,0.6,0.1,0.8,0.3s0.3,0.5,0.3,0.8c0,0.3-0.1,0.6-0.3,0.8S120.8,177.9,120.6,177.9"/>
<path class="st2" d="M295.8,180.7c-0.3,0-0.6-0.1-0.8-0.3c-0.2-0.2-0.3-0.5-0.3-0.8v-1.7H293c-0.3,0-0.6-0.1-0.8-0.3
	c-0.2-0.2-0.3-0.5-0.3-0.8c0-0.3,0.1-0.6,0.3-0.8c0.2-0.2,0.5-0.3,0.8-0.3h2.8c0.3,0,0.6,0.1,0.8,0.3c0.2,0.2,0.3,0.5,0.3,0.8v2.8
	c0,0.3-0.1,0.6-0.3,0.8C296.4,180.6,296.1,180.7,295.8,180.7z"/>
<path class="st2" d="M295.8,237.3c-0.3,0-0.6-0.1-0.8-0.3c-0.2-0.2-0.3-0.5-0.3-0.8v-5.7c0-0.3,0.1-0.6,0.3-0.8
	c0.2-0.2,0.5-0.3,0.8-0.3c0.3,0,0.6,0.1,0.8,0.3c0.2,0.2,0.3,0.5,0.3,0.8v5.7c0,0.3-0.1,0.6-0.3,0.8
	C296.4,237.2,296.1,237.4,295.8,237.3L295.8,237.3z M295.8,226c-0.3,0-0.6-0.1-0.8-0.3c-0.2-0.2-0.3-0.5-0.3-0.8v-5.7
	c0-0.3,0.1-0.6,0.3-0.8c0.2-0.2,0.5-0.3,0.8-0.3c0.3,0,0.6,0.1,0.8,0.3c0.2,0.2,0.3,0.5,0.3,0.8v5.7c0,0.3-0.1,0.6-0.3,0.8
	C296.4,225.9,296.1,226,295.8,226z M295.8,214.7c-0.3,0-0.6-0.1-0.8-0.3c-0.2-0.2-0.3-0.5-0.3-0.8v-5.7c0-0.3,0.1-0.6,0.3-0.8
	c0.2-0.2,0.5-0.3,0.8-0.3c0.3,0,0.6,0.1,0.8,0.3c0.2,0.2,0.3,0.5,0.3,0.8v5.7c0,0.3-0.1,0.6-0.3,0.8
	C296.4,214.6,296.1,214.7,295.8,214.7z M295.8,203.4c-0.3,0-0.6-0.1-0.8-0.3c-0.2-0.2-0.3-0.5-0.3-0.8v-5.7c0-0.3,0.1-0.6,0.3-0.8
	c0.2-0.2,0.5-0.3,0.8-0.3c0.3,0,0.6,0.1,0.8,0.3c0.2,0.2,0.3,0.5,0.3,0.8v5.7c0,0.3-0.1,0.6-0.3,0.8
	C296.4,203.2,296.1,203.4,295.8,203.4L295.8,203.4z M295.8,192c-0.3,0-0.6-0.1-0.8-0.3c-0.2-0.2-0.3-0.5-0.3-0.8v-5.7
	c0-0.3,0.1-0.6,0.3-0.8c0.2-0.2,0.5-0.3,0.8-0.3c0.3,0,0.6,0.1,0.8,0.3c0.2,0.2,0.3,0.5,0.3,0.8v5.7c0,0.3-0.1,0.6-0.3,0.8
	C296.4,191.9,296.1,192,295.8,192z"/>
<path class="st2" d="M295.8,245.8c-0.3,0-0.6-0.1-0.8-0.3c-0.2-0.2-0.3-0.5-0.3-0.8v-2.8c0-0.3,0.1-0.6,0.3-0.8
	c0.2-0.2,0.5-0.3,0.8-0.3c0.3,0,0.6,0.1,0.8,0.3c0.2,0.2,0.3,0.5,0.3,0.8v2.8c0,0.3-0.1,0.6-0.3,0.8
	C296.4,245.7,296.1,245.8,295.8,245.8z"/>
<path class="st4" d="M58.2,169.7c2.3,0,4.1,0.5,5.3,1.4c1.3,0.9,1.9,2.4,1.9,4.2c0,1.9-0.6,3.4-1.9,4.4c-1.2,1-2.9,1.5-5,1.5h-1.9
	v5.8h-4.1v-17.3H58.2z M58.2,178.3c1,0,1.7-0.2,2.2-0.7c0.5-0.5,0.8-1.2,0.8-2.3c0-1.8-1-2.7-3-2.7h-1.5v5.7H58.2z M75.1,170.1V187
	h-3.9v-13.1l-3.6,2.2l-1.7-2.6l5.7-3.4H75.1z"/>
<path class="st4" d="M58.2,90.7c2.3,0,4.1,0.5,5.3,1.4c1.3,1,1.9,2.4,1.9,4.2c0,2-0.6,3.4-1.9,4.4c-1.2,1-2.9,1.5-5,1.5h-1.9v5.8
	h-4.1V90.7H58.2z M58.2,99.3c1,0,1.7-0.2,2.2-0.7c0.5-0.5,0.8-1.2,0.8-2.3c0-1.8-1-2.7-3-2.7h-1.5v5.7H58.2z M71.4,90.7
	c1.2,0,2.3,0.2,3.1,0.7c0.9,0.4,1.6,1,2,1.8c0.5,0.7,0.7,1.5,0.7,2.4c0,0.9-0.2,1.8-0.5,2.6c-0.4,0.8-1,1.8-2,2.8
	c-0.9,1.1-2.3,2.4-4.1,4h6.9l-0.4,3h-11v-2.8c2-2,3.5-3.5,4.5-4.5c0.9-1,1.6-1.9,1.9-2.6c0.4-0.7,0.6-1.4,0.6-2.1
	c0-0.7-0.2-1.2-0.6-1.6c-0.4-0.4-0.9-0.6-1.6-0.6c-0.6,0-1.1,0.1-1.6,0.4c-0.5,0.3-1,0.7-1.5,1.3l-2.3-1.8c0.7-0.9,1.5-1.6,2.5-2.2
	C69.1,91,70.2,90.7,71.4,90.7z"/>
<path class="st4" d="M288,290.9c1.1,0,2,0.1,2.8,0.4c0.8,0.2,1.6,0.6,2.3,1.2l-2.5,3.2c-0.9-1.1-1.9-1.9-2.9-2.5
	c-1-0.6-2.2-0.9-3.7-0.9c-1.5,0-2.9-0.4-4-1.1c-1.1-0.7-2-1.8-2.6-3.1c-0.6-1.4-0.9-3-0.9-4.9c0-1.9,0.3-3.5,0.9-4.9
	c0.6-1.4,1.5-2.4,2.7-3.1c1.2-0.7,2.6-1.1,4.2-1.1c2.5,0,4.4,0.8,5.8,2.4c1.4,1.6,2.1,3.8,2.1,6.7
	C292.1,286.9,290.7,289.4,288,290.9z M280.7,283.3c0,2.1,0.3,3.7,0.9,4.6c0.6,1,1.5,1.4,2.6,1.4c1.2,0,2.1-0.5,2.6-1.4
	c0.6-1,0.9-2.5,0.9-4.7c0-2.2-0.3-3.7-0.9-4.7c-0.6-0.9-1.5-1.4-2.6-1.4c-1.2,0-2.1,0.5-2.6,1.5C281,279.6,280.7,281.2,280.7,283.3z
	 M302.1,275.1V292h-3.9v-13l-3.6,2.2l-1.7-2.6l5.7-3.4H302.1z"/>
<path class="st4" d="M196.2,290.9c1.1,0,2,0.1,2.8,0.4c0.8,0.2,1.6,0.6,2.3,1.2l-2.5,3.2c-0.9-1.1-1.9-1.9-2.9-2.5
	c-1-0.6-2.2-0.9-3.7-0.9c-1.5,0-2.9-0.4-4-1.1c-1.1-0.7-2-1.8-2.6-3.1c-0.6-1.4-0.9-3-0.9-4.9c0-1.9,0.3-3.5,0.9-4.9
	c0.6-1.4,1.5-2.4,2.7-3.1c1.2-0.7,2.6-1.1,4.2-1.1c2.5,0,4.4,0.8,5.8,2.4c1.4,1.6,2.1,3.8,2.1,6.7
	C200.3,286.9,199,289.4,196.2,290.9z M189,283.3c0,2.1,0.3,3.7,0.9,4.6c0.6,1,1.5,1.4,2.6,1.4c1.2,0,2.1-0.5,2.6-1.4
	c0.6-1,0.9-2.5,0.9-4.7c0-2.2-0.3-3.7-0.9-4.7c-0.6-0.9-1.5-1.4-2.6-1.4s-2.1,0.5-2.6,1.5C189.3,279.6,189,281.2,189,283.3z
	 M206.4,274.8c1.2,0,2.3,0.2,3.1,0.6c0.9,0.4,1.6,1,2,1.8c0.5,0.7,0.7,1.5,0.7,2.4c0,0.9-0.2,1.8-0.5,2.6c-0.4,0.8-1,1.8-2,2.8
	c-0.9,1-2.3,2.4-4.1,4h6.9l-0.4,3h-11v-2.8c2-2,3.5-3.5,4.5-4.6c0.9-1,1.6-1.9,2-2.6c0.4-0.7,0.6-1.4,0.6-2.1c0-0.7-0.2-1.2-0.6-1.6
	c-0.4-0.4-0.9-0.6-1.6-0.6c-0.6,0-1.1,0.1-1.6,0.4c-0.5,0.3-1,0.7-1.5,1.3l-2.3-1.9c0.7-0.9,1.5-1.6,2.5-2.1
	C204.1,275,205.2,274.8,206.4,274.8z"/>
</svg>
