<?xml version="1.0" encoding="UTF-8" standalone="no"?>
<svg
   xmlns:dc="http://purl.org/dc/elements/1.1/"
   xmlns:cc="http://creativecommons.org/ns#"
   xmlns:rdf="http://www.w3.org/1999/02/22-rdf-syntax-ns#"
   xmlns:svg="http://www.w3.org/2000/svg"
   xmlns="http://www.w3.org/2000/svg"
   xmlns:sodipodi="http://sodipodi.sourceforge.net/DTD/sodipodi-0.dtd"
   xmlns:inkscape="http://www.inkscape.org/namespaces/inkscape"
   version="1.1"
   width="180"
   height="84"
   id="svg22"
   viewBox="0 0 180 84"
   sodipodi:docname="shopstar.svg"
   inkscape:version="1.0.2 (e86c870879, 2021-01-15)">
  <metadata
     id="metadata28">
    <rdf:RDF>
      <cc:Work
         rdf:about="">
        <dc:format>image/svg+xml</dc:format>
        <dc:type
           rdf:resource="http://purl.org/dc/dcmitype/StillImage" />
        <dc:title></dc:title>
      </cc:Work>
    </rdf:RDF>
  </metadata>
  <defs
     id="defs26">
    <filter
       style="color-interpolation-filters:sRGB"
       inkscape:label="Greyscale"
       id="filter172">
      <feColorMatrix
         values="0.21 0.481928 0.120482 0 0 0.21 0.481928 0.120482 0 0 0.21 0.481928 0.120482 0 0 0 0 0 1 0 "
         id="feColorMatrix170"
         result="fbSourceGraphic" />
      <feColorMatrix
         result="fbSourceGraphicAlpha"
         in="fbSourceGraphic"
         values="0 0 0 -1 0 0 0 0 -1 0 0 0 0 -1 0 0 0 0 1 0"
         id="feColorMatrix174" />
      <feColorMatrix
         id="feColorMatrix176"
         values="0.21 0.481928 0.120482 0 0 0.21 0.481928 0.120482 0 0 0.21 0.481928 0.120482 0 0 0 0 0 1 0 "
         in="fbSourceGraphic" />
    </filter>
    <filter
       style="color-interpolation-filters:sRGB;"
       inkscape:label="Greyscale"
       id="filter285">
      <feColorMatrix
         values="0.21 0.481928 0.120482 0 0 0.21 0.481928 0.120482 0 0 0.21 0.481928 0.120482 0 0 0 0 0 1 0 "
         id="feColorMatrix283"
         result="fbSourceGraphic" />
      <feColorMatrix
         result="fbSourceGraphicAlpha"
         in="fbSourceGraphic"
         values="0 0 0 -1 0 0 0 0 -1 0 0 0 0 -1 0 0 0 0 1 0"
         id="feColorMatrix287" />
      <feColorMatrix
         id="feColorMatrix289"
         values="0.21 0.481928 0.120482 0 0 0.21 0.481928 0.120482 0 0 0.21 0.481928 0.120482 0 0 0 0 0 1 0 "
         in="fbSourceGraphic" />
    </filter>
    <filter
       style="color-interpolation-filters:sRGB;"
       inkscape:label="Greyscale"
       id="filter334">
      <feColorMatrix
         values="0.21 0.481928 -0.060241 0 0 0.21 0.481928 -0.060241 0 0 0.21 0.481928 -0.060241 0 0 0 0 0 1 0 "
         id="feColorMatrix332"
         result="fbSourceGraphic" />
      <feColorMatrix
         result="fbSourceGraphicAlpha"
         in="fbSourceGraphic"
         values="0 0 0 -1 0 0 0 0 -1 0 0 0 0 -1 0 0 0 0 1 0"
         id="feColorMatrix336" />
      <feColorMatrix
         id="feColorMatrix338"
         values="0.21 0.481928 -0.060241 0 0 0.21 0.481928 -0.060241 0 0 0.21 0.481928 -0.060241 0 0 0 0 0 1 0 "
         in="fbSourceGraphic"
         result="fbSourceGraphic" />
      <feColorMatrix
         result="fbSourceGraphicAlpha"
         in="fbSourceGraphic"
         values="0 0 0 -1 0 0 0 0 -1 0 0 0 0 -1 0 0 0 0 1 0"
         id="feColorMatrix348" />
      <feColorMatrix
         id="feColorMatrix350"
         values="0.21 0.481928 0.361446 0 0 0.21 0.481928 0.361446 0 0 0.21 0.481928 0.361446 0 0 0 0 0 1 0 "
         in="fbSourceGraphic"
         result="fbSourceGraphic" />
      <feColorMatrix
         result="fbSourceGraphicAlpha"
         in="fbSourceGraphic"
         values="0 0 0 -1 0 0 0 0 -1 0 0 0 0 -1 0 0 0 0 1 0"
         id="feColorMatrix352" />
      <feColorMatrix
         id="feColorMatrix354"
         values="0.21 0.481928 0.361446 0 0 0.21 0.481928 0.361446 0 0 0.21 0.481928 0.361446 0 0 0 0 0 1 0 "
         in="fbSourceGraphic" />
    </filter>
  </defs>
  <sodipodi:namedview
     pagecolor="#ffffff"
     bordercolor="#666666"
     borderopacity="1"
     objecttolerance="10"
     gridtolerance="10"
     guidetolerance="10"
     inkscape:pageopacity="0"
     inkscape:pageshadow="2"
     inkscape:window-width="1920"
     inkscape:window-height="1017"
     id="namedview24"
     showgrid="false"
     inkscape:zoom="4.0385334"
     inkscape:cx="133.65829"
     inkscape:cy="31.032609"
     inkscape:window-x="-8"
     inkscape:window-y="-8"
     inkscape:window-maximized="1"
     inkscape:current-layer="svg22" />
  <g
     style="fill:none;filter:url(#filter334)"
     id="g326"
     transform="matrix(0.87980572,0,0,0.87980572,6.5367086,23.874946)">
    <path
       d="M 0,27.6632 2.97855,24.972 c 0.59768,1.0164 1.4417,1.8654 2.45384,2.4681 1.01214,0.6027 2.1597,0.9397 3.3364,0.9798 2.18091,0 3.73381,-1.2613 3.73381,-2.8173 C 12.4795,25.0244 12.2831,24.4668 11.939,24.0022 11.5948,23.5375 11.119,23.1875 10.5734,22.9979 9.68426,22.5735 8.77413,22.1947 7.84661,21.8627 6.462,21.2746 5.49743,20.8537 4.99393,20.5589 3.91041,20.0855 2.99021,19.3027 2.34848,18.308 1.70675,17.3134 1.37197,16.1511 1.38598,14.9668 1.36804,14.0825 1.54699,13.2053 1.90981,12.399 2.27263,11.5927 2.81019,10.8776 3.48344,10.3056 5.07155,9.02631 7.06957,8.36904 9.10537,8.45616 10.534,8.38237 11.9587,8.66201 13.2539,9.2705 c 1.2952,0.60849 2.421,1.5272 3.278,2.6748 l -2.6857,2.8584 c -0.5759,-0.771 -1.3234,-1.3968 -2.1829,-1.8275 -0.8596,-0.4308 -1.80759,-0.6546 -2.76866,-0.6539 -1.88811,0 -3.02095,1.0967 -3.02095,2.4814 0.01524,0.5596 0.20578,1.1002 0.54464,1.5453 0.33886,0.4451 0.80883,0.772 1.34344,0.9346 l 2.30683,0.968 c 1.427,0.5882 2.4764,1.0501 3.1892,1.4299 1.1322,0.4687 2.1018,1.2607 2.7881,2.2775 0.6863,1.0167 1.059,2.2133 1.0716,3.4407 0.0069,0.9569 -0.2006,1.9031 -0.6072,2.7689 -0.4066,0.8658 -1.0019,1.6291 -1.742,2.2338 -1.7132,1.3963 -3.8781,2.1142 -6.08435,2.0179 C 6.94748,32.4588 5.23137,32.0397 3.70736,31.2048 2.18336,30.37 0.904925,29.1487 0,27.6632 Z"
       fill="#009fe3"
       id="path291" />
    <path
       d="M 21.2275,31.8679 V 0 h 4.4836 v 12.0644 c 0.8195,-1.1229 1.9034,-2.0253 3.1552,-2.62691 1.2518,-0.60158 2.6328,-0.88369 4.0197,-0.82103 1.1578,-0.02995 2.31,0.17014 3.3903,0.58874 1.0802,0.41861 2.067,1.0475 2.9034,1.8502 0.8944,0.9248 1.5845,2.0277 2.0256,3.2373 0.441,1.2096 0.6231,2.4986 0.5343,3.7833 V 31.8664 H 37.1247 V 19.3799 c 0,-4.1622 -2.1809,-6.475 -5.4126,-6.475 -3.4821,0 -5.8751,2.6485 -5.8751,6.516 V 31.865 Z"
       fill="#009fe3"
       id="path293" />
    <path
       d="m 49.1675,12.1068 c 1.1145,-1.1463 2.4544,-2.0483 3.9349,-2.64885 1.4804,-0.60059 3.0691,-0.88676 4.6656,-0.84028 1.5709,-0.02795 3.1314,0.26005 4.5892,0.84697 1.4579,0.58696 2.7835,1.46086 3.8984,2.57006 1.1148,1.1092 1.9964,2.4312 2.5925,3.8877 0.5961,1.4566 0.8946,3.0183 0.8779,4.5925 0.0355,1.5723 -0.2473,3.1354 -0.8314,4.5952 -0.5841,1.4597 -1.4575,2.7856 -2.5672,3.8977 -1.1067,1.1426 -2.4403,2.0398 -3.9147,2.6335 -1.4744,0.5937 -3.0567,0.8707 -4.6447,0.8132 -1.5937,0.054 -3.1811,-0.2246 -4.6617,-0.8179 -1.4805,-0.5933 -2.8218,-1.4885 -3.9388,-2.6288 -1.096,-1.1201 -1.9575,-2.4485 -2.5338,-3.907 -0.5764,-1.4585 -0.856,-3.0176 -0.8224,-4.5859 -0.0294,-1.5551 0.2525,-3.1003 0.8289,-4.5444 0.5764,-1.4442 1.4358,-2.7579 2.5273,-3.8637 z m 13.7613,3.0696 c -0.6447,-0.7305 -1.4401,-1.3118 -2.3312,-1.7038 -0.8911,-0.392 -1.8566,-0.5854 -2.8296,-0.5665 -0.978,-0.0145 -1.9478,0.1806 -2.8444,0.5721 -0.8967,0.3916 -1.6995,0.9706 -2.3548,1.6982 -1.3486,1.4579 -2.0978,3.3725 -2.0978,5.3604 0,1.9879 0.7492,3.9023 2.0978,5.3603 0.6635,0.7143 1.4689,1.2816 2.3643,1.6653 0.8954,0.3837 1.8611,0.5753 2.8349,0.5625 0.9688,0.017 1.93,-0.1728 2.8199,-0.5569 0.8898,-0.3842 1.6878,-0.9537 2.3409,-1.6709 1.3735,-1.4453 2.1396,-3.3645 2.1396,-5.3603 0,-1.9957 -0.7661,-3.9151 -2.1396,-5.3604 z"
       fill="#009fe3"
       id="path295" />
    <path
       d="m 94.1538,12.1082 c 2.0808,2.3134 3.2324,5.3172 3.2324,8.4314 0,3.1143 -1.1516,6.1179 -3.2324,8.4312 -1.0163,1.1214 -2.2621,2.0099 -3.6524,2.6047 -1.3903,0.5948 -2.8923,0.882 -4.4035,0.8419 -1.4872,0.0374 -2.962,-0.2785 -4.304,-0.9219 -1.3419,-0.6434 -2.5128,-1.5958 -3.4168,-2.7796 V 41.2024 H 73.7622 V 9.20871 h 4.6149 V 12.488 c 0.9022,-1.2046 2.0753,-2.179 3.424,-2.84384 1.3487,-0.66486 2.8349,-1.00147 4.3378,-0.98253 1.5052,-0.04002 3.0011,0.24745 4.3848,0.84245 1.3836,0.59502 2.6221,1.48342 3.6301,2.60412 z m -3.441,3.0271 c -0.6804,-0.7047 -1.4953,-1.2652 -2.3963,-1.6479 -0.9009,-0.3827 -1.8694,-0.58 -2.848,-0.58 -0.9786,0 -1.9471,0.1973 -2.8481,0.58 -0.9009,0.3827 -1.7158,0.9432 -2.3962,1.6479 -1.3161,1.4779 -2.0215,3.4021 -1.9729,5.3822 -0.0487,2.0053 0.6554,3.9559 1.9729,5.4661 0.6868,0.6935 1.5038,1.2438 2.4039,1.6195 0.9,0.3756 1.8654,0.5689 2.8404,0.5689 0.975,0 1.9404,-0.1933 2.8404,-0.5689 0.9001,-0.3757 1.7171,-0.926 2.4039,-1.6195 1.3468,-1.4954 2.0679,-3.4526 2.014,-5.4661 0.0536,-1.9884 -0.6689,-3.9192 -2.014,-5.3822 z"
       fill="#009fe3"
       id="path297" />
    <path
       d="m 99.7207,27.6632 2.9783,-2.6912 c 0.598,1.0164 1.442,1.8654 2.454,2.4681 1.012,0.6027 2.16,0.9397 3.336,0.9798 2.181,0 3.734,-1.2613 3.734,-2.8173 -0.023,-0.5784 -0.22,-1.1361 -0.564,-1.6008 -0.344,-0.4646 -0.82,-0.8145 -1.366,-1.0039 -0.89,-0.4245 -1.8,-0.8033 -2.728,-1.1352 -1.385,-0.5881 -2.35,-1.009 -2.853,-1.3038 -1.084,-0.4734 -2.004,-1.2562 -2.646,-2.2509 -0.641,-0.9946 -0.976,-2.1569 -0.962,-3.3412 -0.018,-0.8843 0.161,-1.7615 0.524,-2.5678 0.363,-0.8063 0.9,-1.5214 1.573,-2.0934 1.589,-1.27929 3.586,-1.93656 5.622,-1.84944 1.429,-0.07379 2.854,0.20585 4.149,0.81434 1.295,0.60849 2.421,1.5272 3.278,2.6748 l -2.686,2.8584 c -0.576,-0.7711 -1.323,-1.3969 -2.183,-1.8277 -0.859,-0.4308 -1.807,-0.6545 -2.768,-0.6537 -1.889,0 -3.021,1.0967 -3.021,2.4814 0.015,0.5596 0.205,1.1002 0.544,1.5453 0.339,0.4451 0.809,0.772 1.344,0.9347 l 2.307,0.9679 c 1.427,0.5882 2.476,1.0501 3.189,1.4299 1.132,0.4687 2.101,1.2607 2.788,2.2775 0.686,1.0167 1.059,2.2133 1.071,3.4407 0.007,0.9569 -0.2,1.9031 -0.607,2.7689 -0.406,0.8658 -1.002,1.6292 -1.742,2.2338 -1.713,1.3964 -3.878,2.1143 -6.084,2.0179 -1.736,0.0381 -3.452,-0.3813 -4.975,-1.2161 -1.524,-0.8349 -2.802,-2.0559 -3.7063,-3.541 z"
       fill="#009fe3"
       id="path299" />
    <path
       d="m 137.264,30.5224 c -1.819,1.3032 -4.016,1.9683 -6.251,1.892 -4.909,0 -7.427,-3.0696 -7.427,-8.6604 V 13.1593 h -3.902 V 9.20697 h 3.943 V 1.17725 h 4.574 V 9.20697 H 136 v 3.95233 h -7.799 v 10.6784 c 0,2.9009 1.175,4.3308 3.482,4.3308 1.417,-0.0586 2.793,-0.4938 3.987,-1.2612 z"
       fill="#009fe3"
       id="path301" />
    <path
       d="m 157.849,9.2071 h 4.441 v 22.6605 h -4.448 v -3.1079 c -0.925,1.1577 -2.101,2.0888 -3.439,2.7226 -1.337,0.6338 -2.802,0.9536 -4.282,0.935 -1.517,0.0402 -3.025,-0.2468 -4.423,-0.8414 -1.397,-0.5946 -2.65,-1.4831 -3.675,-2.6052 -2.14,-2.3317 -3.284,-5.4102 -3.188,-8.5766 -0.055,-1.5437 0.198,-3.0829 0.746,-4.5269 0.547,-1.444 1.378,-2.7635 2.442,-3.8811 1.043,-1.0897 2.303,-1.9483 3.698,-2.52044 1.395,-0.57214 2.894,-0.84523 4.4,-0.80145 1.485,-0.01963 2.954,0.3042 4.293,0.94621 1.339,0.64198 2.512,1.58498 3.428,2.75548 z m -1.846,16.7325 c 1.324,-1.4868 2.056,-3.4097 2.056,-5.4023 0,-1.9925 -0.732,-3.9153 -2.056,-5.4021 -0.68,-0.7049 -1.495,-1.2656 -2.396,-1.6484 -0.901,-0.3829 -1.87,-0.5802 -2.849,-0.5802 -0.978,0 -1.947,0.1973 -2.848,0.5802 -0.901,0.3828 -1.716,0.9435 -2.397,1.6484 -1.299,1.5071 -2.014,3.432 -2.014,5.4234 0,1.9914 0.715,3.9165 2.014,5.4235 0.665,0.7228 1.477,1.2925 2.383,1.67 0.905,0.3776 1.882,0.5538 2.861,0.5167 0.982,0.0246 1.957,-0.1614 2.861,-0.5459 0.904,-0.3846 1.715,-0.9585 2.378,-1.6833 z"
       fill="#009fe3"
       id="path303" />
    <path
       d="M 167.716,31.8662 V 9.20586 h 4.406 v 3.23674 c 0.574,-1.2014 1.489,-2.2057 2.632,-2.88664 1.142,-0.68089 2.46,-1.0079 3.787,-0.93968 0.909,-0.00732 1.814,0.12019 2.686,0.37838 l -0.42,4.49814 c -0.794,-0.2856 -1.632,-0.4281 -2.475,-0.4209 -3.524,0 -6.001,2.4389 -6.001,7.1892 v 11.6037 z"
       fill="#009fe3"
       id="path305" />
    <path
       d="m 184.788,31.0809 -1.532,0.8075 c -0.136,0.0744 -0.291,0.1086 -0.446,0.0985 -0.155,-0.01 -0.304,-0.0638 -0.429,-0.1553 -0.126,-0.0914 -0.223,-0.2166 -0.281,-0.3611 -0.057,-0.1446 -0.072,-0.3024 -0.044,-0.4554 l 0.293,-1.711 c 0.023,-0.1324 0.013,-0.2686 -0.028,-0.3964 -0.042,-0.1279 -0.114,-0.2436 -0.21,-0.3371 l -1.24,-1.2119 c -0.113,-0.107 -0.193,-0.2437 -0.231,-0.3945 -0.039,-0.1508 -0.034,-0.3094 0.014,-0.4574 0.048,-0.148 0.137,-0.2793 0.257,-0.3787 0.119,-0.0994 0.265,-0.1627 0.419,-0.1827 l 1.712,-0.2496 c 0.133,-0.0187 0.259,-0.0699 0.368,-0.1487 0.108,-0.0789 0.196,-0.1832 0.255,-0.3038 l 0.766,-1.556 c 0.067,-0.1406 0.172,-0.2593 0.303,-0.3424 0.131,-0.0832 0.283,-0.1274 0.439,-0.1274 0.155,0 0.307,0.0442 0.438,0.1274 0.132,0.0831 0.237,0.2018 0.303,0.3424 l 0.767,1.556 c 0.059,0.1206 0.146,0.2249 0.255,0.3038 0.108,0.0788 0.234,0.13 0.367,0.1487 l 1.713,0.2496 c 0.154,0.02 0.299,0.0833 0.419,0.1827 0.119,0.0994 0.208,0.2307 0.256,0.3787 0.048,0.148 0.053,0.3066 0.015,0.4574 -0.038,0.1508 -0.119,0.2875 -0.232,0.3945 l -1.239,1.2119 c -0.097,0.0935 -0.169,0.2092 -0.21,0.3371 -0.042,0.1278 -0.051,0.264 -0.028,0.3964 l 0.293,1.711 c 0.028,0.153 0.013,0.3108 -0.045,0.4554 -0.057,0.1445 -0.154,0.2697 -0.28,0.3611 -0.126,0.0915 -0.275,0.1453 -0.429,0.1553 -0.155,0.0101 -0.31,-0.0241 -0.446,-0.0985 l -1.533,-0.8075 c -0.118,-0.0629 -0.25,-0.0959 -0.384,-0.0959 -0.134,0 -0.266,0.033 -0.385,0.0959 z"
       fill="#4d008c"
       id="path307" />
  </g>
</svg>
