<?xml version="1.0" encoding="UTF-8" standalone="no"?>
<svg
   xmlns:dc="http://purl.org/dc/elements/1.1/"
   xmlns:cc="http://creativecommons.org/ns#"
   xmlns:rdf="http://www.w3.org/1999/02/22-rdf-syntax-ns#"
   xmlns:svg="http://www.w3.org/2000/svg"
   xmlns="http://www.w3.org/2000/svg"
   xmlns:sodipodi="http://sodipodi.sourceforge.net/DTD/sodipodi-0.dtd"
   xmlns:inkscape="http://www.inkscape.org/namespaces/inkscape"
   version="1.1"
   width="180"
   height="84"
   id="svg22"
   viewBox="0 0 180 84"
   sodipodi:docname="interbank-benefit.svg"
   inkscape:version="1.0.2 (e86c870879, 2021-01-15)">
  <metadata
     id="metadata28">
    <rdf:RDF>
      <cc:Work
         rdf:about="">
        <dc:format>image/svg+xml</dc:format>
        <dc:type
           rdf:resource="http://purl.org/dc/dcmitype/StillImage" />
        <dc:title></dc:title>
      </cc:Work>
    </rdf:RDF>
  </metadata>
  <defs
     id="defs26">
    <filter
       style="color-interpolation-filters:sRGB"
       inkscape:label="Greyscale"
       id="filter172">
      <feColorMatrix
         values="0.21 0.481928 0.120482 0 0 0.21 0.481928 0.120482 0 0 0.21 0.481928 0.120482 0 0 0 0 0 1 0 "
         id="feColorMatrix170"
         result="fbSourceGraphic" />
      <feColorMatrix
         result="fbSourceGraphicAlpha"
         in="fbSourceGraphic"
         values="0 0 0 -1 0 0 0 0 -1 0 0 0 0 -1 0 0 0 0 1 0"
         id="feColorMatrix174" />
      <feColorMatrix
         id="feColorMatrix176"
         values="0.21 0.481928 0.120482 0 0 0.21 0.481928 0.120482 0 0 0.21 0.481928 0.120482 0 0 0 0 0 1 0 "
         in="fbSourceGraphic" />
    </filter>
    <filter
       style="color-interpolation-filters:sRGB;"
       inkscape:label="Greyscale"
       id="filter285">
      <feColorMatrix
         values="0.21 0.481928 0.120482 0 0 0.21 0.481928 0.120482 0 0 0.21 0.481928 0.120482 0 0 0 0 0 1 0 "
         id="feColorMatrix283"
         result="fbSourceGraphic" />
      <feColorMatrix
         result="fbSourceGraphicAlpha"
         in="fbSourceGraphic"
         values="0 0 0 -1 0 0 0 0 -1 0 0 0 0 -1 0 0 0 0 1 0"
         id="feColorMatrix287" />
      <feColorMatrix
         id="feColorMatrix289"
         values="0.21 0.481928 0.120482 0 0 0.21 0.481928 0.120482 0 0 0.21 0.481928 0.120482 0 0 0 0 0 1 0 "
         in="fbSourceGraphic" />
    </filter>
  </defs>
  <sodipodi:namedview
     pagecolor="#ffffff"
     bordercolor="#666666"
     borderopacity="1"
     objecttolerance="10"
     gridtolerance="10"
     guidetolerance="10"
     inkscape:pageopacity="0"
     inkscape:pageshadow="2"
     inkscape:window-width="1920"
     inkscape:window-height="1017"
     id="namedview24"
     showgrid="false"
     inkscape:zoom="4.0385334"
     inkscape:cx="133.65829"
     inkscape:cy="31.032609"
     inkscape:window-x="-8"
     inkscape:window-y="-8"
     inkscape:window-maximized="1"
     inkscape:current-layer="svg22" />
  <g
     id="logo"
     style="fill:none;fill-rule:evenodd;stroke:none;stroke-width:1;filter:url(#filter285)"
     transform="matrix(1.1182872,0,0,1.1182872,2.2144548,28.580554)">
    <path
       d="M 96.090259,21.12668 V 10.581067 c -0.01947,-0.307495 0.08047,-0.6095278 0.274512,-0.8296175 0.194043,-0.2200897 0.463581,-0.3371318 0.740363,-0.3214888 h 3.932636 c 2.60396,0 4.00609,1.1733853 4.00609,3.3344933 0,1.388754 -0.74113,2.324491 -2.1032,2.762654 1.76936,0.438163 2.58393,1.64868 2.58393,3.156257 0,2.406183 -1.42216,3.601847 -4.54023,3.601847 h -3.899256 c -0.274621,0.0093 -0.539868,-0.111579 -0.729636,-0.332569 -0.189767,-0.220991 -0.28618,-0.521257 -0.265209,-0.825963 z m 4.800621,-6.097147 c 1.40213,0 2.19667,-0.794634 2.19667,-2.027431 0,-1.232797 -0.66768,-1.923461 -2.23005,-1.923461 h -2.884381 v 3.950892 z m 0.0735,5.599573 c 1.92292,0 2.62399,-0.608973 2.62399,-2.101697 0,-1.351621 -0.79455,-2.027431 -2.57058,-2.027431 h -3.044621 v 4.114274 z"
       id="Shape"
       fill="#3d48a0"
       fill-rule="nonzero" />
    <path
       d="m 113.14593,20.837096 c 1.2048,0.103059 2.36347,-0.476426 2.98004,-1.490405 0.0429,-0.04179 1.02908,0.125362 1.02908,0.912351 0,0.78699 -1.46501,2.026672 -4.052,2.026672 -3.00148,0 -5.00247,-1.880417 -5.00247,-4.673185 -0.0398,-1.268796 0.45884,-2.497471 1.37853,-3.396383 0.91968,-0.898912 2.17897,-1.388522 3.48101,-1.353413 1.23966,-0.06205 2.44751,0.394716 3.31976,1.255405 0.87224,0.86069 1.32587,2.043394 1.24679,3.250633 v 0.146254 c 0,0.396977 -0.14293,0.543232 -0.59315,0.543232 h -6.99632 c 0.10727,1.633495 1.54605,2.877106 3.22302,2.785804 z m 2.4798,-4.018521 c 0.0145,-0.693144 -0.26607,-1.361216 -0.77516,-1.845471 -0.50909,-0.484255 -1.2012,-0.741462 -1.91189,-0.710504 -1.52036,-0.01184 -2.80967,1.086098 -3.00148,2.555975 z"
       id="path183"
       fill="#3d48a0"
       fill-rule="nonzero" />
    <path
       d="m 123.40089,12.860846 c 2.43436,0 3.57179,1.645275 3.57179,3.907527 v 4.623787 c 0,0.70917 -0.36758,0.893554 -0.84614,0.893554 h -0.20806 c -0.49936,0 -0.84613,-0.205659 -0.84613,-0.893554 v -4.396853 c 0,-1.538899 -0.79065,-2.489186 -2.12921,-2.489186 -1.09477,-0.03698 -2.10832,0.588181 -2.58695,1.595632 v 5.290407 c 0,0.70917 -0.36758,0.893554 -0.84613,0.893554 h -0.27048 c -0.49936,0 -0.84614,-0.205659 -0.84614,-0.893554 v -8.190912 c 0.19502,-0.161051 0.44404,-0.23744 0.69355,-0.212751 0.55485,0 1.13049,0.283668 1.18598,1.482165 0.69714,-1.057179 1.8822,-1.667078 3.12792,-1.609816"
       id="Path"
       fill="#3d48a0"
       fill-rule="nonzero" />
    <path
       d="m 133.73609,20.837096 c 1.2048,0.103059 2.36347,-0.476426 2.98005,-1.490405 0.0429,-0.04179 1.02908,0.125362 1.02908,0.912351 0,0.78699 -1.46501,2.026672 -4.05201,2.026672 -3.00148,0 -5.00247,-1.880417 -5.00247,-4.673185 -0.0399,-1.268796 0.45885,-2.497471 1.37853,-3.396383 0.91968,-0.898912 2.17897,-1.388522 3.48102,-1.353413 1.23965,-0.06205 2.4475,0.394716 3.31975,1.255405 0.87225,0.86069 1.32588,2.043394 1.24679,3.250633 v 0.146254 c 0,0.396977 -0.14293,0.543232 -0.59315,0.543232 h -7.01061 c 0.10727,1.633495 1.54605,2.877106 3.22302,2.785804 z m 2.46551,-4.018521 c 0.0145,-0.693144 -0.26607,-1.361216 -0.77516,-1.845471 -0.50909,-0.484255 -1.2012,-0.741462 -1.91189,-0.710504 -1.52036,-0.01184 -2.80967,1.086098 -3.00148,2.555975 z"
       id="path186"
       fill="#3d48a0"
       fill-rule="nonzero" />
    <path
       d="m 139.82082,14.861637 c -0.60389,0 -0.83721,-0.233237 -0.83721,-0.685993 v -0.130338 c 0,-0.439036 0.23332,-0.685994 0.83721,-0.685994 h 1.06367 v -0.685993 c 0,-2.215758 1.0774,-3.2447476 2.9028,-3.2447476 1.40679,0 2.05872,0.5693744 2.05872,1.1936286 0.0159,0.328763 -0.16095,0.636744 -0.45292,0.788892 -0.37886,-0.334013 -0.86734,-0.517128 -1.37248,-0.514495 -0.9127,0 -1.31072,0.548794 -1.31072,1.797302 v 0.644834 h 1.53718 c 0.61075,0 0.83721,0.240097 0.83721,0.685993 v 0.123479 c 0,0.445895 -0.22646,0.685993 -0.83721,0.685993 h -1.49601 v 6.585534 c 0,0.685993 -0.32253,0.857492 -0.81662,0.857492 h -0.19215 c -0.23612,0.03586 -0.47518,-0.04315 -0.64338,-0.212652 -0.1682,-0.169496 -0.24532,-0.409096 -0.20756,-0.64484 v -6.558095 z"
       id="path188"
       fill="#3d48a0"
       fill-rule="nonzero" />
    <path
       d="m 146.70492,10.468356 c 0,-0.6870553 0.48103,-1.0305831 1.30904,-1.0305831 0.33263,-0.040214 0.66831,0.052706 0.9133,0.2528166 0.24499,0.2001102 0.37305,0.4859705 0.34843,0.7777665 0,0.687056 -0.45738,1.009972 -1.28539,1.009972 -0.82801,0 -1.28538,-0.364139 -1.28538,-1.009972 m 0.19714,10.951668 v -7.255308 c 0,-0.687056 0.41006,-0.886302 0.97784,-0.886302 h 0.22081 c 0.56777,0 0.96206,0.206117 0.96206,0.886302 v 7.255308 c 0,0.687056 -0.39429,0.86569 -0.96206,0.86569 h -0.22081 c -0.56778,0 -0.97784,-0.199246 -0.97784,-0.86569"
       id="path190"
       fill="#3d48a0"
       fill-rule="nonzero" />
    <path
       d="m 151.01767,14.8099 c -0.63673,0 -0.88106,-0.228783 -0.88106,-0.672891 v -0.12112 c 0,-0.43065 0.24433,-0.672891 0.88106,-0.672891 h 0.74039 v -1.345781 c -0.0422,-0.229629 0.038,-0.463841 0.2162,-0.631098 0.17819,-0.167258 0.43318,-0.247696 0.68707,-0.216744 h 0.20731 c 0.53308,0 0.88106,0.181681 0.88106,0.847842 v 1.345781 h 2.22116 c 0.63673,0 0.85885,0.215325 0.85885,0.672891 v 0.127849 c 0,0.450837 -0.24433,0.672891 -0.88106,0.672891 h -2.22116 v 4.380517 c 0,1.076625 0.34798,1.60148 1.31048,1.60148 0.54482,0.0091 1.06178,-0.218353 1.39193,-0.61233 0.0592,-0.05383 0.5701,0.195138 0.5701,0.753637 0,0.672891 -0.83664,1.345781 -2.2952,1.345781 -2.02126,0 -2.96155,-0.989149 -2.96155,-2.859785 v -4.575656 z"
       id="path192"
       fill="#3d48a0"
       fill-rule="nonzero" />
    <path
       d="m 104.90778,10.285714 -0.24111,-0.3965882 c 0,0 0.22429,-0.1727079 0.63923,-0.4605544 l 0.21869,0.4157783 c -0.40373,0.2750533 -0.61681,0.4413643 -0.61681,0.4413643"
       id="path194"
       fill="#77bc1f"
       fill-rule="nonzero" />
    <path
       d="m 108.35079,9.4285714 -0.25243,-0.424551 c 0.50486,-0.2508711 1.03776,-0.5081748 1.57767,-0.7526133 l 0.23841,0.4374163 c -0.53992,0.2444385 -1.06581,0.4953095 -1.56365,0.739748 z m 3.15534,-1.4344679 -0.22438,-0.4438489 c 0.53992,-0.2251407 1.08684,-0.4438488 1.63377,-0.6432592 l 0.20334,0.4502815 c -0.53991,0.2058429 -1.08684,0.424551 -1.61273,0.6432591 z m 3.2465,-1.2800858 -0.18932,-0.4502814 c 0.55394,-0.1994104 1.11489,-0.3859555 1.66883,-0.5660681 l 0.17529,0.456714 c -0.54692,0.1801126 -1.10787,0.3666577 -1.6548,0.5596355 z m 3.3657,-1.0485125 -0.16127,-0.4631466 c 0.56095,-0.1672474 1.13592,-0.3216296 1.69687,-0.4760118 l 0.14725,0.4695792 c -0.56095,0.1479496 -1.12891,0.3087644 -1.68285,0.4695792 z m 3.38674,-0.8941302 -0.13323,-0.4695792 c 0.57497,-0.1415171 1.15696,-0.2701689 1.72492,-0.3859555 l 0.1192,0.4760117 c -0.56796,0.1157867 -1.14293,0.2444385 -1.71089,0.379523 z m 3.43581,-0.7140177 -0.0982,-0.4760118 c 0.57497,-0.1093541 1.16397,-0.2058429 1.74595,-0.2958992 l 0.0912,0.4824444 c -0.58199,0.090056 -1.16397,0.1865451 -1.73895,0.2894666 z m 3.50594,-0.5274725 -0.0701,-0.4824444 c 0.589,-0.077191 1.178,-0.1415171 1.76699,-0.1929778 l 0.0561,0.4824444 c -0.58199,0.051461 -1.17098,0.1222192 -1.75297,0.1929778 z M 131.95276,3.19539 V 2.706513 c 0.589,-0.038596 1.185,-0.070759 1.774,-0.096489 v 0.488877 c -0.58198,0 -1.17098,0.051461 -1.75998,0.096489 z m 5.29396,-0.1350845 c -0.58899,0 -1.17799,0 -1.75998,0 V 2.5714286 c 0.589,0 1.178,0 1.78102,0 z"
       id="path196"
       fill="#00a94f"
       fill-rule="nonzero" />
    <polygon
       id="polygon198"
       fill="#77bc1f"
       fill-rule="nonzero"
       points="139.82863,2.5028571 138.98361,2.4342857 138.98361,1.7828571 139.84153,1.8514286 " />
    <path
       d="m 136.34156,0.89139095 c 0.52839,0.31843595 1.03967,0.66589115 1.53161,1.04085285 2.46517,-0.2321327 1.91087,-0.1722275 2.91736,-0.3070142 -1.02108,-1.49762993 -1.05025,-1.49762993 -0.9919,-1.57999958 0.0188,-0.03046937 0.0525,-0.04775951 0.0875,-0.0449288991 0.99192,0.1347866991 0.51056,-0.0449289009 2.91737,1.3478669791 l 3.4279,-0.46426531 c 0.66369,-0.0599052 2.18801,0.25459711 2.18801,0.80872021 v 0 c 0.0511,0.5541231 -1.35657,1.1456869 -2.02027,1.2055921 l -2.91735,0.2845497 c -2.23178,2.7556391 -2.51622,3.3696674 -2.77878,3.452037 -0.67829,0.2096682 -0.72934,0.2620853 -0.80227,0.1946919 -0.0729,-0.067393 0.34278,-0.651469 1.16694,-3.4145963 -1.11263,0.1239212 -2.23504,0.1239212 -3.34767,0 -0.36805,-0.031173 -0.70781,-0.2150552 -0.94084,-0.5091942 l -1.21071,-1.93943076 c -0.0187,-0.0265612 -0.0218,-0.0614484 -0.008,-0.0910507 0.0137,-0.0296023 0.0419,-0.0492294 0.0738,-0.0512241 z"
       id="path200"
       fill="#00a94f"
       fill-rule="nonzero" />
    <path
       d="m 46.122534,11.970387 c -2.663871,0 -4.543036,2.061532 -4.54992,5.393971 -0.01864,1.307326 0.455514,2.567291 1.314832,3.493903 0.859318,0.926612 2.030914,1.441276 3.248855,1.427171 1.376677,0 2.223334,-0.22167 2.753355,-0.66501 V 19.93573 c -0.717519,0.346961 -1.498572,0.516161 -2.285285,0.495063 -1.424861,0 -2.567504,-0.834957 -2.753355,-2.172366 v -0.118224 h 1.658896 c 1.1388,0.08102 2.280772,-0.09518 3.35221,-0.51723 0.665996,-0.319867 1.067621,-1.060214 0.998092,-1.839861 -0.0011,-1.038007 -0.39574,-2.030821 -1.092995,-2.750022 -0.697255,-0.719201 -1.63713,-1.102858 -2.603385,-1.062703 z m 1.115109,4.3669 c -0.730525,0.197939 -1.48489,0.27518 -2.237101,0.229059 h -1.204593 v -0.110835 -0.339894 c 0.01074,-1.22555 0.923661,-2.221866 2.065016,-2.253645 0.487926,-0.02959 0.971455,0.11315 1.376678,0.406395 0.348757,0.291494 0.545919,0.745018 0.530021,1.219185 0.01875,0.404115 -0.237463,0.763532 -0.605738,0.849735 z m 3.689496,-0.51723 v 6.295428 h 2.17515 v -5.844699 c -0.04064,-0.613235 0.120103,-1.222379 0.454304,-1.721637 0.331779,-0.378263 0.804426,-0.576325 1.287194,-0.539397 0.200571,3.99e-4 0.400804,0.01769 0.598854,0.05172 v -1.817694 c -0.346795,-0.172432 -0.7262,-0.25591 -1.108225,-0.243837 -2.436719,0 -3.39351,1.862028 -3.400394,3.857058 z m -28.621128,6.295428 h 2.175151 V 9.4285714 h -2.175151 z m 8.039797,-10.145098 c -2.897906,0 -4.16445,2.135422 -4.171333,4.226509 v 5.9112 h 2.161384 v -5.741253 c -0.03072,-0.624603 0.147492,-1.240431 0.502487,-1.736415 0.326334,-0.414112 0.809568,-0.647676 1.314727,-0.635454 0.558273,-0.04062 1.104045,0.18993 1.486812,0.628065 0.390053,0.55184 0.578574,1.237787 0.530021,1.928529 v 5.563917 h 2.161384 v -5.778198 c 0.07388,-1.165071 -0.319299,-2.308548 -1.080601,-3.142709 -0.761303,-0.834161 -1.818247,-1.279584 -2.904881,-1.224191 z M 38.15157,9.4285714 h -2.147617 v 9.1549716 c 0,2.327535 1.101342,3.6945 3.441694,3.6945 0.998092,0 1.596946,-0.347283 1.844748,-0.901458 v -1.4778 c -0.49881,0.200841 -1.030306,0.291323 -1.562529,0.266004 -0.433912,0.03389 -0.861096,-0.129689 -1.177059,-0.450729 -0.311205,-0.416641 -0.46151,-0.945642 -0.419887,-1.4778 v -4.28562 h 1.892932 c 0.915491,0 1.30096,-0.628065 1.30096,-1.093573 v -0.88668 H 38.15157 Z m 41.100711,2.5418156 c -2.90479,0 -4.16445,2.135422 -4.178217,4.226509 v 5.9112 h 2.154501 v -5.741253 c -0.03072,-0.624603 0.147492,-1.240431 0.502487,-1.736415 0.324464,-0.416768 0.808955,-0.650939 1.314727,-0.635454 0.558273,-0.04062 1.104045,0.18993 1.486812,0.628065 0.387606,0.552865 0.573652,1.238717 0.523138,1.928529 v 5.563917 h 2.1545 v -5.785587 c 0.07183,-1.163834 -0.322266,-2.305288 -1.083325,-3.137771 -0.761059,-0.832482 -1.816802,-1.276925 -2.902157,-1.22174 z m -18.062011,0 c -0.993644,0.01516 -1.911822,0.572011 -2.436719,1.477801 l -0.172085,0.273393 V 9.4285714 h -2.1132 v 7.8618966 c 0,3.339828 1.872282,4.994964 4.302118,4.994964 2.753355,0 4.522386,-2.342313 4.522386,-5.334858 0,-2.992545 -1.769031,-4.980187 -4.074966,-4.980187 z m -0.178968,8.342182 v 0 c -0.669428,0.04705 -1.321812,-0.239063 -1.76903,-0.775845 -0.472005,-0.768045 -0.690159,-1.683945 -0.619505,-2.600928 0,-1.618191 0.908607,-2.9556 2.147617,-2.9556 0.647813,-0.05698 1.282812,0.216769 1.713963,0.7389 0.470706,0.776484 0.684086,1.70051 0.605739,2.623095 0,1.669914 -0.846657,2.9556 -2.065017,2.9556 z m 8.741903,-8.356959 c -0.997512,-0.0561 -1.982413,0.259768 -2.787772,0.894069 v 1.610802 c 0.761024,-0.387173 1.594636,-0.581814 2.436719,-0.568953 0.589505,-0.0548 1.179999,0.09267 1.686431,0.421173 0.393061,0.393565 0.5896,0.963474 0.530021,1.536912 v 0.236448 h -0.922375 c -3.441694,0 -4.611869,1.33002 -4.611869,3.066435 0,1.736415 1.479928,3.10338 3.696379,3.10338 h 0.474954 c 2.065016,0 3.482994,-1.433466 3.489877,-3.517164 v -2.297979 c 0,-3.54672 -1.913581,-4.4334 -3.992365,-4.470346 z m 1.886049,6.827436 c 0.0354,0.456973 -0.112319,0.908481 -0.40612,1.241352 -0.333437,0.306649 -0.766877,0.458197 -1.204593,0.421173 v 0 c -0.446276,0.02613 -0.889027,-0.09786 -1.266543,-0.354672 -0.304788,-0.227988 -0.481034,-0.606371 -0.468071,-1.004904 -0.02505,-0.425952 0.181493,-0.82907 0.530021,-1.03446 0.588325,-0.278095 1.231135,-0.397328 1.872281,-0.347283 h 0.943025 z"
       id="path202"
       fill="#00a94f"
       fill-rule="nonzero" />
    <path
       d="m 88.725069,16.922705 -0.04976,-0.07487 0.04976,-0.05989 c 1.221275,-1.598093 2.521445,-3.127479 3.895129,-4.581828 h -1.236774 c -0.680849,-0.07916 -1.3613,0.152472 -1.869378,0.636364 -1.090536,1.159768 -2.088985,2.411734 -2.985318,3.743324 l -0.184805,0.247059 V 9.4285714 h -2.26742 V 22.230738 h 2.253204 v -5.240653 l 0.184805,0.254546 c 1.043748,1.5312 2.181048,2.989189 3.404684,4.364715 0.409397,0.415742 0.952534,0.653662 1.521091,0.666312 0.454766,0.05576 0.907193,-0.122594 1.215451,-0.479146 -0.618388,-0.748664 -3.184339,-3.937976 -3.944885,-4.91124"
       id="path204"
       fill="#00a94f"
       fill-rule="nonzero" />
    <path
       d="M 2.1774163,7.7142857 C 1.5981681,7.7160467 1.0433452,7.9475397 0.63500369,8.3578383 0.22666215,8.768137 -0.00174842,9.3236313 1.0079018e-5,9.9021175 V 24 H 14.12313 c 0.579248,-0.0018 1.134071,-0.233254 1.542413,-0.643553 0.408341,-0.410298 0.636752,-0.965793 0.634993,-1.544279 V 7.7142857 Z M 12.511724,19.484688 3.7888225,21.054074 v -8.771276 l 8.6962665,-1.582687 z"
       id="path206"
       fill="#3d48a0" />
  </g>
</svg>
