<?xml version="1.0" encoding="UTF-8" standalone="no"?>
<svg
   xmlns:dc="http://purl.org/dc/elements/1.1/"
   xmlns:cc="http://creativecommons.org/ns#"
   xmlns:rdf="http://www.w3.org/1999/02/22-rdf-syntax-ns#"
   xmlns:svg="http://www.w3.org/2000/svg"
   xmlns="http://www.w3.org/2000/svg"
   xmlns:sodipodi="http://sodipodi.sourceforge.net/DTD/sodipodi-0.dtd"
   xmlns:inkscape="http://www.inkscape.org/namespaces/inkscape"
   version="1.1"
   width="140"
   height="84"
   id="svg22"
   viewBox="0 0 140 84"
   sodipodi:docname="auna.svg"
   inkscape:version="1.0.2 (e86c870879, 2021-01-15)">
  <metadata
     id="metadata28">
    <rdf:RDF>
      <cc:Work
         rdf:about="">
        <dc:format>image/svg+xml</dc:format>
        <dc:type
           rdf:resource="http://purl.org/dc/dcmitype/StillImage" />
        <dc:title></dc:title>
      </cc:Work>
    </rdf:RDF>
  </metadata>
  <defs
     id="defs26">
    <filter
       style="color-interpolation-filters:sRGB;"
       inkscape:label="Greyscale"
       id="filter172">
      <feColorMatrix
         values="0.21 0.481928 0.120482 0 0 0.21 0.481928 0.120482 0 0 0.21 0.481928 0.120482 0 0 0 0 0 1 0 "
         id="feColorMatrix170"
         result="fbSourceGraphic" />
      <feColorMatrix
         result="fbSourceGraphicAlpha"
         in="fbSourceGraphic"
         values="0 0 0 -1 0 0 0 0 -1 0 0 0 0 -1 0 0 0 0 1 0"
         id="feColorMatrix174" />
      <feColorMatrix
         id="feColorMatrix176"
         values="0.21 0.481928 0.120482 0 0 0.21 0.481928 0.120482 0 0 0.21 0.481928 0.120482 0 0 0 0 0 1 0 "
         in="fbSourceGraphic" />
    </filter>
  </defs>
  <sodipodi:namedview
     pagecolor="#ffffff"
     bordercolor="#666666"
     borderopacity="1"
     objecttolerance="10"
     gridtolerance="10"
     guidetolerance="10"
     inkscape:pageopacity="0"
     inkscape:pageshadow="2"
     inkscape:window-width="1920"
     inkscape:window-height="1017"
     id="namedview24"
     showgrid="false"
     inkscape:zoom="4.0385334"
     inkscape:cx="109.80618"
     inkscape:cy="61.032609"
     inkscape:window-x="-8"
     inkscape:window-y="-8"
     inkscape:window-maximized="1"
     inkscape:current-layer="svg22" />
  <g
     id="g44"
     transform="matrix(0.30046152,0,0,0.30046152,-19.42872,-84.4777)"
     style="filter:url(#filter172)">
    <path
       d="m 326.6897,411.9832 h 18.263 c 1.4002,-10.4956 8.1782,-13.5717 14.9404,-13.5717 14.3045,0 14.3045,11.7776 14.3045,17.9219 v 49.5463 h 26.6967 V 412.241 c 0,-12.2887 -1.0232,-18.693 -8.0454,-27.6512 -7.9182,-9.9869 -20.6908,-11.2689 -26.1778,-11.2689 -6.3863,0 -16.3439,0.8982 -22.0988,10.3685 v -7.5512 h -35.6267 v 18.5624 c 0,9.5986 8.1658,17.2826 17.7441,17.2826 z"
       style="fill:#01b7cf;fill-rule:evenodd"
       id="path10" />
    <path
       d="m 273.051,430.0312 h -18.2641 c -1.4069,10.5025 -8.042,13.5673 -14.9404,13.5673 -14.3045,0 -14.3045,-11.7743 -14.3045,-17.9186 v -49.5417 h -26.565 v 53.6387 c 0,12.2942 0.8959,18.6907 7.9216,27.6534 7.9181,9.9869 20.8146,11.2621 26.3061,11.2621 6.2625,0 16.2235,-0.8914 21.9739,-10.3707 v 7.558 h 35.6312 v -18.568 c 0,-9.6009 -8.0454,-17.2805 -17.7588,-17.2805 z"
       style="fill:#01b7cf;fill-rule:evenodd"
       id="path12" />
    <path
       d="m 484.7942,376.1382 v 9.6008 h -0.3804 c -3.183,-5.5061 -11.3567,-12.6736 -26.0495,-12.6736 -23.7579,0 -44.8325,18.4341 -44.8325,47.8782 0,25.5982 16.6073,47.8805 44.8325,47.8805 10.4698,0 21.5833,-3.9687 26.0495,-12.7974 h 0.3804 v 9.7202 h 26.6967 v -89.6087 z m -22.3464,67.7237 v 0 c -16.084,0 -22.2148,-14.2167 -22.2148,-22.6639 0,-10.2413 6.7622,-23.0409 22.0864,-23.0409 15.0766,0 22.4748,11.9059 22.4748,22.7865 0,8.7016 -5.6108,22.9183 -22.3464,22.9183 z"
       style="fill:#01b7cf;fill-rule:evenodd"
       id="path14" />
    <path
       d="m 155.0438,376.1382 v 9.6008 H 154.66 c -3.1909,-5.5061 -11.3657,-12.6736 -25.9301,-12.6736 -23.8739,0 -44.9451,18.4341 -44.9451,47.8782 0,25.5982 16.604,47.8805 44.9451,47.8805 10.3504,0 21.4674,-3.9687 25.9301,-12.7974 h 0.3838 v 9.7202 h 26.6899 v -89.6087 z m -22.3509,67.7237 v 0 c -16.0919,0 -22.226,-14.2167 -22.226,-22.6639 0,-10.2413 6.7746,-23.0409 22.0988,-23.0409 15.0721,0 22.4781,11.9059 22.4781,22.7865 0,8.7016 -5.6153,22.9183 -22.3509,22.9183 z"
       style="fill:#01b7cf;fill-rule:evenodd"
       id="path16" />
    <path
       d="m 326.8248,430.0312 c -9.8339,0 -17.8792,8.0634 -17.8792,17.9276 v 17.9209 h 35.6267 v -35.8485 z"
       style="fill:#c2d625;fill-rule:evenodd"
       id="path18" />
    <path
       d="m 255.1786,411.9832 v -35.845 h 35.6312 v 17.9242 c 0,9.8575 -7.9216,17.9208 -17.8792,17.9208 z"
       style="fill:#c2d625;fill-rule:evenodd"
       id="path20" />
  </g>
</svg>
