<?xml version="1.0" encoding="UTF-8" standalone="no"?>
<svg
   xmlns:dc="http://purl.org/dc/elements/1.1/"
   xmlns:cc="http://creativecommons.org/ns#"
   xmlns:rdf="http://www.w3.org/1999/02/22-rdf-syntax-ns#"
   xmlns:svg="http://www.w3.org/2000/svg"
   xmlns="http://www.w3.org/2000/svg"
   xmlns:sodipodi="http://sodipodi.sourceforge.net/DTD/sodipodi-0.dtd"
   xmlns:inkscape="http://www.inkscape.org/namespaces/inkscape"
   version="1.1"
   id="Capa_1"
   x="0px"
   y="0px"
   viewBox="0 0 730 730"
   style="enable-background:new 0 0 730 730;"
   xml:space="preserve"
   sodipodi:docname="compromiso_make.svg"
   inkscape:version="1.0.2 (e86c870879, 2021-01-15)"><metadata
   id="metadata208"><rdf:RDF><cc:Work
       rdf:about=""><dc:format>image/svg+xml</dc:format><dc:type
         rdf:resource="http://purl.org/dc/dcmitype/StillImage" /></cc:Work></rdf:RDF></metadata><defs
   id="defs206" /><sodipodi:namedview
   pagecolor="#ffffff"
   bordercolor="#666666"
   borderopacity="1"
   objecttolerance="10"
   gridtolerance="10"
   guidetolerance="10"
   inkscape:pageopacity="0"
   inkscape:pageshadow="2"
   inkscape:window-width="1920"
   inkscape:window-height="1017"
   id="namedview204"
   showgrid="false"
   inkscape:zoom="1.1643836"
   inkscape:cx="364.03704"
   inkscape:cy="561.04548"
   inkscape:window-x="-8"
   inkscape:window-y="-8"
   inkscape:window-maximized="1"
   inkscape:current-layer="Capa_1" />
<style
   type="text/css"
   id="style133">
	.st0{fill:#634090;}
	.st1{fill:#EE9B10;}
</style>
<g
   id="g201"
   transform="matrix(1.3534781,0,0,1.3534781,-129.10513,-129.01951)">
	<g
   id="g145">
		<g
   id="g143">
			<path
   class="st0"
   d="m 305.9,490.6 c -108.7,0 -197.1,-88.4 -197.1,-197.1 0,-108.7 88.4,-197.1 197.1,-197.1 39.5,0 77.6,11.6 110.2,33.7 2.9,2 4.9,5 5.6,8.5 0.7,3.5 0,7 -2,10 -2.5,3.7 -6.6,5.9 -11,5.9 -2.7,0 -5.2,-0.8 -7.4,-2.3 C 373,133.1 340,123 305.9,123 c -94,0 -170.5,76.5 -170.5,170.5 0,94 76.5,170.5 170.5,170.5 7.3,0 13.3,6 13.3,13.3 0,7.3 -6,13.3 -13.3,13.3 z"
   id="path135" />
			<path
   class="st0"
   d="m 305.9,487.8 c -107.1,0 -194.3,-87.1 -194.3,-194.3 0,-107.2 87.2,-194.3 194.3,-194.3 38.9,0 76.5,11.5 108.6,33.2 2.3,1.6 3.9,3.9 4.4,6.7 0.5,2.7 0,5.5 -1.6,7.8 -1.9,2.9 -5.2,4.6 -8.7,4.6 v 0 c -2.1,0 -4.1,-0.6 -5.8,-1.8 -28.7,-19.4 -62.2,-29.6 -96.9,-29.6 -95.6,0 -173.4,77.8 -173.4,173.4 0,95.6 77.8,173.4 173.4,173.4 5.8,0 10.5,4.7 10.5,10.5 -0.1,5.7 -4.8,10.4 -10.5,10.4 z"
   id="path137" />
			<path
   class="st0"
   d="m 305.9,487.8 c -107.1,0 -194.3,-87.1 -194.3,-194.3 0,-107.2 87.2,-194.3 194.3,-194.3 38.9,0 76.5,11.5 108.6,33.2 4.8,3.2 6,9.7 2.8,14.5 -1.9,2.9 -5.2,4.6 -8.7,4.6 0,0 0,0 0,0 -2.1,0 -4.1,-0.6 -5.8,-1.8 -28.7,-19.4 -62.2,-29.6 -96.9,-29.6 -95.6,0 -173.4,77.8 -173.4,173.4 0,95.6 77.8,173.4 173.4,173.4 5.8,0 10.5,4.7 10.5,10.5 0,5.8 -4.8,10.4 -10.5,10.4 z"
   id="path139" />
			<path
   class="st0"
   d="m 412.9,134.8 c -31.7,-21.4 -68.7,-32.7 -107,-32.7 -105.6,0 -191.4,85.9 -191.4,191.4 0,105.5 85.9,191.4 191.4,191.4 4.2,0 7.6,-3.4 7.6,-7.6 0,-4.2 -3.4,-7.6 -7.6,-7.6 -97.2,0 -176.2,-79 -176.2,-176.2 0,-97.2 79,-176.2 176.2,-176.2 35.3,0 69.4,10.4 98.5,30.1 3.5,2.4 8.2,1.4 10.6,-2 2.3,-3.5 1.4,-8.3 -2.1,-10.6 z"
   id="path141" />
		</g>
	</g>
	<g
   id="g157">
		<g
   id="g155">
			<path
   class="st0"
   d="m 341.9,487.1 c -6.3,0 -11.8,-4.5 -13,-10.7 -0.7,-3.5 0,-7 2,-10 2,-3 5,-5 8.5,-5.6 22.1,-4.4 42.8,-13 61.6,-25.6 2.2,-1.5 4.8,-2.3 7.4,-2.3 4.4,0 8.6,2.2 11,5.9 4.1,6.1 2.5,14.4 -3.6,18.4 -21.7,14.6 -45.7,24.6 -71.3,29.7 -0.9,0.1 -1.7,0.2 -2.6,0.2 z"
   id="path147" />
			<path
   class="st0"
   d="m 341.9,484.2 c -5,0 -9.3,-3.5 -10.2,-8.4 -0.5,-2.7 0,-5.5 1.6,-7.8 1.6,-2.3 3.9,-3.9 6.7,-4.4 22.5,-4.5 43.6,-13.2 62.6,-26.1 1.7,-1.2 3.7,-1.8 5.8,-1.8 3.5,0 6.7,1.7 8.7,4.6 3.2,4.8 1.9,11.3 -2.8,14.5 -21.4,14.4 -45,24.2 -70.2,29.2 -0.8,0.2 -1.5,0.2 -2.2,0.2 z"
   id="path149" />
			<path
   class="st0"
   d="m 341.9,484.2 c -5,0 -9.3,-3.5 -10.2,-8.4 -0.5,-2.7 0,-5.5 1.6,-7.8 1.6,-2.3 3.9,-3.9 6.7,-4.4 22.5,-4.5 43.6,-13.2 62.6,-26.1 1.7,-1.2 3.7,-1.8 5.8,-1.8 3.5,0 6.7,1.7 8.7,4.6 1.6,2.3 2.1,5.1 1.6,7.8 -0.5,2.7 -2.1,5.1 -4.4,6.7 -21.4,14.4 -45,24.2 -70.2,29.2 -0.8,0.2 -1.5,0.2 -2.2,0.2 z"
   id="path151" />
			<path
   class="st0"
   d="m 414.7,441.9 c -2.4,-3.5 -7.1,-4.4 -10.6,-2.1 -19.4,13 -40.8,22 -63.7,26.5 -4.1,0.8 -6.8,4.8 -6,9 0.7,3.6 3.9,6.1 7.5,6.1 0.5,0 1,0 1.5,-0.1 24.8,-4.9 48.1,-14.6 69.2,-28.8 3.5,-2.4 4.4,-7.1 2.1,-10.6 z"
   id="path153" />
		</g>
	</g>
	<g
   id="g169">
		<g
   id="g167">
			<path
   class="st0"
   d="m 303.5,445.9 c -40.3,-0.3 -78.1,-16.2 -106.6,-44.6 -28.8,-28.8 -44.6,-67.1 -44.6,-107.8 0,-40.7 15.9,-79 44.6,-107.8 28.5,-28.5 66.3,-44.3 106.6,-44.6 h 1.1 c 39.9,0 77.5,15.2 106.1,42.9 2.4,2.3 3.8,5.5 3.8,8.8 0.1,3.4 -1.2,6.5 -3.5,8.9 -2.4,2.5 -5.6,3.8 -9,3.8 -3.3,0 -6.4,-1.3 -8.7,-3.5 -23.8,-23.1 -55.3,-35.8 -88.5,-35.8 h -0.9 c -33.6,0.3 -65.2,13.5 -89,37.3 -24,24 -37.3,56 -37.3,90 0,34 13.2,65.9 37.3,90 23.8,23.8 55.4,37 89,37.3 h 1 c 33.2,0 64.6,-12.7 88.5,-35.8 2.4,-2.3 5.5,-3.5 8.7,-3.5 3.4,0 6.6,1.4 9,3.8 2.3,2.4 3.6,5.6 3.5,8.9 -0.1,3.4 -1.4,6.5 -3.8,8.8 -28.6,27.7 -66.2,42.9 -106,42.9 z"
   id="path159" />
			<path
   class="st0"
   d="M 303.5,443.2 C 263.9,442.9 226.7,427.3 198.8,399.4 170.5,371.1 155,333.5 155,293.5 c 0,-40 15.6,-77.6 43.8,-105.9 28,-28 65.2,-43.5 104.7,-43.8 h 1.1 c 39.1,0 76.2,15 104.2,42.1 1.9,1.8 3,4.3 3,6.9 0,2.6 -0.9,5.1 -2.8,7 -1.9,1.9 -4.4,3 -7.1,3 -2.6,0 -5,-1 -6.9,-2.8 -24.3,-23.6 -56.5,-36.6 -90.4,-36.6 h -0.9 c -34.3,0.3 -66.6,13.8 -90.9,38 -24.5,24.5 -38.1,57.2 -38.1,91.9 0,34.7 13.5,67.3 38.1,91.9 24.3,24.3 56.6,37.8 90.9,38.1 h 1 c 33.9,0 66,-13 90.4,-36.6 1.9,-1.8 4.3,-2.8 6.9,-2.8 2.7,0 5.2,1.1 7.1,3 1.8,1.9 2.8,4.4 2.8,7 0,2.6 -1.1,5.1 -3,6.9 -28.1,27.2 -65,42.2 -104.1,42.2 z"
   id="path161" />
			<path
   class="st0"
   d="M 303.5,443.2 C 263.9,442.9 226.7,427.3 198.8,399.4 170.5,371.1 155,333.5 155,293.5 c 0,-40 15.6,-77.6 43.9,-105.9 28,-28 65.2,-43.5 104.7,-43.8 h 1.1 c 39.1,0 76.2,15 104.2,42.1 1.9,1.8 3,4.3 3,6.9 0,2.6 -0.9,5.1 -2.8,7 -1.9,1.9 -4.4,3 -7.1,3 -2.6,0 -5,-1 -6.9,-2.8 -24.3,-23.6 -56.5,-36.6 -90.4,-36.6 h -0.9 c -34.3,0.3 -66.6,13.8 -90.9,38 -24.5,24.5 -38.1,57.2 -38.1,91.9 0,34.7 13.5,67.3 38.1,91.9 24.3,24.3 56.6,37.8 90.9,38.1 h 1 c 33.9,0 66,-13 90.4,-36.6 1.9,-1.8 4.3,-2.8 6.9,-2.8 2.7,0 5.2,1.1 7.1,3 1.8,1.9 2.8,4.4 2.8,7 0,2.6 -1.1,5.1 -3,6.9 C 380.9,428 344,443 304.9,443 Z"
   id="path163" />
			<path
   class="st0"
   d="m 407.1,388.9 c -2.8,-2.9 -7.3,-2.9 -10.2,-0.2 -24.9,24.1 -57.6,37.3 -92.2,37.3 -0.3,0 -0.7,0 -1,0 -35,-0.3 -68,-14.1 -92.8,-38.8 -25,-25 -38.8,-58.3 -38.8,-93.8 0,-35.4 13.8,-68.7 38.8,-93.8 24.8,-24.8 57.7,-38.6 92.8,-38.8 35,-0.2 68.1,13 93.2,37.3 2.9,2.8 7.4,2.7 10.2,-0.2 2.8,-2.9 2.7,-7.4 -0.2,-10.2 -27.8,-27 -64.5,-41.7 -103.4,-41.4 -38.9,0.3 -75.4,15.6 -102.9,43.1 -27.8,27.8 -43.1,64.7 -43.1,104 0,39.3 15.3,76.2 43.1,104 27.5,27.5 64,42.8 102.9,43.1 0.4,0 0.7,0 1.1,0 38.4,0 74.7,-14.7 102.2,-41.4 3,-2.7 3.1,-7.3 0.3,-10.2 z"
   id="path165" />
		</g>
	</g>
	<g
   id="g181">
		<g
   id="g179">
			<path
   class="st1"
   d="m 305.9,392.6 c -7.3,0 -13.3,-6 -13.3,-13.3 v -2.4 c -25,-5.3 -42.9,-25 -42.9,-47.7 0,-7.3 6,-13.3 13.3,-13.3 7.3,0 13.3,6 13.3,13.3 0,8.4 6.6,16.2 16.3,20 v -43.9 c -25,-5.3 -42.9,-25 -42.9,-47.7 0,-22.6 17.9,-42.4 42.9,-47.7 v -2.4 c 0,-7.3 6,-13.3 13.3,-13.3 7.3,0 13.3,6 13.3,13.3 v 2.4 c 25,5.3 42.9,25 42.9,47.7 0,7.3 -6,13.3 -13.3,13.3 -7.3,0 -13.3,-6 -13.3,-13.3 0,-8.4 -6.6,-16.2 -16.3,-20 v 43.9 c 25,5.3 42.9,25 42.9,47.7 0,22.6 -17.9,42.4 -42.9,47.7 v 2.4 c 0,7.4 -6,13.3 -13.3,13.3 z m 13.3,-43.3 c 9.8,-3.8 16.3,-11.7 16.3,-20 0,-8.4 -6.6,-16.2 -16.3,-20 z M 292.6,237.7 c -9.8,3.8 -16.3,11.7 -16.3,20 0,8.4 6.6,16.2 16.3,20 z"
   id="path171" />
			<path
   class="st1"
   d="m 305.9,389.8 c -5.8,0 -10.5,-4.7 -10.5,-10.5 v -4.7 c -24.6,-4.3 -42.9,-23.4 -42.9,-45.3 0,-5.8 4.7,-10.5 10.5,-10.5 5.8,0 10.5,4.7 10.5,10.5 0,10.8 9.1,20.5 22,24 v -50.2 c -24.6,-4.3 -42.9,-23.4 -42.9,-45.3 0,-22 18.3,-41.1 42.9,-45.3 v -4.7 c 0,-5.8 4.7,-10.5 10.5,-10.5 5.8,0 10.5,4.7 10.5,10.5 v 4.7 c 24.6,4.3 42.9,23.4 42.9,45.3 0,5.8 -4.7,10.5 -10.5,10.5 -5.8,0 -10.5,-4.7 -10.5,-10.5 0,-10.8 -9.1,-20.5 -22,-24 V 284 c 24.6,4.3 42.9,23.4 42.9,45.3 0,21.9 -18.3,41.1 -42.9,45.3 v 4.7 c -0.1,5.8 -4.8,10.5 -10.5,10.5 z m 10.4,-36.6 c 12.9,-3.5 22,-13.1 22,-24 0,-10.8 -9.1,-20.5 -22,-24 z M 295.4,233.8 c -12.9,3.5 -22,13.1 -22,24 0,10.8 9.1,20.5 22,24 z"
   id="path173" />
			<path
   class="st1"
   d="m 305.9,389.8 c -5.8,0 -10.5,-4.7 -10.5,-10.5 v -4.7 c -24.6,-4.3 -42.9,-23.4 -42.9,-45.3 0,-5.8 4.7,-10.5 10.5,-10.5 5.8,0 10.5,4.7 10.5,10.5 0,10.8 9.1,20.5 22,24 v -50.2 c -24.6,-4.3 -42.9,-23.4 -42.9,-45.3 0,-22 18.3,-41.1 42.9,-45.3 v -4.7 c 0,-5.8 4.7,-10.5 10.5,-10.5 5.8,0 10.5,4.7 10.5,10.5 v 4.7 c 24.6,4.3 42.9,23.4 42.9,45.3 0,5.8 -4.7,10.5 -10.5,10.5 -5.8,0 -10.5,-4.7 -10.5,-10.5 0,-10.8 -9.1,-20.5 -22,-24 V 284 c 24.6,4.3 42.9,23.4 42.9,45.3 0,21.9 -18.3,41.1 -42.9,45.3 v 4.7 c -0.1,5.8 -4.8,10.5 -10.5,10.5 z m 10.4,-36.6 c 12.9,-3.5 22,-13.1 22,-24 0,-10.8 -9.1,-20.5 -22,-24 z M 295.4,233.8 c -12.9,3.5 -22,13.1 -22,24 0,10.9 9.1,20.5 22,24 z"
   id="path175" />
			<path
   class="st1"
   d="m 313.5,286.4 v -56.1 c 15.8,2.8 27.7,14 27.7,27.5 0,4.2 3.4,7.6 7.6,7.6 4.2,0 7.6,-3.4 7.6,-7.6 0,-21.7 -18.7,-39.7 -42.9,-42.9 v -7.2 c 0,-4.2 -3.4,-7.6 -7.6,-7.6 -4.2,0 -7.6,3.4 -7.6,7.6 v 7.2 c -24.3,3.2 -42.9,21.2 -42.9,42.9 0,21.7 18.7,39.7 42.9,42.9 v 56.1 c -15.8,-2.8 -27.7,-14 -27.7,-27.5 0,-4.2 -3.4,-7.6 -7.6,-7.6 -4.2,0 -7.6,3.4 -7.6,7.6 0,21.7 18.7,39.7 42.9,42.9 v 7.2 c 0,4.2 3.4,7.6 7.6,7.6 4.2,0 7.6,-3.4 7.6,-7.6 v -7.2 c 24.3,-3.2 42.9,-21.2 42.9,-42.9 0,-21.7 -18.6,-39.8 -42.9,-42.9 z m -15.2,-1.2 c -15.8,-2.8 -27.7,-14 -27.7,-27.5 0,-13.4 11.9,-24.7 27.7,-27.5 z m 15.2,71.5 v -55 c 15.8,2.8 27.7,14 27.7,27.5 0,13.5 -11.9,24.8 -27.7,27.5 z"
   id="path177" />
		</g>
	</g>
	<g
   id="g193">
		<g
   id="g191">
			<path
   class="st0"
   d="m 485.9,633.6 c -3.4,0 -6.6,-1.3 -9.1,-3.6 L 354.7,515.7 c -4,-3.8 -5.3,-9.5 -3.3,-14.6 2,-5.1 6.9,-8.4 12.4,-8.4 h 42.4 V 125.4 c 0,-7.3 6,-13.3 13.3,-13.3 h 132.8 c 7.3,0 13.3,6 13.3,13.3 v 81.5 c 0,7.3 -6,13.3 -13.3,13.3 -7.3,0 -13.3,-6 -13.3,-13.3 V 138.7 H 432.7 V 506 c 0,7.3 -6,13.3 -13.3,13.3 h -22 l 88.5,82.8 88.4,-82.8 h -22 C 545,519.3 539,513.3 539,506 V 273.5 c 0,-7.3 6,-13.3 13.3,-13.3 7.3,0 13.3,6 13.3,13.3 V 492.7 H 608 c 5.5,0 10.3,3.3 12.4,8.4 2,5.1 0.7,10.8 -3.3,14.6 L 494.9,630 c -2.4,2.3 -5.7,3.6 -9,3.6 z"
   id="path183" />
			<path
   class="st0"
   d="m 485.9,630.8 c -2.7,0 -5.2,-1 -7.1,-2.8 L 356.6,513.6 c -3.2,-3 -4.2,-7.5 -2.6,-11.5 1.6,-4 5.4,-6.6 9.7,-6.6 H 409 V 125.4 c 0,-5.8 4.7,-10.5 10.5,-10.5 h 132.8 c 5.8,0 10.5,4.7 10.5,10.5 v 81.5 c 0,5.8 -4.7,10.5 -10.5,10.5 -5.8,0 -10.5,-4.7 -10.5,-10.5 v -71 H 429.9 V 506 c 0,5.8 -4.7,10.5 -10.5,10.5 h -29.2 l 95.6,89.6 95.6,-89.6 h -29.2 c -5.8,0 -10.5,-4.7 -10.5,-10.5 V 273.5 c 0,-5.8 4.7,-10.5 10.5,-10.5 5.8,0 10.5,4.7 10.5,10.5 v 222 h 45.2 c 4.3,0 8.1,2.6 9.7,6.6 1.6,4 0.6,8.5 -2.6,11.5 L 493,627.9 c -1.9,1.9 -4.5,2.9 -7.1,2.9 z"
   id="path185" />
			<path
   class="st0"
   d="m 485.9,630.8 c -2.7,0 -5.2,-1 -7.1,-2.8 L 356.6,513.6 c -3.2,-3 -4.2,-7.5 -2.6,-11.5 1.6,-4 5.4,-6.6 9.7,-6.6 H 409 V 125.4 c 0,-5.8 4.7,-10.5 10.5,-10.5 h 132.8 c 5.8,0 10.5,4.7 10.5,10.5 v 81.5 c 0,5.8 -4.7,10.5 -10.5,10.5 -5.8,0 -10.5,-4.7 -10.5,-10.5 v -71 H 429.9 V 506 c 0,5.8 -4.7,10.5 -10.5,10.5 h -29.2 l 95.6,89.6 95.6,-89.6 h -29.2 c -5.8,0 -10.5,-4.7 -10.5,-10.5 V 273.5 c 0,-5.8 4.7,-10.5 10.5,-10.5 5.8,0 10.5,4.7 10.5,10.5 v 222 h 45.2 c 4.3,0 8.1,2.6 9.7,6.6 1.6,4 0.6,8.5 -2.6,11.5 L 493,627.9 c -1.9,1.9 -4.5,2.9 -7.1,2.9 z"
   id="path187" />
			<path
   class="st0"
   d="m 615,503.2 c -1.1,-2.9 -4,-4.8 -7.1,-4.8 h -48 V 273.5 c 0,-4.2 -3.4,-7.6 -7.6,-7.6 -4.2,0 -7.6,3.4 -7.6,7.6 V 506 c 0,4.2 3.4,7.6 7.6,7.6 h 36.4 L 485.9,609.9 383.1,513.6 h 36.4 c 4.2,0 7.6,-3.4 7.6,-7.6 V 133 h 117.6 v 73.9 c 0,4.2 3.4,7.6 7.6,7.6 4.2,0 7.6,-3.4 7.6,-7.6 v -81.5 c 0,-4.2 -3.4,-7.6 -7.6,-7.6 H 419.4 c -4.2,0 -7.6,3.4 -7.6,7.6 v 372.9 h -48 c -3.1,0 -5.9,1.9 -7.1,4.8 -1.1,2.9 -0.4,6.2 1.9,8.4 l 122.1,114.3 c 1.5,1.4 3.3,2.1 5.2,2.1 1.9,0 3.7,-0.7 5.2,-2.1 L 613.2,511.5 c 2.2,-2.1 3,-5.4 1.8,-8.3 z"
   id="path189" />
		</g>
	</g>
	<g
   id="g197">
		<path
   class="st0"
   d="M 355.9,134.9"
   id="path195" />
	</g>
	<circle
   class="st0"
   cx="552.29999"
   cy="239.7"
   r="13.3"
   id="circle199" />
</g>
</svg>
