<svg width="116" height="73" viewBox="0 0 116 73" fill="none" xmlns="http://www.w3.org/2000/svg">
<path d="M111.732 2.23607C110.067 0.963797 108.03 0.273978 105.934 0.272772H10.42C8.7676 0.266582 7.14191 0.689388 5.70192 1.49983L5.53013 1.60413C4.08833 2.45441 2.89351 3.66638 2.06386 5.12015C1.23421 6.57391 0.798492 8.2191 0.799808 9.89294V62.4358C0.803055 64.9862 1.81765 67.4312 3.62108 69.2347C5.4245 71.0381 7.86954 72.0527 10.42 72.0559H35.268C35.7561 72.0559 36.2243 71.862 36.5695 71.5168C36.9147 71.1717 37.1086 70.7035 37.1086 70.2153C37.1086 69.7272 36.9147 69.259 36.5695 68.9138C36.2243 68.5687 35.7561 68.3747 35.268 68.3747H10.42C10.0681 68.3729 9.71698 68.3401 9.37084 68.2766L41.5137 31.072L56.7723 42.2629C57.0846 42.4862 57.4589 42.6063 57.8429 42.6063C58.2268 42.6063 58.6012 42.4862 58.9135 42.2629L75.2395 30.845L106.984 68.2704C106.628 68.3375 106.266 68.3724 105.904 68.3747H69.092C68.6038 68.3747 68.1356 68.5687 67.7905 68.9138C67.4453 69.259 67.2514 69.7272 67.2514 70.2153C67.2514 70.7035 67.4453 71.1717 67.7905 71.5168C68.1356 71.862 68.6038 72.0559 69.092 72.0559H105.904C108.455 72.0543 110.902 71.0404 112.707 69.2368C114.511 67.4332 115.527 64.9873 115.53 62.4358V9.89294C115.531 8.41008 115.189 6.94708 114.53 5.61864C113.871 4.2902 112.914 3.13243 111.732 2.23607ZM6.07004 66.4667C5.04902 65.3727 4.48112 63.9321 4.48099 62.4358V9.89294C4.48125 9.04012 4.66556 8.19739 5.02134 7.42232C5.37711 6.64725 5.89596 5.95808 6.54246 5.40189L38.532 28.8756L6.07004 66.4667ZM57.8582 38.5019L42.7837 27.4277C42.7005 27.3085 42.6038 27.1994 42.4954 27.1025C42.3164 26.943 42.108 26.8201 41.8819 26.7405L10.7881 3.95396H105.885C106.298 3.95208 106.709 3.99321 107.112 4.07667L57.8582 38.5019ZM111.849 62.4296C111.849 63.9201 111.286 65.3556 110.272 66.4483L78.2704 28.7406L110.536 6.18108C111.386 7.2335 111.85 8.54596 111.849 9.89908V62.4296Z" fill="white"/>
<path d="M52.3368 68.0688C52.7615 68.0688 53.1767 68.1948 53.5298 68.4307C53.883 68.6667 54.1582 69.0021 54.3207 69.3944C54.4832 69.7868 54.5258 70.2186 54.4429 70.6351C54.3601 71.0517 54.1555 71.4343 53.8552 71.7346C53.5549 72.0349 53.1723 72.2394 52.7557 72.3223C52.3392 72.4052 51.9074 72.3626 51.5151 72.2001C51.1227 72.0376 50.7873 71.7623 50.5514 71.4092C50.3154 71.0561 50.1895 70.6409 50.1895 70.2162C50.1895 69.6467 50.4157 69.1005 50.8184 68.6978C51.2211 68.2951 51.7673 68.0688 52.3368 68.0688Z" fill="white"/>
</svg>
