<svg width="44" height="44" viewBox="0 0 44 44" fill="none" xmlns="http://www.w3.org/2000/svg">
<path fill-rule="evenodd" clip-rule="evenodd" d="M21.6696 0C33.6356 0 43.3392 9.70365 43.3392 21.6696C43.3392 31.5608 36.7087 39.9054 27.6511 42.502V26.4654H32.3239L33.0242 21.0397H27.6511V17.5841C27.6511 16.0171 28.0863 14.9491 30.3334 14.9491H33.1816V10.1097C32.686 10.0439 30.9858 9.89642 29.0078 9.89642C24.8773 9.89642 22.0505 12.4167 22.0505 17.0471V21.0397H17.395V26.4654H22.0505V43.3343L22.008 43.3351L22.0075 43.3351C21.8949 43.3372 21.7825 43.3392 21.6696 43.3392C9.70365 43.3392 0 33.6356 0 21.6696C0 9.70365 9.70365 0 21.6696 0ZM27.2084 42.6234L27.1689 42.6338L27.1677 42.6341C27.1143 42.6481 27.0609 42.6622 27.0074 42.6756C27.0745 42.6587 27.1416 42.6412 27.2084 42.6234Z" fill="white"/>
</svg>
