<?xml version="1.0" encoding="UTF-8" standalone="no"?>
<svg
   xmlns:dc="http://purl.org/dc/elements/1.1/"
   xmlns:cc="http://creativecommons.org/ns#"
   xmlns:rdf="http://www.w3.org/1999/02/22-rdf-syntax-ns#"
   xmlns:svg="http://www.w3.org/2000/svg"
   xmlns="http://www.w3.org/2000/svg"
   xmlns:sodipodi="http://sodipodi.sourceforge.net/DTD/sodipodi-0.dtd"
   xmlns:inkscape="http://www.inkscape.org/namespaces/inkscape"
   version="1.1"
   id="Capa_1"
   x="0px"
   y="0px"
   viewBox="0 0 868 727"
   xml:space="preserve"
   sodipodi:docname="calidad_make.svg"
   width="868"
   height="727"
   inkscape:version="1.0.2 (e86c870879, 2021-01-15)"><metadata
   id="metadata236"><rdf:RDF><cc:Work
       rdf:about=""><dc:format>image/svg+xml</dc:format><dc:type
         rdf:resource="http://purl.org/dc/dcmitype/StillImage" /><dc:title></dc:title></cc:Work></rdf:RDF></metadata><defs
   id="defs234" /><sodipodi:namedview
   pagecolor="#ffffff"
   bordercolor="#666666"
   borderopacity="1"
   objecttolerance="10"
   gridtolerance="10"
   guidetolerance="10"
   inkscape:pageopacity="0"
   inkscape:pageshadow="2"
   inkscape:window-width="1920"
   inkscape:window-height="1017"
   id="namedview232"
   showgrid="false"
   inkscape:zoom="0.82334351"
   inkscape:cx="353.79577"
   inkscape:cy="416.35257"
   inkscape:window-x="-8"
   inkscape:window-y="-8"
   inkscape:window-maximized="1"
   inkscape:current-layer="Capa_1" />
<style
   type="text/css"
   id="style210">
	.st0{fill:#634090;}
	.st1{fill:#EE9B10;}
</style>
<g
   id="g229"
   transform="matrix(1.5381889,0,0,1.5381889,-127.36204,-197.93895)">
	<path
   class="st0"
   d="m 328.3,443.3 c 10.6,1.3 19.5,-7.6 18.1,-18.1 -0.9,-7.2 -6.7,-13 -13.9,-13.9 -10.6,-1.3 -19.5,7.6 -18.1,18.1 0.9,7.2 6.7,13 13.9,13.9 z"
   id="path212" />
	<path
   class="st0"
   d="m 94.2,221.1 c 6.3,0 11.3,-5.1 11.3,-11.3 v -16.2 c 0,-22.5 18.4,-40.9 40.9,-40.9 h 362.8 c 21.8,0 39.4,17.7 39.4,39.4 v 126.3 h 22.6 V 187.9 c 0,-32.6 -26.4,-59 -59,-59 h -367 c -34.3,0 -62.4,28.1 -62.4,62.4 v 18.5 c 0.1,6.2 5.2,11.3 11.4,11.3 z"
   id="path214" />
	<path
   class="st0"
   d="m 401.4,496.4 c -3.4,-7.5 2.1,-16 10.3,-16 h 60 V 454.7 H 139.3 c -18.6,0 -33.7,-15.2 -33.7,-33.7 v -5.3 c 0,-6.3 5.1,-11.3 11.3,-11.3 H 471.7 V 383.2 H 116.9 c -6.3,0 -11.3,-5.1 -11.3,-11.3 v -86 c 0,-6.3 -5.1,-11.3 -11.3,-11.3 -6.2,0 -11.3,5.1 -11.3,11.3 v 131.5 c 0,34.7 28.4,63.1 63.1,63.1 h 103 c 8.2,0 13.7,8.4 10.3,15.9 l -11.2,25.4 c -2,4.5 -1.6,8.2 1.2,12.3 2.7,4.1 7.3,5 12.3,5 H 399 c 4.9,0 9.6,-1.1 12.3,-5.3 2.7,-4.1 3.1,-8.2 1.2,-12.7 z m -39.9,18.8 h -62.3 c -8,0 -13.5,-8 -10.5,-15.5 l 3,-7.6 c 1.7,-4.3 5.9,-7.2 10.5,-7.2 h 56.3 c 4.6,0 8.8,2.8 10.5,7.2 l 3,7.6 c 3,7.5 -2.5,15.5 -10.5,15.5 z"
   id="path216" />
	<path
   id="XMLID_9_"
   class="st0"
   d="m 647.1,337.4 c 0,-16 -12.9,-28.9 -28.9,-28.9 H 488.7 c -16,0 -28.9,12.9 -28.9,28.9 v 234.8 c 0,16 12.9,28.9 28.9,28.9 h 129.5 c 16,0 28.9,-12.9 28.9,-28.9 z M 477.3,372.9 H 629.5 V 536.8 H 477.3 Z M 489.9,326 h 126.7 c 6.3,0 13,6.9 13,13.1 v 16.1 H 477.3 v -16.1 c 0,-6.2 6.3,-13.1 12.6,-13.1 z M 616.6,583.6 H 489.9 c -6.3,0 -12.6,-3.4 -12.6,-9.7 v -19.6 h 152.2 v 19.6 c 0,6.2 -6.7,9.7 -12.9,9.7 z M 521.2,340.7 c 0,-4.8 3.9,-8.8 8.8,-8.8 h 46.5 c 4.9,0 8.8,3.9 8.8,8.8 0,4.8 -3.9,8.8 -8.8,8.8 H 530 c -4.9,-0.1 -8.8,-4 -8.8,-8.8 z M 562,570.6 c 0,4.8 -3.9,8.7 -8.7,8.7 -4.8,0 -8.7,-3.9 -8.7,-8.7 0,-4.8 3.9,-8.7 8.7,-8.7 4.8,0 8.7,3.9 8.7,8.7 z" />
	<path
   class="st1"
   d="m 202.8,187.5 h 26.6 v 26.6 h -26.6 z"
   id="path219" />
	<path
   class="st1"
   d="m 182.4,360.5 c 0.1,-32.3 7.6,-55.9 22.3,-70.2 10,-9.7 33.7,-24.7 80.7,-16 12.7,2.3 25.6,6 38.1,9.4 18.2,5.1 37.1,10.4 56.7,12.3 23.9,2.3 43.6,-1.5 58.7,-11.3 14.1,-9.1 23.4,-23.2 30.8,-35.7 10,-17.1 18.5,-35 25.5,-53.5 l -21.2,-8 c -6.5,17.3 -14.5,34 -23.8,50 -6.3,10.8 -13.5,21.6 -23.6,28.2 -10.7,7 -25.5,9.6 -44.1,7.8 -17.6,-1.7 -34.7,-6.5 -52.8,-11.5 -13,-3.6 -26.4,-7.4 -40.1,-9.9 -57.1,-10.5 -87.6,9.3 -100.7,22 -19.2,18.7 -29,47.7 -29.2,86.4 z"
   id="path221" />
	<path
   class="st1"
   d="m 582.2,404.5 c -6.5,17.3 -14.5,34 -23.8,50 -6.3,10.8 -13.5,21.6 -23.6,28.2 -8.2,5.3 -18.8,8.1 -31.7,8.3 v 22.7 c 17.4,-0.2 32.2,-4.2 44.1,-12 14.1,-9.1 23.4,-23.2 30.8,-35.7 10,-17.1 18.5,-35 25.5,-53.5 z"
   id="path223" />
	<path
   class="st1"
   d="m 507.9,404.5 h 26.6 v 26.6 h -26.6 z"
   id="path225" />
	<circle
   class="st0"
   cx="94.400002"
   cy="246"
   r="11.4"
   id="circle227" />
</g>
</svg>
