<svg width="900" height="578" viewBox="0 0 900 578" fill="none" xmlns="http://www.w3.org/2000/svg">
<mask id="mask0" mask-type="alpha" maskUnits="userSpaceOnUse" x="0" y="0" width="900" height="578">
<path d="M0 0H899.692V578H0V0Z" fill="#C4C4C4"/>
</mask>
<g mask="url(#mask0)">
<path opacity="0.1" d="M102.047 576.118L815.063 577.169C807.801 546.348 843.333 512.46 847.74 480.919C852.146 449.378 853.18 414.058 836.528 388.678C822.529 367.34 797.996 356.476 787.734 332.393C782.709 320.613 781.802 307.123 780.26 294.081C776.135 259.284 766.582 225.348 751.948 193.509C739.643 166.867 727.008 138.148 701.509 126.513C684.561 118.776 666.121 117.284 648.122 114.691C577.693 104.607 512.536 67.4309 443.047 57.3551C375.551 47.576 305.953 57.1518 241.837 83.3284C210.762 95.9973 170.739 115.335 155.951 152.249C143.732 182.756 146.155 218.669 130.47 247.803C115.097 276.336 85.9972 289.912 64.7016 312.656C33.1353 346.358 20.4919 400.618 28.4915 449.65C36.4911 498.681 67.2099 547.153 102.047 576.118Z" fill="white"/>
<path d="M687.409 406.388H638.394C636.372 406.388 634.432 405.584 633.002 404.154C631.571 402.724 630.768 400.784 630.768 398.761V347.992H695.053V398.744C695.055 399.748 694.859 400.743 694.475 401.672C694.092 402.6 693.529 403.444 692.819 404.154C692.109 404.864 691.265 405.427 690.337 405.81C689.408 406.194 688.413 406.39 687.409 406.388Z" fill="#5B408E"/>
<path d="M674.29 342.764H674.18C674.112 342.747 674.047 342.717 673.99 342.675C673.933 342.633 673.885 342.58 673.849 342.519C673.813 342.458 673.789 342.391 673.779 342.321C673.769 342.251 673.773 342.18 673.79 342.111C693.281 266.996 711.551 213.787 725.305 192.288C725.61 191.814 725.83 191.441 725.915 191.297C725.946 191.233 725.989 191.175 726.041 191.128C726.094 191.08 726.156 191.044 726.223 191.02C726.289 190.997 726.36 190.986 726.431 190.99C726.502 190.994 726.571 191.012 726.635 191.042C726.699 191.073 726.757 191.116 726.804 191.169C726.852 191.221 726.888 191.283 726.912 191.35C726.935 191.417 726.945 191.488 726.942 191.558C726.938 191.629 726.92 191.699 726.89 191.763C726.685 192.144 726.462 192.514 726.22 192.873C712.526 214.279 694.281 267.378 674.841 342.382C674.807 342.499 674.733 342.601 674.633 342.67C674.533 342.74 674.412 342.773 674.29 342.764Z" fill="#8372AC"/>
<path d="M735.313 188.059C733.677 190.474 725.144 195.127 724.474 194.661C723.805 194.194 724.923 184.559 726.559 182.144C726.948 181.569 727.447 181.077 728.027 180.695C728.607 180.313 729.256 180.049 729.938 179.918C730.62 179.787 731.321 179.792 732.001 179.931C732.681 180.071 733.327 180.344 733.902 180.733C734.476 181.123 734.969 181.622 735.351 182.201C735.733 182.781 735.997 183.431 736.128 184.112C736.259 184.794 736.254 185.495 736.114 186.175C735.975 186.855 735.702 187.501 735.313 188.076V188.059Z" fill="#8372AC"/>
<path d="M718.83 195.805C719.796 198.627 718.356 208.448 717.55 208.719C716.745 208.99 709.576 202.135 708.61 199.305C708.343 198.625 708.217 197.898 708.239 197.169C708.26 196.439 708.43 195.721 708.736 195.058C709.043 194.396 709.48 193.802 710.023 193.313C710.565 192.824 711.201 192.451 711.891 192.214C712.582 191.977 713.313 191.883 714.041 191.937C714.77 191.991 715.479 192.192 716.128 192.527C716.776 192.863 717.35 193.326 717.814 193.889C718.279 194.453 718.624 195.104 718.83 195.805Z" fill="#8372AC"/>
<path d="M729.838 212.49C726.872 212.795 717.627 209.177 717.542 208.33C717.457 207.482 725.754 202.05 728.728 201.737C729.45 201.63 730.187 201.67 730.893 201.855C731.599 202.04 732.261 202.367 732.837 202.815C733.414 203.262 733.894 203.822 734.248 204.461C734.603 205.099 734.824 205.803 734.899 206.529C734.974 207.255 734.901 207.989 734.685 208.687C734.469 209.384 734.113 210.03 733.64 210.587C733.167 211.143 732.587 211.598 731.933 211.923C731.28 212.249 730.567 212.439 729.838 212.482V212.49Z" fill="#8372AC"/>
<path d="M695.23 246.048C697.357 250.582 696.721 267.233 695.425 267.835C694.128 268.437 680.934 258.285 678.807 253.751C677.786 251.573 677.673 249.079 678.491 246.818C679.31 244.556 680.993 242.713 683.171 241.692C685.349 240.672 687.843 240.558 690.104 241.377C692.366 242.195 694.209 243.879 695.23 246.056V246.048Z" fill="#8372AC"/>
<path d="M716.602 271.834C711.704 272.885 695.629 268.513 695.332 267.114C695.036 265.716 707.899 255.149 712.797 254.098C715.149 253.593 717.606 254.044 719.625 255.35C721.645 256.657 723.064 258.712 723.568 261.064C724.073 263.416 723.622 265.872 722.316 267.892C721.01 269.912 718.954 271.33 716.602 271.834Z" fill="#8372AC"/>
<path d="M682.934 265.115C686.697 269.954 690.417 289.995 689.036 291.071C687.654 292.147 669.164 283.571 665.401 278.733C664.463 277.586 663.765 276.263 663.346 274.842C662.928 273.42 662.798 271.93 662.964 270.458C663.131 268.986 663.591 267.562 664.316 266.27C665.041 264.978 666.018 263.845 667.188 262.937C668.359 262.028 669.699 261.363 671.13 260.981C672.561 260.598 674.055 260.506 675.522 260.71C676.99 260.914 678.401 261.409 679.674 262.167C680.947 262.925 682.056 263.93 682.934 265.123V265.115Z" fill="#8372AC"/>
<path d="M713.373 298.774C707.28 299.435 688.264 292.097 688.078 290.359C687.891 288.622 704.89 277.369 710.958 276.708C713.784 276.569 716.557 277.516 718.709 279.353C720.861 281.191 722.23 283.781 722.536 286.594C722.842 289.407 722.063 292.231 720.356 294.489C718.65 296.747 716.146 298.267 713.356 298.74L713.373 298.774Z" fill="#8372AC"/>
<path d="M675.807 289.639C679.57 294.478 683.29 314.519 681.909 315.596C680.527 316.672 662.037 308.096 658.291 303.257C657.353 302.11 656.655 300.787 656.236 299.366C655.818 297.945 655.688 296.454 655.855 294.982C656.021 293.51 656.481 292.086 657.206 290.795C657.931 289.503 658.908 288.369 660.078 287.461C661.249 286.553 662.589 285.888 664.02 285.505C665.452 285.123 666.945 285.031 668.412 285.235C669.88 285.438 671.291 285.934 672.564 286.692C673.837 287.45 674.946 288.455 675.824 289.648L675.807 289.639Z" fill="#8372AC"/>
<path d="M706.255 323.299C700.162 323.96 681.146 316.621 680.96 314.884C680.773 313.147 697.772 301.893 703.84 301.232C706.666 301.094 709.439 302.04 711.591 303.878C713.743 305.715 715.112 308.305 715.418 311.119C715.724 313.932 714.945 316.756 713.238 319.013C711.532 321.271 709.028 322.792 706.238 323.265L706.255 323.299Z" fill="#8372AC"/>
<path d="M659.325 320.748C664.647 323.79 675.722 340.899 674.849 342.425C673.977 343.95 653.613 343.06 648.3 340.018C645.85 338.505 644.085 336.099 643.375 333.309C642.666 330.519 643.069 327.562 644.498 325.062C645.927 322.563 648.272 320.717 651.037 319.914C653.801 319.11 656.77 319.412 659.316 320.756L659.325 320.748Z" fill="#8372AC"/>
<path d="M700.052 347.492C694.12 348.907 674.307 344.001 673.9 342.306C673.494 340.611 688.951 327.323 694.916 325.9C696.349 325.518 697.844 325.428 699.312 325.634C700.781 325.84 702.193 326.337 703.466 327.098C704.738 327.858 705.846 328.866 706.723 330.062C707.6 331.257 708.228 332.616 708.571 334.059C708.914 335.501 708.965 336.998 708.72 338.46C708.475 339.923 707.94 341.321 707.146 342.573C706.352 343.825 705.315 344.906 704.097 345.75C702.878 346.595 701.503 347.187 700.052 347.492Z" fill="#8372AC"/>
<path d="M711.559 211.473C712.542 214.338 711.076 224.312 710.254 224.6C709.432 224.888 702.153 217.905 701.17 215.041C700.713 213.667 700.818 212.169 701.46 210.871C702.103 209.574 703.232 208.583 704.601 208.114C705.971 207.645 707.47 207.735 708.773 208.366C710.076 208.997 711.078 210.117 711.559 211.482V211.473Z" fill="#8372AC"/>
<path d="M722.355 228.591C719.339 228.905 709.949 225.202 709.864 224.354C709.78 223.507 718.211 217.973 721.228 217.66C722.664 217.534 724.092 217.978 725.204 218.896C726.315 219.814 727.021 221.132 727.169 222.566C727.317 224 726.895 225.435 725.995 226.561C725.094 227.686 723.787 228.413 722.355 228.583V228.591Z" fill="#8372AC"/>
<path d="M703.128 226.049C704.823 229.998 703.975 244.285 702.814 244.785C701.653 245.285 690.561 236.252 688.798 232.303C687.969 230.408 687.926 228.262 688.679 226.336C689.432 224.41 690.92 222.862 692.815 222.032C694.709 221.203 696.856 221.16 698.782 221.914C700.708 222.667 702.256 224.154 703.085 226.049H703.128Z" fill="#8372AC"/>
<path d="M720.415 250.311C716.127 250.752 702.797 245.531 702.67 244.311C702.543 243.091 714.534 235.244 718.771 234.803C720.828 234.59 722.887 235.202 724.492 236.506C726.098 237.81 727.12 239.699 727.334 241.756C727.547 243.814 726.935 245.872 725.631 247.478C724.327 249.084 722.439 250.106 720.381 250.319L720.415 250.311Z" fill="#8372AC"/>
<path d="M656.944 349.798H657.113C657.226 349.786 657.336 349.752 657.436 349.697C657.536 349.642 657.623 349.568 657.694 349.479C657.764 349.389 657.816 349.287 657.846 349.177C657.875 349.067 657.883 348.953 657.867 348.84C642.851 225.465 625.056 137.088 607.768 100.047C607.387 99.1996 607.107 98.6319 607.014 98.3522C606.944 98.1342 606.791 97.9528 606.588 97.8479C606.384 97.743 606.147 97.7232 605.929 97.7929C605.711 97.8626 605.53 98.016 605.425 98.2194C605.32 98.4228 605.3 98.6596 605.37 98.8776C605.62 99.5272 605.903 100.164 606.217 100.784C623.428 137.664 641.173 225.838 656.173 349.077C656.201 349.267 656.292 349.441 656.432 349.572C656.573 349.703 656.753 349.782 656.944 349.798Z" fill="#7E5C9F"/>
<path d="M592.769 91.2424C594.853 95.4286 607.386 104.606 608.581 104.013C609.776 103.42 609.997 87.912 607.912 83.6749C606.835 81.8038 605.084 80.4145 603.017 79.7905C600.95 79.1666 598.723 79.3551 596.79 80.3177C594.857 81.2802 593.365 82.9441 592.618 84.9697C591.87 86.9953 591.924 89.2298 592.769 91.2169V91.2424Z" fill="#7E5C9F"/>
<path d="M617.293 107.098C615.157 111.335 615.378 127.266 616.598 127.876C617.818 128.486 630.648 119.097 632.784 114.826C633.291 113.809 633.593 112.702 633.673 111.568C633.752 110.434 633.608 109.295 633.248 108.217C632.887 107.139 632.318 106.143 631.572 105.285C630.827 104.427 629.92 103.724 628.902 103.216C627.885 102.709 626.778 102.407 625.644 102.327C624.51 102.248 623.372 102.392 622.294 102.752C621.216 103.113 620.219 103.682 619.361 104.428C618.503 105.173 617.8 106.08 617.293 107.098Z" fill="#7E5C9F"/>
<path d="M596.302 131.197C600.946 132.316 616.386 128.52 616.708 127.198C617.03 125.876 604.997 115.486 600.344 114.368C598.112 113.832 595.759 114.204 593.802 115.403C591.845 116.602 590.444 118.53 589.908 120.762C589.372 122.993 589.745 125.347 590.944 127.304C592.143 129.261 594.07 130.661 596.302 131.197Z" fill="#7E5C9F"/>
<path d="M644.156 191.796C639.818 198.576 637.309 225.108 639.241 226.345C641.174 227.583 664.274 214.244 668.613 207.49C669.643 205.885 670.348 204.093 670.685 202.215C671.023 200.338 670.988 198.412 670.581 196.548C670.175 194.685 669.405 192.919 668.317 191.353C667.228 189.786 665.841 188.45 664.236 187.419C662.631 186.389 660.838 185.685 658.961 185.347C657.083 185.009 655.158 185.045 653.294 185.451C651.43 185.857 649.665 186.627 648.098 187.716C646.532 188.804 645.195 190.191 644.165 191.796H644.156Z" fill="#7E5C9F"/>
<path d="M604.76 228.218C612.31 230.921 638.758 227.371 639.504 225.227C640.249 223.083 622.106 203.567 614.547 200.889C610.92 199.591 606.925 199.787 603.443 201.434C599.96 203.082 597.274 206.045 595.976 209.672C594.678 213.3 594.874 217.294 596.522 220.777C598.169 224.26 601.132 226.946 604.76 228.244V228.218Z" fill="#7E5C9F"/>
<path d="M659.647 224.676C652.656 231.566 642.504 262.598 644.47 264.598C646.436 266.598 677.612 256.895 684.603 249.997C686.395 248.389 687.842 246.435 688.857 244.252C689.872 242.069 690.433 239.703 690.507 237.297C690.581 234.891 690.166 232.495 689.287 230.253C688.408 228.012 687.084 225.973 685.394 224.258C683.704 222.544 681.684 221.19 679.456 220.279C677.228 219.368 674.838 218.918 672.431 218.957C670.024 218.996 667.65 219.523 665.453 220.506C663.255 221.489 661.28 222.908 659.647 224.676Z" fill="#7E5C9F"/>
<path d="M604.192 271.682C613.726 274.021 645.47 266.386 646.139 263.666C646.809 260.945 622.2 239.489 612.658 237.15C610.352 236.475 607.933 236.274 605.546 236.559C603.16 236.844 600.857 237.609 598.774 238.809C596.692 240.009 594.874 241.618 593.431 243.539C591.987 245.46 590.948 247.654 590.375 249.988C589.802 252.321 589.708 254.747 590.098 257.118C590.489 259.49 591.355 261.757 592.645 263.785C593.936 265.812 595.623 267.557 597.607 268.914C599.59 270.271 601.827 271.213 604.184 271.682H604.192Z" fill="#7E5C9F"/>
<path d="M665.765 265.123C658.774 272.013 648.622 303.045 650.588 305.045C652.554 307.045 683.73 297.342 690.722 290.444C693.826 287.083 695.516 282.656 695.442 278.081C695.368 273.507 693.535 269.137 690.323 265.878C687.111 262.62 682.768 260.723 678.195 260.583C673.622 260.442 669.171 262.068 665.765 265.123Z" fill="#7E5C9F"/>
<path d="M610.311 312.129C619.844 314.468 651.588 306.833 652.258 304.113C652.927 301.392 628.318 279.936 618.776 277.597C616.47 276.922 614.051 276.721 611.665 277.006C609.279 277.291 606.975 278.056 604.893 279.256C602.81 280.456 600.993 282.065 599.549 283.986C598.105 285.907 597.066 288.101 596.493 290.435C595.921 292.769 595.826 295.194 596.217 297.565C596.607 299.937 597.473 302.204 598.764 304.232C600.054 306.259 601.742 308.004 603.725 309.361C605.708 310.718 607.945 311.66 610.302 312.129H610.311Z" fill="#7E5C9F"/>
<path d="M685.357 318.002C676.264 321.714 655.062 346.535 656.121 349.136C657.181 351.738 689.696 354.636 698.789 350.924C702.952 349.007 706.214 345.557 707.897 341.294C709.579 337.03 709.552 332.282 707.821 328.038C706.09 323.794 702.788 320.382 698.603 318.513C694.418 316.643 689.673 316.46 685.357 318.002Z" fill="#7E5C9F"/>
<path d="M615.03 351.907C624.199 355.416 656.647 351.814 657.655 349.196C658.664 346.577 636.919 322.214 627.784 318.68C623.439 317.248 618.71 317.544 614.578 319.506C610.446 321.469 607.228 324.947 605.593 329.219C603.957 333.491 604.03 338.228 605.795 342.448C607.56 346.668 610.882 350.047 615.072 351.882L615.03 351.907Z" fill="#7E5C9F"/>
<path d="M625.539 133.443C623.37 137.79 623.59 153.934 624.836 154.552C626.082 155.171 639.106 145.637 641.276 141.29C641.832 140.253 642.175 139.114 642.284 137.942C642.392 136.77 642.264 135.588 641.907 134.466C641.551 133.344 640.972 132.305 640.207 131.411C639.441 130.516 638.504 129.785 637.45 129.26C636.397 128.734 635.248 128.426 634.073 128.352C632.898 128.279 631.721 128.442 630.61 128.832C629.499 129.222 628.478 129.832 627.607 130.624C626.736 131.416 626.033 132.374 625.539 133.443Z" fill="#7E5C9F"/>
<path d="M604.777 158.332C609.497 159.467 625.183 155.612 625.505 154.264C625.827 152.917 613.641 142.4 608.879 141.231C606.637 140.757 604.298 141.177 602.361 142.402C600.424 143.626 599.042 145.557 598.507 147.786C597.973 150.014 598.329 152.363 599.5 154.332C600.671 156.302 602.564 157.737 604.777 158.332Z" fill="#7E5C9F"/>
<path d="M635.843 158.374C632.267 164.306 630.699 187.187 632.385 188.187C634.072 189.187 653.639 177.221 657.215 171.323C658.932 168.489 659.453 165.089 658.663 161.871C657.873 158.652 655.837 155.88 653.003 154.163C650.169 152.446 646.769 151.925 643.551 152.715C640.333 153.504 637.56 155.54 635.843 158.374Z" fill="#7E5C9F"/>
<path d="M603.268 193.262C609.98 194.872 632.259 189.398 632.716 187.483C633.174 185.568 615.768 170.534 609.099 168.967C605.877 168.194 602.48 168.732 599.655 170.463C596.83 172.195 594.809 174.978 594.036 178.199C593.263 181.421 593.801 184.818 595.533 187.643C597.264 190.468 600.047 192.489 603.268 193.262Z" fill="#7E5C9F"/>
<path d="M622.641 577.574H615.862C615.862 567.626 636.268 432.014 637.14 426.243L643.869 427.26C637.954 466.41 622.641 569.736 622.641 577.574Z" fill="#41286C"/>
<path d="M813.81 577.574H807.031C807.031 569.744 791.726 466.41 785.845 427.26L792.574 426.243C793.396 432.005 813.81 567.626 813.81 577.574Z" fill="#41286C"/>
<path d="M829.588 406.286H267.929V428.844H829.588V406.286Z" fill="#41286C"/>
<path d="M173.816 306.738C197.829 306.738 220.86 316.276 237.842 333.255C254.823 350.233 264.366 373.262 264.371 397.276V529.566C264.366 549.132 256.59 567.895 242.754 581.728C228.917 595.562 210.152 603.333 190.586 603.333H185.137C158.121 603.333 132.211 592.602 113.106 573.501C94.0006 554.399 83.2652 528.49 83.2607 501.474V397.242C83.2742 373.234 92.8207 350.214 109.802 333.243C126.783 316.271 149.808 306.738 173.816 306.738Z" fill="#12819B"/>
<path d="M304.453 510.304C304.453 510.304 412.77 543.523 425.634 578.377L268.48 589.275C268.48 589.275 168.816 570.217 163.917 532.091L304.453 510.304Z" fill="#10112F"/>
<path d="M363.993 312.949C363.993 312.949 350.57 301.305 346.655 296.001C342.74 290.696 335.02 288.501 337.138 285.34C339.257 282.179 350.197 288.535 350.197 288.535C350.197 288.535 348.002 275.332 346.706 271.383C345.409 267.434 344.901 259.774 347.723 258.604C350.544 257.435 355.417 276.857 355.417 276.857C355.417 276.857 352.875 260.096 355.29 258.46C357.705 256.824 363.976 277.679 363.976 277.679C363.976 277.679 360.434 259.935 361.374 258.299C362.315 256.663 364.442 257.799 367.222 263.782C369.035 267.892 370.401 272.184 371.298 276.586C371.298 276.586 369.747 263.926 370.086 262.35C370.425 260.773 372.06 258.833 375.238 268.129C378.416 277.425 386.416 298.314 380.323 314.449L363.993 312.949Z" fill="#FBC3A8"/>
<path d="M672.053 160.942H432.929C422.263 160.942 413.617 169.589 413.617 180.255V336.874C413.617 347.541 422.263 356.187 432.929 356.187H672.053C682.719 356.187 691.366 347.541 691.366 336.874V180.255C691.366 169.589 682.719 160.942 672.053 160.942Z" fill="#10112F"/>
<path d="M684.011 166.12H420.693V341.485H684.011V166.12Z" fill="white"/>
<path d="M516.697 170.476H427.083C426.264 170.476 425.6 171.14 425.6 171.959V335.645C425.6 336.464 426.264 337.128 427.083 337.128H516.697C517.516 337.128 518.18 336.464 518.18 335.645V171.959C518.18 171.14 517.516 170.476 516.697 170.476Z" fill="#8372AC"/>
<path d="M442.667 194.237C446.757 194.237 450.073 190.921 450.073 186.831C450.073 182.741 446.757 179.425 442.667 179.425C438.576 179.425 435.26 182.741 435.26 186.831C435.26 190.921 438.576 194.237 442.667 194.237Z" fill="white"/>
<path d="M480.784 179.425H458.166C458.04 179.425 457.938 179.527 457.938 179.653V181.136C457.938 181.263 458.04 181.365 458.166 181.365H480.784C480.91 181.365 481.013 181.263 481.013 181.136V179.653C481.013 179.527 480.91 179.425 480.784 179.425Z" fill="white"/>
<path d="M507.469 186.297H458.166C458.04 186.297 457.938 186.399 457.938 186.526V188.009C457.938 188.135 458.04 188.237 458.166 188.237H507.469C507.595 188.237 507.698 188.135 507.698 188.009V186.526C507.698 186.399 507.595 186.297 507.469 186.297Z" fill="white"/>
<path d="M496.037 191.475H458.166C458.04 191.475 457.938 191.577 457.938 191.704V193.187C457.938 193.313 458.04 193.415 458.166 193.415H496.037C496.164 193.415 496.266 193.313 496.266 193.187V191.704C496.266 191.577 496.164 191.475 496.037 191.475Z" fill="white"/>
<path d="M442.667 225.821C446.757 225.821 450.073 222.505 450.073 218.414C450.073 214.324 446.757 211.008 442.667 211.008C438.576 211.008 435.26 214.324 435.26 218.414C435.26 222.505 438.576 225.821 442.667 225.821Z" fill="white"/>
<path d="M480.784 211.017H458.166C458.04 211.017 457.938 211.119 457.938 211.245V212.728C457.938 212.855 458.04 212.957 458.166 212.957H480.784C480.91 212.957 481.013 212.855 481.013 212.728V211.245C481.013 211.119 480.91 211.017 480.784 211.017Z" fill="white"/>
<path d="M507.469 217.889H458.166C458.04 217.889 457.938 217.991 457.938 218.118V219.601C457.938 219.727 458.04 219.83 458.166 219.83H507.469C507.595 219.83 507.698 219.727 507.698 219.601V218.118C507.698 217.991 507.595 217.889 507.469 217.889Z" fill="white"/>
<path d="M496.037 223.067H458.166C458.04 223.067 457.938 223.169 457.938 223.296V224.779C457.938 224.905 458.04 225.007 458.166 225.007H496.037C496.164 225.007 496.266 224.905 496.266 224.779V223.296C496.266 223.169 496.164 223.067 496.037 223.067Z" fill="white"/>
<path d="M442.667 261.209C446.757 261.209 450.073 257.893 450.073 253.803C450.073 249.712 446.757 246.396 442.667 246.396C438.576 246.396 435.26 249.712 435.26 253.803C435.26 257.893 438.576 261.209 442.667 261.209Z" fill="white"/>
<path d="M480.784 246.396H458.166C458.04 246.396 457.938 246.499 457.938 246.625V248.108C457.938 248.234 458.04 248.337 458.166 248.337H480.784C480.91 248.337 481.013 248.234 481.013 248.108V246.625C481.013 246.499 480.91 246.396 480.784 246.396Z" fill="white"/>
<path d="M507.469 253.268H458.166C458.04 253.268 457.938 253.371 457.938 253.497V254.98C457.938 255.106 458.04 255.209 458.166 255.209H507.469C507.595 255.209 507.698 255.106 507.698 254.98V253.497C507.698 253.371 507.595 253.268 507.469 253.268Z" fill="white"/>
<path d="M496.037 258.446H458.166C458.04 258.446 457.938 258.548 457.938 258.675V260.158C457.938 260.284 458.04 260.387 458.166 260.387H496.037C496.164 260.387 496.266 260.284 496.266 260.158V258.675C496.266 258.548 496.164 258.446 496.037 258.446Z" fill="white"/>
<path d="M442.667 295.462C446.757 295.462 450.073 292.146 450.073 288.055C450.073 283.965 446.757 280.649 442.667 280.649C438.576 280.649 435.26 283.965 435.26 288.055C435.26 292.146 438.576 295.462 442.667 295.462Z" fill="white"/>
<path d="M480.784 280.657H458.166C458.04 280.657 457.938 280.759 457.938 280.886V282.369C457.938 282.495 458.04 282.598 458.166 282.598H480.784C480.91 282.598 481.013 282.495 481.013 282.369V280.886C481.013 280.759 480.91 280.657 480.784 280.657Z" fill="white"/>
<path d="M507.469 287.53H458.166C458.04 287.53 457.938 287.632 457.938 287.758V289.241C457.938 289.368 458.04 289.47 458.166 289.47H507.469C507.595 289.47 507.698 289.368 507.698 289.241V287.758C507.698 287.632 507.595 287.53 507.469 287.53Z" fill="white"/>
<path d="M496.037 292.707H458.166C458.04 292.707 457.938 292.81 457.938 292.936V294.419C457.938 294.545 458.04 294.648 458.166 294.648H496.037C496.164 294.648 496.266 294.545 496.266 294.419V292.936C496.266 292.81 496.164 292.707 496.037 292.707Z" fill="white"/>
<path d="M507.35 313.978H437.116C436.096 313.978 435.269 314.805 435.269 315.825V327.655C435.269 328.675 436.096 329.502 437.116 329.502H507.35C508.371 329.502 509.198 328.675 509.198 327.655V315.825C509.198 314.805 508.371 313.978 507.35 313.978Z" fill="white"/>
<path d="M672.995 165.988H588.033V255.502H672.995V165.988Z" fill="#EE9C21"/>
<path d="M637.386 179.78C638.011 179.724 638.639 179.872 639.165 180.198C639.724 180.641 639.826 181.413 640.14 182.033C641.046 183.836 643.529 184.182 645.597 184.528C647.665 184.874 650.139 185.944 650.131 187.939C650.046 188.389 650.046 188.85 650.131 189.299C650.255 189.567 650.448 189.802 650.69 189.983C652.131 191.19 654.08 191.697 655.715 192.607C657.351 193.516 658.893 195.182 658.512 196.968C658.334 197.773 657.749 198.578 657.664 199.382C657.486 200.726 658.512 201.925 659.444 202.939L664.766 208.644C665.554 209.332 666.094 210.239 666.308 211.235C666.477 213.062 664.511 214.454 664.096 216.233C663.588 218.429 665.503 220.425 666.037 222.614C666.335 224.095 666.021 225.628 665.159 226.895C664.297 228.161 662.954 229.063 661.41 229.414C660.675 229.456 659.958 229.648 659.308 229.977C658.351 230.637 658.317 231.948 658.105 233.059C657.859 234.254 657.3 235.37 656.479 236.306C655.659 237.241 654.603 237.965 653.41 238.41C648.715 240.108 643.665 237.082 638.657 236.76C635.597 236.559 632.581 237.388 629.521 237.565C625.932 237.756 622.353 237.04 619.149 235.489C618.78 235.335 618.448 235.11 618.175 234.829C617.547 234.097 617.768 233.027 617.624 232.093C617.2 229.317 613.743 228.07 610.844 227.571C607.946 227.072 604.48 226.163 603.624 223.475C603.167 222.051 603.624 220.457 603.082 219.065C602.43 217.375 600.54 216.434 599.548 214.881C598.209 212.732 598.989 209.964 600.15 207.719C601.311 205.474 602.845 203.285 602.972 200.782C603.057 199.133 602.506 197.515 602.362 195.866C602.218 194.216 602.608 192.341 604.057 191.424C605.819 190.305 608.209 191.11 610.277 190.619C615.107 189.541 616.209 182.299 621.107 181.478C622.078 181.38 623.058 181.38 624.03 181.478C626.649 181.574 628.606 180.673 631.03 180.045C633.072 179.482 635.233 179.724 637.386 179.78Z" fill="#41286C"/>
<path d="M640.445 226.042C640.445 226.042 660.732 232.117 663.8 235.996C666.867 239.875 670.401 259.654 670.401 259.654L600.065 257.329C600.065 257.329 603.743 236.769 609.667 232.311C615.59 227.853 629.886 226.879 629.886 226.879L640.445 226.042Z" fill="white"/>
<path d="M616.904 205.071C616.904 205.071 615.446 203.558 614.633 204.387C612.557 206.495 615.302 208.411 616.963 208.652L616.904 205.071Z" fill="#F0A996"/>
<path d="M615.328 198.932C615.328 198.755 615.252 198.578 615.226 198.401C614.884 196.352 615.029 194.256 615.649 192.267C616.269 190.277 617.35 188.445 618.811 186.903C620.273 185.361 622.079 184.148 624.097 183.354C626.115 182.559 628.295 182.203 630.477 182.311C632.658 182.418 634.787 182.988 636.708 183.977C638.628 184.966 640.292 186.35 641.577 188.028C642.862 189.705 643.736 191.635 644.136 193.674C644.535 195.714 644.45 197.813 643.886 199.817C643.15 203.434 642.119 206.991 640.801 210.455C638.812 215.108 638.576 220.269 640.132 225.068L640.428 226.042C632.666 231.321 628.2 227.474 628.2 227.474L627.124 221.037C627.056 220.63 626.844 220.257 626.524 219.98C626.204 219.702 625.794 219.536 625.361 219.508C615.752 218.896 616.082 203.43 615.328 198.932Z" fill="#FBC3A8"/>
<path d="M639.708 203.567C639.411 202.891 639.428 202.118 639.098 201.45C638.25 199.769 635.81 199.624 634.242 198.505C632.31 197.121 631.768 194.232 629.497 193.428C628.497 193.074 627.276 193.194 626.463 192.526C625.957 191.968 625.579 191.316 625.353 190.611C625.022 189.943 624.387 189.275 623.658 189.38C623.311 189.449 622.995 189.618 622.751 189.863C621.056 191.4 620.845 194.192 618.828 195.351C618.151 195.673 617.448 195.942 616.726 196.156C615.754 196.54 614.898 197.147 614.235 197.924C613.572 198.701 613.123 199.623 612.93 200.606C611.413 199.688 611.184 197.604 611.769 195.987C612.353 194.369 613.54 193.025 614.362 191.504C615.184 189.984 615.641 188.286 616.413 186.781C616.75 185.989 617.249 185.269 617.882 184.663C618.515 184.056 619.268 183.576 620.099 183.248C621.514 182.814 623.056 183.079 624.522 182.862C625.786 182.572 627.026 182.199 628.234 181.743C630.056 181.231 631.98 181.14 633.846 181.477C635.712 181.815 637.466 182.571 638.962 183.683C639.985 184.503 640.932 185.405 641.793 186.379L647.725 192.736C648.756 193.687 649.551 194.844 650.055 196.123C650.733 198.344 649.589 200.67 648.47 202.73C647.928 203.736 647.25 204.846 646.089 205.144C643.886 205.627 640.793 205.997 639.708 203.567Z" fill="#41286C"/>
<path d="M640.131 204.34C640.296 203.859 640.639 203.453 641.097 203.197C642.03 202.666 643.724 201.982 645.131 202.947C647.19 204.372 644.36 209.385 640.453 207.695C640.453 207.695 639.284 206.89 640.131 204.34Z" fill="#FBC3A8"/>
<path d="M599.192 165.988H514.23V255.502H599.192V165.988Z" fill="#E26126"/>
<path d="M566.651 226.042C566.651 226.042 586.938 232.118 590.006 235.996C593.074 239.875 596.607 259.654 596.607 259.654L520.645 257.144C520.645 257.144 529.967 236.777 535.899 232.311C541.83 227.845 554.448 226.01 554.448 226.01L566.651 226.042Z" fill="#51ACC7"/>
<path d="M542.144 243.488C542.144 243.488 544.771 236.246 545.389 233.832C546.008 231.418 548.508 229.511 547.237 228.722C545.966 227.934 542.932 231.748 542.932 231.748C542.932 231.748 541.703 226.823 541.568 225.254C541.432 223.685 540.44 220.941 539.22 220.949C538 220.957 539.22 228.44 539.22 228.44C539.22 228.44 537.525 222.228 536.432 222.003C535.339 221.778 536.212 229.977 536.212 229.977C536.212 229.977 534.771 223.266 534.178 222.84C533.585 222.413 532.975 223.113 532.882 225.608C532.848 227.306 533.007 229.003 533.356 230.669C532.862 228.929 532.277 227.212 531.602 225.527C531.229 225.029 530.339 224.594 530.602 228.296C530.865 231.997 532.822 239.924 535.492 243.512L542.144 243.488Z" fill="#FBC3A8"/>
<path d="M545.178 203.695C545.178 203.695 544.034 202.086 543.127 202.714C540.814 204.412 543.127 206.608 544.653 207.099L545.178 203.695Z" fill="#F0A996"/>
<path d="M544.686 197.636C544.686 197.467 544.686 197.29 544.686 197.113C544.691 195.116 545.166 193.145 546.077 191.345C546.987 189.544 548.31 187.96 549.948 186.708C551.586 185.456 553.499 184.567 555.545 184.107C557.592 183.647 559.721 183.627 561.776 184.049C563.832 184.471 565.762 185.324 567.426 186.545C569.09 187.767 570.445 189.326 571.392 191.109C572.34 192.892 572.855 194.854 572.902 196.851C572.948 198.847 572.523 200.828 571.659 202.649C570.346 205.779 569.185 208.459 567.956 210.696C565.95 214.388 565.263 218.599 565.999 222.694L566.558 225.913C557.872 230.274 553.931 226.186 553.931 226.186L553.787 220.272C553.777 219.9 553.622 219.546 553.35 219.277C553.079 219.009 552.712 218.847 552.321 218.823C541.568 218.123 544.669 202.231 544.686 197.636Z" fill="#FBC3A8"/>
<path d="M574.083 198.32L570.312 207.172L567.744 206.681L566.244 194.981L574.083 198.32Z" fill="#41286C"/>
<path d="M567.347 206.392C567.581 205.961 567.972 205.626 568.448 205.45C569.423 205.08 571.143 204.646 572.321 205.804C574.016 207.454 570.55 211.808 567.109 209.627C567.109 209.627 566.135 208.685 567.347 206.392Z" fill="#FBC3A8"/>
<path d="M546.965 192.438C546.965 192.438 544.931 193.782 544.423 201.917C544.423 201.917 543.762 192.848 544.83 191.859C545.897 190.869 546.965 192.438 546.965 192.438Z" fill="#41286C"/>
<path d="M575.066 199.383C575.261 199.086 575.344 198.735 575.302 198.388C575.261 198.04 575.097 197.716 574.837 197.468C575.048 197.306 575.219 197.103 575.34 196.872C575.46 196.642 575.527 196.389 575.536 196.132C575.545 195.875 575.496 195.619 575.391 195.381C575.286 195.144 575.129 194.931 574.93 194.756C574.727 194.595 574.481 194.474 574.295 194.297C574.018 193.991 573.836 193.618 573.769 193.219C573.57 192.393 573.481 191.547 573.507 190.7C573.593 190.177 573.51 189.641 573.269 189.163C572.863 188.568 571.964 188.431 571.524 187.86C571.083 187.288 571.236 186.041 570.498 185.566C570.066 185.389 569.604 185.286 569.134 185.26C567.693 184.931 566.999 183.144 565.541 182.846C565.073 182.804 564.602 182.804 564.134 182.846C562.736 182.846 561.465 182.114 560.151 181.663C558.838 181.213 557.126 181.148 556.262 182.195C556.126 182.405 555.957 182.595 555.762 182.758C555.44 182.921 555.066 182.967 554.711 182.887C553.767 182.703 552.809 182.593 551.847 182.557C551.363 182.544 550.883 182.647 550.452 182.856C550.021 183.066 549.653 183.375 549.381 183.756C549.263 184.042 549.106 184.313 548.915 184.56C548.639 184.788 548.295 184.928 547.932 184.963C546.5 185.212 544.72 185.373 544.178 186.653C543.762 187.618 544.296 188.906 543.534 189.662C543.254 189.944 542.856 190.081 542.559 190.346C542.396 190.537 542.275 190.758 542.205 190.995C542.135 191.232 542.116 191.48 542.15 191.724C542.184 191.968 542.271 192.203 542.404 192.414C542.536 192.626 542.713 192.809 542.923 192.953C543.812 193.502 544.889 193.707 545.932 193.525C546.963 193.339 548.009 193.242 549.059 193.235C549.2 193.229 549.341 193.254 549.47 193.309C549.6 193.363 549.714 193.445 549.804 193.549C549.887 193.718 549.93 193.902 549.932 194.088C550.004 194.493 550.189 194.872 550.468 195.186C550.746 195.5 551.108 195.738 551.516 195.874C552.336 196.126 553.202 196.211 554.059 196.124C555.554 196.053 557.041 195.873 558.507 195.585C559.432 195.242 560.429 195.112 561.416 195.208C562.403 195.303 563.352 195.62 564.185 196.132C565.355 196.679 566.566 197.146 567.778 197.621L568.82 198.023C570.159 198.53 573.939 201.016 575.066 199.383Z" fill="#41286C"/>
<path d="M533.703 243.561H543.779L545.279 261.014L525.127 258.689L533.703 243.561Z" fill="#51ACC7"/>
<path d="M599.008 243.95H514.267V334.623H599.008V243.95Z" fill="#12819B"/>
<path d="M672.733 243.95H599.008V334.623H672.733V243.95Z" fill="#84BB41"/>
<path d="M575.669 350.196H525.841V400.024H575.669V350.196Z" fill="#10112F"/>
<path d="M593.304 395.397H508.206V406.286H593.304V395.397Z" fill="#10112F"/>
<path d="M546.332 159.714C552.42 159.714 557.356 154.778 557.356 148.689C557.356 142.6 552.42 137.664 546.332 137.664C540.243 137.664 535.307 142.6 535.307 148.689C535.307 154.778 540.243 159.714 546.332 159.714Z" fill="#1C1953"/>
<path d="M549.255 153.451H542.721V161.078H549.255V153.451Z" fill="#1C1953"/>
<path d="M544.899 155.629C548.732 155.629 551.84 152.522 551.84 148.689C551.84 144.856 548.732 141.749 544.899 141.749C541.066 141.749 537.959 144.856 537.959 148.689C537.959 152.522 541.066 155.629 544.899 155.629Z" fill="#10112F"/>
<path d="M546.933 148.494C548.215 148.494 549.255 147.454 549.255 146.172C549.255 144.89 548.215 143.85 546.933 143.85C545.65 143.85 544.611 144.89 544.611 146.172C544.611 147.454 545.65 148.494 546.933 148.494Z" fill="white"/>
<path d="M215.136 300.95C215.136 300.95 274.498 303.89 293.565 324.593C312.631 345.295 319.165 385.607 331.139 381.234C343.113 376.861 360.002 313.152 360.002 313.152H386.145C386.145 313.152 401.398 446.036 347.477 446.036C308.81 446.036 297.369 419.351 297.369 419.351C297.369 419.351 299.547 493.923 312.623 510.872C312.623 510.872 268.506 545.184 163.401 543.548L156.868 520.668C156.868 520.668 101.837 503.889 93.1421 437.324C88.244 399.809 100.226 328.508 215.136 300.95Z" fill="white"/>
<path d="M332.189 380.691C331.853 380.91 331.496 381.092 331.121 381.234C323.706 383.929 318.41 369.523 310.877 353.269C292.979 364.48 270.658 386.564 244.032 385.344C208.314 383.708 203.407 355.684 169.104 353.752C153.257 352.905 138.817 348.82 127.852 343.363C100.548 368.599 92.6584 398.258 92.2178 421.52C103.87 436.697 119.394 450.027 136.385 446.044C172.332 437.57 184.171 429.435 206.026 435.155C224.11 439.884 273.819 459.162 298.953 447.154C297.665 431.536 297.309 419.359 297.309 419.359C297.309 419.359 300.919 427.774 310.927 435.155C318.924 417.369 326.02 399.191 332.189 380.691Z" fill="#F1AD1F"/>
<path d="M177.925 522.024C165.494 522.024 157.028 521.236 156.799 521.176C156.65 521.161 156.513 521.088 156.417 520.972C156.322 520.856 156.276 520.707 156.291 520.558C156.31 520.41 156.384 520.275 156.499 520.181C156.614 520.086 156.761 520.039 156.909 520.049C157.528 520.108 218.466 525.761 254.693 506.27L251.532 476.899C244.464 475.789 170.383 463.738 165.587 444.002C160.714 423.961 167.688 390.174 167.765 389.835C167.776 389.759 167.802 389.685 167.843 389.619C167.883 389.553 167.937 389.496 168 389.451C168.064 389.407 168.135 389.376 168.211 389.36C168.287 389.344 168.365 389.344 168.441 389.36C168.517 389.375 168.589 389.406 168.652 389.451C168.716 389.495 168.77 389.552 168.81 389.618C168.851 389.684 168.877 389.758 168.889 389.834C168.9 389.911 168.895 389.989 168.875 390.064C168.807 390.403 161.875 423.961 166.688 443.731C171.442 463.289 251.328 475.721 252.133 475.848C252.256 475.868 252.369 475.927 252.455 476.018C252.541 476.108 252.595 476.224 252.608 476.348L255.879 506.575C255.891 506.687 255.869 506.8 255.816 506.9C255.763 507 255.682 507.081 255.582 507.135C232.49 519.693 199.331 522.024 177.925 522.024Z" fill="#10112F"/>
<path d="M323.766 460.832H288.59C286.428 460.832 284.675 462.584 284.675 464.747V508.863C284.675 511.025 286.428 512.778 288.59 512.778H323.766C325.928 512.778 327.681 511.025 327.681 508.863V464.747C327.681 462.584 325.928 460.832 323.766 460.832Z" fill="#5B408E"/>
<path d="M341.121 500.194H324.452C323.72 500.115 323.043 499.769 322.551 499.222C322.059 498.674 321.787 497.964 321.787 497.228C321.787 496.492 322.059 495.782 322.551 495.234C323.043 494.687 323.72 494.34 324.452 494.262H338.129V474.568H326.104C325.688 474.613 325.267 474.569 324.869 474.44C324.471 474.312 324.104 474.1 323.793 473.821C323.482 473.541 323.233 473.199 323.063 472.817C322.892 472.434 322.804 472.021 322.804 471.602C322.804 471.184 322.892 470.77 323.063 470.387C323.233 470.005 323.482 469.663 323.793 469.383C324.104 469.104 324.471 468.893 324.869 468.764C325.267 468.635 325.688 468.592 326.104 468.636H341.155C341.946 468.636 342.704 468.95 343.264 469.51C343.823 470.069 344.137 470.828 344.137 471.619V497.245C344.133 497.637 344.052 498.024 343.897 498.384C343.743 498.744 343.52 499.07 343.24 499.344C342.96 499.618 342.628 499.834 342.265 499.98C341.901 500.126 341.512 500.198 341.121 500.194Z" fill="#5B408E"/>
<path d="M253.058 485.872C253.058 485.872 272.396 476.051 278.48 473.627C284.565 471.204 288.717 464.306 291.234 467.178C293.751 470.051 284.785 478.974 284.785 478.974C284.785 478.974 298.106 480.245 302.259 480.017C306.411 479.788 313.944 481.262 314.351 484.254C314.758 487.245 294.751 487.033 294.751 487.033C294.751 487.033 311.589 488.932 312.546 491.643C313.504 494.355 291.734 495.092 291.734 495.092C291.734 495.092 309.792 496.236 311.131 497.567C312.47 498.897 310.826 500.66 304.352 501.804C299.916 502.498 295.419 502.714 290.937 502.448C290.937 502.448 303.564 504.202 305.013 504.939C306.462 505.676 307.902 507.753 298.106 508.431C288.31 509.109 265.125 507.49 254.82 502.16L253.058 485.872Z" fill="#FBC3A8"/>
<path d="M279.335 239.563C279.335 239.563 282.886 234.707 285.428 236.826C291.92 242.292 284.962 248.69 280.437 250.037L279.335 239.563Z" fill="#F0A996"/>
<path d="M281.548 221.148C281.548 220.623 281.632 220.098 281.649 219.564C281.893 213.468 280.772 207.394 278.366 201.787C275.961 196.18 272.333 191.182 267.748 187.157C263.162 183.133 257.735 180.184 251.864 178.527C245.992 176.87 239.824 176.546 233.812 177.579C227.799 178.612 222.093 180.976 217.111 184.498C212.129 188.02 207.997 192.611 205.018 197.935C202.039 203.259 200.287 209.181 199.891 215.269C199.495 221.358 200.465 227.457 202.729 233.122C206.119 242.842 209.161 251.155 212.424 258.104C217.773 269.621 219.228 282.567 216.568 294.984L214.873 300.916C239.448 315.322 251.193 305.771 251.193 305.771L252.278 289.06C252.354 287.927 252.852 286.863 253.674 286.078C254.496 285.294 255.582 284.846 256.718 284.823H256.761C287.971 284.052 280.997 235.156 281.548 221.148Z" fill="#FBC3A8"/>
<path d="M196.026 219.005L206.034 247.113L213.534 245.918L219.398 210.395L196.026 219.005Z" fill="#41286C"/>
<path d="M214.72 245.088C214.097 243.745 213.007 242.676 211.653 242.079C208.873 240.825 203.941 239.393 200.382 242.681C195.162 247.511 204.746 261.222 215 254.994C214.991 254.994 217.957 252.248 214.72 245.088Z" fill="#FBC3A8"/>
<path d="M212.805 170.835C222.058 162.852 236.803 165.572 247.362 159.411C243.494 165.24 238.581 170.302 232.871 174.343L277.183 167.564C272.21 171.453 266.865 174.843 261.226 177.682C272.196 180.086 283.364 181.476 294.589 181.834C295.436 183.681 294.436 185.834 293.428 187.613C287.92 197.367 281.31 208.011 270.463 210.833C267.067 211.614 263.565 211.829 260.099 211.468C246.379 210.417 231.761 205.113 219.491 211.333C213.805 214.222 205.703 225.739 198.5 222.976C192.102 220.519 184.111 195.596 212.805 170.835Z" fill="#41286C"/>
<path d="M746.534 349.95H638.42V353.06H693.884C696.567 353.06 699.141 354.126 701.038 356.024C702.936 357.921 704.002 360.495 704.002 363.178C704.003 364.508 703.742 365.824 703.234 367.053C702.726 368.282 701.981 369.398 701.041 370.338C700.102 371.279 698.986 372.025 697.758 372.534C696.53 373.043 695.213 373.305 693.884 373.305H638.42V376.22H746.534C750.017 376.22 753.358 374.836 755.822 372.373C758.285 369.91 759.669 366.569 759.669 363.085C759.669 359.602 758.285 356.261 755.822 353.797C753.358 351.334 750.017 349.95 746.534 349.95Z" fill="#41286C"/>
<path d="M708.934 363.085C708.934 359.602 707.55 356.261 705.087 353.797C702.623 351.334 699.283 349.95 695.799 349.95H638.42V353.06H693.884C696.567 353.06 699.141 354.126 701.038 356.024C702.936 357.921 704.002 360.495 704.002 363.178C704.003 364.508 703.742 365.824 703.234 367.053C702.726 368.282 701.981 369.398 701.041 370.338C700.102 371.279 698.986 372.025 697.758 372.534C696.53 373.043 695.213 373.305 693.884 373.305H638.42V376.22H695.799C699.283 376.22 702.623 374.836 705.087 372.373C707.55 369.91 708.934 366.569 708.934 363.085Z" fill="#41286C"/>
<path d="M693.884 353.077H638.42V353.145C640.885 353.432 643.158 354.614 644.808 356.467C646.458 358.32 647.369 360.714 647.369 363.195C647.369 365.676 646.458 368.071 644.808 369.924C643.158 371.777 640.885 372.959 638.42 373.246V373.313H693.884C696.567 373.313 699.141 372.247 701.038 370.35C702.936 368.452 704.002 365.879 704.002 363.195C704.002 360.512 702.936 357.938 701.038 356.041C699.141 354.143 696.567 353.077 693.884 353.077Z" fill="white"/>
<path d="M704.01 363.085C704.01 361.756 703.748 360.439 703.239 359.211C702.73 357.983 701.984 356.867 701.044 355.927C700.103 354.988 698.987 354.243 697.758 353.735C696.53 353.227 695.213 352.966 693.884 352.967H638.42V353.035C640.958 353.329 643.289 354.573 644.946 356.517C656.038 355.67 689.121 354.611 692.613 373.203H693.884C695.213 373.204 696.53 372.943 697.758 372.435C698.987 371.927 700.103 371.182 701.044 370.243C701.984 369.303 702.73 368.187 703.239 366.959C703.748 365.731 704.01 364.414 704.01 363.085Z" fill="#EEECD7"/>
<path d="M655.936 376.229H769.219V379.805H711.103C705.247 379.805 700.502 385.008 700.502 391.423C700.502 397.838 705.247 403.041 711.103 403.041H769.219V406.43H655.936C648.309 406.43 642.174 399.651 642.174 391.355C642.191 382.974 648.335 376.229 655.936 376.229Z" fill="#41286C"/>
<path d="M695.333 391.304C695.333 382.974 701.494 376.229 709.095 376.229H769.262V379.805H711.103C705.248 379.805 700.502 385.008 700.502 391.423C700.502 397.838 705.248 403.041 711.103 403.041H769.219V406.43H709.053C701.511 406.38 695.333 399.634 695.333 391.304Z" fill="#41286C"/>
<path d="M711.103 379.813H769.218V379.89C763.939 380.551 759.838 385.466 759.838 391.423C759.838 397.355 763.939 402.295 769.218 402.956V403.033H711.103C705.247 403.033 700.501 397.83 700.501 391.415C700.493 385.017 705.247 379.813 711.103 379.813Z" fill="white"/>
<path d="M700.493 391.304C700.493 384.889 705.239 379.686 711.094 379.686H769.219V379.762C767.872 379.947 766.575 380.395 765.401 381.082C764.228 381.768 763.201 382.679 762.38 383.762C750.753 382.754 716.086 381.576 712.433 402.922H711.103C705.247 402.922 700.493 397.719 700.493 391.304Z" fill="#EEECD7"/>
<path d="M383.363 145.485C411.983 145.485 435.183 122.285 435.183 93.6657C435.183 65.0466 411.983 41.8462 383.363 41.8462C354.744 41.8462 331.544 65.0466 331.544 93.6657C331.544 122.285 354.744 145.485 383.363 145.485Z" fill="#7E5C9F"/>
<mask id="mask1" mask-type="alpha" maskUnits="userSpaceOnUse" x="520" y="246" width="84" height="88">
<path d="M520 246H603.894V333.284H520V246Z" fill="#C4C4C4"/>
</mask>
<g mask="url(#mask1)">
<path d="M525.33 310.537C525.441 314.503 530.212 317.799 528.898 321.553C528.61 322.401 528.051 323.095 527.796 323.951C527.288 325.816 528.644 327.824 530.491 328.502C532.365 329.069 534.383 328.908 536.143 328.053C537.932 327.307 539.533 326.214 541.313 325.417C545.262 323.621 549.711 323.35 553.965 322.511C558.219 321.672 562.574 320.197 566.972 320.502C572.057 320.858 576.608 323.511 581.379 325.324C586.224 327.175 591.353 328.173 596.539 328.273C599.242 328.324 602.03 328.104 604.428 326.858C609.208 324.367 611.055 318.163 609.14 313.299C607.992 310.516 605.921 308.212 603.276 306.774C600.954 305.478 597.996 305.079 596.242 302.876C593.793 299.842 595.293 295.3 594.327 291.521C593.843 289.939 593.014 288.485 591.898 287.264C590.783 286.043 589.41 285.086 587.878 284.462C585.116 283.275 581.675 283.114 579.607 280.682C577.353 278.038 578.099 274.377 577.692 271.208C577.116 266.666 574.099 262.649 570.218 260.192C569.038 259.461 567.785 258.853 566.481 258.378C557.77 255.183 546.406 257.387 543.355 267.352C542.414 270.403 542.508 273.818 540.813 276.538C538.999 279.496 535.347 281.25 534.338 284.572C533.076 288.741 536.652 293.224 535.474 297.427C534.703 300.173 532.144 301.944 529.873 303.673C527.601 305.401 525.254 307.689 525.33 310.537Z" fill="#41286C"/>
<path d="M567.701 302.197C567.701 302.197 587.988 308.595 591.055 312.68C594.123 316.765 597.657 337.594 597.657 337.594L521.694 334.95C521.694 334.95 531.016 313.502 536.948 308.799C542.88 304.096 555.498 302.164 555.498 302.164L567.701 302.197Z" fill="#D71F27"/>
<path d="M545.176 281.436C545.176 281.436 543.761 279.877 542.956 280.716C540.914 282.868 543.803 284.885 545.405 285.165L545.176 281.436Z" fill="#F0A996"/>
<path d="M556.582 258.124C558.883 257.93 561.196 258.295 563.326 259.188C565.455 260.081 567.337 261.475 568.812 263.251C570.286 265.028 571.31 267.135 571.795 269.392C572.28 271.65 572.213 273.991 571.598 276.216C570.395 281.445 569.378 285.674 567.81 288.868C566.192 292.093 565.855 295.812 566.87 299.275L567.92 302.766C560.294 308.139 556.057 304.562 556.057 304.562L554.802 296.317C545.727 296.605 544.413 279.97 543.676 275.132C543.676 274.954 543.608 274.767 543.583 274.581C543.285 272.636 543.391 270.652 543.894 268.75C544.397 266.848 545.285 265.07 546.505 263.527C547.724 261.983 549.248 260.707 550.982 259.777C552.715 258.848 554.622 258.285 556.582 258.124Z" fill="#FBC3A8"/>
<path d="M559.786 272.386C561.759 273.93 563.636 275.594 565.405 277.369C567.311 279.208 569.294 281.165 570.048 283.707C572.082 281.614 573.158 278.775 574.006 275.979C574.45 274.696 574.699 273.353 574.743 271.996C574.602 270.078 574.093 268.205 573.243 266.479C572.294 264.191 571.277 261.819 569.379 260.225C568.08 259.214 566.585 258.484 564.989 258.081C561.311 256.939 557.382 256.874 553.668 257.895C551.826 258.422 550.107 259.308 548.609 260.502C547.111 261.696 545.864 263.174 544.939 264.852C542.66 269.216 543.126 274.453 543.651 279.352C543.838 277.258 544.914 275.36 545.965 273.547C546.584 272.326 547.403 271.218 548.388 270.267C550.151 268.742 550.744 268.928 553.812 266.09C555.108 268.945 557.278 270.505 559.786 272.386Z" fill="#41286C"/>
<path d="M567.879 280.843C568.042 280.35 568.379 279.934 568.828 279.673C569.743 279.131 571.37 278.436 572.777 279.444C574.785 280.919 571.98 286.071 568.167 284.3C568.167 284.3 567.031 283.461 567.879 280.843Z" fill="#FBC3A8"/>
</g>
<mask id="mask2" mask-type="alpha" maskUnits="userSpaceOnUse" x="605" y="246" width="71" height="88">
<path d="M605.589 246H675.924V333.284H605.589V246Z" fill="#C4C4C4"/>
</mask>
<g mask="url(#mask2)">
<path d="M629.879 277.45C629.879 277.45 628.828 275.493 627.794 276.154C625.159 277.848 627.396 280.526 628.989 281.238L629.879 277.45Z" fill="#F0A996"/>
<path d="M629.989 270.594C629.989 270.399 629.989 270.205 629.989 270.01C630.194 267.77 630.897 265.604 632.046 263.67C633.195 261.737 634.762 260.084 636.632 258.834C638.501 257.583 640.627 256.766 642.853 256.442C645.079 256.118 647.349 256.296 649.497 256.962C651.646 257.628 653.619 258.765 655.271 260.291C656.924 261.817 658.215 263.693 659.05 265.781C659.884 267.87 660.242 270.119 660.097 272.363C659.951 274.608 659.306 276.792 658.208 278.755C656.513 282.145 654.996 285.043 653.471 287.424C650.97 291.379 649.821 296.039 650.2 300.703L650.48 304.372C640.794 308.448 636.989 303.525 636.989 303.525L637.421 296.873C637.443 296.455 637.31 296.044 637.047 295.719C636.784 295.393 636.41 295.176 635.997 295.11C624.6 293.305 629.481 275.764 629.989 270.594Z" fill="#FBC3A8"/>
<path d="M661.335 273.916L656.326 283.721L653.64 282.924L653.191 269.654L661.335 273.916Z" fill="#41286C"/>
<path d="M653.242 282.56C653.535 282.096 653.987 281.756 654.513 281.602C655.589 281.28 657.462 280.984 658.606 282.365C660.301 284.382 656.123 288.941 652.674 286.17C652.674 286.17 651.717 285.026 653.242 282.56Z" fill="#FBC3A8"/>
<path d="M632.896 264.976C632.896 264.976 630.599 266.298 629.235 275.374C629.235 275.374 629.43 265.129 630.659 264.112C631.887 263.095 632.896 264.976 632.896 264.976Z" fill="#10112F"/>
<path d="M651.284 302.584H636.234L630.404 327.821V376.208C630.404 376.208 644.217 382.903 662.411 374.149L657.106 317.516L651.284 302.584Z" fill="white"/>
<path d="M651.285 302.584C651.285 302.584 673.995 312.194 678.453 318.372C682.571 324.075 681.995 318.651 693.867 350.675C694.62 352.708 694.863 354.894 694.575 357.042C694.287 359.19 693.477 361.235 692.215 362.997C691.17 364.432 689.722 365.523 688.054 366.132L676.36 370.496L677.597 400.241L654.946 402.469L651.285 302.584Z" fill="#4F5EAB"/>
<path d="M636.234 302.584C636.234 302.584 613.524 312.194 609.066 318.372C604.609 324.55 609.914 400.232 609.914 400.232L632.565 402.461L636.234 302.584Z" fill="#4F5EAB"/>
<path d="M646.412 305.415L643.759 309.923L649.276 373.632L640.768 387.36L634.455 373.293L640.573 309.541L638.641 305.033L643.835 303.101L646.412 305.415Z" fill="#F37369"/>
<path d="M651.284 302.584L650.157 300.11L643.082 302.584L637.226 299.898L636.234 302.584L637.489 307.22L642.827 303.754L648.039 307.542L651.284 302.584Z" fill="white"/>
<path d="M656.2 255.79C655.767 255.349 654.971 254.993 654.606 255.493C654.481 255.711 654.436 255.966 654.479 256.213C654.533 256.937 654.705 257.647 654.988 258.315C652.446 255.341 648.209 254.417 644.31 254.476C640.412 254.536 636.523 255.391 632.616 255.197C631.065 255.12 629.226 255.01 628.303 256.264C628.013 256.724 627.872 257.261 627.898 257.804C627.923 258.346 628.115 258.868 628.447 259.298C629.134 260.147 630.096 260.728 631.167 260.942C630.761 260.773 630.312 260.736 629.883 260.835C629.455 260.933 629.068 261.164 628.776 261.493C628.485 261.823 628.304 262.235 628.259 262.673C628.213 263.11 628.306 263.551 628.523 263.933C629.184 265.094 630.726 265.349 632.057 265.459C636.301 265.807 640.561 265.929 644.819 265.823L642.963 267.323C642.737 267.475 642.553 267.682 642.429 267.925C642.375 268.104 642.364 268.293 642.396 268.477C642.429 268.661 642.504 268.834 642.616 268.984C642.904 269.372 643.278 269.689 643.709 269.909C644.139 270.13 644.615 270.248 645.099 270.255C646.065 270.259 647.029 270.154 647.971 269.942C649.371 269.714 650.79 269.617 652.208 269.653C652.498 269.643 652.786 269.692 653.056 269.798C653.398 270.013 653.687 270.303 653.903 270.645C655.403 272.45 657.776 273.187 660.021 273.891C660.716 274.102 661.64 274.238 662.03 273.619C662.165 273.358 662.227 273.065 662.208 272.772C662.315 269.377 661.504 266.016 659.86 263.044C659.939 263.23 660.07 263.39 660.237 263.505C660.404 263.619 660.601 263.683 660.803 263.689C661.006 263.696 661.206 263.644 661.38 263.54C661.553 263.436 661.694 263.284 661.784 263.103C662.377 261.984 660.937 261.052 660.174 260.561C659.411 260.069 658.759 260.052 658.216 259.34C657.335 258.273 657.242 256.866 656.2 255.79Z" fill="#41286C"/>
<path d="M660.14 306.644L655.683 325.024L660.14 326.888L653.573 364.997L651.285 302.584L660.14 306.644Z" fill="#3B4DA1"/>
<path d="M627.379 306.644L631.836 325.024L627.379 326.888L633.955 364.997L636.234 302.584L627.379 306.644Z" fill="#3B4DA1"/>
</g>
<path d="M382.364 134.503C405.128 134.503 423.582 116.049 423.582 93.2845C423.582 70.5202 405.128 52.0662 382.364 52.0662C359.6 52.0662 341.146 70.5202 341.146 93.2845C341.146 116.049 359.6 134.503 382.364 134.503Z" fill="white"/>
<path d="M382.313 97.4873C384.863 97.4873 386.931 95.4196 386.931 92.8689C386.931 90.3182 384.863 88.2505 382.313 88.2505C379.762 88.2505 377.694 90.3182 377.694 92.8689C377.694 95.4196 379.762 97.4873 382.313 97.4873Z" fill="#41286C"/>
<path d="M382.313 93.7927H381.39C381.27 93.7927 381.151 93.769 381.04 93.7231C380.928 93.6771 380.828 93.6096 380.743 93.5247C380.658 93.4397 380.59 93.3388 380.544 93.2277C380.498 93.1167 380.475 92.9977 380.475 92.8775C380.475 92.7573 380.498 92.6383 380.544 92.5273C380.59 92.4162 380.658 92.3153 380.743 92.2304C380.828 92.1454 380.928 92.078 381.04 92.032C381.151 91.986 381.27 91.9623 381.39 91.9623L381.432 63.523L380.288 65.2178C380.22 65.3169 380.132 65.4015 380.031 65.4668C379.93 65.5321 379.817 65.5769 379.699 65.5985C379.58 65.6201 379.459 65.6182 379.341 65.5929C379.223 65.5676 379.112 65.5193 379.013 65.4509C378.914 65.3824 378.829 65.2952 378.764 65.194C378.699 65.0929 378.654 64.9799 378.632 64.8615C378.61 64.743 378.612 64.6215 378.638 64.5038C378.663 64.3861 378.711 64.2746 378.78 64.1755L381.602 60.091C381.708 59.9172 381.869 59.7839 382.059 59.712C382.25 59.6401 382.459 59.6338 382.654 59.6941C382.848 59.7544 383.017 59.8778 383.133 60.0449C383.25 60.2119 383.307 60.413 383.296 60.6164L383.246 92.9199C383.235 93.1581 383.131 93.3827 382.957 93.5457C382.783 93.7088 382.552 93.7974 382.313 93.7927Z" fill="#41286C"/>
<path d="M385.474 65.3026C385.337 65.3027 385.203 65.2724 385.08 65.2137C384.956 65.1551 384.848 65.0696 384.762 64.9637L381.652 61.1418C381.498 60.953 381.425 60.7108 381.45 60.4685C381.475 60.2261 381.595 60.0035 381.783 59.8495C381.972 59.6956 382.214 59.6229 382.457 59.6475C382.699 59.6722 382.922 59.7921 383.076 59.9809L386.194 63.8027C386.303 63.9371 386.372 64.0995 386.392 64.2713C386.412 64.4431 386.384 64.6171 386.309 64.7732C386.235 64.9292 386.117 65.061 385.971 65.1532C385.825 65.2454 385.655 65.2943 385.482 65.2942L385.474 65.3026Z" fill="#41286C"/>
<path d="M365.712 96.7583C365.589 96.7591 365.466 96.7347 365.353 96.6866C365.239 96.6386 365.136 96.5678 365.051 96.4786L362.331 93.6567C362.206 93.5273 362.122 93.364 362.089 93.1872C362.057 93.0103 362.077 92.8278 362.148 92.6623C362.218 92.4969 362.336 92.3559 362.486 92.2569C362.636 92.158 362.812 92.1055 362.992 92.106L384.482 92.1568C384.725 92.1568 384.958 92.2532 385.13 92.4249C385.301 92.5965 385.398 92.8293 385.398 93.072V93.9957C385.398 94.2384 385.301 94.4712 385.13 94.6428C384.958 94.8145 384.725 94.9109 384.482 94.9109C384.24 94.9109 384.007 94.8145 383.835 94.6428C383.664 94.4712 383.567 94.2384 383.567 93.9957H365.153L366.373 95.2583C366.498 95.3877 366.582 95.5511 366.615 95.7279C366.647 95.9048 366.627 96.0873 366.556 96.2528C366.486 96.4182 366.368 96.5592 366.218 96.6581C366.068 96.7571 365.892 96.8096 365.712 96.8091V96.7583Z" fill="#41286C"/>
<path d="M362.992 93.9367C362.819 93.9369 362.65 93.888 362.503 93.7958C362.357 93.7036 362.24 93.5718 362.165 93.4157C362.091 93.2596 362.062 93.0856 362.083 92.9139C362.103 92.7421 362.171 92.5797 362.28 92.4453L364.823 89.3268C364.977 89.138 365.199 89.0181 365.442 88.9935C365.684 88.9688 365.926 89.0415 366.115 89.1954C366.304 89.3494 366.424 89.572 366.448 89.8144C366.473 90.0568 366.4 90.299 366.246 90.4878L363.704 93.6063C363.617 93.7107 363.508 93.7945 363.385 93.8517C363.262 93.9088 363.128 93.9379 362.992 93.9367Z" fill="#41286C"/>
</g>
</svg>
