<svg xmlns="http://www.w3.org/2000/svg" viewBox="0 0 225.29 62.2"><defs><style>.cls-1{fill:#3d236c;}.cls-2{fill:#564389;}.cls-3{fill:#93b833;}.cls-4{fill:#b81c25;}.cls-5{fill:#4a8098;}.cls-6{fill:#d79731;}.cls-7{fill:#c6612f;}</style></defs><title>Recurso 1</title><g id="Capa_2" data-name="Capa 2"><g id="Capa_1-2" data-name="Capa 1"><path class="cls-1" d="M31.1,30.09a.87.87,0,0,1-.62-.26L2.14,1.49A.87.87,0,0,1,2.76,0H59.44a.87.87,0,0,1,.62,1.49L31.72,29.83A.87.87,0,0,1,31.1,30.09Z"/><path class="cls-2" d="M.88,60.32A.87.87,0,0,1,0,59.44V2.76a.87.87,0,0,1,.88-.88.86.86,0,0,1,.61.26L29.83,30.48a.87.87,0,0,1,0,1.24L1.49,60.06A.86.86,0,0,1,.88,60.32Z"/><path class="cls-3" d="M34.32,62.2a.87.87,0,0,1-.62-1.49l27-27a.86.86,0,0,1,.61-.26.87.87,0,0,1,.88.88v27a.87.87,0,0,1-.87.87Z"/><path class="cls-4" d="M46.88,45.87a.87.87,0,0,1-.62-.26L32.37,31.72a.87.87,0,0,1,0-1.24L46.26,16.59a.87.87,0,0,1,1.24,0L61.39,30.48a.87.87,0,0,1,0,1.24L47.5,45.61A.87.87,0,0,1,46.88,45.87Z"/><path class="cls-5" d="M61.32,28.76a.86.86,0,0,1-.61-.26L48.15,15.94a.88.88,0,0,1,0-1.24L60.71,2.14a.86.86,0,0,1,.61-.26.87.87,0,0,1,.88.88V27.88A.87.87,0,0,1,61.32,28.76Z"/><path class="cls-6" d="M2.76,62.2a.87.87,0,0,1-.62-1.49L15.25,47.6a.87.87,0,0,1,.62-.26H43.66a.87.87,0,0,1,.62,1.49L31.16,61.94a.83.83,0,0,1-.61.26Z"/><path class="cls-7" d="M18.54,46.42a.87.87,0,0,1-.62-1.49L30.48,32.37a.87.87,0,0,1,1.24,0L44.28,44.93a.87.87,0,0,1-.62,1.49Z"/><path class="cls-1" d="M112.13,48V18.76L95.78,42.1,79.2,18.71V48H76.65V10.59l19.13,27,18.91-27V48Z"/><path class="cls-1" d="M130,38.58,125.59,48h-2.84l17.38-37.36L156.54,48h-2.79l-4.14-9.37Zm10-21.69L131.15,36h17.32Z"/><path class="cls-1" d="M193.1,48h-3.41L176.46,32.22,164.54,48.57V11h2.56V40.62L188.62,11h3.23L178,30Z"/><path class="cls-1" d="M201.39,48V11h23.9v2.61H204V28.19h16.63V30.8H204V45.28h21.34V48Z"/></g></g></svg>