<svg width="32" height="22" viewBox="0 0 32 22" fill="none" xmlns="http://www.w3.org/2000/svg">
<path d="M17.2529 19.3081C17.4915 19.308 17.7229 19.3934 17.9074 19.55C18.0919 19.7066 18.2186 19.9246 18.2653 20.1668C18.312 20.4091 18.2757 20.6605 18.1633 20.8784C18.051 21.0963 17.8692 21.2673 17.6488 21.362C17.4284 21.4566 17.1833 21.4691 16.9549 21.3975C16.7266 21.3259 16.529 21.1747 16.3964 20.9693C16.2637 20.764 16.2038 20.5174 16.2271 20.2715C16.2504 20.0257 16.3557 19.7958 16.5243 19.621C16.7182 19.4217 16.9796 19.3093 17.2529 19.3081Z" fill="white"/>
<path d="M1.20127 1.17615L1.26526 1.26876L1.2346 1.15149C1.71597 0.802484 2.28984 0.615687 2.87758 0.616703H28.6767C29.2268 0.616446 29.7657 0.779999 30.2284 1.08785C30.2654 1.11072 30.3004 1.13608 30.3344 1.16356C30.7094 1.43858 31.0159 1.80235 31.2275 2.22468C31.4391 2.64701 31.5497 3.11567 31.5508 3.59139V18.4698C31.5499 19.2586 31.2466 20.0147 30.7076 20.5724C30.1687 21.1301 29.4382 21.4436 28.6761 21.4443H21.8575C21.5839 21.4443 21.3218 21.3319 21.1283 21.1317C20.9349 20.9314 20.8264 20.6598 20.8264 20.3767C20.8264 20.0935 20.9349 19.8219 21.1283 19.6217C21.3218 19.4214 21.5839 19.309 21.8575 19.309H27.5336L20.1925 10.4312L16.38 13.2786C16.2033 13.4075 15.9924 13.4767 15.7762 13.4767C15.5599 13.4767 15.3484 13.4075 15.1716 13.2786L11.3544 10.4362L4.01733 19.3083H13.1947C13.4683 19.3083 13.7304 19.4207 13.9239 19.621C14.1174 19.8212 14.2265 20.0928 14.2265 20.376C14.2265 20.6591 14.1174 20.9308 13.9239 21.131C13.7304 21.3312 13.4683 21.4436 13.1947 21.4436H2.87424C2.11221 21.4429 1.38152 21.1292 0.84268 20.5715C0.303839 20.0139 0.000915527 19.2578 0.000192642 18.4691V3.59139C0.00169754 3.11921 0.111313 2.65416 0.320126 2.23434C0.528936 1.81452 0.830832 1.45177 1.20127 1.17615ZM21.8729 9.1774L29.4912 18.3879V3.59139C29.4912 3.55833 29.4893 3.5252 29.4852 3.4924L21.8729 9.1774ZM4.56855 2.74929L15.7775 11.0944L26.9498 2.74929H4.56855ZM2.06508 3.58846V18.3843L9.67679 9.18585L2.06975 3.52206C2.06732 3.54505 2.06559 3.56827 2.06575 3.59139L2.06508 3.58846Z" fill="white"/>
</svg>
