<?xml version="1.0" encoding="utf-8"?>
<!-- Generator: Adobe Illustrator 21.0.2, SVG Export Plug-In . SVG Version: 6.00 Build 0)  -->
<svg version="1.1" id="Capa_1" xmlns="http://www.w3.org/2000/svg" xmlns:xlink="http://www.w3.org/1999/xlink" x="0px" y="0px"
	 viewBox="0 0 500 440" style="enable-background:new 0 0 500 440;" xml:space="preserve">
<style type="text/css">
	.st0{opacity:0.5;}
	.st1{fill:#FFFFFF;}
	.st2{fill:#F7F8F8;}
	.st3{fill:#F2F3F3;}
	.st4{fill:#EEEEEF;}
	.st5{fill:#E9EAEA;}
	.st6{fill:#E4E5E6;}
	.st7{fill:#DFE0E2;}
	.st8{fill:#DBDCDD;}
	.st9{fill:#D6D7D9;}
	.st10{fill:#D1D3D4;}
	.st11{fill:#1F1332;}
	.st12{fill:#E4E2E2;}
	.st13{fill:#D0CECE;}
	.st14{fill:#BFBCBC;}
	.st15{fill:#AEABAB;}
	.st16{fill:#9E9B9B;}
	.st17{fill:#8F8C8C;}
	.st18{fill:#817F7F;}
	.st19{fill:#747372;}
	.st20{fill:#676767;}
	.st21{fill:#654091;}
	.st22{fill:#4B286F;}
	.st23{fill:#F26327;}
	.st24{fill:#F8991D;}
	.st25{clip-path:url(#SVGID_2_);fill:#F9B9A1;}
	.st26{clip-path:url(#SVGID_2_);fill:#603A18;}
	.st27{clip-path:url(#SVGID_2_);fill:#1B0F2B;}
	.st28{clip-path:url(#SVGID_2_);fill:#8C6339;}
	.st29{clip-path:url(#SVGID_2_);fill:#754E23;}
	.st30{clip-path:url(#SVGID_2_);fill:#EEA895;}
	.st31{clip-path:url(#SVGID_2_);fill:#4B286F;}
	.st32{clip-path:url(#SVGID_2_);fill:#C6B299;}
	.st33{clip-path:url(#SVGID_2_);fill:#736458;}
	.st34{clip-path:url(#SVGID_2_);fill:#554741;}
	.st35{clip-path:url(#SVGID_2_);fill:#323232;}
	.st36{clip-path:url(#SVGID_2_);fill:#4E4E4E;}
	.st37{clip-path:url(#SVGID_2_);fill:#979797;}
	.st38{clip-path:url(#SVGID_2_);fill:#B3B3B3;}
	.st39{clip-path:url(#SVGID_2_);fill:#818181;}
	.st40{clip-path:url(#SVGID_2_);}
	.st41{clip-path:url(#SVGID_4_);fill:#CBCBCA;}
	.st42{clip-path:url(#SVGID_2_);fill:#676767;}
	.st43{opacity:0.42;clip-path:url(#SVGID_6_);}
	.st44{clip-path:url(#SVGID_8_);fill:#40296C;}
	.st45{clip-path:url(#SVGID_6_);fill-rule:evenodd;clip-rule:evenodd;fill:#3E3847;}
	.st46{clip-path:url(#SVGID_6_);fill-rule:evenodd;clip-rule:evenodd;fill:#818181;}
	.st47{clip-path:url(#SVGID_6_);fill-rule:evenodd;clip-rule:evenodd;fill:#AD653A;}
	.st48{clip-path:url(#SVGID_6_);fill-rule:evenodd;clip-rule:evenodd;fill:#C87442;}
	.st49{clip-path:url(#SVGID_6_);fill-rule:evenodd;clip-rule:evenodd;fill:#FCBF8C;}
	.st50{clip-path:url(#SVGID_6_);fill-rule:evenodd;clip-rule:evenodd;fill:#EAAB73;}
	.st51{clip-path:url(#SVGID_6_);fill-rule:evenodd;clip-rule:evenodd;fill:#2A373C;}
	.st52{clip-path:url(#SVGID_6_);fill-rule:evenodd;clip-rule:evenodd;fill:#068C91;}
	.st53{clip-path:url(#SVGID_6_);fill-rule:evenodd;clip-rule:evenodd;fill:#00989D;}
	.st54{clip-path:url(#SVGID_6_);fill-rule:evenodd;clip-rule:evenodd;fill:#00839D;}
	.st55{clip-path:url(#SVGID_6_);fill-rule:evenodd;clip-rule:evenodd;fill:#FCBD15;}
	.st56{clip-path:url(#SVGID_6_);fill-rule:evenodd;clip-rule:evenodd;fill:#F5B31A;}
	.st57{clip-path:url(#SVGID_6_);fill-rule:evenodd;clip-rule:evenodd;fill:#3B474C;}
	.st58{clip-path:url(#SVGID_6_);fill-rule:evenodd;clip-rule:evenodd;fill:#FFC907;}
	.st59{clip-path:url(#SVGID_6_);fill-rule:evenodd;clip-rule:evenodd;fill:#854F2E;}
	.st60{fill:#ED2227;}
	.st61{fill:#00839D;}
	.st62{fill:#61BB46;}
	.st63{clip-path:url(#SVGID_10_);fill:#F3BC8D;}
	.st64{clip-path:url(#SVGID_10_);fill:#3E3847;}
	
		.st65{clip-path:url(#SVGID_10_);fill:none;stroke:#F3BC8D;stroke-width:2;stroke-linecap:round;stroke-linejoin:round;stroke-miterlimit:10;}
	.st66{clip-path:url(#SVGID_10_);fill:#F26327;}
	.st67{clip-path:url(#SVGID_10_);fill:#CED0D2;}
	.st68{clip-path:url(#SVGID_10_);fill:#F1F0F0;}
	.st69{clip-path:url(#SVGID_10_);fill:#F3F0F2;}
	.st70{clip-path:url(#SVGID_10_);fill:#A6A6AA;}
	.st71{clip-path:url(#SVGID_10_);fill:#7E8082;}
	.st72{clip-path:url(#SVGID_10_);fill:#FFFFFF;}
	.st73{clip-path:url(#SVGID_12_);fill:#1E0D39;}
	.st74{clip-path:url(#SVGID_14_);fill:#FBC2A7;}
	.st75{clip-path:url(#SVGID_14_);fill:#EEA895;}
	.st76{clip-path:url(#SVGID_14_);fill:#3E3847;}
	.st77{clip-path:url(#SVGID_14_);fill:#FBC0A7;}
	.st78{clip-path:url(#SVGID_14_);fill:#EE333F;}
	.st79{clip-path:url(#SVGID_14_);fill:#CC202E;}
	.st80{clip-path:url(#SVGID_14_);fill:#B32028;}
	.st81{clip-path:url(#SVGID_16_);fill:#6D212B;}
	.st82{clip-path:url(#SVGID_16_);fill:#9F3847;}
	.st83{opacity:0.25;clip-path:url(#SVGID_16_);}
	.st84{clip-path:url(#SVGID_18_);fill:#FBC2A7;}
	.st85{clip-path:url(#SVGID_16_);fill:#3E3847;}
	.st86{clip-path:url(#SVGID_20_);}
	.st87{clip-path:url(#SVGID_22_);fill:#3E3847;}
	.st88{clip-path:url(#SVGID_20_);fill:#ED2227;}
	.st89{clip-path:url(#SVGID_24_);fill:#CBCBCA;}
	.st90{clip-path:url(#SVGID_26_);fill:#CBCBCA;}
	.st91{clip-path:url(#SVGID_28_);fill:#CBCBCA;}
	.st92{clip-path:url(#SVGID_30_);fill:#CBCBCA;}
	.st93{clip-path:url(#SVGID_32_);fill:#CBCBCA;}
	.st94{clip-path:url(#SVGID_34_);fill:#E5E5E4;}
	.st95{clip-path:url(#SVGID_36_);fill:#E5E5E4;}
	.st96{clip-path:url(#SVGID_38_);fill:#CBCBCA;}
	.st97{clip-path:url(#SVGID_40_);fill:#CBCBCA;}
	.st98{clip-path:url(#SVGID_20_);fill:#181818;}
	.st99{clip-path:url(#SVGID_20_);fill:#E1B59C;}
	.st100{clip-path:url(#SVGID_20_);fill:#CBCBCA;}
	.st101{clip-path:url(#SVGID_20_);fill:#089DD2;}
	.st102{clip-path:url(#SVGID_20_);fill:#EEC7B1;}
	.st103{clip-path:url(#SVGID_20_);fill:#00839D;}
	.st104{clip-path:url(#SVGID_20_);fill:#E5E5E4;}
	.st105{clip-path:url(#SVGID_20_);fill:#BBBBBB;}
	.st106{clip-path:url(#SVGID_20_);fill:#9C9C9C;}
	.st107{clip-path:url(#SVGID_42_);fill:#F2F2F2;}
	.st108{clip-path:url(#SVGID_20_);fill:#F2F2F2;}
	.st109{clip-path:url(#SVGID_20_);fill:#003246;}
	.st110{clip-path:url(#SVGID_20_);fill:#B3B3B3;}
	.st111{clip-path:url(#SVGID_20_);fill:#043F5E;}
	.st112{clip-path:url(#SVGID_20_);fill:#676767;}
	.st113{clip-path:url(#SVGID_20_);fill:#4E4E4E;}
	.st114{clip-path:url(#SVGID_20_);fill:#1072B9;}
	.st115{clip-path:url(#SVGID_44_);}
	.st116{clip-path:url(#SVGID_46_);fill:#F3F4F4;}
	.st117{clip-path:url(#SVGID_48_);fill:#AFB0B1;}
	.st118{clip-path:url(#SVGID_50_);fill:url(#SVGID_51_);}
	.st119{filter:url(#Adobe_OpacityMaskFilter);}
	.st120{enable-background:new    ;}
	.st121{clip-path:url(#SVGID_53_);}
	.st122{filter:url(#Adobe_OpacityMaskFilter_1_);}
	.st123{clip-path:url(#SVGID_56_);mask:url(#SVGID_54_);fill:url(#SVGID_57_);}
	.st124{clip-path:url(#SVGID_59_);}
	.st125{clip-path:url(#SVGID_61_);fill:url(#SVGID_62_);}
	.st126{clip-path:url(#SVGID_53_);fill:#F48480;}
	.st127{clip-path:url(#SVGID_64_);fill:url(#SVGID_65_);}
	.st128{clip-path:url(#SVGID_67_);}
	.st129{clip-path:url(#SVGID_69_);fill:url(#SVGID_70_);}
	.st130{clip-path:url(#SVGID_72_);fill:#F37239;}
	.st131{clip-path:url(#SVGID_72_);fill:#081837;}
	.st132{clip-path:url(#SVGID_72_);fill:#DFE0DE;}
	.st133{clip-path:url(#SVGID_74_);}
	.st134{clip-path:url(#SVGID_76_);fill:url(#SVGID_77_);}
	.st135{clip-path:url(#SVGID_79_);fill:#F37239;}
	.st136{clip-path:url(#SVGID_79_);fill:#081837;}
	.st137{clip-path:url(#SVGID_79_);fill:#DFE0DE;}
	.st138{clip-path:url(#SVGID_79_);fill:#1C2D59;}
	.st139{clip-path:url(#SVGID_79_);fill:#00839D;}
	.st140{clip-path:url(#SVGID_79_);fill:#FFFFFF;}
	.st141{clip-path:url(#SVGID_79_);fill:#F48480;}
	.st142{clip-path:url(#SVGID_81_);fill:url(#SVGID_82_);}
	.st143{clip-path:url(#SVGID_84_);fill:#FAD5A9;}
	.st144{clip-path:url(#SVGID_84_);fill:#F5AF75;}
	.st145{clip-path:url(#SVGID_84_);fill:#3E3847;}
	.st146{filter:url(#Adobe_OpacityMaskFilter_2_);}
	.st147{clip-path:url(#SVGID_84_);}
	.st148{clip-path:url(#SVGID_87_);}
	.st149{filter:url(#Adobe_OpacityMaskFilter_3_);}
	.st150{clip-path:url(#SVGID_89_);mask:url(#SVGID_85_);fill:url(#SVGID_90_);}
	.st151{clip-path:url(#SVGID_92_);}
	.st152{clip-path:url(#SVGID_94_);fill:url(#SVGID_95_);}
	.st153{clip-path:url(#SVGID_97_);fill:url(#SVGID_98_);}
	.st154{filter:url(#Adobe_OpacityMaskFilter_4_);}
	.st155{clip-path:url(#SVGID_100_);}
	.st156{clip-path:url(#SVGID_103_);}
	.st157{filter:url(#Adobe_OpacityMaskFilter_5_);}
	.st158{clip-path:url(#SVGID_105_);mask:url(#SVGID_101_);fill:url(#SVGID_106_);}
	.st159{clip-path:url(#SVGID_108_);}
	.st160{clip-path:url(#SVGID_110_);fill:url(#SVGID_111_);}
	.st161{clip-path:url(#SVGID_100_);fill:#3E3847;}
	.st162{clip-path:url(#SVGID_100_);fill:#0D172E;}
	.st163{clip-path:url(#SVGID_100_);fill:#FFFFFF;}
	.st164{opacity:0.67;clip-path:url(#SVGID_100_);}
	.st165{clip-path:url(#SVGID_113_);}
	.st166{clip-path:url(#SVGID_115_);fill:url(#SVGID_116_);}
	.st167{clip-path:url(#SVGID_100_);fill:#CBDAEF;}
	.st168{opacity:0.15;clip-path:url(#SVGID_100_);}
	.st169{clip-path:url(#SVGID_118_);fill:#020202;}
	.st170{clip-path:url(#SVGID_120_);fill:#020202;}
	.st171{clip-path:url(#SVGID_122_);fill:#020202;}
	.st172{clip-path:url(#SVGID_124_);fill:#020202;}
	.st173{clip-path:url(#SVGID_126_);fill:#020202;}
	.st174{clip-path:url(#SVGID_128_);fill:#020202;}
	.st175{clip-path:url(#SVGID_130_);fill:#BEBEBE;}
	.st176{clip-path:url(#SVGID_130_);fill:#61BB46;}
	.st177{clip-path:url(#SVGID_130_);fill:#F7BD8F;}
	.st178{clip-path:url(#SVGID_130_);fill:#00839D;}
	.st179{clip-path:url(#SVGID_130_);fill:#995825;}
	.st180{clip-path:url(#SVGID_130_);fill:#FACCA7;}
	.st181{clip-path:url(#SVGID_130_);fill:#EAEAE9;}
	.st182{fill:#CBCCCE;}
	.st183{fill:#3E3545;}
	.st184{fill:#84BB41;}
	.st185{fill:#5B408E;}
	.st186{fill:#41286C;}
	.st187{fill:#D71F27;}
	.st188{fill:#E26126;}
	.st189{fill:#12819B;}
	.st190{fill:#EE9C21;}
	.st191{fill-rule:evenodd;clip-rule:evenodd;fill:#E26126;}
	.st192{fill-rule:evenodd;clip-rule:evenodd;fill:#EE9C21;}
	.st193{fill-rule:evenodd;clip-rule:evenodd;fill:#41286C;}
	.st194{fill-rule:evenodd;clip-rule:evenodd;fill:#5B408E;}
	.st195{fill-rule:evenodd;clip-rule:evenodd;fill:#D71F27;}
	.st196{fill-rule:evenodd;clip-rule:evenodd;fill:#12819B;}
	.st197{fill-rule:evenodd;clip-rule:evenodd;fill:#84BB41;}
	.st198{fill-rule:evenodd;clip-rule:evenodd;fill:#0F809A;}
	.st199{fill-rule:evenodd;clip-rule:evenodd;fill:#D62027;}
	.st200{fill-rule:evenodd;clip-rule:evenodd;fill:#5D428B;}
	.st201{fill-rule:evenodd;clip-rule:evenodd;fill:#43286E;}
	.st202{fill-rule:evenodd;clip-rule:evenodd;fill:#82B941;}
	.st203{clip-path:url(#SVGID_132_);fill:#F9B9A1;}
	.st204{clip-path:url(#SVGID_132_);fill:#603A18;}
	.st205{clip-path:url(#SVGID_132_);fill:#1B0F2B;}
	.st206{clip-path:url(#SVGID_132_);fill:#8C6339;}
	.st207{clip-path:url(#SVGID_132_);fill:#754E23;}
	.st208{clip-path:url(#SVGID_132_);fill:#EEA895;}
	.st209{clip-path:url(#SVGID_132_);fill:#4B286F;}
	.st210{clip-path:url(#SVGID_132_);fill:#C6B299;}
	.st211{clip-path:url(#SVGID_132_);fill:#736458;}
	.st212{clip-path:url(#SVGID_132_);fill:#554741;}
	.st213{opacity:0.24;clip-path:url(#SVGID_132_);}
	.st214{clip-path:url(#SVGID_134_);fill:#FBAF53;}
	.st215{clip-path:url(#SVGID_132_);fill:#323232;}
	.st216{clip-path:url(#SVGID_132_);fill:#4E4E4E;}
	.st217{clip-path:url(#SVGID_132_);fill:#979797;}
	.st218{clip-path:url(#SVGID_132_);fill:#B3B3B3;}
	.st219{clip-path:url(#SVGID_132_);fill:#818181;}
	.st220{clip-path:url(#SVGID_132_);}
	.st221{clip-path:url(#SVGID_136_);fill:#CBCBCA;}
	.st222{clip-path:url(#SVGID_132_);fill:#676767;}
	.st223{opacity:0.42;clip-path:url(#SVGID_138_);}
	.st224{clip-path:url(#SVGID_140_);fill:#40296C;}
	.st225{clip-path:url(#SVGID_138_);fill-rule:evenodd;clip-rule:evenodd;fill:#3E3847;}
	.st226{clip-path:url(#SVGID_138_);fill-rule:evenodd;clip-rule:evenodd;fill:#818181;}
	.st227{clip-path:url(#SVGID_138_);fill-rule:evenodd;clip-rule:evenodd;fill:#AD653A;}
	.st228{clip-path:url(#SVGID_138_);fill-rule:evenodd;clip-rule:evenodd;fill:#C87442;}
	.st229{clip-path:url(#SVGID_138_);fill-rule:evenodd;clip-rule:evenodd;fill:#FCBF8C;}
	.st230{clip-path:url(#SVGID_138_);fill-rule:evenodd;clip-rule:evenodd;fill:#EAAB73;}
	.st231{clip-path:url(#SVGID_138_);fill-rule:evenodd;clip-rule:evenodd;fill:#2A373C;}
	.st232{clip-path:url(#SVGID_138_);fill-rule:evenodd;clip-rule:evenodd;fill:#068C91;}
	.st233{clip-path:url(#SVGID_138_);fill-rule:evenodd;clip-rule:evenodd;fill:#00989D;}
	.st234{clip-path:url(#SVGID_138_);fill-rule:evenodd;clip-rule:evenodd;fill:#00839D;}
	.st235{clip-path:url(#SVGID_138_);fill-rule:evenodd;clip-rule:evenodd;fill:#FCBD15;}
	.st236{clip-path:url(#SVGID_138_);fill-rule:evenodd;clip-rule:evenodd;fill:#F5B31A;}
	.st237{clip-path:url(#SVGID_138_);fill-rule:evenodd;clip-rule:evenodd;fill:#3B474C;}
	.st238{clip-path:url(#SVGID_138_);fill-rule:evenodd;clip-rule:evenodd;fill:#FFC907;}
	.st239{clip-path:url(#SVGID_138_);fill-rule:evenodd;clip-rule:evenodd;fill:#854F2E;}
	.st240{opacity:0.24;clip-path:url(#SVGID_138_);}
	.st241{clip-path:url(#SVGID_142_);fill:#693895;}
	.st242{clip-path:url(#SVGID_144_);fill:#F3BC8D;}
	.st243{clip-path:url(#SVGID_144_);fill:#3E3847;}
	
		.st244{clip-path:url(#SVGID_144_);fill:none;stroke:#F3BC8D;stroke-width:2;stroke-linecap:round;stroke-linejoin:round;stroke-miterlimit:10;}
	.st245{clip-path:url(#SVGID_144_);fill:#F26327;}
	.st246{clip-path:url(#SVGID_144_);fill:#CED0D2;}
	.st247{clip-path:url(#SVGID_144_);fill:#F1F0F0;}
	.st248{clip-path:url(#SVGID_144_);fill:#F3F0F2;}
	.st249{clip-path:url(#SVGID_144_);fill:#A6A6AA;}
	.st250{clip-path:url(#SVGID_144_);fill:#7E8082;}
	.st251{clip-path:url(#SVGID_144_);fill:#FFFFFF;}
	.st252{opacity:0.24;clip-path:url(#SVGID_144_);}
	.st253{clip-path:url(#SVGID_146_);fill:#89C540;}
	.st254{clip-path:url(#SVGID_148_);fill:#1E0D39;}
	.st255{clip-path:url(#SVGID_150_);fill:#FBC2A7;}
	.st256{clip-path:url(#SVGID_150_);fill:#EEA895;}
	.st257{clip-path:url(#SVGID_150_);fill:#3E3847;}
	.st258{clip-path:url(#SVGID_150_);fill:#FBC0A7;}
	.st259{clip-path:url(#SVGID_150_);fill:#EE333F;}
	.st260{clip-path:url(#SVGID_150_);fill:#CC202E;}
	.st261{clip-path:url(#SVGID_150_);fill:#B32028;}
	.st262{clip-path:url(#SVGID_152_);fill:#6D212B;}
	.st263{clip-path:url(#SVGID_152_);fill:#9F3847;}
	.st264{opacity:0.25;clip-path:url(#SVGID_152_);}
	.st265{clip-path:url(#SVGID_154_);fill:#FBC2A7;}
	.st266{clip-path:url(#SVGID_152_);fill:#3E3847;}
	.st267{opacity:0.24;clip-path:url(#SVGID_152_);}
	.st268{clip-path:url(#SVGID_156_);fill:#7455A3;}
	.st269{clip-path:url(#SVGID_158_);}
	.st270{clip-path:url(#SVGID_160_);fill:#3E3847;}
	.st271{clip-path:url(#SVGID_158_);fill:#ED2227;}
	.st272{clip-path:url(#SVGID_162_);fill:#CBCBCA;}
	.st273{clip-path:url(#SVGID_164_);fill:#CBCBCA;}
	.st274{clip-path:url(#SVGID_166_);fill:#CBCBCA;}
	.st275{clip-path:url(#SVGID_168_);fill:#CBCBCA;}
	.st276{clip-path:url(#SVGID_170_);fill:#CBCBCA;}
	.st277{clip-path:url(#SVGID_172_);fill:#E5E5E4;}
	.st278{clip-path:url(#SVGID_174_);fill:#E5E5E4;}
	.st279{clip-path:url(#SVGID_176_);fill:#CBCBCA;}
	.st280{clip-path:url(#SVGID_178_);fill:#CBCBCA;}
	.st281{clip-path:url(#SVGID_158_);fill:#181818;}
	.st282{clip-path:url(#SVGID_158_);fill:#E1B59C;}
	.st283{clip-path:url(#SVGID_158_);fill:#CBCBCA;}
	.st284{clip-path:url(#SVGID_158_);fill:#089DD2;}
	.st285{clip-path:url(#SVGID_158_);fill:#EEC7B1;}
	.st286{clip-path:url(#SVGID_158_);fill:#00839D;}
	.st287{clip-path:url(#SVGID_158_);fill:#E5E5E4;}
	.st288{clip-path:url(#SVGID_158_);fill:#BBBBBB;}
	.st289{clip-path:url(#SVGID_158_);fill:#9C9C9C;}
	.st290{clip-path:url(#SVGID_180_);fill:#F2F2F2;}
	.st291{clip-path:url(#SVGID_158_);fill:#F2F2F2;}
	.st292{clip-path:url(#SVGID_158_);fill:#003246;}
	.st293{clip-path:url(#SVGID_158_);fill:#B3B3B3;}
	.st294{clip-path:url(#SVGID_158_);fill:#043F5E;}
	.st295{clip-path:url(#SVGID_158_);fill:#676767;}
	.st296{clip-path:url(#SVGID_158_);fill:#4E4E4E;}
	.st297{clip-path:url(#SVGID_158_);fill:#1072B9;}
	.st298{opacity:0.24;clip-path:url(#SVGID_158_);}
	.st299{clip-path:url(#SVGID_182_);fill:#00ABC4;}
	.st300{clip-path:url(#SVGID_184_);}
	.st301{clip-path:url(#SVGID_186_);fill:#F3F4F4;}
	.st302{clip-path:url(#SVGID_188_);fill:#AFB0B1;}
	.st303{clip-path:url(#SVGID_190_);fill:url(#SVGID_191_);}
	.st304{filter:url(#Adobe_OpacityMaskFilter_6_);}
	.st305{clip-path:url(#SVGID_193_);}
	.st306{filter:url(#Adobe_OpacityMaskFilter_7_);}
	.st307{clip-path:url(#SVGID_196_);mask:url(#SVGID_194_);fill:url(#SVGID_197_);}
	.st308{clip-path:url(#SVGID_199_);}
	.st309{clip-path:url(#SVGID_201_);fill:url(#SVGID_202_);}
	.st310{clip-path:url(#SVGID_193_);fill:#F48480;}
	.st311{clip-path:url(#SVGID_204_);fill:url(#SVGID_205_);}
	.st312{clip-path:url(#SVGID_207_);}
	.st313{clip-path:url(#SVGID_209_);fill:url(#SVGID_210_);}
	.st314{clip-path:url(#SVGID_212_);fill:#F37239;}
	.st315{clip-path:url(#SVGID_212_);fill:#081837;}
	.st316{clip-path:url(#SVGID_212_);fill:#DFE0DE;}
	.st317{clip-path:url(#SVGID_214_);}
	.st318{clip-path:url(#SVGID_216_);fill:url(#SVGID_217_);}
	.st319{clip-path:url(#SVGID_219_);fill:#F37239;}
	.st320{clip-path:url(#SVGID_219_);fill:#081837;}
	.st321{clip-path:url(#SVGID_219_);fill:#DFE0DE;}
	.st322{clip-path:url(#SVGID_219_);fill:#1C2D59;}
	.st323{clip-path:url(#SVGID_219_);fill:#00839D;}
	.st324{clip-path:url(#SVGID_219_);fill:#FFFFFF;}
	.st325{clip-path:url(#SVGID_219_);fill:#F48480;}
	.st326{clip-path:url(#SVGID_221_);fill:url(#SVGID_222_);}
	.st327{clip-path:url(#SVGID_224_);fill:#FAD5A9;}
	.st328{clip-path:url(#SVGID_224_);fill:#F5AF75;}
	.st329{clip-path:url(#SVGID_224_);fill:#3E3847;}
	.st330{filter:url(#Adobe_OpacityMaskFilter_8_);}
	.st331{clip-path:url(#SVGID_224_);}
	.st332{clip-path:url(#SVGID_227_);}
	.st333{filter:url(#Adobe_OpacityMaskFilter_9_);}
	.st334{clip-path:url(#SVGID_229_);mask:url(#SVGID_225_);fill:url(#SVGID_230_);}
	.st335{clip-path:url(#SVGID_232_);}
	.st336{clip-path:url(#SVGID_234_);fill:url(#SVGID_235_);}
	.st337{clip-path:url(#SVGID_237_);fill:url(#SVGID_238_);}
	.st338{filter:url(#Adobe_OpacityMaskFilter_10_);}
	.st339{clip-path:url(#SVGID_240_);}
	.st340{clip-path:url(#SVGID_243_);}
	.st341{filter:url(#Adobe_OpacityMaskFilter_11_);}
	.st342{clip-path:url(#SVGID_245_);mask:url(#SVGID_241_);fill:url(#SVGID_246_);}
	.st343{clip-path:url(#SVGID_248_);}
	.st344{clip-path:url(#SVGID_250_);fill:url(#SVGID_251_);}
	.st345{clip-path:url(#SVGID_240_);fill:#3E3847;}
	.st346{clip-path:url(#SVGID_240_);fill:#0D172E;}
	.st347{clip-path:url(#SVGID_240_);fill:#FFFFFF;}
	.st348{opacity:0.67;clip-path:url(#SVGID_240_);}
	.st349{clip-path:url(#SVGID_253_);}
	.st350{clip-path:url(#SVGID_255_);fill:url(#SVGID_256_);}
	.st351{clip-path:url(#SVGID_240_);fill:#CBDAEF;}
	.st352{opacity:0.15;clip-path:url(#SVGID_240_);}
	.st353{clip-path:url(#SVGID_258_);fill:#020202;}
	.st354{clip-path:url(#SVGID_260_);fill:#020202;}
	.st355{clip-path:url(#SVGID_262_);fill:#020202;}
	.st356{clip-path:url(#SVGID_264_);fill:#020202;}
	.st357{clip-path:url(#SVGID_266_);fill:#020202;}
	.st358{clip-path:url(#SVGID_268_);fill:#020202;}
	.st359{opacity:0.24;clip-path:url(#SVGID_240_);}
	.st360{clip-path:url(#SVGID_270_);fill:#F27392;}
	.st361{clip-path:url(#SVGID_272_);fill:#BEBEBE;}
	.st362{clip-path:url(#SVGID_272_);fill:#61BB46;}
	.st363{clip-path:url(#SVGID_272_);fill:#F7BD8F;}
	.st364{clip-path:url(#SVGID_272_);fill:#00839D;}
	.st365{clip-path:url(#SVGID_272_);fill:#995825;}
	.st366{clip-path:url(#SVGID_272_);fill:#FACCA7;}
	.st367{clip-path:url(#SVGID_272_);fill:#EAEAE9;}
	.st368{opacity:0.24;clip-path:url(#SVGID_272_);}
	.st369{clip-path:url(#SVGID_274_);fill:#F6916F;}
	.st370{fill:#F9F6EE;}
</style>
<g>
	<g class="st0">
		<g>
			<path class="st1" d="M370.6,321.4c-9.5,0-18.2,5.9-21,13.9c-3.6-1.8-7.8-2.8-11.8-2.8c-4.2,0-8.2,1-11.6,3
				c-7.8,4.5-12,14.2-9.8,22.4c2,7.4,9.2,13,16.9,13c0.7,0,1.4,0,2-0.1c0,0.2,0,0.5,0,0.7c-0.3,1.2-0.4,2.3-0.4,3.5
				c0.2,10.5,11.3,18.8,25.3,18.8c0.2,0,0.4,0,0.7,0c7.8-0.1,15.1-2.9,19.8-7.6c2.1,3.8,6.4,6,11.7,6c3.2,0,6.5-0.8,9.5-2.3
				c7-3.5,11.3-10,10.8-15.9c2.1-0.5,4.1-1.2,5.9-2.1c1.3-0.4,2.5-1.2,3.5-2.3c4.8-3.8,7.7-9.4,7.9-15.3c0.3-11.5-9.6-21-22-21.4
				c-0.2,0-0.4,0-0.6,0c-4.5,0-8.7,1.2-12.4,3.5c-5.3-8.4-13.4-13.9-21.9-15C372.4,321.4,371.5,321.4,370.6,321.4z"/>
			<path class="st2" d="M370.8,321.7c-9.5,0-18.2,5.9-21,13.9c-3.6-1.8-7.8-2.8-11.8-2.8c-4.2,0-8.2,1-11.6,3
				c-7.8,4.5-12,14.2-9.8,22.4c2,7.4,9.2,13,16.9,13c0.7,0,1.4,0,2-0.1c0,0.2,0,0.5,0,0.7c-0.3,1.2-0.4,2.3-0.4,3.5
				c0.2,10.5,11.3,18.8,25.3,18.8c0.2,0,0.4,0,0.7,0c7.8-0.1,15.1-2.9,19.8-7.6c2.1,3.8,6.4,6,11.7,6c3.2,0,6.5-0.8,9.5-2.3
				c7-3.5,11.3-10,10.8-15.9c2.1-0.5,4.1-1.2,5.9-2.1c1.3-0.4,2.5-1.2,3.5-2.3c4.8-3.8,7.7-9.4,7.9-15.3c0.3-11.5-9.6-21-22-21.4
				c-0.2,0-0.4,0-0.6,0c-4.5,0-8.7,1.2-12.4,3.5c-5.3-8.4-13.4-13.9-21.9-15C372.6,321.7,371.7,321.7,370.8,321.7z"/>
			<path class="st3" d="M371,322c-9.5,0-18.2,5.9-21,13.9c-3.6-1.8-7.8-2.8-11.8-2.8c-4.2,0-8.2,1-11.6,3c-7.8,4.5-12,14.2-9.8,22.4
				c2,7.4,9.2,13,16.9,13c0.7,0,1.4,0,2-0.1c0,0.2,0,0.5,0,0.7c-0.3,1.2-0.4,2.3-0.4,3.5c0.2,10.5,11.3,18.8,25.3,18.8
				c0.2,0,0.4,0,0.7,0c7.8-0.1,15.1-2.9,19.8-7.6c2.1,3.8,6.4,6,11.7,6c3.2,0,6.5-0.8,9.5-2.3c7-3.5,11.3-10,10.8-15.9
				c2.1-0.5,4.1-1.2,5.9-2.1c1.3-0.4,2.5-1.2,3.5-2.3c4.8-3.8,7.7-9.4,7.9-15.3c0.3-11.5-9.6-21-22-21.4c-0.2,0-0.4,0-0.6,0
				c-4.5,0-8.7,1.2-12.4,3.5c-5.3-8.4-13.4-13.9-21.9-15C372.8,322,371.9,322,371,322z"/>
			<path class="st4" d="M371.2,322.3c-9.5,0-18.2,5.9-21,13.9c-3.6-1.8-7.8-2.8-11.8-2.8c-4.2,0-8.2,1-11.6,3
				c-7.8,4.5-12,14.2-9.8,22.4c2,7.4,9.2,13,16.9,13c0.7,0,1.4,0,2-0.1c0,0.2,0,0.5,0,0.7c-0.3,1.2-0.4,2.3-0.4,3.5
				c0.2,10.5,11.3,18.8,25.3,18.8c0.2,0,0.4,0,0.7,0c7.8-0.1,15.1-2.9,19.8-7.6c2.1,3.8,6.4,6,11.7,6c3.2,0,6.5-0.8,9.5-2.3
				c7-3.5,11.3-10,10.8-15.9c2.1-0.5,4.1-1.2,5.9-2.1c1.3-0.4,2.5-1.2,3.5-2.3c4.8-3.8,7.7-9.4,7.9-15.3c0.3-11.5-9.6-21-22-21.4
				c-0.2,0-0.4,0-0.6,0c-4.5,0-8.7,1.2-12.4,3.5c-5.3-8.4-13.4-13.9-21.9-15C373,322.3,372.1,322.3,371.2,322.3z"/>
			<path class="st5" d="M371.4,322.6c-9.5,0-18.2,5.9-21,13.9c-3.6-1.8-7.8-2.8-11.8-2.8c-4.2,0-8.2,1-11.6,3
				c-7.8,4.5-12,14.2-9.8,22.4c2,7.4,9.2,13,16.9,13c0.7,0,1.4,0,2-0.1c0,0.2,0,0.5,0,0.7c-0.3,1.2-0.4,2.3-0.4,3.5
				c0.2,10.5,11.3,18.8,25.3,18.8c0.2,0,0.4,0,0.7,0c7.8-0.1,15.1-2.9,19.8-7.6c2.1,3.8,6.4,6,11.7,6c3.2,0,6.5-0.8,9.5-2.3
				c7-3.5,11.3-10,10.8-15.9c2.1-0.5,4.1-1.2,5.9-2.1c1.3-0.4,2.5-1.2,3.5-2.3c4.8-3.8,7.7-9.4,7.9-15.3c0.3-11.5-9.6-21-22-21.4
				c-0.2,0-0.4,0-0.6,0c-4.5,0-8.7,1.2-12.4,3.5c-5.3-8.4-13.4-13.9-21.9-15C373.2,322.7,372.3,322.6,371.4,322.6z"/>
			<path class="st6" d="M371.6,322.9c-9.5,0-18.2,5.9-21,13.9c-3.6-1.8-7.8-2.8-11.8-2.8c-4.2,0-8.2,1-11.6,3
				c-7.8,4.5-12,14.2-9.8,22.4c2,7.4,9.2,13,16.9,13c0.7,0,1.4,0,2-0.1c0,0.2,0,0.5,0,0.7c-0.3,1.2-0.4,2.3-0.4,3.5
				c0.2,10.5,11.3,18.8,25.3,18.8c0.2,0,0.4,0,0.7,0c7.8-0.1,15.1-2.9,19.8-7.6c2.1,3.8,6.4,6,11.7,6c3.2,0,6.5-0.8,9.5-2.3
				c7-3.5,11.3-10,10.8-15.9c2.1-0.5,4.1-1.2,5.9-2.1c1.3-0.4,2.5-1.2,3.5-2.3c4.8-3.8,7.7-9.4,7.9-15.3c0.3-11.5-9.6-21-22-21.4
				c-0.2,0-0.4,0-0.6,0c-4.5,0-8.7,1.2-12.4,3.5c-5.3-8.4-13.4-13.9-21.9-15C373.4,323,372.5,322.9,371.6,322.9z"/>
			<path class="st7" d="M371.8,323.2c-9.5,0-18.2,5.9-21,13.9c-3.6-1.8-7.8-2.8-11.8-2.8c-4.2,0-8.2,1-11.6,3
				c-7.8,4.5-12,14.2-9.8,22.4c2,7.4,9.2,13,16.9,13c0.7,0,1.4,0,2-0.1c0,0.2,0,0.5,0,0.7c-0.3,1.2-0.4,2.3-0.4,3.5
				c0.2,10.5,11.3,18.8,25.3,18.8c0.2,0,0.4,0,0.7,0c7.8-0.1,15.1-2.9,19.8-7.6c2.1,3.8,6.4,6,11.7,6c3.2,0,6.5-0.8,9.5-2.3
				c7-3.5,11.3-10,10.8-15.9c2.1-0.5,4.1-1.2,5.9-2.1c1.3-0.4,2.5-1.2,3.5-2.3c4.8-3.8,7.7-9.4,7.9-15.3c0.3-11.5-9.6-21-22-21.4
				c-0.2,0-0.4,0-0.6,0c-4.5,0-8.7,1.2-12.4,3.5c-5.3-8.4-13.4-13.9-21.9-15C373.6,323.3,372.7,323.2,371.8,323.2z"/>
			<path class="st8" d="M372,323.5c-9.5,0-18.2,5.9-21,13.9c-3.6-1.8-7.8-2.8-11.8-2.8c-4.2,0-8.2,1-11.6,3
				c-7.8,4.5-12,14.2-9.8,22.4c2,7.4,9.2,13,16.9,13c0.7,0,1.4,0,2-0.1c0,0.2,0,0.5,0,0.7c-0.3,1.2-0.4,2.3-0.4,3.5
				c0.2,10.5,11.3,18.8,25.3,18.8c0.2,0,0.4,0,0.7,0c7.8-0.1,15.1-2.9,19.8-7.6c2.1,3.8,6.4,6,11.7,6c3.2,0,6.5-0.8,9.5-2.3
				c7-3.5,11.3-10,10.8-15.9c2.1-0.5,4.1-1.2,5.9-2.1c1.3-0.4,2.5-1.2,3.5-2.3c4.8-3.8,7.7-9.4,7.9-15.3c0.3-11.5-9.6-21-22-21.4
				c-0.2,0-0.4,0-0.6,0c-4.5,0-8.7,1.2-12.4,3.5c-5.3-8.4-13.4-13.9-21.9-15C373.8,323.6,372.9,323.5,372,323.5z"/>
			<path class="st9" d="M372.2,323.8c-9.5,0-18.2,5.9-21,13.9c-3.6-1.8-7.8-2.8-11.8-2.8c-4.2,0-8.2,1-11.6,3
				c-7.8,4.5-12,14.2-9.8,22.4c2,7.4,9.2,13,16.9,13c0.7,0,1.4,0,2-0.1c0,0.2,0,0.5,0,0.7c-0.3,1.2-0.4,2.3-0.4,3.5
				c0.2,10.5,11.3,18.8,25.3,18.8c0.2,0,0.4,0,0.7,0c7.8-0.1,15.1-2.9,19.8-7.6c2.1,3.8,6.4,6,11.7,6c3.2,0,6.5-0.8,9.5-2.3
				c7-3.5,11.3-10,10.8-15.9c2.1-0.5,4.1-1.2,5.9-2.1c1.3-0.4,2.5-1.2,3.5-2.3c4.8-3.8,7.7-9.4,7.9-15.3c0.3-11.5-9.6-21-22-21.4
				c-0.2,0-0.4,0-0.6,0c-4.5,0-8.7,1.2-12.4,3.5c-5.3-8.4-13.4-13.9-21.9-15C374,323.9,373.1,323.8,372.2,323.8z"/>
			<path class="st10" d="M372.4,324.2c-9.5,0-18.2,5.9-21,13.9c-3.6-1.8-7.8-2.8-11.8-2.8c-4.2,0-8.2,1-11.6,3
				c-7.8,4.5-12,14.2-9.8,22.4c2,7.4,9.2,13,16.9,13c0.7,0,1.4,0,2-0.1c0,0.2,0,0.5,0,0.7c-0.3,1.2-0.4,2.3-0.4,3.5
				c0.2,10.5,11.3,18.8,25.3,18.8c0.2,0,0.4,0,0.7,0c7.8-0.1,15.1-2.9,19.8-7.6c2.1,3.8,6.4,6,11.7,6c3.2,0,6.5-0.8,9.5-2.3
				c7-3.5,11.3-10,10.8-15.9c2.1-0.5,4.1-1.2,5.9-2.1c1.3-0.4,2.5-1.2,3.5-2.3c4.8-3.8,7.7-9.4,7.9-15.3c0.3-11.5-9.6-21-22-21.4
				c-0.2,0-0.4,0-0.6,0c-4.5,0-8.7,1.2-12.4,3.5c-5.3-8.4-13.4-13.9-21.9-15C374.2,324.2,373.3,324.2,372.4,324.2z"/>
		</g>
	</g>
</g>
<g>
	<g class="st0">
		<g>
			<path class="st1" d="M118.1,269.1c-9.5,0-18.2,5.9-21,13.9c-3.6-1.8-7.8-2.8-11.8-2.8c-4.2,0-8.2,1-11.6,3
				c-7.8,4.5-12,14.2-9.8,22.4c2,7.4,9.2,13,16.9,13c0.7,0,1.4,0,2-0.1c0,0.2,0,0.5,0,0.7c-0.3,1.2-0.4,2.3-0.4,3.5
				c0.2,10.5,11.3,18.8,25.3,18.8c0.2,0,0.4,0,0.7,0c7.8-0.1,15.1-2.9,19.8-7.6c2.1,3.8,6.4,6,11.7,6c3.2,0,6.5-0.8,9.5-2.3
				c7-3.5,11.3-10,10.8-15.9c2.1-0.5,4.1-1.2,5.9-2.1c1.3-0.4,2.5-1.2,3.5-2.3c4.8-3.8,7.7-9.4,7.9-15.3c0.3-11.5-9.6-21-22-21.4
				c-0.2,0-0.4,0-0.6,0c-4.5,0-8.7,1.2-12.4,3.5c-5.3-8.4-13.4-13.9-21.9-15C119.9,269.2,119,269.1,118.1,269.1z"/>
			<path class="st2" d="M118.3,269.4c-9.5,0-18.2,5.9-21,13.9c-3.6-1.8-7.8-2.8-11.8-2.8c-4.2,0-8.2,1-11.6,3
				c-7.8,4.5-12,14.2-9.8,22.4c2,7.4,9.2,13,16.9,13c0.7,0,1.4,0,2-0.1c0,0.2,0,0.5,0,0.7c-0.3,1.2-0.4,2.3-0.4,3.5
				c0.2,10.5,11.3,18.8,25.3,18.8c0.2,0,0.4,0,0.7,0c7.8-0.1,15.1-2.9,19.8-7.6c2.1,3.8,6.4,6,11.7,6c3.2,0,6.5-0.8,9.5-2.3
				c7-3.5,11.3-10,10.8-15.9c2.1-0.5,4.1-1.2,5.9-2.1c1.3-0.4,2.5-1.2,3.5-2.3c4.8-3.8,7.7-9.4,7.9-15.3c0.3-11.5-9.6-21-22-21.4
				c-0.2,0-0.4,0-0.6,0c-4.5,0-8.7,1.2-12.4,3.5c-5.3-8.4-13.4-13.9-21.9-15C120.1,269.5,119.2,269.4,118.3,269.4z"/>
			<path class="st3" d="M118.5,269.8c-9.5,0-18.2,5.9-21,13.9c-3.6-1.8-7.8-2.8-11.8-2.8c-4.2,0-8.2,1-11.6,3
				c-7.8,4.5-12,14.2-9.8,22.4c2,7.4,9.2,13,16.9,13c0.7,0,1.4,0,2-0.1c0,0.2,0,0.5,0,0.7c-0.3,1.2-0.4,2.3-0.4,3.5
				c0.2,10.5,11.3,18.8,25.3,18.8c0.2,0,0.4,0,0.7,0c7.8-0.1,15.1-2.9,19.8-7.6c2.1,3.8,6.4,6,11.7,6c3.2,0,6.5-0.8,9.5-2.3
				c7-3.5,11.3-10,10.8-15.9c2.1-0.5,4.1-1.2,5.9-2.1c1.3-0.4,2.5-1.2,3.5-2.3c4.8-3.8,7.7-9.4,7.9-15.3c0.3-11.5-9.6-21-22-21.4
				c-0.2,0-0.4,0-0.6,0c-4.5,0-8.7,1.2-12.4,3.5c-5.3-8.4-13.4-13.9-21.9-15C120.3,269.8,119.4,269.8,118.5,269.8z"/>
			<path class="st4" d="M118.7,270.1c-9.5,0-18.2,5.9-21,13.9c-3.6-1.8-7.8-2.8-11.8-2.8c-4.2,0-8.2,1-11.6,3
				c-7.8,4.5-12,14.2-9.8,22.4c2,7.4,9.2,13,16.9,13c0.7,0,1.4,0,2-0.1c0,0.2,0,0.5,0,0.7c-0.3,1.2-0.4,2.3-0.4,3.5
				c0.2,10.5,11.3,18.8,25.3,18.8c0.2,0,0.4,0,0.7,0c7.8-0.1,15.1-2.9,19.8-7.6c2.1,3.8,6.4,6,11.7,6c3.2,0,6.5-0.8,9.5-2.3
				c7-3.5,11.3-10,10.8-15.9c2.1-0.5,4.1-1.2,5.9-2.1c1.3-0.4,2.5-1.2,3.5-2.3c4.8-3.8,7.7-9.4,7.9-15.3c0.3-11.5-9.6-21-22-21.4
				c-0.2,0-0.4,0-0.6,0c-4.5,0-8.7,1.2-12.4,3.5c-5.3-8.4-13.4-13.9-21.9-15C120.5,270.1,119.6,270.1,118.7,270.1z"/>
			<path class="st5" d="M118.9,270.4c-9.5,0-18.2,5.9-21,13.9c-3.6-1.8-7.8-2.8-11.8-2.8c-4.2,0-8.2,1-11.6,3
				c-7.8,4.5-12,14.2-9.8,22.4c2,7.4,9.2,13,16.9,13c0.7,0,1.4,0,2-0.1c0,0.2,0,0.5,0,0.7c-0.3,1.2-0.4,2.3-0.4,3.5
				c0.2,10.5,11.3,18.8,25.3,18.8c0.2,0,0.4,0,0.7,0c7.8-0.1,15.1-2.9,19.8-7.6c2.1,3.8,6.4,6,11.7,6c3.2,0,6.5-0.8,9.5-2.3
				c7-3.5,11.3-10,10.8-15.9c2.1-0.5,4.1-1.2,5.9-2.1c1.3-0.4,2.5-1.2,3.5-2.3c4.8-3.8,7.7-9.4,7.9-15.3c0.3-11.5-9.6-21-22-21.4
				c-0.2,0-0.4,0-0.6,0c-4.5,0-8.7,1.2-12.4,3.5c-5.3-8.4-13.4-13.9-21.9-15C120.7,270.4,119.8,270.4,118.9,270.4z"/>
			<path class="st6" d="M119.1,270.7c-9.5,0-18.2,5.9-21,13.9c-3.6-1.8-7.8-2.8-11.8-2.8c-4.2,0-8.2,1-11.6,3
				c-7.8,4.5-12,14.2-9.8,22.4c2,7.4,9.2,13,16.9,13c0.7,0,1.4,0,2-0.1c0,0.2,0,0.5,0,0.7c-0.3,1.2-0.4,2.3-0.4,3.5
				c0.2,10.5,11.3,18.8,25.3,18.8c0.2,0,0.4,0,0.7,0c7.8-0.1,15.1-2.9,19.8-7.6c2.1,3.8,6.4,6,11.7,6c3.2,0,6.5-0.8,9.5-2.3
				c7-3.5,11.3-10,10.8-15.9c2.1-0.5,4.1-1.2,5.9-2.1c1.3-0.4,2.5-1.2,3.5-2.3c4.8-3.8,7.7-9.4,7.9-15.3c0.3-11.5-9.6-21-22-21.4
				c-0.2,0-0.4,0-0.6,0c-4.5,0-8.7,1.2-12.4,3.5c-5.3-8.4-13.4-13.9-21.9-15C120.9,270.7,120,270.7,119.1,270.7z"/>
			<path class="st7" d="M119.3,271c-9.5,0-18.2,5.9-21,13.9c-3.6-1.8-7.8-2.8-11.8-2.8c-4.2,0-8.2,1-11.6,3
				c-7.8,4.5-12,14.2-9.8,22.4c2,7.4,9.2,13,16.9,13c0.7,0,1.4,0,2-0.1c0,0.2,0,0.5,0,0.7c-0.3,1.2-0.4,2.3-0.4,3.5
				c0.2,10.5,11.3,18.8,25.3,18.8c0.2,0,0.4,0,0.7,0c7.8-0.1,15.1-2.9,19.8-7.6c2.1,3.8,6.4,6,11.7,6c3.2,0,6.5-0.8,9.5-2.3
				c7-3.5,11.3-10,10.8-15.9c2.1-0.5,4.1-1.2,5.9-2.1c1.3-0.4,2.5-1.2,3.5-2.3c4.8-3.8,7.7-9.4,7.9-15.3c0.3-11.5-9.6-21-22-21.4
				c-0.2,0-0.4,0-0.6,0c-4.5,0-8.7,1.2-12.4,3.5c-5.3-8.4-13.4-13.9-21.9-15C121.1,271.1,120.2,271,119.3,271z"/>
			<path class="st8" d="M119.5,271.3c-9.5,0-18.2,5.9-21,13.9c-3.6-1.8-7.8-2.8-11.8-2.8c-4.2,0-8.2,1-11.6,3
				c-7.8,4.5-12,14.2-9.8,22.4c2,7.4,9.2,13,16.9,13c0.7,0,1.4,0,2-0.1c0,0.2,0,0.5,0,0.7c-0.3,1.2-0.4,2.3-0.4,3.5
				c0.2,10.5,11.3,18.8,25.3,18.8c0.2,0,0.4,0,0.7,0c7.8-0.1,15.1-2.9,19.8-7.6c2.1,3.8,6.4,6,11.7,6c3.2,0,6.5-0.8,9.5-2.3
				c7-3.5,11.3-10,10.8-15.9c2.1-0.5,4.1-1.2,5.9-2.1c1.3-0.4,2.5-1.2,3.5-2.3c4.8-3.8,7.7-9.4,7.9-15.3c0.3-11.5-9.6-21-22-21.4
				c-0.2,0-0.4,0-0.6,0c-4.5,0-8.7,1.2-12.4,3.5c-5.3-8.4-13.4-13.9-21.9-15C121.3,271.4,120.4,271.3,119.5,271.3z"/>
			<path class="st9" d="M119.7,271.6c-9.5,0-18.2,5.9-21,13.9c-3.6-1.8-7.8-2.8-11.8-2.8c-4.2,0-8.2,1-11.6,3
				c-7.8,4.5-12,14.2-9.8,22.4c2,7.4,9.2,13,16.9,13c0.7,0,1.4,0,2-0.1c0,0.2,0,0.5,0,0.7c-0.3,1.2-0.4,2.3-0.4,3.5
				c0.2,10.5,11.3,18.8,25.3,18.8c0.2,0,0.4,0,0.7,0c7.8-0.1,15.1-2.9,19.8-7.6c2.1,3.8,6.4,6,11.7,6c3.2,0,6.5-0.8,9.5-2.3
				c7-3.5,11.3-10,10.8-15.9c2.1-0.5,4.1-1.2,5.9-2.1c1.3-0.4,2.5-1.2,3.5-2.3c4.8-3.8,7.7-9.4,7.9-15.3c0.3-11.5-9.6-21-22-21.4
				c-0.2,0-0.4,0-0.6,0c-4.5,0-8.7,1.2-12.4,3.5c-5.3-8.4-13.4-13.9-21.9-15C121.5,271.7,120.6,271.6,119.7,271.6z"/>
			<path class="st10" d="M119.9,271.9c-9.5,0-18.2,5.9-21,13.9c-3.6-1.8-7.8-2.8-11.8-2.8c-4.2,0-8.2,1-11.6,3
				c-7.8,4.5-12,14.2-9.8,22.4c2,7.4,9.2,13,16.9,13c0.7,0,1.4,0,2-0.1c0,0.2,0,0.5,0,0.7c-0.3,1.2-0.4,2.3-0.4,3.5
				c0.2,10.5,11.3,18.8,25.3,18.8c0.2,0,0.4,0,0.7,0c7.8-0.1,15.1-2.9,19.8-7.6c2.1,3.8,6.4,6,11.7,6c3.2,0,6.5-0.8,9.5-2.3
				c7-3.5,11.3-10,10.8-15.9c2.1-0.5,4.1-1.2,5.9-2.1c1.3-0.4,2.5-1.2,3.5-2.3c4.8-3.8,7.7-9.4,7.9-15.3c0.3-11.5-9.6-21-22-21.4
				c-0.2,0-0.4,0-0.6,0c-4.5,0-8.7,1.2-12.4,3.5c-5.3-8.4-13.4-13.9-21.9-15C121.7,272,120.8,271.9,119.9,271.9z"/>
		</g>
	</g>
</g>
<g>
	<polygon class="st192" points="201.2,265.2 158.6,307.1 157.9,391.6 200.5,349.7 	"/>
	<polygon class="st198" points="249.3,39.3 206.7,81.2 291.2,82 	"/>
	
		<rect x="262" y="281" transform="matrix(0.713 -0.7012 0.7012 0.713 -134.1961 293.9036)" class="st199" width="59.8" height="59.8"/>
	<polygon class="st191" points="337,313.4 294.7,355.6 336.9,397.9 	"/>
	<polygon class="st200" points="291.5,91.2 206.3,175.1 290.1,260.3 	"/>
	<polygon class="st201" points="205.8,179.9 204.3,348.9 289.6,265.1 	"/>
	<polygon class="st202" points="206.6,85.1 206.4,169.7 291.1,85.4 	"/>
</g>
</svg>
