<?xml version="1.0" encoding="utf-8"?>
<!-- Generator: Adobe Illustrator 21.0.2, SVG Export Plug-In . SVG Version: 6.00 Build 0)  -->
<svg version="1.1" id="Capa_1" xmlns="http://www.w3.org/2000/svg" xmlns:xlink="http://www.w3.org/1999/xlink" x="0px" y="0px"
	 viewBox="0 0 500 440" style="enable-background:new 0 0 500 440;" xml:space="preserve">
<style type="text/css">
	.st0{opacity:0.5;}
	.st1{fill:#FFFFFF;}
	.st2{fill:#F7F8F8;}
	.st3{fill:#F2F3F3;}
	.st4{fill:#EEEEEF;}
	.st5{fill:#E9EAEA;}
	.st6{fill:#E4E5E6;}
	.st7{fill:#DFE0E2;}
	.st8{fill:#DBDCDD;}
	.st9{fill:#D6D7D9;}
	.st10{fill:#D1D3D4;}
	.st11{fill:#1F1332;}
	.st12{fill:#E4E2E2;}
	.st13{fill:#D0CECE;}
	.st14{fill:#BFBCBC;}
	.st15{fill:#AEABAB;}
	.st16{fill:#9E9B9B;}
	.st17{fill:#8F8C8C;}
	.st18{fill:#817F7F;}
	.st19{fill:#747372;}
	.st20{fill:#676767;}
	.st21{fill:#654091;}
	.st22{fill:#4B286F;}
	.st23{fill:#F26327;}
	.st24{fill:#F8991D;}
	.st25{clip-path:url(#SVGID_2_);fill:#F9B9A1;}
	.st26{clip-path:url(#SVGID_2_);fill:#603A18;}
	.st27{clip-path:url(#SVGID_2_);fill:#1B0F2B;}
	.st28{clip-path:url(#SVGID_2_);fill:#8C6339;}
	.st29{clip-path:url(#SVGID_2_);fill:#754E23;}
	.st30{clip-path:url(#SVGID_2_);fill:#EEA895;}
	.st31{clip-path:url(#SVGID_2_);fill:#4B286F;}
	.st32{clip-path:url(#SVGID_2_);fill:#C6B299;}
	.st33{clip-path:url(#SVGID_2_);fill:#736458;}
	.st34{clip-path:url(#SVGID_2_);fill:#554741;}
	.st35{clip-path:url(#SVGID_2_);fill:#323232;}
	.st36{clip-path:url(#SVGID_2_);fill:#4E4E4E;}
	.st37{clip-path:url(#SVGID_2_);fill:#979797;}
	.st38{clip-path:url(#SVGID_2_);fill:#B3B3B3;}
	.st39{clip-path:url(#SVGID_2_);fill:#818181;}
	.st40{clip-path:url(#SVGID_2_);}
	.st41{clip-path:url(#SVGID_4_);fill:#CBCBCA;}
	.st42{clip-path:url(#SVGID_2_);fill:#676767;}
	.st43{opacity:0.42;clip-path:url(#SVGID_6_);}
	.st44{clip-path:url(#SVGID_8_);fill:#40296C;}
	.st45{clip-path:url(#SVGID_6_);fill-rule:evenodd;clip-rule:evenodd;fill:#3E3847;}
	.st46{clip-path:url(#SVGID_6_);fill-rule:evenodd;clip-rule:evenodd;fill:#818181;}
	.st47{clip-path:url(#SVGID_6_);fill-rule:evenodd;clip-rule:evenodd;fill:#AD653A;}
	.st48{clip-path:url(#SVGID_6_);fill-rule:evenodd;clip-rule:evenodd;fill:#C87442;}
	.st49{clip-path:url(#SVGID_6_);fill-rule:evenodd;clip-rule:evenodd;fill:#FCBF8C;}
	.st50{clip-path:url(#SVGID_6_);fill-rule:evenodd;clip-rule:evenodd;fill:#EAAB73;}
	.st51{clip-path:url(#SVGID_6_);fill-rule:evenodd;clip-rule:evenodd;fill:#2A373C;}
	.st52{clip-path:url(#SVGID_6_);fill-rule:evenodd;clip-rule:evenodd;fill:#068C91;}
	.st53{clip-path:url(#SVGID_6_);fill-rule:evenodd;clip-rule:evenodd;fill:#00989D;}
	.st54{clip-path:url(#SVGID_6_);fill-rule:evenodd;clip-rule:evenodd;fill:#00839D;}
	.st55{clip-path:url(#SVGID_6_);fill-rule:evenodd;clip-rule:evenodd;fill:#FCBD15;}
	.st56{clip-path:url(#SVGID_6_);fill-rule:evenodd;clip-rule:evenodd;fill:#F5B31A;}
	.st57{clip-path:url(#SVGID_6_);fill-rule:evenodd;clip-rule:evenodd;fill:#3B474C;}
	.st58{clip-path:url(#SVGID_6_);fill-rule:evenodd;clip-rule:evenodd;fill:#FFC907;}
	.st59{clip-path:url(#SVGID_6_);fill-rule:evenodd;clip-rule:evenodd;fill:#854F2E;}
	.st60{fill:#ED2227;}
	.st61{fill:#00839D;}
	.st62{fill:#61BB46;}
	.st63{clip-path:url(#SVGID_10_);fill:#F3BC8D;}
	.st64{clip-path:url(#SVGID_10_);fill:#3E3847;}
	
		.st65{clip-path:url(#SVGID_10_);fill:none;stroke:#F3BC8D;stroke-width:2;stroke-linecap:round;stroke-linejoin:round;stroke-miterlimit:10;}
	.st66{clip-path:url(#SVGID_10_);fill:#F26327;}
	.st67{clip-path:url(#SVGID_10_);fill:#CED0D2;}
	.st68{clip-path:url(#SVGID_10_);fill:#F1F0F0;}
	.st69{clip-path:url(#SVGID_10_);fill:#F3F0F2;}
	.st70{clip-path:url(#SVGID_10_);fill:#A6A6AA;}
	.st71{clip-path:url(#SVGID_10_);fill:#7E8082;}
	.st72{clip-path:url(#SVGID_10_);fill:#FFFFFF;}
	.st73{clip-path:url(#SVGID_12_);fill:#1E0D39;}
	.st74{clip-path:url(#SVGID_14_);fill:#FBC2A7;}
	.st75{clip-path:url(#SVGID_14_);fill:#EEA895;}
	.st76{clip-path:url(#SVGID_14_);fill:#3E3847;}
	.st77{clip-path:url(#SVGID_14_);fill:#FBC0A7;}
	.st78{clip-path:url(#SVGID_14_);fill:#EE333F;}
	.st79{clip-path:url(#SVGID_14_);fill:#CC202E;}
	.st80{clip-path:url(#SVGID_14_);fill:#B32028;}
	.st81{clip-path:url(#SVGID_16_);fill:#6D212B;}
	.st82{clip-path:url(#SVGID_16_);fill:#9F3847;}
	.st83{opacity:0.25;clip-path:url(#SVGID_16_);}
	.st84{clip-path:url(#SVGID_18_);fill:#FBC2A7;}
	.st85{clip-path:url(#SVGID_16_);fill:#3E3847;}
	.st86{clip-path:url(#SVGID_20_);}
	.st87{clip-path:url(#SVGID_22_);fill:#3E3847;}
	.st88{clip-path:url(#SVGID_20_);fill:#ED2227;}
	.st89{clip-path:url(#SVGID_24_);fill:#CBCBCA;}
	.st90{clip-path:url(#SVGID_26_);fill:#CBCBCA;}
	.st91{clip-path:url(#SVGID_28_);fill:#CBCBCA;}
	.st92{clip-path:url(#SVGID_30_);fill:#CBCBCA;}
	.st93{clip-path:url(#SVGID_32_);fill:#CBCBCA;}
	.st94{clip-path:url(#SVGID_34_);fill:#E5E5E4;}
	.st95{clip-path:url(#SVGID_36_);fill:#E5E5E4;}
	.st96{clip-path:url(#SVGID_38_);fill:#CBCBCA;}
	.st97{clip-path:url(#SVGID_40_);fill:#CBCBCA;}
	.st98{clip-path:url(#SVGID_20_);fill:#181818;}
	.st99{clip-path:url(#SVGID_20_);fill:#E1B59C;}
	.st100{clip-path:url(#SVGID_20_);fill:#CBCBCA;}
	.st101{clip-path:url(#SVGID_20_);fill:#089DD2;}
	.st102{clip-path:url(#SVGID_20_);fill:#EEC7B1;}
	.st103{clip-path:url(#SVGID_20_);fill:#00839D;}
	.st104{clip-path:url(#SVGID_20_);fill:#E5E5E4;}
	.st105{clip-path:url(#SVGID_20_);fill:#BBBBBB;}
	.st106{clip-path:url(#SVGID_20_);fill:#9C9C9C;}
	.st107{clip-path:url(#SVGID_42_);fill:#F2F2F2;}
	.st108{clip-path:url(#SVGID_20_);fill:#F2F2F2;}
	.st109{clip-path:url(#SVGID_20_);fill:#003246;}
	.st110{clip-path:url(#SVGID_20_);fill:#B3B3B3;}
	.st111{clip-path:url(#SVGID_20_);fill:#043F5E;}
	.st112{clip-path:url(#SVGID_20_);fill:#676767;}
	.st113{clip-path:url(#SVGID_20_);fill:#4E4E4E;}
	.st114{clip-path:url(#SVGID_20_);fill:#1072B9;}
	.st115{clip-path:url(#SVGID_44_);}
	.st116{clip-path:url(#SVGID_46_);fill:#F3F4F4;}
	.st117{clip-path:url(#SVGID_48_);fill:#AFB0B1;}
	.st118{clip-path:url(#SVGID_50_);fill:url(#SVGID_51_);}
	.st119{filter:url(#Adobe_OpacityMaskFilter);}
	.st120{enable-background:new    ;}
	.st121{clip-path:url(#SVGID_53_);}
	.st122{filter:url(#Adobe_OpacityMaskFilter_1_);}
	.st123{clip-path:url(#SVGID_56_);mask:url(#SVGID_54_);fill:url(#SVGID_57_);}
	.st124{clip-path:url(#SVGID_59_);}
	.st125{clip-path:url(#SVGID_61_);fill:url(#SVGID_62_);}
	.st126{clip-path:url(#SVGID_53_);fill:#F48480;}
	.st127{clip-path:url(#SVGID_64_);fill:url(#SVGID_65_);}
	.st128{clip-path:url(#SVGID_67_);}
	.st129{clip-path:url(#SVGID_69_);fill:url(#SVGID_70_);}
	.st130{clip-path:url(#SVGID_72_);fill:#F37239;}
	.st131{clip-path:url(#SVGID_72_);fill:#081837;}
	.st132{clip-path:url(#SVGID_72_);fill:#DFE0DE;}
	.st133{clip-path:url(#SVGID_74_);}
	.st134{clip-path:url(#SVGID_76_);fill:url(#SVGID_77_);}
	.st135{clip-path:url(#SVGID_79_);fill:#F37239;}
	.st136{clip-path:url(#SVGID_79_);fill:#081837;}
	.st137{clip-path:url(#SVGID_79_);fill:#DFE0DE;}
	.st138{clip-path:url(#SVGID_79_);fill:#1C2D59;}
	.st139{clip-path:url(#SVGID_79_);fill:#00839D;}
	.st140{clip-path:url(#SVGID_79_);fill:#FFFFFF;}
	.st141{clip-path:url(#SVGID_79_);fill:#F48480;}
	.st142{clip-path:url(#SVGID_81_);fill:url(#SVGID_82_);}
	.st143{clip-path:url(#SVGID_84_);fill:#FAD5A9;}
	.st144{clip-path:url(#SVGID_84_);fill:#F5AF75;}
	.st145{clip-path:url(#SVGID_84_);fill:#3E3847;}
	.st146{filter:url(#Adobe_OpacityMaskFilter_2_);}
	.st147{clip-path:url(#SVGID_84_);}
	.st148{clip-path:url(#SVGID_87_);}
	.st149{filter:url(#Adobe_OpacityMaskFilter_3_);}
	.st150{clip-path:url(#SVGID_89_);mask:url(#SVGID_85_);fill:url(#SVGID_90_);}
	.st151{clip-path:url(#SVGID_92_);}
	.st152{clip-path:url(#SVGID_94_);fill:url(#SVGID_95_);}
	.st153{clip-path:url(#SVGID_97_);fill:url(#SVGID_98_);}
	.st154{filter:url(#Adobe_OpacityMaskFilter_4_);}
	.st155{clip-path:url(#SVGID_100_);}
	.st156{clip-path:url(#SVGID_103_);}
	.st157{filter:url(#Adobe_OpacityMaskFilter_5_);}
	.st158{clip-path:url(#SVGID_105_);mask:url(#SVGID_101_);fill:url(#SVGID_106_);}
	.st159{clip-path:url(#SVGID_108_);}
	.st160{clip-path:url(#SVGID_110_);fill:url(#SVGID_111_);}
	.st161{clip-path:url(#SVGID_100_);fill:#3E3847;}
	.st162{clip-path:url(#SVGID_100_);fill:#0D172E;}
	.st163{clip-path:url(#SVGID_100_);fill:#FFFFFF;}
	.st164{opacity:0.67;clip-path:url(#SVGID_100_);}
	.st165{clip-path:url(#SVGID_113_);}
	.st166{clip-path:url(#SVGID_115_);fill:url(#SVGID_116_);}
	.st167{clip-path:url(#SVGID_100_);fill:#CBDAEF;}
	.st168{opacity:0.15;clip-path:url(#SVGID_100_);}
	.st169{clip-path:url(#SVGID_118_);fill:#020202;}
	.st170{clip-path:url(#SVGID_120_);fill:#020202;}
	.st171{clip-path:url(#SVGID_122_);fill:#020202;}
	.st172{clip-path:url(#SVGID_124_);fill:#020202;}
	.st173{clip-path:url(#SVGID_126_);fill:#020202;}
	.st174{clip-path:url(#SVGID_128_);fill:#020202;}
	.st175{clip-path:url(#SVGID_130_);fill:#BEBEBE;}
	.st176{clip-path:url(#SVGID_130_);fill:#61BB46;}
	.st177{clip-path:url(#SVGID_130_);fill:#F7BD8F;}
	.st178{clip-path:url(#SVGID_130_);fill:#00839D;}
	.st179{clip-path:url(#SVGID_130_);fill:#995825;}
	.st180{clip-path:url(#SVGID_130_);fill:#FACCA7;}
	.st181{clip-path:url(#SVGID_130_);fill:#EAEAE9;}
	.st182{fill:#CBCCCE;}
	.st183{fill:#3E3545;}
	.st184{fill:#84BB41;}
	.st185{fill:#5B408E;}
	.st186{fill:#41286C;}
	.st187{fill:#D71F27;}
	.st188{fill:#E26126;}
	.st189{fill:#12819B;}
	.st190{fill:#EE9C21;}
	.st191{fill-rule:evenodd;clip-rule:evenodd;fill:#E26126;}
	.st192{fill-rule:evenodd;clip-rule:evenodd;fill:#EE9C21;}
	.st193{fill-rule:evenodd;clip-rule:evenodd;fill:#41286C;}
	.st194{fill-rule:evenodd;clip-rule:evenodd;fill:#5B408E;}
	.st195{fill-rule:evenodd;clip-rule:evenodd;fill:#D71F27;}
	.st196{fill-rule:evenodd;clip-rule:evenodd;fill:#12819B;}
	.st197{fill-rule:evenodd;clip-rule:evenodd;fill:#84BB41;}
	.st198{fill-rule:evenodd;clip-rule:evenodd;fill:#0F809A;}
	.st199{fill-rule:evenodd;clip-rule:evenodd;fill:#D62027;}
	.st200{fill-rule:evenodd;clip-rule:evenodd;fill:#5D428B;}
	.st201{fill-rule:evenodd;clip-rule:evenodd;fill:#43286E;}
	.st202{fill-rule:evenodd;clip-rule:evenodd;fill:#82B941;}
	.st203{clip-path:url(#SVGID_132_);fill:#F9B9A1;}
	.st204{clip-path:url(#SVGID_132_);fill:#603A18;}
	.st205{clip-path:url(#SVGID_132_);fill:#1B0F2B;}
	.st206{clip-path:url(#SVGID_132_);fill:#8C6339;}
	.st207{clip-path:url(#SVGID_132_);fill:#754E23;}
	.st208{clip-path:url(#SVGID_132_);fill:#EEA895;}
	.st209{clip-path:url(#SVGID_132_);fill:#4B286F;}
	.st210{clip-path:url(#SVGID_132_);fill:#C6B299;}
	.st211{clip-path:url(#SVGID_132_);fill:#736458;}
	.st212{clip-path:url(#SVGID_132_);fill:#554741;}
	.st213{opacity:0.24;clip-path:url(#SVGID_132_);}
	.st214{clip-path:url(#SVGID_134_);fill:#FBAF53;}
	.st215{clip-path:url(#SVGID_132_);fill:#323232;}
	.st216{clip-path:url(#SVGID_132_);fill:#4E4E4E;}
	.st217{clip-path:url(#SVGID_132_);fill:#979797;}
	.st218{clip-path:url(#SVGID_132_);fill:#B3B3B3;}
	.st219{clip-path:url(#SVGID_132_);fill:#818181;}
	.st220{clip-path:url(#SVGID_132_);}
	.st221{clip-path:url(#SVGID_136_);fill:#CBCBCA;}
	.st222{clip-path:url(#SVGID_132_);fill:#676767;}
	.st223{opacity:0.42;clip-path:url(#SVGID_138_);}
	.st224{clip-path:url(#SVGID_140_);fill:#40296C;}
	.st225{clip-path:url(#SVGID_138_);fill-rule:evenodd;clip-rule:evenodd;fill:#3E3847;}
	.st226{clip-path:url(#SVGID_138_);fill-rule:evenodd;clip-rule:evenodd;fill:#818181;}
	.st227{clip-path:url(#SVGID_138_);fill-rule:evenodd;clip-rule:evenodd;fill:#AD653A;}
	.st228{clip-path:url(#SVGID_138_);fill-rule:evenodd;clip-rule:evenodd;fill:#C87442;}
	.st229{clip-path:url(#SVGID_138_);fill-rule:evenodd;clip-rule:evenodd;fill:#FCBF8C;}
	.st230{clip-path:url(#SVGID_138_);fill-rule:evenodd;clip-rule:evenodd;fill:#EAAB73;}
	.st231{clip-path:url(#SVGID_138_);fill-rule:evenodd;clip-rule:evenodd;fill:#2A373C;}
	.st232{clip-path:url(#SVGID_138_);fill-rule:evenodd;clip-rule:evenodd;fill:#068C91;}
	.st233{clip-path:url(#SVGID_138_);fill-rule:evenodd;clip-rule:evenodd;fill:#00989D;}
	.st234{clip-path:url(#SVGID_138_);fill-rule:evenodd;clip-rule:evenodd;fill:#00839D;}
	.st235{clip-path:url(#SVGID_138_);fill-rule:evenodd;clip-rule:evenodd;fill:#FCBD15;}
	.st236{clip-path:url(#SVGID_138_);fill-rule:evenodd;clip-rule:evenodd;fill:#F5B31A;}
	.st237{clip-path:url(#SVGID_138_);fill-rule:evenodd;clip-rule:evenodd;fill:#3B474C;}
	.st238{clip-path:url(#SVGID_138_);fill-rule:evenodd;clip-rule:evenodd;fill:#FFC907;}
	.st239{clip-path:url(#SVGID_138_);fill-rule:evenodd;clip-rule:evenodd;fill:#854F2E;}
	.st240{opacity:0.24;clip-path:url(#SVGID_138_);}
	.st241{clip-path:url(#SVGID_142_);fill:#693895;}
	.st242{clip-path:url(#SVGID_144_);fill:#F3BC8D;}
	.st243{clip-path:url(#SVGID_144_);fill:#3E3847;}
	
		.st244{clip-path:url(#SVGID_144_);fill:none;stroke:#F3BC8D;stroke-width:2;stroke-linecap:round;stroke-linejoin:round;stroke-miterlimit:10;}
	.st245{clip-path:url(#SVGID_144_);fill:#F26327;}
	.st246{clip-path:url(#SVGID_144_);fill:#CED0D2;}
	.st247{clip-path:url(#SVGID_144_);fill:#F1F0F0;}
	.st248{clip-path:url(#SVGID_144_);fill:#F3F0F2;}
	.st249{clip-path:url(#SVGID_144_);fill:#A6A6AA;}
	.st250{clip-path:url(#SVGID_144_);fill:#7E8082;}
	.st251{clip-path:url(#SVGID_144_);fill:#FFFFFF;}
	.st252{opacity:0.24;clip-path:url(#SVGID_144_);}
	.st253{clip-path:url(#SVGID_146_);fill:#89C540;}
	.st254{clip-path:url(#SVGID_148_);fill:#1E0D39;}
	.st255{clip-path:url(#SVGID_150_);fill:#FBC2A7;}
	.st256{clip-path:url(#SVGID_150_);fill:#EEA895;}
	.st257{clip-path:url(#SVGID_150_);fill:#3E3847;}
	.st258{clip-path:url(#SVGID_150_);fill:#FBC0A7;}
	.st259{clip-path:url(#SVGID_150_);fill:#EE333F;}
	.st260{clip-path:url(#SVGID_150_);fill:#CC202E;}
	.st261{clip-path:url(#SVGID_150_);fill:#B32028;}
	.st262{clip-path:url(#SVGID_152_);fill:#6D212B;}
	.st263{clip-path:url(#SVGID_152_);fill:#9F3847;}
	.st264{opacity:0.25;clip-path:url(#SVGID_152_);}
	.st265{clip-path:url(#SVGID_154_);fill:#FBC2A7;}
	.st266{clip-path:url(#SVGID_152_);fill:#3E3847;}
	.st267{opacity:0.24;clip-path:url(#SVGID_152_);}
	.st268{clip-path:url(#SVGID_156_);fill:#7455A3;}
	.st269{clip-path:url(#SVGID_158_);}
	.st270{clip-path:url(#SVGID_160_);fill:#3E3847;}
	.st271{clip-path:url(#SVGID_158_);fill:#ED2227;}
	.st272{clip-path:url(#SVGID_162_);fill:#CBCBCA;}
	.st273{clip-path:url(#SVGID_164_);fill:#CBCBCA;}
	.st274{clip-path:url(#SVGID_166_);fill:#CBCBCA;}
	.st275{clip-path:url(#SVGID_168_);fill:#CBCBCA;}
	.st276{clip-path:url(#SVGID_170_);fill:#CBCBCA;}
	.st277{clip-path:url(#SVGID_172_);fill:#E5E5E4;}
	.st278{clip-path:url(#SVGID_174_);fill:#E5E5E4;}
	.st279{clip-path:url(#SVGID_176_);fill:#CBCBCA;}
	.st280{clip-path:url(#SVGID_178_);fill:#CBCBCA;}
	.st281{clip-path:url(#SVGID_158_);fill:#181818;}
	.st282{clip-path:url(#SVGID_158_);fill:#E1B59C;}
	.st283{clip-path:url(#SVGID_158_);fill:#CBCBCA;}
	.st284{clip-path:url(#SVGID_158_);fill:#089DD2;}
	.st285{clip-path:url(#SVGID_158_);fill:#EEC7B1;}
	.st286{clip-path:url(#SVGID_158_);fill:#00839D;}
	.st287{clip-path:url(#SVGID_158_);fill:#E5E5E4;}
	.st288{clip-path:url(#SVGID_158_);fill:#BBBBBB;}
	.st289{clip-path:url(#SVGID_158_);fill:#9C9C9C;}
	.st290{clip-path:url(#SVGID_180_);fill:#F2F2F2;}
	.st291{clip-path:url(#SVGID_158_);fill:#F2F2F2;}
	.st292{clip-path:url(#SVGID_158_);fill:#003246;}
	.st293{clip-path:url(#SVGID_158_);fill:#B3B3B3;}
	.st294{clip-path:url(#SVGID_158_);fill:#043F5E;}
	.st295{clip-path:url(#SVGID_158_);fill:#676767;}
	.st296{clip-path:url(#SVGID_158_);fill:#4E4E4E;}
	.st297{clip-path:url(#SVGID_158_);fill:#1072B9;}
	.st298{opacity:0.24;clip-path:url(#SVGID_158_);}
	.st299{clip-path:url(#SVGID_182_);fill:#00ABC4;}
	.st300{clip-path:url(#SVGID_184_);}
	.st301{clip-path:url(#SVGID_186_);fill:#F3F4F4;}
	.st302{clip-path:url(#SVGID_188_);fill:#AFB0B1;}
	.st303{clip-path:url(#SVGID_190_);fill:url(#SVGID_191_);}
	.st304{filter:url(#Adobe_OpacityMaskFilter_6_);}
	.st305{clip-path:url(#SVGID_193_);}
	.st306{filter:url(#Adobe_OpacityMaskFilter_7_);}
	.st307{clip-path:url(#SVGID_196_);mask:url(#SVGID_194_);fill:url(#SVGID_197_);}
	.st308{clip-path:url(#SVGID_199_);}
	.st309{clip-path:url(#SVGID_201_);fill:url(#SVGID_202_);}
	.st310{clip-path:url(#SVGID_193_);fill:#F48480;}
	.st311{clip-path:url(#SVGID_204_);fill:url(#SVGID_205_);}
	.st312{clip-path:url(#SVGID_207_);}
	.st313{clip-path:url(#SVGID_209_);fill:url(#SVGID_210_);}
	.st314{clip-path:url(#SVGID_212_);fill:#F37239;}
	.st315{clip-path:url(#SVGID_212_);fill:#081837;}
	.st316{clip-path:url(#SVGID_212_);fill:#DFE0DE;}
	.st317{clip-path:url(#SVGID_214_);}
	.st318{clip-path:url(#SVGID_216_);fill:url(#SVGID_217_);}
	.st319{clip-path:url(#SVGID_219_);fill:#F37239;}
	.st320{clip-path:url(#SVGID_219_);fill:#081837;}
	.st321{clip-path:url(#SVGID_219_);fill:#DFE0DE;}
	.st322{clip-path:url(#SVGID_219_);fill:#1C2D59;}
	.st323{clip-path:url(#SVGID_219_);fill:#00839D;}
	.st324{clip-path:url(#SVGID_219_);fill:#FFFFFF;}
	.st325{clip-path:url(#SVGID_219_);fill:#F48480;}
	.st326{clip-path:url(#SVGID_221_);fill:url(#SVGID_222_);}
	.st327{clip-path:url(#SVGID_224_);fill:#FAD5A9;}
	.st328{clip-path:url(#SVGID_224_);fill:#F5AF75;}
	.st329{clip-path:url(#SVGID_224_);fill:#3E3847;}
	.st330{filter:url(#Adobe_OpacityMaskFilter_8_);}
	.st331{clip-path:url(#SVGID_224_);}
	.st332{clip-path:url(#SVGID_227_);}
	.st333{filter:url(#Adobe_OpacityMaskFilter_9_);}
	.st334{clip-path:url(#SVGID_229_);mask:url(#SVGID_225_);fill:url(#SVGID_230_);}
	.st335{clip-path:url(#SVGID_232_);}
	.st336{clip-path:url(#SVGID_234_);fill:url(#SVGID_235_);}
	.st337{clip-path:url(#SVGID_237_);fill:url(#SVGID_238_);}
	.st338{filter:url(#Adobe_OpacityMaskFilter_10_);}
	.st339{clip-path:url(#SVGID_240_);}
	.st340{clip-path:url(#SVGID_243_);}
	.st341{filter:url(#Adobe_OpacityMaskFilter_11_);}
	.st342{clip-path:url(#SVGID_245_);mask:url(#SVGID_241_);fill:url(#SVGID_246_);}
	.st343{clip-path:url(#SVGID_248_);}
	.st344{clip-path:url(#SVGID_250_);fill:url(#SVGID_251_);}
	.st345{clip-path:url(#SVGID_240_);fill:#3E3847;}
	.st346{clip-path:url(#SVGID_240_);fill:#0D172E;}
	.st347{clip-path:url(#SVGID_240_);fill:#FFFFFF;}
	.st348{opacity:0.67;clip-path:url(#SVGID_240_);}
	.st349{clip-path:url(#SVGID_253_);}
	.st350{clip-path:url(#SVGID_255_);fill:url(#SVGID_256_);}
	.st351{clip-path:url(#SVGID_240_);fill:#CBDAEF;}
	.st352{opacity:0.15;clip-path:url(#SVGID_240_);}
	.st353{clip-path:url(#SVGID_258_);fill:#020202;}
	.st354{clip-path:url(#SVGID_260_);fill:#020202;}
	.st355{clip-path:url(#SVGID_262_);fill:#020202;}
	.st356{clip-path:url(#SVGID_264_);fill:#020202;}
	.st357{clip-path:url(#SVGID_266_);fill:#020202;}
	.st358{clip-path:url(#SVGID_268_);fill:#020202;}
	.st359{opacity:0.24;clip-path:url(#SVGID_240_);}
	.st360{clip-path:url(#SVGID_270_);fill:#F27392;}
	.st361{clip-path:url(#SVGID_272_);fill:#BEBEBE;}
	.st362{clip-path:url(#SVGID_272_);fill:#61BB46;}
	.st363{clip-path:url(#SVGID_272_);fill:#F7BD8F;}
	.st364{clip-path:url(#SVGID_272_);fill:#00839D;}
	.st365{clip-path:url(#SVGID_272_);fill:#995825;}
	.st366{clip-path:url(#SVGID_272_);fill:#FACCA7;}
	.st367{clip-path:url(#SVGID_272_);fill:#EAEAE9;}
	.st368{opacity:0.24;clip-path:url(#SVGID_272_);}
	.st369{clip-path:url(#SVGID_274_);fill:#F6916F;}
	.st370{fill:#F9F6EE;}
</style>
<path class="st22" d="M441.7,356.3c0.3-1.7,0.7-3.3,1-5c2.2-12.2,5-24.4,8.4-36.3c2.3-8.1,4.8-16.1,8.8-23.5c1.4-2.6,3-5,5.2-7
	c3.7-3.2,7.5-2.5,9.7,1.8c2.1,3.9,2.5,8.2,2.5,12.5c0,6.6-1.3,13-2.9,19.4c-3.3,12.8-8.4,25-13.2,37.3c-2.1,5.3-4.2,10.5-6.3,15.8
	c-0.1,0.2-0.1,0.4,0,0.7c0.8-1.3,1.6-2.7,2.4-4c6.5-11.1,13.3-22,21.1-32.1c2.3-3,5.1-5.7,7.8-8.4c1-1,2.3-1.6,3.5-2.1
	c2.7-1.1,4.9,0.2,5.4,3.2c0.4,2.8-0.3,5.5-1.1,8.2c-3.2,10.8-7.9,21-13.4,30.7c-9.9,17.3-21.8,33.1-35.9,47
	c-2.6,2.5-5.5,4.6-8.3,6.9c-0.3,0.2-0.6,0.5-0.8,0.8c-0.9,1.3-2,1.4-2.7,0c-1.4-2.6-2.8-5.3-3.9-8.1c-3.5-9.3-5.1-19.1-6-29.1
	c-0.8-8.5-0.9-17,0-25.5c0.5-5,1.2-10,3.5-14.5c0.8-1.6,1.9-3.1,3.2-4.3c1.8-1.7,4.3-1.7,6,0.1c1.3,1.4,2.5,3,3.1,4.7
	c1.1,3.2,1.8,6.6,2.7,10c0.1,0.3,0.1,0.7,0.2,1.1H441.7z"/>
<path class="st21" d="M425.7,398.4c-4.1-5-7.8-9.6-11.8-14.1c-1.4-1.6-3.2-3.4-6.3-3.1c-1.8,2.8-0.1,5.8,1,8.6
	c4.1,11,11.3,21.1,19.6,31c2.2,2.6,5.5,2.5,8.1,2.3c1.4-0.1,2.5-2.3,3.3-3.7c3.8-7.1,7.5-14.3,11-21.6c1-2.1,1.3-4.5,1.4-6.9
	c0-1-1-2.5-2.1-3c-0.9-0.4-2.9,0-3.8,0.6c-2.1,1.3-3.8,3-6,4.8c0.5-2.7,1-5.1,1.5-7.5c1.4-7.6,2.9-15.3,4.1-22.9
	c0.2-1.4-0.1-3-0.7-4.5c-0.3-0.8-1.4-2-2.3-2.1c-1.1-0.2-2.8,0.3-3.3,1c-2,3-3.9,6-5.4,9.2c-0.9,1.9-0.9,4.2-2,6.2
	c-0.7-3.6-1.2-7.3-2.2-10.9c-1.5-5.4-3.3-10.8-5-16.2c-0.2-0.7-0.5-1.4-1.1-1.9c-1-0.8-2.2-1.8-3.3-1.9c-0.7-0.1-2.1,1.1-2.2,1.9
	c-0.7,4.3-1.5,8.5-1.5,12.9C416.8,370.4,421.6,384.1,425.7,398.4"/>
<g>
	<polygon class="st23" points="389.2,15.9 299.2,105.9 332.5,139.1 389.2,195.9 	"/>
	<polygon class="st24" points="15.8,389.3 200.1,389.3 291,298.5 106.7,298.5 	"/>
	<g>
		<defs>
			<polygon id="SVGID_1_" points="106.7,298.5 15.8,389.3 200.1,389.3 291,298.5 			"/>
		</defs>
		<clipPath id="SVGID_2_">
			<use xlink:href="#SVGID_1_"  style="overflow:visible;"/>
		</clipPath>
		<path class="st25" d="M121.8,377.2c-1.1,0.1-1.8-0.6-2.8-1.1c-1.4-0.7-3-0.6-4.5-0.2c-1.6,0.4-3.6,1-4.7,2.3
			c-0.9,1.1-0.9,3.4,0.9,3.5c2.2,0.2,10.4,0,10.4,0l2.4-0.2V377L121.8,377.2z"/>
		<path class="st25" d="M175,310.2c-0.8-2.8-2.7-4.4-5.1-5.2c-0.9-0.3-2-0.4-3-0.4c-2.1,0-4.3,0.3-6.2,1.4c-1.8,1.1-3.7,3.7-3.6,5.9
			c0.1,1.9,0.2,3.7,0.4,5.6c0.1,1.1,0.1,2.1,0.2,3.2c0.2,2.7,0.4,5.5,2,7.7c0.7,0.9,1.6,1.6,2.6,2.2c0.4,0.3,0.8,0.5,1.3,0.7
			c0.8,0.4,1.7,0.8,2.6,0.8c1.5,0.1,2.9-0.5,4.1-1.4c1.2-1,2.3-2.5,3-4c1.5-3.1,2.3-6.6,2.4-10C175.8,314.5,175.6,312.3,175,310.2"
			/>
		<path class="st26" d="M188.5,336.8c1.3,2.6,3.2,8.7,0.3,11.9c0,0-6.6-7.6-10.5-8.7c-2.1-0.6-4.3-1.1-6-2.5c-1.7-1.4-2.1-5.4-2-6.9
			c1.2-1,2.3-2.5,3-4c1.5-3.1,2.3-6.6,2.4-10c0.1-2.2-0.2-4.4-0.7-6.5c-0.8-2.8-2.7-4.4-5.1-5.2c-0.9-0.3-2-0.4-3-0.4
			c-2.1,0-4.3,0.3-6.2,1.4c-1.8,1.1-3.7,3.7-3.6,5.9c0.1,1.9,0.2,3.7,0.4,5.6c0.1,1.1,0.1,2.1,0.2,3.2c0.2,2.7,0.4,5.5,2,7.7
			c0.7,0.9,1.6,1.6,2.6,2.2l0,0.1c0.4,3.3-0.6,5.9-2.7,7.4c-2.1,1.5-4.7,2-7.1,2.9c-3.7,1.3-6.6,8.2-9.6,10.7
			c-3.3-3.5,2.3-9.8,3.3-12.4c0.4-1,0.8-2,0.7-3c-0.2-2.8-3.4-4.5-4.2-7.2c-0.7-2.5,0.9-5,2.7-6.8c1.8-1.8,4.1-3.2,5.4-5.4
			c1.3-2.1,1.7-4.7,2.6-7.1c1.8-4.5,6-8,10.8-8.9c4.8-0.9,7.1,0.4,9.7,1.4c2.6,1.1,5,3,5.9,5.6c0.8,2.3,0.5,4.9,1.7,7
			c1.5,2.6,5.1,3.9,5.7,6.9c0.5,2.3-1.1,4.6-1.4,6.9C185.6,331.5,187.2,334.2,188.5,336.8"/>
		<path class="st27" d="M187.6,344.1c-3.4-2.2-5.3-3-9.3-4.1c-1.2-0.3-2.4-0.6-3.5-1.1c-0.9-0.4-1.7-0.8-2.5-1.4l-12.7,0.4
			c-0.5,0.4-1,0.7-1.6,0.9c-1.7,0.8-3.7,1.3-5.5,1.9c-3.2,1.1-5.1,4.6-5.1,5.3c0,2.3,0.2,4.6,0.4,6.9c0.4,4.8,2.5,18.5,3.1,20.4
			c0.4,1.7,1,3.4,0.8,5.2c-0.3,3.2-2.2,6.1-3.5,8.9c-0.8,1.8-1.9,3.6-2.9,5.3l0.3,0.2c4.1,1.3,8.6,1.1,12.9,0.9
			c9.6-0.5,19.2-0.9,28.8-1.4l0.1-0.1c-0.5-0.8-1-1.6-1.4-2.4c-0.7-1.3-1.2-2.5-1.7-3.9c-1.5-4.3-2.3-8.8-2.6-13.4
			c-0.1-2.4-0.2-4.8-0.1-7.2c0-1.2,0-2.4,0.1-3.6c0-0.6,0-1.1,0.1-1.7c0-0.4,0.2-1.3,0.1-1.7C184.7,351.1,187.6,344.1,187.6,344.1"
			/>
		<path class="st28" d="M247.4,386.5H57.8c-2.3,0-4.1-1.8-4.1-4.1v-0.9h197.8v0.9C251.5,384.6,249.7,386.5,247.4,386.5"/>
		<path class="st26" d="M240.2,391.5H64.9c-2.3,0-4.1-1.8-4.1-4.1v-0.9h183.6v0.9C244.4,389.7,242.5,391.5,240.2,391.5"/>
		<path class="st29" d="M251.5,383H53.6c0-0.9,0.7-1.6,1.6-1.6h194.7C250.8,381.4,251.5,382.2,251.5,383"/>
		<path class="st30" d="M174.9,339c-7.7,15.8-14.4,4.7-16.7,0c0.6-0.3,1.1-0.6,1.6-0.9c2-1.4,2.9-4.3,2.6-7.5l0.4,0.2
			c0.3,0.2,0.6,0.4,1,0.5c0.8,0.4,1.7,0.8,2.6,0.8c1.5,0.1,2.9-0.5,4.1-1.4c-0.1,1.5,0.3,5.5,2,6.9C173.1,338.1,174,338.6,174.9,339
			"/>
		<path class="st26" d="M158.7,317.1c-0.7,0.5-1.7,0.8-1.7,0.8l0,0c-0.1-2-0.3-4-0.4-6c-0.1-2.3,1.9-5.2,3.9-6.3
			c2-1.2,4.4-1.5,6.7-1.5c1.1,0,2.2,0.1,3.2,0.4c2.5,0.8,4.6,2.6,5.5,5.6c0.6,2.3,0.8,4.6,0.8,7l-1.6,9.3c0.3-6.1-2.6-9-4.7-8.8
			c-1.9,0.2-4.4,1.2-6.3-0.5c-1-0.9-2.7-3.5-3-5.2C160.7,313.3,160.3,316.1,158.7,317.1"/>
		<path class="st26" d="M171.9,366.1c-2.7,4.6-5.3,9.2-8,13.9c-0.8,1.4,1.3,2.6,2.1,1.2c2.7-4.6,5.3-9.2,8-13.9
			C174.8,366,172.7,364.7,171.9,366.1"/>
		<path class="st31" d="M152.6,340.8c0,0-5.1,14.3-2.9,25.6c0,0-0.9,9-2.9,12.2c-2,3.2-23.6,2.8-23.6,2.8l-0.9-4.8
			c0,0,12.1-3.7,16.1-4.6c0.3-0.1,0.9-4.2,1-4.5C141.1,359.5,141.4,342.1,152.6,340.8"/>
		<path class="st25" d="M173.6,376.7c-1.1,0.1-1.8-0.6-2.8-1.1c-1.4-0.7-3-0.6-4.5-0.2c-1.6,0.4-3.6,1-4.7,2.3
			c-0.9,1.1-0.9,3.4,0.9,3.5c2.2,0.2,10.4,0,10.4,0l2.4-0.2v-4.4L173.6,376.7z"/>
		<path class="st31" d="M187.6,344.1c0,0,7,7.8,12.1,32.7c0,0,0,2.7-4.5,4.2c-3.7,1.2-21.3,0-21.3,0l-0.3-4.9c0,0,9.9-1.9,13.7-2.9
			c0,0-4.5-12-5.4-14.6C181.8,358.7,181.2,338.3,187.6,344.1"/>
		<polygon class="st32" points="198.3,368.7 197.9,371.9 197.5,376 196.8,382 189.3,382 188.7,376 188.2,371.9 187.9,368.7 		"/>
		<polygon class="st33" points="199.1,368.7 187.1,368.7 186.6,367.1 199.5,367.1 		"/>
		<rect x="187.9" y="365.5" class="st34" width="10.4" height="1.5"/>
		<rect x="190" y="364.2" class="st33" width="6.2" height="1.4"/>
		<polygon class="st33" points="197.9,371.9 197.5,376 188.7,376 188.2,371.9 		"/>
		<rect x="101.4" y="379.4" class="st35" width="49.2" height="2"/>
		<rect x="101.4" y="379.4" class="st36" width="33.7" height="2"/>
		<path class="st37" d="M141.8,367.4H88.6c-1.2,0-2.3-1-2.4-2.2L83,317.4c-0.1-1.3,0.9-2.4,2.2-2.5l55-3.3c1.3-0.1,2.5,1,2.5,2.3
			l1.4,51.1C144.2,366.3,143.1,367.4,141.8,367.4"/>
		<path class="st38" d="M142.2,364.9c0,1.3-1,2.4-2.4,2.4H86.7c-1.2,0-2.3-1-2.4-2.2l-3.3-47.8c-0.1-1.3,0.9-2.4,2.2-2.5l55-3.3
			c1.3-0.1,2.5,1,2.5,2.3L142.2,364.9z"/>
		<path class="st39" d="M97.3,350.9c-0.6,0-1-0.4-1.1-0.9l-0.8-10.2c0-0.2,0.1-0.5,0.2-0.7c0.2-0.2,0.5-0.4,0.8-0.4l14.3-0.7l0,0
			c0.6,0,1.1,0.4,1.1,1l0.4,10.9c0,0.2-0.1,0.5-0.3,0.7c-0.2,0.2-0.5,0.3-0.8,0.3H97.3z"/>
		<path class="st37" d="M110.9,350.6H97.1c-0.3,0-0.6-0.2-0.6-0.5l-0.8-10.2c0-0.3,0.2-0.5,0.6-0.5l14.3-0.7c0.3,0,0.6,0.2,0.6,0.5
			l0.4,10.9C111.5,350.3,111.2,350.6,110.9,350.6"/>
		<g class="st40">
			<g>
				<defs>
					<rect id="SVGID_3_" x="102.4" y="342" width="6.1" height="25.3"/>
				</defs>
				<clipPath id="SVGID_4_">
					<use xlink:href="#SVGID_3_"  style="overflow:visible;"/>
				</clipPath>
				<polygon class="st41" points="108.5,367.4 102.4,367.4 105.1,342.1 107.2,342 				"/>
			</g>
		</g>
		<path class="st39" d="M119.4,380.3v1.3L93,381.8c-1.6,0-4.9-0.7-4-4c3.1-11.6,6.4-22,9.7-34.6c0.1-0.5,0.5-0.8,1-0.8l7.1-0.3
			l0.4,0c0,0-3.8,22.3-4.8,33.3c-0.1,1.4-0.3,2.7,0.7,3.7C104.1,379.9,118.1,380.3,119.4,380.3"/>
		<path class="st42" d="M119.4,380.3v0.6l-13.7-0.6c-5.5-0.2-4.2-4.7-4.2-4.7c0.2-6.3,4.5-29.6,5.2-33.5l0.4,0
			c0,0-3.8,22.3-4.8,33.3c-0.1,1.4-0.3,2.7,0.7,3.7C104.1,379.9,118.1,380.3,119.4,380.3"/>
	</g>
	<polygon class="st22" points="104.9,294.1 197.9,201.1 12.8,15.9 12.8,386.3 100.6,298.5 104.3,294.8 	"/>
	<g>
		<defs>
			<polygon id="SVGID_5_" points="12.8,386.3 100.6,298.5 104.3,294.8 104.9,294.1 197.9,201.1 12.8,15.9 			"/>
		</defs>
		<clipPath id="SVGID_6_">
			<use xlink:href="#SVGID_5_"  style="overflow:visible;"/>
		</clipPath>
		<g class="st43">
			<g>
				<defs>
					<rect id="SVGID_7_" x="43.1" y="301.5" width="128.1" height="7.8"/>
				</defs>
				<clipPath id="SVGID_8_">
					<use xlink:href="#SVGID_7_"  style="overflow:visible;"/>
				</clipPath>
				<path class="st44" d="M171.2,305.4c0,2.1-28.7,3.9-64,3.9c-35.4,0-64-1.7-64-3.9c0-2.1,28.7-3.9,64-3.9
					C142.5,301.5,171.2,303.2,171.2,305.4"/>
			</g>
		</g>
		<rect x="52.3" y="202.5" class="st45" width="204.3" height="74.9"/>
		<path class="st46" d="M189,277.4h67.5v-74.9c0-3.1-2.6-5.7-5.7-5.7h-56.1c-3.2,0-5.7,2.6-5.7,5.7V277.4z M120.6,277.4h67.5v-74.9
			c0-3.1-2.6-5.7-5.8-5.7h-56c-3.2,0-5.8,2.6-5.8,5.7V277.4z M52.3,277.4h67.5v-74.9c0-3.1-2.6-5.7-5.7-5.7H58
			c-3.2,0-5.7,2.6-5.7,5.7V277.4z"/>
		<path class="st46" d="M189,277.4h67.5V247c-21.2-1.8-43.9-2.8-67.5-2.9V277.4z M188.2,244h-5.4c-21.6,0-42.4,0.7-62.1,2v31.3h67.5
			V244z M119.8,246.2c-24.6,1.7-47.3,4.3-67.5,7.7v23.5h67.5V246.2z"/>
		<path class="st47" d="M48.8,305.3h-5.4v-61.1h5.4V305.3z M265.4,305.3h-5.5v-61.1h5.5V305.3z"/>
		<path class="st45" d="M57.7,254.6H138c8.7,0,15.8,7.1,15.8,15.8c0,3.8-3.2,7-7,7h-98c-3.8,0-7-3.1-7-7
			C41.9,261.8,49,254.6,57.7,254.6"/>
		<path class="st46" d="M57.7,254.6H138c6.3,0,11.8,3.8,14.3,9.1c-14.6,3.8-33.7,6-54.5,6c-20.9,0-39.9-2.3-54.5-6
			C45.9,258.4,51.4,254.6,57.7,254.6"/>
		<path class="st45" d="M170.8,254.6h80.3c8.7,0,15.8,7.1,15.8,15.8c0,3.8-3.1,7-7,7h-98c-3.8,0-7-3.1-7-7
			C155,261.8,162.1,254.6,170.8,254.6"/>
		<path class="st46" d="M170.8,254.6h80.3c6.3,0,11.8,3.8,14.3,9.1c-14.6,3.8-33.6,6-54.5,6c-20.9,0-39.9-2.3-54.5-6
			C159,258.4,164.4,254.6,170.8,254.6"/>
		<path class="st48" d="M48.8,277.4h211.1v5.4c0,0.5-0.4,0.8-0.9,0.8H49.7c-0.5,0-0.9-0.4-0.9-0.8V277.4z"/>
		<path class="st46" d="M43.4,250.1h5.4c0.8,0,1.4-0.6,1.4-1.4v-5.9c0-2.3-1.8-4.1-4.1-4.1c-2.2,0-4.1,1.8-4.1,4.1v5.9
			C42.1,249.5,42.7,250.1,43.4,250.1"/>
		<rect x="48.9" y="277.4" class="st47" width="211" height="2.7"/>
		<path class="st49" d="M33.3,149.1l2,24.3c0,0,17.3-3.6,17.4-3c0.1,0.6-2.6-11.6-2.6-11.6L33.3,149.1z"/>
		<path class="st50" d="M33.3,149.1l0.7,8.5c3.6,5.9,9.5,11.7,18.2,10.9c-0.8-3.3-2.2-9.7-2.2-9.7L33.3,149.1z"/>
		<path class="st49" d="M58.9,124.3c1.2,2.6,1.5,5.5,1.2,8.4c1.7,5,3.4,10,5.2,14.9c0,0.8-1.7,1.2-4.1,1.5c-2.3,1.5-4.5,3-6.7,4.6
			c-2.1,0.8-4.2,1.6-6.3,2.4c-3.1-0.4-6.2-0.8-9.3-1.2c-1.1-2.1-2.3-4.2-3.4-6.3c-1.5-3.6-3.1-7.1-4.7-10.8
			c2.3-4.4,4.6-8.7,6.8-13.1C44.6,124.7,51.8,124.5,58.9,124.3"/>
		<path class="st51" d="M211.3,244.3c2.3-2.5,4.6-5,7-7.5c2-2.1,2.9-4.6,5.3-1.9c-1.8,5.5-3.5,11-5.3,16.5c-0.9,2.2-4.1,1.5-7,1.3
			V244.3z"/>
		<path class="st52" d="M88.4,232.4c16.2-3,32.5-5.9,48.7-8.9c6.1-1.1,5.3-0.9,11.2,1.1c21.1,6.9,42.4,13.3,63.6,20v3.4
			c-21.3-0.7-42-5.5-63.4-6.2c-19.1-0.6-38.9,3-58,2.4c-3.1-0.1-6.2-0.2-9.3-0.4c0.8-2.1,1.6-4.2,2.4-6.3
			C85.2,235.8,86.8,234.1,88.4,232.4"/>
		<path class="st53" d="M66.5,254.6c5-6.6,13.4-13.2,18.4-19.7c19.1-1.2,38.1-2.3,57.2-3.5c7.5-0.5,9.4-0.2,16.8,1.3
			c19.7,3.9,39,8.5,58.4,12.4c0,2.8,0,6.8,0,9.6c-22.6-2.7-45.3-7.5-68-10.3c-14.6,3.4-29.2,6.8-43.8,10.3H66.5z"/>
		<path class="st54" d="M66.5,254.6c2.7-3.5,6.4-7.1,9.9-10.6c18.2,7.8,41.8,5.3,68-2.3c-0.6-2.1-1.3-4.2-2-6.3
			c1.6,2.4,3.2,4.9,4.7,7.4c0.4-2.2,0.8-4.4,1.1-6.6c0.1,1.9,0.1,3.8,0.2,5.6c1.7-2.4,3.3-4.9,5-7.4c-0.7,2.5-1.4,5-2.1,7.5
			c22.1,4.6,44.1,8.2,65.9,10.5v2.3c-22.6-2.7-45.3-7.5-68-10.3c-14.6,3.4-29.2,6.8-43.8,10.3H66.5z"/>
		<path class="st55" d="M65.5,257.3c9.7-8,17.3-15.7,23.7-25.8c-11.7-18.8-15.9-41.2-32-59.4c-2.2-2.4-1.5-2.3-4.6-2
			c-5.7,0.6-11.4,1.2-17,1.8c-11.5,5.7-14.1,13.6-11.9,22.6C30.8,223.5,48.6,240.1,65.5,257.3"/>
		<path class="st56" d="M80.5,243.1c3.2-3.6,6-7.4,8.7-11.6c-2.1-3.5-4-7-5.8-10.7l-16.8-2.2l-36.1-26l-6.8-8.7
			c-1.1,3.3-1,6.9-0.1,10.6c1.2,4.8,2.6,9.2,4.4,13.4C38.4,220.2,57.2,238.4,80.5,243.1"/>
		<path class="st57" d="M217.3,245.7c2.3-2.5,4.6-5,7-7.5c2-2.1,2.9-4.6,5.3-1.8c-1.8,5.5-3.5,10.9-5.3,16.4c-0.9,2.2-4.1,1.5-7,1.3
			V245.7z"/>
		<polygon class="st49" points="126.4,215.6 137.5,214.1 145.6,224.7 138.9,225.1 134.8,222.2 130.5,223.8 127.7,222.7 		"/>
		<path class="st57" d="M114.1,226h47.1v2.7c0,0.8-0.6,1.5-1.4,1.5h-44.2c-0.8,0-1.4-0.7-1.4-1.5V226z"/>
		<path class="st57" d="M157.4,224.9l23-39.8c0.2-0.3,0.5-0.4,0.8-0.2l1.9,1.1c0.7,0.4,0.9,1.3,0.5,2l-22.1,38.3
			c-0.4,0.7-1.3,0.9-2,0.5l-1.9-1.1C157.4,225.5,157.3,225.1,157.4,224.9"/>
		<rect x="115.9" y="225.4" class="st57" width="40.9" height="0.6"/>
		<path class="st58" d="M30.4,175c7.9,1.5,28.8,25.7,43.3,38.5c17.5,0.2,35,0.5,52.5,0.8c0.7,3.6,1.3,7.2,2,10.8
			c-17.8,2.7-35.7,5.3-53.6,8c-18.5-11.4-38.6-22.4-50.2-35.4C21.2,187.4,23.4,179.9,30.4,175"/>
		<path class="st55" d="M127.9,223.4l0.3,1.7c-17.8,2.7-35.7,5.3-53.6,8c-18.5-11.4-38.6-22.4-50.2-35.3c-0.2-0.6-0.3-1.2-0.5-1.8
			c13.6,14.6,31,22.9,49.2,31.7c-1.2-2.9-2.4-5.8-3.6-8.6c1.9,3.1,3.8,6.2,5.6,9.3c0.9-2.3,1.8-4.7,2.6-7c0.2,2.7,0.3,5.4,0.4,8.2
			c2.1-2.3,4.1-4.5,6.2-6.8c-0.9,2.4-1.8,4.7-2.7,7.1L127.9,223.4z"/>
		<path class="st58" d="M33,173.3c0,0,8.4,3.4,23-2.5c-0.1-2-0.5-3.9-1.6-5.4c0,0-18.1,4-23.1,0.4C31.2,168.5,31.8,171.8,33,173.3"
			/>
		<path class="st59" d="M61.4,110.2c-0.9,1.2-1.8,2.1-2.7,2.9c-7.4,6.5-13.5,0.6-21.9,2.6c-13.7,3.4-8.2,23.8-5.6,33.3
			c3.4,12,17.8,15.6,30.1,17.5c-1.1-4.7-1.3-13.3-0.2-17.4c-5.6,1-11.6,4.4-16.4,3.4c-7-1.4-6-3.6-6.2-9.4c-2.9,1.1-3.4,1.5-4.2-2.5
			c-0.9-4.8,1.8-5.6,4.1-3.3c0.3-10.8,4.2-7.5,17.6-10.1C64.9,124.3,65.7,118.3,61.4,110.2"/>
	</g>
	<polygon class="st21" points="293.1,106.4 294.7,104.8 296.2,103.3 386.2,13.3 15.8,13.3 201,198.5 247.1,152.4 	"/>
	<polygon class="st60" points="204.1,201.1 238.1,235.1 296.2,293.2 388.3,201.1 296.2,109 	"/>
	<polygon class="st61" points="174.6,230.5 111,294.1 291,294.1 201,204.2 	"/>
	<polygon class="st62" points="299.2,296.3 297.1,298.5 206.2,389.3 389.2,389.3 389.2,206.3 	"/>
	<g>
		<defs>
			<polygon id="SVGID_9_" points="299.2,296.3 297.1,298.5 206.2,389.3 389.2,389.3 389.2,206.3 			"/>
		</defs>
		<clipPath id="SVGID_10_">
			<use xlink:href="#SVGID_9_"  style="overflow:visible;"/>
		</clipPath>
		<path class="st63" d="M350.5,316.7l2.4,10.9c0,0,0,14.1-14.9,6.8L350.5,316.7z"/>
		<path class="st64" d="M349.9,318.1c0.5-1.1,8.2-18.2,0-27.1c0,0,10.6-7.6,2-13.4c0,0-11.7-8.2-7.4,11.3c0,0-13.7-7.5-23.1,8.1
			c-9.4,15.6,6.1,37.5,6.1,37.5S338.9,343.4,349.9,318.1"/>
		<path class="st63" d="M318.5,304.9c0.1-0.5,1-2.2,2.2-0.4c1.4,2.2,6.3,5.7,14.6-2c10.6-9.8,10.2,5.2,10.2,5.2s2.4,16.3-8.1,16.2
			c-8.9-0.1-12.1-0.4-13.4,1.5c-0.3,0.5-1.4,0.4-1.6-0.1C320.4,321.9,316.7,311.9,318.5,304.9"/>
		<path class="st65" d="M327.2,327.1c0,0,2-1.8,3.7,0.6"/>
		<path class="st63" d="M348.8,320.5l-0.9-11c0,0,2.5-0.5,1.9,1c-0.6,1.5-1,4.8,0.7,6.1l-0.4,2.3L348.8,320.5z"/>
		<path class="st66" d="M359.6,424c0,0-16.8-23.3-34.3-32.2l-49.7-37.3c0,0-16.4-10.6-23.1,9.5c0,0-2.7,26.5,8.5,46.5l14.2-4.6
			l37.8-3.6l-17.9,4.2c0,0-15.9-2.9-15.6,28.1c0.3,31-0.3,56.3-0.3,56.3l18.4,1.8l11.4-61.7C309.1,430.9,351.1,440,359.6,424"/>
		<path class="st63" d="M327.4,365.4c0,0-4.7,8.4-8.6,10.5l2.9,12.2c0,0,14-6.4,12.4-17.2C332.4,360,327.4,365.4,327.4,365.4"/>
		<path class="st67" d="M338,337.9c0,0-6.9,22.5-13.8,28c0,0,4.4,4.2,10.4,5.3C334.7,371.2,340.6,342.2,338,337.9"/>
		<path class="st68" d="M352.9,325.7c0,0,27.8,0.9,26.4,40.2c0,0-0.4,38.1-19.7,58.2c0,0-16.6-20.3-34.3-32.2
			c0,0,12.7-22.5,12.7-57.4c0,0,6.8,3.7,11.2,1.1C353.5,332.8,352.9,325.7,352.9,325.7"/>
		<path class="st63" d="M350.5,370.5c0,0,7.9-0.9,18,1.4c0,0-3.9,33.9-13.3,36.7c-9.4,2.8-29.9-6.1-29.9-6.1l-2-7.9
			c0,0,21.6,4.5,23.5,4.1C350.5,397.9,350.5,370.5,350.5,370.5"/>
		<path class="st69" d="M349.3,370.4c0,0,12.9-0.9,19.8,1.6c0,0,3.7-2,3.1-8.4c-0.6-6.4-25.4-6.8-25.4-6.8S348.1,368.1,349.3,370.4"
			/>
		<path class="st67" d="M366.8,338.5c1.5,5.4,2.7,11,3.4,16.6c0.2,1.4,0.3,2.8,0.5,4.3c0.1,1.4,0.2,2.9,0,4.3
			c-0.1,1.4-0.3,2.9-0.6,4.3c-0.2,0.7-0.4,1.4-0.6,2.1c-0.3,0.7-0.6,1.3-0.9,2c0,0-0.1,0.1-0.1,0c0,0-0.1-0.1,0-0.1l0,0
			c0.6-2.8,0.6-5.5,0.6-8.3c0-2.8,0-5.6-0.2-8.4c-0.2-2.8-0.5-5.6-0.9-8.4c-0.4-2.8-0.8-5.6-1.4-8.3
			C366.6,338.5,366.6,338.4,366.8,338.5C366.7,338.4,366.8,338.4,366.8,338.5"/>
		<path class="st67" d="M349.1,357.5c0.1,2.3,0.2,4.5,0.3,6.8c0,1.1,0.1,2.3,0.1,3.4c-0.1,1.1-0.1,2.3-0.4,3.4c0,0,0,0,0,0
			c0,0,0,0,0,0c-0.2-1.1-0.3-2.3-0.4-3.4c-0.1-1.1,0-2.3,0.1-3.4C348.8,362.1,348.9,359.8,349.1,357.5
			C349,357.5,349,357.5,349.1,357.5C349.1,357.5,349.1,357.5,349.1,357.5"/>
		<path class="st70" d="M275.3,406l48,0.5l-7.9-32.1h-45.1c-1.4,0-2.5,1.4-2.2,2.7L275.3,406z"/>
		<path class="st71" d="M335.1,406.2l-11.8,0.3l-7.9-32.1c0,0,2.2-0.6,3.3,2.7c1.1,3.4,6.6,26.4,6.6,26.4l8.8,1.1L335.1,406.2z"/>
		<path class="st72" d="M297.8,390.1c0,1.2-1.2,2.2-2.6,2.2c-1.4,0-2.6-1-2.6-2.2c0-1.2,1.2-2.2,2.6-2.2
			C296.6,388,297.8,388.9,297.8,390.1"/>
	</g>
	<g>
		<defs>
			<polygon id="SVGID_11_" points="15.8,13.3 201,198.5 247.1,152.4 293.1,106.4 294.7,104.8 296.2,103.3 386.2,13.3 			"/>
		</defs>
		<clipPath id="SVGID_12_">
			<use xlink:href="#SVGID_11_"  style="overflow:visible;"/>
		</clipPath>
		<rect x="144.4" y="174" class="st73" width="140.1" height="38.9"/>
	</g>
	<g>
		<defs>
			<polygon id="SVGID_13_" points="110.7,24.5 110.7,108.2 178.1,175.6 223.9,175.6 247.1,152.4 264,135.4 264,24.5 			"/>
		</defs>
		<clipPath id="SVGID_14_">
			<use xlink:href="#SVGID_13_"  style="overflow:visible;"/>
		</clipPath>
		<path class="st74" d="M200.7,131.6c3.2,0,16.3-18.5,20-23.8c2.6-3.7,7.2-5.3,11.9-7.5c3.4-1.6,12-4.5,12-4.5
			c3.9-1.5,1.4,3.6-1.2,4.5l13.2-5.1c2.3,2.6-8.3,8.3-13.8,10.3c-5.5,2-12.5,1.6-15.1,6.2c-1.7,3.1-10.8,22-18.6,34.2L200.7,131.6z"
			/>
		<path class="st75" d="M232.5,100.3c-4.7,2.1-9.3,3.8-11.9,7.5c-3.7,5.2-16.8,23.8-20,23.8l8.9,9.3c0,0-2-6.4,0.9-13.3
			c2.9-7,8.5-14.3,10.5-17.2C224.3,105.4,229.4,103.2,232.5,100.3"/>
		<path class="st76" d="M151.3,33.3c0,0,23.2-7.6,28.1,5.3c2.7,7.1,9.8,20.1,5.3,34.8c-2.5,8.3-2.7,12,1.3,14.7
			c4,2.7,16.9,9.8,8.9,20.9c-4,5.5-5.8,2.7-3.6,4c2.2,1.3-8.5,8.9-11.6,3.6c-3.1-5.3-10.2-27.2-10.7-36.1c-0.4-8.9,10.7-21.4,4.5-29
			C167.3,44,151.3,33.3,151.3,33.3"/>
		<path class="st76" d="M170.3,38c0,0-6.1-5.5-15.9-5.1c-6.8,0.3-14.7,6.7-16.5,18.7c-1.6,10.8,0,26.7-8.5,33
			c-8.5,6.2-11.1,15.6-5.3,22.3c3.3,3.8,4.9,2.2,9.4-0.4c4.5-2.7,15.6-6.2,18.3-4.9c2.7,1.3,12.9-4,10.2-14.7
			c-2.7-10.7-10.7-22.7-6.7-29c4-6.2,12.5-13.4,17.4-14.3C177.5,42.7,170.3,38,170.3,38"/>
		<path class="st76" d="M167.9,42c0,0-3.7-9.6-13.5-9.2c-6.8,0.3-9.4,6.4-11.2,18.4c-1.6,10.8,4.6,27.4-3.9,33.6
			c-8.5,6.2-21,15.3-15.2,21.9c3.3,3.8,4.9,2.2,9.4-0.4c4.5-2.7,11.2-20.1,13.9-18.8c2.7,1.3,17.3,9.9,14.6-0.8
			c-2.7-10.7-10.7-22.7-6.7-29s12.5-13.4,17.4-14.3C177.5,42.7,167.9,42,167.9,42"/>
		<path class="st77" d="M168.8,116.8c8.1,0,10.7-26.1,10.7-26.1c-1.5-0.4-3-0.9-4.2-1.7c-2.9-1.8-4.2-4.9-4.8-7.7
			c-0.7-3.3-0.4-6.2-0.4-6.2l-12.1-1.8c-1,9.4-3.3,13.4-10.4,17.9C147.7,91.2,156,116.8,168.8,116.8"/>
		<path class="st75" d="M170.2,76.5l-12.1-3.2c-0.4,3.5-0.9,6.3-1.9,8.4c-1.7,3.6,1.9-1.3,7.9-1.7C169.4,79.7,170.2,76.5,170.2,76.5
			"/>
		<path class="st78" d="M138.8,142c2.7,2.2,5.3,4.9,5.3,4.9l-4.9,12c0,0-4.9-1.8-8.9-3.6c-5.3-2.7-7.1-4.5-7.1-13.4
			c0,0,4.5-41.9,12.5-45.9c5.6-2.8,10.4-3.9,13.9-6.4c3.6-2.5,6-6.4,6.9-9.3c0,0,4,1.2,7.3,1.4c3.3,0.2,6.9-0.4,6.9-0.4
			c0.6,2.6,1.9,5.9,4.6,7.7c4.9,3.2,13.2,1,17.7,12.4c3.8,9.6,4.4,30,7.5,30c0.5,0,1.3-0.5,2.3-1.4l9.4,10.3
			c-5.1,8.6-10.1,15.8-12.9,15.8c-6.6,0-12.9-15.5-12.9-15.5s-4.9,19.4-4.9,34.5c0,0-20.3,5.3-29,4.7c-9-0.6-13.2-5-13.2-5
			c11.7-24,1.5-46.7,1.5-46.7S139.2,134.9,138.8,142"/>
		<path class="st79" d="M126,122.8c-1.8,10.1-2.8,19.2-2.8,19.2c0,8.9,1.8,10.7,7.1,13.4c4,1.8,8.9,3.6,8.9,3.6l4.9-12
			c0,0-11.7,8.2-15.6,0.8C124.7,140.3,126,122.8,126,122.8"/>
		<path class="st80" d="M181.6,175.5c-6.4,1.4-24.2,4.8-28.9,4.5c-9-0.6-13.2-5-13.2-5c11.7-24,1.4-46.4,1.4-46.4s2.7-9.7,3.3-16.7
			c0.2-2.4-0.1-6.3,2-2.8c3,5,3.6,15.5,2.6,24.3c-1.4,12.7,3,26.1,8.3,33.1C164.8,176.6,187.1,174.3,181.6,175.5"/>
		<path class="st79" d="M202.9,130.2l9.4,10.3c-5.1,8.6-10.1,15.8-12.9,15.8c-5.4,0-10.6-10.3-12.3-14.1c-0.4-0.9-0.5-1.9-0.3-2.8
			l3-13.9c0.4,2.6-2.2,12.7,1.1,18.9c3.2,6,5.9,7.7,8.5,6.6C208.1,147.3,202.9,130.2,202.9,130.2"/>
		<path class="st79" d="M181.7,105c0,0,3.1,6.2,4.7,11.7c3.1,10.5,0.2,24.1,0.2,24.1s4.9-12.3,3.3-21.8
			C188.9,113.1,183.8,104.2,181.7,105"/>
		<path class="st74" d="M167.1,39.5c3.5,0,11.9,3.7,13.5,16.7c1.3,11-6.7,21.7-13.3,21.7c-4,0-13.4-0.7-15.5-16.4
			C150.5,51.3,162.3,39.5,167.1,39.5"/>
		<path class="st77" d="M147.4,60.4c0,2.9,2.1,5.3,4.7,5.3c2.6,0,4.7-2.4,4.7-5.3c0-2.9-2.1-5.3-4.7-5.3
			C149.5,55.1,147.4,57.4,147.4,60.4"/>
		<path class="st75" d="M178.1,47.7c-3.2-6.4-8.3-8.3-11-8.3c-3.9,0-12.1,7.5-14.6,15.6c-0.1,0-0.3,0-0.4,0c-2.6,0-4.7,2.4-4.7,5.3
			c0,1.1,0.3,2.1,0.8,3c0,0,0.1-5.5,3-6.2c0.2-0.1,1.3,0.4,2.2-0.2c0.5-0.3,0.8-1.4,1.3-2.3c3.5-6,9.4-10.8,12.4-10.8
			c1.6,0,3.9,0.7,6.2,2.6C176,48.9,179.2,49.9,178.1,47.7"/>
		<path class="st74" d="M167.3,169.2c3.1,0.9,8.9,0.4,12.5,0c3.6-0.4,5.3,0,6.7,0c1.3,0,0.9-1.8-1.3-2.2c-2.2-0.4-6.7-0.9-5.8-1.3
			s5.3-0.4,5.3-0.4s7.6,3.1,8.5,3.1c0.9,0,0.4-1.3,0.4-1.3s1.3,0.4,2.2,0c0.9-0.4,0.4-1.8,0.4-1.8c0.9-0.4,0-1.3,0-1.3
			c-4.9-2.2-11.6-4.5-12.9-4.5c-1.3,0-8.9,2.1-11.1,2.2c-6.2,0.4-16-6.7-28.1-14.7l-4.9,12C145.9,161.2,164.2,168.3,167.3,169.2"/>
		<path class="st75" d="M179.3,165.7c0.9-0.4,5.3-0.4,5.3-0.4s7.6,3.1,8.5,3.1c0.4,0,0.5-0.3,0.6-0.7c0-0.5-6.7-2.6-8.8-3.2
			C183.4,164.1,179.3,165.7,179.3,165.7"/>
		<path class="st75" d="M179.8,169.2c-3.6,0.4-9.4,0.9-12.5,0c-3.1-0.9-21.4-8-28.1-10.2l4.9-12c0,0-1.2,7.7,3.5,10.7
			c4.8,3,16.2,9.4,19.6,10.4C172.4,169.5,179.8,169.2,179.8,169.2"/>
		<path class="st76" d="M166.4,39.6c0,0-0.9,4.1-4.1,8c-1.9,2.4-7.3,3-6.6,7.5c1.9,13,6.3,24-3.6,28.1c-7.6,3.1,5.3-9.8-1.3-35.2
			C149.4,42.8,166.4,39.6,166.4,39.6"/>
		<path class="st75" d="M158.7,55.1c-0.7-4.5,4.7-5.2,6.6-7.5c2.7-3.4,3.8-6.8,4-7.8c-0.2-0.1-0.4-0.1-0.5-0.1
			c-0.6,0.1-1.5,0.3-2.6,0.6c-0.4,1.3-1.5,4.4-3.9,7.3c-1.9,2.4-7.3,3-6.6,7.5c1.1,7.6,3.1,14.6,2.5,19.9
			C159.1,75.7,159.9,63.6,158.7,55.1"/>
	</g>
	<g>
		<defs>
			<polygon id="SVGID_15_" points="15.8,13.3 201,198.5 247.1,152.4 293.1,106.4 294.7,104.8 296.2,103.3 386.2,13.3 			"/>
		</defs>
		<clipPath id="SVGID_16_">
			<use xlink:href="#SVGID_15_"  style="overflow:visible;"/>
		</clipPath>
		<path class="st81" d="M223.6,166.7l-49.3,4.9c-1.1,0-2,0.9-2,2v0c0,1.1,0.9,2,2,2h49.3c1.1,0,2-0.9,2-2v-0.5
			C225.6,172,224.7,166.7,223.6,166.7"/>
		<path class="st82" d="M278.6,124.4h-52.7c-4.7,0-9.6,3.8-10.8,8.5l-9.8,34.1c-1.3,4.7,1.5,8.6,6.3,8.6h52.7
			c4.7,0,9.6-3.8,10.8-8.6l9.8-34.1C286.1,128.2,283.3,124.4,278.6,124.4"/>
		<g class="st83">
			<g>
				<defs>
					<rect id="SVGID_17_" x="238.3" y="143.2" width="13.4" height="11.6"/>
				</defs>
				<clipPath id="SVGID_18_">
					<use xlink:href="#SVGID_17_"  style="overflow:visible;"/>
				</clipPath>
				<path class="st84" d="M251.5,148.8c-1,3.6-4.6,5.9-8.2,5.9c-3.6,0-5.7-2.4-4.7-5.9c1-3.6,4.6-5.7,8.2-5.7
					C250.3,143.2,252.5,145.3,251.5,148.8"/>
			</g>
		</g>
		<path class="st85" d="M131,103.6c-0.2,0-0.3-0.1-0.3-0.3c-0.5-9.7,2.7-11.4,8.6-14.5c1.2-0.7,2.6-1.4,4.1-2.3
			c4.9-3,4-9.7,2.9-17.6c-0.7-5.1-1.5-10.8-0.7-16.2c0.7-4.7,2.8-11,9.1-13.7c3.8-1.6,7.2-1.2,7.3-1.2c0.2,0,0.3,0.2,0.3,0.3
			c0,0.2-0.2,0.3-0.3,0.3c0,0-3.4-0.4-7,1.1c-4.8,2.1-7.8,6.5-8.7,13.2c-0.8,5.3,0,11,0.7,16c1.1,8,2,15-3.2,18.1
			c-1.5,0.9-2.9,1.7-4.1,2.3c-5.8,3.1-8.7,4.7-8.2,14C131.3,103.4,131.1,103.6,131,103.6C131,103.6,131,103.6,131,103.6"/>
	</g>
	<g>
		<defs>
			<polygon id="SVGID_19_" points="174.6,230.5 111,294.1 291,294.1 201,204.2 			"/>
		</defs>
		<clipPath id="SVGID_20_">
			<use xlink:href="#SVGID_19_"  style="overflow:visible;"/>
		</clipPath>
		<g class="st86">
			<g>
				<defs>
					<rect id="SVGID_21_" x="155.1" y="274.7" width="86.5" height="30.5"/>
				</defs>
				<clipPath id="SVGID_22_">
					<use xlink:href="#SVGID_21_"  style="overflow:visible;"/>
				</clipPath>
				<path class="st87" d="M241.3,285.2c1.1,2.8-1.8,5.5-4.4,7.1c-11.7,7-24.9,11.4-38.4,12.6c-3.4,0.3-6.9,0.4-10.3-0.3
					c-3.2-0.7-6.1-2.1-9-3.5c-6.1-2.9-12.1-5.8-18.2-8.8c-1.9-0.9-6.4-3.5-5.9-6.1c0.1-0.5,0.4-0.9,0.7-1.3
					c4.4-5.3,11.4-6.6,16.9-10.3c5.2,1.1,10.5,1.9,15.8,2.4c16.2,1.5,32.9,0,48.4,5C238.7,282.6,240.6,283.5,241.3,285.2"/>
			</g>
		</g>
		<path class="st88" d="M234.4,289.8c0,0-3.8,3-10.2,6.1c-12.9,6.1-36.5,12.2-60.5-7c0,0-17.7-26.2,5-46.3c0.9-0.8,1.8-1.5,2.6-2.2
			c21.8-16.6,42.4-0.2,42.4-0.2s7.2,3.9,13.6,11.1C235,259.8,241.7,272.9,234.4,289.8"/>
		<g class="st86">
			<g>
				<defs>
					<rect id="SVGID_23_" x="172.1" y="269.5" width="50.7" height="6.9"/>
				</defs>
				<clipPath id="SVGID_24_">
					<use xlink:href="#SVGID_23_"  style="overflow:visible;"/>
				</clipPath>
				<path class="st89" d="M172.1,276.4c0,0,22.1-15.6,50.7,0C222.8,276.4,197.3,266.8,172.1,276.4"/>
			</g>
		</g>
		<g class="st86">
			<g>
				<defs>
					<rect id="SVGID_25_" x="175.5" y="242.8" width="16.6" height="24.6"/>
				</defs>
				<clipPath id="SVGID_26_">
					<use xlink:href="#SVGID_25_"  style="overflow:visible;"/>
				</clipPath>
				<path class="st90" d="M175.5,242.8c0,0,13,3.2,16.6,24.6C192.1,267.4,186.1,248.5,175.5,242.8"/>
			</g>
		</g>
		<g class="st86">
			<g>
				<defs>
					<rect id="SVGID_27_" x="206.9" y="254.9" width="15.1" height="11.4"/>
				</defs>
				<clipPath id="SVGID_28_">
					<use xlink:href="#SVGID_27_"  style="overflow:visible;"/>
				</clipPath>
				<path class="st91" d="M207,266.3c-0.4,0.6,3.6-13,15.1-11.2C222.1,255.1,212.7,256.4,207,266.3"/>
			</g>
		</g>
		<g class="st86">
			<g>
				<defs>
					<rect id="SVGID_29_" x="198.8" y="242.8" width="12.2" height="24.1"/>
				</defs>
				<clipPath id="SVGID_30_">
					<use xlink:href="#SVGID_29_"  style="overflow:visible;"/>
				</clipPath>
				<path class="st92" d="M198.8,266.9c0,0,0.2-11.9,3.6-18.2c3.4-6.2,8.6-6,8.6-6S202.4,245.1,198.8,266.9"/>
			</g>
		</g>
		<g class="st86">
			<g>
				<defs>
					<rect id="SVGID_31_" x="175.5" y="263.1" width="12.5" height="3.2"/>
				</defs>
				<clipPath id="SVGID_32_">
					<use xlink:href="#SVGID_31_"  style="overflow:visible;"/>
				</clipPath>
				<path class="st93" d="M188,266.3c0,0-5.8-6.3-12.5-1.2C175.5,265.1,182.5,263.2,188,266.3"/>
			</g>
		</g>
		<g class="st86">
			<g>
				<defs>
					<rect id="SVGID_33_" x="157.1" y="240.4" width="67.1" height="61.5"/>
				</defs>
				<clipPath id="SVGID_34_">
					<use xlink:href="#SVGID_33_"  style="overflow:visible;"/>
				</clipPath>
				<path class="st94" d="M224.2,295.9c-12.9,6.1-36.5,12.2-60.5-7c0,0-17.7-26.2,5-46.3c0.9-0.8,1.8-1.5,2.6-2.2
					c-6.9,8.4-17.3,25-6.9,43.4C173.2,299.5,201.7,304.6,224.2,295.9"/>
			</g>
		</g>
		<g class="st86">
			<g>
				<defs>
					<rect id="SVGID_35_" x="227.4" y="251.2" width="10.1" height="38.6"/>
				</defs>
				<clipPath id="SVGID_36_">
					<use xlink:href="#SVGID_35_"  style="overflow:visible;"/>
				</clipPath>
				<path class="st95" d="M234.4,289.8c5.4-19.9-7-38.6-7-38.6C235,259.8,241.7,272.9,234.4,289.8"/>
			</g>
		</g>
		<g class="st86">
			<g>
				<defs>
					<rect id="SVGID_37_" x="191" y="274" width="5.6" height="6.7"/>
				</defs>
				<clipPath id="SVGID_38_">
					<use xlink:href="#SVGID_37_"  style="overflow:visible;"/>
				</clipPath>
				<path class="st96" d="M196.5,274c0,0-4.7,0.6-5.6,6.7C191,280.7,194,275.5,196.5,274"/>
			</g>
		</g>
		<g class="st86">
			<g>
				<defs>
					<rect id="SVGID_39_" x="199.9" y="272.6" width="9" height="16.3"/>
				</defs>
				<clipPath id="SVGID_40_">
					<use xlink:href="#SVGID_39_"  style="overflow:visible;"/>
				</clipPath>
				<path class="st97" d="M199.9,272.6c0,0,8.4-0.8,9,16.3C208.8,288.9,207.6,275.8,199.9,272.6"/>
			</g>
		</g>
		<path class="st98" d="M197.3,237.5c0,0-3.3-2.7-4.6-6.8c-0.7-2.3-1.9-9.6,4.8-10.3c0,0,3.6-2.6,8.6,1.6c3,2.5,3.1,10.7-2.8,15.6
			L197.3,237.5z"/>
		<path class="st99" d="M203.4,238.9l3.7,0.8c-0.7,1.6-2.5,4.1-6.5,4.1s-4.8-1.8-6.5-4.1l3.4-0.8v-3.1c1.2-0.7,2.2-2,3.1-2
			c1,0,1.6,1.2,2.8,1.9V238.9z"/>
		<path class="st100" d="M211.7,267.7L211.7,267.7C211.6,267.7,211.6,267.7,211.7,267.7L211.7,267.7z"/>
		<path class="st100" d="M211.2,240.3c-0.1,0-0.1,0-0.2,0C211.1,240.3,211.2,240.3,211.2,240.3"/>
		<path class="st100" d="M211,261L211,261C211,261,211,261,211,261L211,261z"/>
		<path class="st100" d="M211,240.3c-0.1,0-0.1,0-0.2,0C210.9,240.2,210.9,240.2,211,240.3"/>
		<path class="st100" d="M210.8,240.2c-0.1,0-0.1,0-0.2,0v0C210.7,240.2,210.7,240.2,210.8,240.2"/>
		<path class="st100" d="M210.5,248.4C210.5,248.4,210.5,248.5,210.5,248.4L210.5,248.4L210.5,248.4z"/>
		<path class="st101" d="M211.6,269.9l-0.6-6.8c0,0,0,0,0,0c-0.3-4.3-0.5-8.5-0.5-12.4v-0.1c-0.1-3.9,0-7.6,0.1-10.4
			c-0.3-0.1-0.5-0.1-0.8-0.2c-0.9-0.2-3.4-0.6-4.3-0.6c-0.7,1.7-2.3,3.4-5,3.4c-2,0-2.9-1-4.5-3.5c-1.2,0.1-4.4,0.6-5.6,0.9
			c0.1,2.8,0.2,6.5,0.1,10.5c-0.1,4.1-0.2,8.5-0.5,12.4l-0.7,6.7c-0.1,0.7-0.2,1.4-0.3,2c0,0.2-0.1,3,0,3.2c0.2,0.5,0.8,0.5,1.3,0.5
			c6.4-0.3,12.8-0.8,19.3-0.8c1.6,0,2-0.6,2-1.4C211.6,273.1,211.6,270.4,211.6,269.9"/>
		<path class="st102" d="M192.8,265.2c0,0,2.7,1.1,3.7,1.6c1.1,0.6,3.4,3.4,0,3.9c-3.4,0.6-5.5-2.8-5.5-2.8L192.8,265.2z"/>
		<path class="st102" d="M208.8,265.2c0,0-2.7,1.1-3.7,1.6c-1.1,0.6-3.4,3.4,0,3.9c3.4,0.6,5.5-2.8,5.5-2.8L208.8,265.2z"/>
		<path class="st103" d="M218.5,257.3c-0.7-4.1-1.7-8.2-3-12.1c-0.3-1.1-0.7-2.3-1.5-3.1c-0.1-0.1-0.2-0.2-0.3-0.3
			c-0.1-0.1-0.1-0.1-0.2-0.2c0,0,0,0-0.1-0.1c0,0,0,0-0.1-0.1c-0.1-0.1-0.1-0.1-0.2-0.1c0,0-0.1,0-0.1-0.1c-0.1-0.1-0.2-0.1-0.3-0.2
			c0,0-0.1,0-0.1-0.1c-0.1,0-0.1-0.1-0.2-0.1c-0.1,0-0.1-0.1-0.2-0.1c0,0,0,0,0,0c-0.1,0-0.1-0.1-0.2-0.1c-0.1,0-0.2-0.1-0.3-0.1
			c-0.1,0-0.1,0-0.2-0.1c0,0,0,0,0,0c-0.1,0-0.1,0-0.2-0.1c0,0-0.1,0-0.1,0c0,0-0.1,0-0.1,0c-0.1,0-0.1,0-0.2,0c0,0-0.1,0-0.1,0
			c-0.1,0-0.1,0-0.2,0c-0.1,0-0.1,0-0.2,0c-0.1,2.6-0.2,6.1-0.1,9.8c0,0,0,0.1,0,0.1h0c0.6,2,1.5,5.1,2.1,7c0.1,0.3,0.2,0.6,0.2,1
			c0,0.3-0.2,0.5-0.3,0.8c-0.3,0.7-1,2-1.4,2.9h0l0,0l-3.2,4.1l1.9,3.6l1.9-1.3c0,0,0,0,0,0l0.1,0c2.5-2,4.3-4.1,6-6.8
			c0.4-0.7,0.9-1.4,1-2.2C218.7,258.5,218.6,257.9,218.5,257.3"/>
		<path class="st103" d="M190.1,261.7L190.1,261.7c-0.5-0.9-1.1-2.2-1.4-2.9c-0.1-0.3-0.3-0.5-0.3-0.8c0-0.3,0.1-0.7,0.2-1
			c0.6-2,1.5-5.1,2.1-7h0c0.1-3.7,0-7.2-0.1-9.8c-0.9,0.2-1.8,0.5-2.6,1c-0.3,0.2-0.6,0.5-0.9,0.8c-0.8,0.9-1.2,2-1.5,3.1
			c-1.2,4-2.2,8-3,12.1c-0.1,0.6-0.2,1.2-0.1,1.8c0.1,0.8,0.5,1.5,1,2.2c1.7,2.6,3.6,4.7,6,6.8l2,1.4l1.9-3.6L190.1,261.7z"/>
		<path class="st100" d="M214.9,254.5l-2.6,14.5l-0.1,0.4h-22.7l-0.1-0.4l-2.6-14.5c-0.1-0.5,0.3-0.9,0.8-0.9h26.5
			C214.6,253.6,215,254,214.9,254.5"/>
		<path class="st104" d="M189.7,269.1l-2.6-14.7c0-0.2,0-0.3,0.1-0.5c0.1-0.1,0.3-0.2,0.4-0.2h26.5c0.2,0,0.3,0.1,0.4,0.2
			c0.1,0.1,0.2,0.3,0.1,0.5l-2.6,14.7H189.7z"/>
		<path class="st105" d="M212.9,269.8v1c0,0.2-0.2,0.4-0.4,0.4h-23.3c-0.2,0-0.4-0.2-0.4-0.4v-1c0-0.2,0.2-0.4,0.4-0.4h23.3
			C212.7,269.4,212.9,269.6,212.9,269.8"/>
		<path class="st106" d="M212.9,270.5v0.3c0,0.2-0.2,0.4-0.4,0.4h-23.3c-0.2,0-0.4-0.2-0.4-0.4v-0.3H212.9z"/>
		<g class="st86">
			<g>
				<defs>
					<rect id="SVGID_41_" x="186.8" y="253.6" width="25.2" height="15.8"/>
				</defs>
				<clipPath id="SVGID_42_">
					<use xlink:href="#SVGID_41_"  style="overflow:visible;"/>
				</clipPath>
				<path class="st107" d="M212,269.4h-22.5l-0.1-0.4l-2.6-14.5c-0.1-0.5,0.3-0.9,0.8-0.9h1.7c-0.1,0.1-0.2,0.2-0.3,0.2
					c-1.2,1.1-0.2,3.5,0.2,4.9c0.6,2,1.4,3.8,2.7,5.4c2.2,2.6,5.5,3.9,8.9,4.2c3.4,0.3,6.3,0.6,8.7,0.8
					C210.4,269.2,211.3,269.3,212,269.4"/>
			</g>
		</g>
		<rect x="198.5" y="261" class="st108" width="4.7" height="1"/>
		<path class="st104" d="M221.9,279.3c0,0.5-0.1,1-0.3,1.4c-0.4,0.9-1.3,1.4-2.2,1.5c-0.2,0-0.4,0.1-0.6,0.1c-0.7,0-1.5-0.1-2.2-0.2
			c-1.9-0.3-4.3-0.6-6.2-0.9c0.2-1.2,0.8-2.8,0.9-4.1l0,0c1.5,0.2,2.9-0.6,4.4-1c0.9-0.3,1.8-0.5,2.7-0.6c0.2,0,0.4,0,0.6,0
			c0.4,0,0.9,0,1.3,0.2C221.6,276.3,221.9,277.9,221.9,279.3"/>
		<path class="st109" d="M180.6,268.6c-0.5,1.9,0.4,4,1.9,5.3c1.5,1.3,3.4,2,5.3,2.6c1.6,0.5,3.2,1,4.8,1.6
			c5.8,1.8,11.2,2.3,17.7,3.5c0-0.1,0-0.2,0-0.3c0.2-1.2,0.8-2.8,0.9-4.1c0-0.1,0-0.2,0-0.4c-7.5-3-14.8-6.7-21.7-11
			c-1.6-0.5-3.6-0.8-5.3-0.4C182.7,265.8,181.1,267,180.6,268.6"/>
		<path class="st110" d="M221.9,279.3c0,0.5-0.1,1-0.3,1.4c-0.4,0.9-1.3,1.4-2.2,1.5c-0.2,0-0.4,0.1-0.6,0.1
			c0.9-0.7,2.1-1.9,2.1-3.6c0-1.6-1-2.6-1.9-3.2c0.4,0,0.9,0,1.3,0.2C221.6,276.3,221.9,277.9,221.9,279.3"/>
		<path class="st104" d="M204.1,307.7c-0.4,2.3-1,5.3-1.3,7.7c-0.2,1.2-0.4,2.3-0.9,3.4c-0.2,0.4-0.4,0.7-0.7,1.1
			c-0.5,0.6-1.1,1-1.7,1.1c-0.5,0.1-1,0-1.5-0.1c-1.4-0.4-2.9-1.3-3.1-2.9c-0.1-0.8,0.2-1.6,0.5-2.3c0.1-0.2,0.2-0.5,0.3-0.7
			c0.4-0.8,0.8-1.6,1.3-2.3c1-1.6,2.3-3.1,2.6-4.9l0,0C200.9,307.8,202.7,307.6,204.1,307.7"/>
		<path class="st111" d="M210,270.3c2.1,0.4,3.4,2.5,3.7,4.8c0.3,2.3-0.3,4.7-0.8,7.1c-0.5,2-1,4-1.5,6c-1.8,7.3-4.6,13.4-7.4,21.2
			c-0.1,0-0.2-0.1-0.3-0.1c-1.3-0.4-3.1-0.6-4.4-1.2c-0.1,0-0.2-0.1-0.3-0.2c1.7-9.8,2.7-19.6,2.9-29.4c0.5-2.1,1.4-4.4,2.8-6
			C206.1,271.1,208.2,270,210,270.3"/>
		<path class="st110" d="M201.8,318.8c-0.2,0.4-0.4,0.7-0.7,1.1c-0.5,0.6-1.1,1-1.7,1.1c-0.5,0.1-1,0-1.5-0.1
			c-1.4-0.4-2.9-1.3-3.1-2.9c-0.1-0.8,0.2-1.6,0.5-2.3c0.1-0.2,0.2-0.5,0.3-0.7c-0.1,1.8-0.4,4.1,1.3,4.8
			C199.7,320.6,200.2,319.8,201.8,318.8"/>
		<path class="st99" d="M194.3,229.8c0.2,0.6-0.1,1.3-0.7,1.5c-0.6,0.2-1.2-0.2-1.4-0.9c-0.2-0.6,0.1-1.3,0.7-1.5
			C193.5,228.7,194.1,229.1,194.3,229.8"/>
		<path class="st99" d="M208.3,230.3c-0.2,0.7-0.8,1.1-1.4,0.9c-0.6-0.1-0.9-0.8-0.7-1.4c0.2-0.7,0.8-1.1,1.4-0.9
			C208.2,229,208.5,229.7,208.3,230.3"/>
		<path class="st102" d="M207.3,226.6c-0.3-1.4-1-2.8-2.1-3.9c-0.6-0.6-1.2-1-2-1.3c-1.8-0.8-4.1-0.9-5.9,0c0,0,0,0,0,0
			c-3.5,1.7-5,5.9-4.1,9.4c0.6,2.4,2.3,5.2,4.8,6.3c2.3,1,5.2,0.3,6.8-1.5C207.1,233.1,208,229.7,207.3,226.6"/>
		<path class="st98" d="M197,225c0,0,6,4.1,10.6,4.1c0,0,1.8-8.3-7-8.7c0,0-8.6-0.5-7.7,9.2C192.9,229.6,195.7,228.5,197,225"/>
		<path class="st112" d="M208.9,230.6l-0.7-0.3l-0.5-0.3c0,0,1.9-10.7-7.2-10.9c-9.1-0.2-7.6,10.6-7.6,10.6l-0.3,0.1l-1,0.4
			c0,0-1.8-12.7,8.8-12.4C211.2,218,208.9,230.6,208.9,230.6"/>
		<path class="st113" d="M208.2,230.3l-0.5-0.3c0,0,1.9-10.7-7.2-10.9c-9.1-0.2-7.6,10.6-7.6,10.6l-0.6,0.2c-0.3-1.9-1-11,7.6-11.4
			C208.8,218.1,208.7,227.9,208.2,230.3"/>
		<path class="st100" d="M207.3,233.3L207.3,233.3c-0.5-0.1-0.8-0.5-0.7-0.9l0.6-3.6c0.1-0.5,0.5-0.8,1-0.7L207.3,233.3z"/>
		<path class="st114" d="M208,234l-0.2,0c-0.3,0-0.5-0.3-0.5-0.6l0.9-5.5c0-0.3,0.3-0.5,0.6-0.5l0.2,0c0.3,0,0.5,0.3,0.5,0.6
			l-0.9,5.5C208.6,233.9,208.3,234.1,208,234"/>
		<path class="st114" d="M208.7,233L208.7,233l0.7-4.3c0.3,0,0.4,0.3,0.4,0.6l-0.5,3.4C209.2,232.9,209,233,208.7,233"/>
		<path class="st100" d="M193.2,233.3L193.2,233.3c0.5-0.1,0.8-0.5,0.7-0.9l-0.6-3.6c-0.1-0.5-0.5-0.8-1-0.7L193.2,233.3z"/>
		<path class="st114" d="M192.5,234l0.2,0c0.3,0,0.5-0.3,0.5-0.6l-0.9-5.5c0-0.3-0.3-0.5-0.6-0.5l-0.2,0c-0.3,0-0.5,0.3-0.5,0.6
			l0.9,5.5C191.9,233.9,192.2,234.1,192.5,234"/>
		<path class="st114" d="M191.8,233L191.8,233l-0.7-4.3c-0.3,0-0.4,0.3-0.4,0.6l0.5,3.4C191.3,232.9,191.5,233,191.8,233"/>
	</g>
	<g>
		<defs>
			<polygon id="SVGID_43_" points="204.1,201.1 238.1,235.1 296.2,293.2 388.3,201.1 296.2,109 			"/>
		</defs>
		<clipPath id="SVGID_44_">
			<use xlink:href="#SVGID_43_"  style="overflow:visible;"/>
		</clipPath>
		<g class="st115">
			<g>
				<defs>
					<rect id="SVGID_45_" x="216.8" y="289.2" width="175.8" height="24.7"/>
				</defs>
				<clipPath id="SVGID_46_">
					<use xlink:href="#SVGID_45_"  style="overflow:visible;"/>
				</clipPath>
				<path class="st116" d="M392.6,301.5c0,6.8-39.4,12.3-87.9,12.3c-48.6,0-87.9-5.5-87.9-12.3c0-6.8,39.4-12.3,87.9-12.3
					C353.3,289.2,392.6,294.7,392.6,301.5"/>
			</g>
		</g>
		<g class="st115">
			<g>
				<defs>
					<rect id="SVGID_47_" x="216.8" y="289.2" width="175.8" height="24.7"/>
				</defs>
				<clipPath id="SVGID_48_">
					<use xlink:href="#SVGID_47_"  style="overflow:visible;"/>
				</clipPath>
				<path class="st117" d="M392.6,301.5c0,6.8-39.4,12.3-87.9,12.3c-48.6,0-87.9-5.5-87.9-12.3c0-6.8,39.4-12.3,87.9-12.3
					C353.3,289.2,392.6,294.7,392.6,301.5"/>
			</g>
		</g>
	</g>
	<g>
		<defs>
			<polygon id="SVGID_49_" points="323,219.9 332.6,241 310,247.5 314.3,262.4 332.1,257.3 349.3,240.1 337.1,213.5 			"/>
		</defs>
		<clipPath id="SVGID_50_">
			<use xlink:href="#SVGID_49_"  style="overflow:visible;"/>
		</clipPath>
		
			<linearGradient id="SVGID_51_" gradientUnits="userSpaceOnUse" x1="-253.5418" y1="653.3358" x2="-252.7215" y2="653.3358" gradientTransform="matrix(0 107.8896 107.8896 0 -70158.4688 27595.9336)">
			<stop  offset="0" style="stop-color:#F6BA86"/>
			<stop  offset="1" style="stop-color:#FBDDBA"/>
		</linearGradient>
		<rect x="310" y="213.5" class="st118" width="39.2" height="48.9"/>
	</g>
	<g>
		<defs>
			<polygon id="SVGID_52_" points="204.1,201.1 238.1,235.1 296.2,293.2 388.3,201.1 296.2,109 			"/>
		</defs>
		<clipPath id="SVGID_53_">
			<use xlink:href="#SVGID_52_"  style="overflow:visible;"/>
		</clipPath>
		<defs>
			<filter id="Adobe_OpacityMaskFilter" filterUnits="userSpaceOnUse" x="315.4" y="206.6" width="37.5" height="37.6">
				<feFlood  style="flood-color:white;flood-opacity:1" result="back"/>
				<feBlend  in="SourceGraphic" in2="back" mode="normal"/>
			</filter>
		</defs>
		<mask maskUnits="userSpaceOnUse" x="315.4" y="206.6" width="37.5" height="37.6" id="SVGID_54_">
			<g class="st119">
				<g class="st120">
					<g>
						<defs>
							<path id="SVGID_55_" d="M337.8,214.9c-0.6,0-1.2,0.1-1.7,0.4c-0.9,0.3-1.6,0.9-2.3,1.5c-2.7,2.3-5.1,5-7.1,7.8
								c-0.3,0.4-0.6,0.9-0.8,1.3l4.5,9.8c0,0,0.1,0,0.1,0c3-1.1,5.2-3.5,7.4-5.9c1-1.1,3-2.7,4.8-4.6L337.8,214.9z"/>
						</defs>
						<clipPath id="SVGID_56_" class="st121">
							<use xlink:href="#SVGID_55_"  style="overflow:visible;"/>
						</clipPath>
						<defs>
							<filter id="Adobe_OpacityMaskFilter_1_" filterUnits="userSpaceOnUse" x="315.4" y="206.6" width="37.5" height="37.6">
								<feFlood  style="flood-color:white;flood-opacity:1" result="back"/>
								<feBlend  in="SourceGraphic" in2="back" mode="normal"/>
							</filter>
						</defs>
						<mask maskUnits="userSpaceOnUse" x="315.4" y="206.6" width="37.5" height="37.6" id="SVGID_54_">
						</mask>
						
							<linearGradient id="SVGID_57_" gradientUnits="userSpaceOnUse" x1="-254.7911" y1="653.6487" x2="-253.9709" y2="653.6487" gradientTransform="matrix(31.3964 35.1069 35.1069 -31.3964 -14626.8164 29678.0898)">
							<stop  offset="0" style="stop-color:#FFFFFF"/>
							<stop  offset="1" style="stop-color:#201510"/>
						</linearGradient>
						<polygon class="st123" points="335.1,206.6 352.9,226.5 333.2,244.2 315.4,224.2 						"/>
					</g>
				</g>
			</g>
		</mask>
		<g class="st121">
			<g>
				<defs>
					<rect id="SVGID_58_" x="325.7" y="214.9" width="16.8" height="20.9"/>
				</defs>
				<clipPath id="SVGID_59_">
					<use xlink:href="#SVGID_58_"  style="overflow:visible;"/>
				</clipPath>
				<g class="st124">
					<defs>
						<path id="SVGID_60_" d="M337.8,214.9c-0.6,0-1.2,0.1-1.7,0.4c-0.9,0.3-1.6,0.9-2.3,1.5c-2.7,2.3-5.1,5-7.1,7.8
							c-0.3,0.4-0.6,0.9-0.8,1.3l4.5,9.8c0,0,0.1,0,0.1,0c3-1.1,5.2-3.5,7.4-5.9c1-1.1,3-2.7,4.8-4.6L337.8,214.9z"/>
					</defs>
					<clipPath id="SVGID_61_">
						<use xlink:href="#SVGID_60_"  style="overflow:visible;"/>
					</clipPath>
					
						<linearGradient id="SVGID_62_" gradientUnits="userSpaceOnUse" x1="-254.7911" y1="653.6487" x2="-253.9709" y2="653.6487" gradientTransform="matrix(31.3964 35.1069 35.1069 -31.3964 -14626.8164 29678.0898)">
						<stop  offset="0" style="stop-color:#4372B8"/>
						<stop  offset="1" style="stop-color:#B9E2DD"/>
					</linearGradient>
					<polygon class="st125" points="335.1,206.6 352.9,226.5 333.2,244.2 315.4,224.2 					"/>
				</g>
			</g>
		</g>
		<path class="st126" d="M267.3,261.6l-31.2-8.9c-2.2-0.6-4-2.2-4.9-4.2c-0.9-2.1-1-4.4,0-6.5l13.4-29.3l14.1,6.5l-9.6,21.1
			l22.6,6.4L267.3,261.6z"/>
	</g>
	<g>
		<defs>
			<polygon id="SVGID_63_" points="235.5,232.5 238.1,235.1 263.5,260.5 267.3,261.6 271.6,246.7 249,240.2 258.6,219.2 
				244.5,212.7 			"/>
		</defs>
		<clipPath id="SVGID_64_">
			<use xlink:href="#SVGID_63_"  style="overflow:visible;"/>
		</clipPath>
		
			<linearGradient id="SVGID_65_" gradientUnits="userSpaceOnUse" x1="-253.543" y1="653.3744" x2="-252.7227" y2="653.3744" gradientTransform="matrix(-9.7044 91.6204 91.6204 9.7044 -62068.6719 17119.4473)">
			<stop  offset="0" style="stop-color:#F6BA86"/>
			<stop  offset="1" style="stop-color:#FBDDBA"/>
		</linearGradient>
		<polygon class="st127" points="276.7,213.3 271.2,265.4 230.3,261.1 235.9,208.9 		"/>
	</g>
	<g>
		<defs>
			<polygon id="SVGID_66_" points="204.1,201.1 238.1,235.1 296.2,293.2 388.3,201.1 296.2,109 			"/>
		</defs>
		<clipPath id="SVGID_67_">
			<use xlink:href="#SVGID_66_"  style="overflow:visible;"/>
		</clipPath>
		<g class="st128">
			<defs>
				<path id="SVGID_68_" d="M254.5,290.4l11.8-0.9l6.9,22.3l-13.5,4l-2-11.2C257.7,304.6,257.4,296.4,254.5,290.4"/>
			</defs>
			<clipPath id="SVGID_69_">
				<use xlink:href="#SVGID_68_"  style="overflow:visible;"/>
			</clipPath>
			
				<linearGradient id="SVGID_70_" gradientUnits="userSpaceOnUse" x1="-256.0891" y1="652.8228" x2="-255.2688" y2="652.8228" gradientTransform="matrix(7.8491 26.8297 26.8297 -7.8491 -15239.0137 12304.6514)">
				<stop  offset="0" style="stop-color:#F6BA86"/>
				<stop  offset="1" style="stop-color:#FBDDBA"/>
			</linearGradient>
			<polygon class="st129" points="271.7,284.4 280.3,313.7 256,320.8 247.4,291.5 			"/>
		</g>
	</g>
	<g>
		<defs>
			<polygon id="SVGID_71_" points="204.1,201.1 238.1,235.1 296.2,293.2 388.3,201.1 296.2,109 			"/>
		</defs>
		<clipPath id="SVGID_72_">
			<use xlink:href="#SVGID_71_"  style="overflow:visible;"/>
		</clipPath>
		<path class="st130" d="M262,312.3C262,312.3,262,312.3,262,312.3C262,312.3,262,312.3,262,312.3"/>
		<path class="st131" d="M276.4,312.5c-0.4,0.9-1.3,1.5-2,2.2c-1.6,1.3-2.8,3-4,4.5c-5,6.2-11.8,11.7-19.3,14.5
			c-0.8,0.4-1.8,0.1-2.5-0.6c-1-1,0.2-3,1.1-4.1l5-6.3l0.4-0.5c0.8-1.4,1.5-3,2-4.7c0-0.2,0.1-0.3,0.1-0.4c0.1-0.2,0.1-0.4,0.2-0.6
			c0-0.2,0.1-0.3,0.1-0.4c0.1-0.3,0.2-0.6,0.3-0.9c0-0.2,0.1-0.3,0.1-0.5c0.5-1.9,0.9-3.3,1.2-3.3c0.5,0,0.9,0.3,1.2,0.7
			c0.4,0.8,2.2,2.8,5.6,0.2c1.8-1.4,4.4-5.6,3.8-8.6c0,0,0,0,0,0c0,0,0,0,0,0c0,0,0.1,0,0.1-0.1c1.7-1.4,5.2,4.1,5.8,5.1
			C276.2,309.8,276.9,311.2,276.4,312.5"/>
		<path class="st132" d="M276.4,312.5c-0.4,0.9-1.3,1.5-2,2.2c-1.6,1.3-2.8,3-4,4.5c-5,6.2-11.8,11.7-19.3,14.5
			c-0.8,0.4-1.8,0.1-2.5-0.6c-0.2-0.2-0.3-0.4-0.3-0.6c0.7,0.6,1.6,0.8,2.3,0.4c7.5-2.9,14.3-8.3,19.3-14.5c1.3-1.6,2.5-3.2,4-4.5
			c0.8-0.6,1.7-1.2,2-2.2c0.5-1.3-0.2-2.7-0.9-3.8c0-0.1-0.1-0.1-0.1-0.2c0.3,0.4,0.5,0.7,0.6,0.9
			C276.2,309.8,276.9,311.2,276.4,312.5"/>
	</g>
	<g>
		<defs>
			<polygon id="SVGID_73_" points="204.1,201.1 238.1,235.1 296.2,293.2 388.3,201.1 296.2,109 			"/>
		</defs>
		<clipPath id="SVGID_74_">
			<use xlink:href="#SVGID_73_"  style="overflow:visible;"/>
		</clipPath>
		<g class="st133">
			<defs>
				<path id="SVGID_75_" d="M322.2,307.4l-3.7-11.2l-23.3,2.3l1.5,14l11.1-2.5C307.9,310,315.5,307.1,322.2,307.4"/>
			</defs>
			<clipPath id="SVGID_76_">
				<use xlink:href="#SVGID_75_"  style="overflow:visible;"/>
			</clipPath>
			
				<linearGradient id="SVGID_77_" gradientUnits="userSpaceOnUse" x1="-252.4268" y1="651.3517" x2="-251.6065" y2="651.3517" gradientTransform="matrix(-30.8257 17.5535 17.5535 30.8257 -18910.8242 -15340.3408)">
				<stop  offset="0" style="stop-color:#F6BA86"/>
				<stop  offset="1" style="stop-color:#FBDDBA"/>
			</linearGradient>
			<polygon class="st134" points="329.2,308.5 301.8,324.1 288.3,300.2 315.6,284.6 			"/>
		</g>
	</g>
	<g>
		<defs>
			<polygon id="SVGID_78_" points="204.1,201.1 238.1,235.1 296.2,293.2 388.3,201.1 296.2,109 			"/>
		</defs>
		<clipPath id="SVGID_79_">
			<use xlink:href="#SVGID_78_"  style="overflow:visible;"/>
		</clipPath>
		<path class="st135" d="M299.1,309C299.1,309,299.1,309,299.1,309C299.1,309,299.1,309,299.1,309"/>
		<path class="st136" d="M304.2,298.6c0,0.1,0,0.2,0,0.2c0,0,0,0,0,0c0,0,0,0,0,0c-3,0.6-5.9,4.7-6.4,6.8c-1.1,4.1,1.5,5,2.3,5.1
			c0.5,0,0.9,0.4,1.1,0.8c0.1,0.3-1.9,1.7-4.1,3.6c-0.1,0.1-0.2,0.2-0.4,0.3c-0.1,0.1-0.3,0.3-0.4,0.4c-0.1,0.1-0.2,0.2-0.4,0.3
			c-0.2,0.2-0.3,0.3-0.5,0.5c-0.1,0.1-0.2,0.2-0.3,0.3c-0.9,0.8-1.7,1.7-2.3,2.6l-0.3,0.5l-3.8,7c-0.7,1.2-2,3.1-3.3,2.6
			c-0.9-0.4-1.6-1.2-1.5-2.1c-0.3-8.1,2.1-16.4,5.9-23.4c1-1.8,2-3.5,2.6-5.5c0.3-1,0.5-2,1.2-2.7c1-1,2.6-0.9,3.9-0.6
			C298.5,295.4,304.9,296.5,304.2,298.6"/>
		<path class="st137" d="M296.2,295c-0.7,0.1-1.4,0.3-1.9,0.8c-0.7,0.7-0.9,1.8-1.2,2.7c-0.6,1.9-1.7,3.7-2.6,5.5
			c-3.8,7.1-6.2,15.4-5.9,23.4c0,0.9,0.6,1.7,1.5,2.1c0,0,0,0,0,0c-0.3,0.1-0.6,0.1-0.9,0c-0.9-0.4-1.6-1.2-1.5-2.1
			c-0.3-8.1,2.1-16.4,5.9-23.4c1-1.8,2-3.5,2.6-5.5c0.3-1,0.5-2,1.2-2.7C294.1,295.1,295.1,295,296.2,295"/>
		<path class="st138" d="M378.1,292.1l-53.8-1.5v1.2c0,0-29.1,0.7-45,0c-2.3-0.1-4.3-0.5-6-1.2c0,0,0,0,0,0
			c-1.2-0.5-2.2-1.1-3.1-1.8l0,0l0,0c-0.5-0.4-0.9-0.8-1.3-1.2l-2.4-2.3L252,271.1l-19.2-18.7l1.7-24.1c0,0,2-0.4,7.8,4.1
			c4.8,3.7,12.3,10.8,23.4,24.2V253l46.5,4l12,3c0,0,17.1,3.2,47.4,19.7C373.8,280.8,378.1,292.1,378.1,292.1"/>
		<path class="st139" d="M343.4,220.9c-0.1,0.7-2.4,1.9-2.9,2.4c-1,0.9-2,1.9-3.1,2.7c-1,0.7-2,1.3-3.1,1.9
			c-1.2,0.6-2.4,1.1-3.6,1.7c-1,0.4-3.1,1.5-4.1,1.4c-1-0.1-1.8-2.7-2.3-3.5c-1.5-2.9-3.1-5.8-4.6-8.7c-0.1-0.2-0.3-0.5-0.4-0.7
			l0.3,7.1l-5.2,36.3c-27.8,7.1-46.1,0-46.1,0l-5.1-36.7l-1.2-6.9c-2,3.6-3.6,7.4-5.8,10.8c-0.7,1.1-0.7,1.4-1.9,1
			c-1-0.3-1.9-1.1-2.8-1.5c-1.8-0.9-3.7-1.7-5.6-2.7c-1.9-1-3.8-2.2-5.4-3.8c-0.6-0.6-1.9-1.7-2-2.6c-0.1-0.9,0.7-1.6,1.1-2.3
			l7.8-12.3c6.1-9.6,15.4-16.8,26.3-20.1c1.1-0.3,5.8-1.3,10.1-2.1c3.9-0.7,7.5-1.4,7.5-1.4l0.3,0.1l0.1,0c0,0,4.4,0.8,8.8,1.8
			c3.9,0.8,7.9,1.7,8.8,2c5.9,2.1,11.3,5.3,16,9.4c4.7,4.1,8.6,9,11.5,14.5c1.5,2.9,3,5.7,4.6,8.6c0.5,1,1,1.9,1.5,2.9
			C343,220,343.5,220.6,343.4,220.9"/>
		<path class="st140" d="M256,228.5c-0.6,1-0.7,1.3-1.8,0.9c-1-0.3-1.9-1.1-2.8-1.5c-1.8-0.9-3.7-1.7-5.6-2.7
			c-1.9-1-3.8-2.2-5.4-3.8c-0.6-0.6-1.9-1.7-2-2.6c-0.1-0.6,0.3-1.1,0.6-1.6c-0.1,0.3-0.2,0.6-0.2,0.9c0.1,0.8,1.4,2,2,2.6
			c1.6,1.6,3.5,2.8,5.4,3.8c1.8,0.9,3.7,1.8,5.6,2.7c0.9,0.5,1.9,1.2,2.8,1.5C255.5,229,255.7,228.9,256,228.5"/>
		<path class="st140" d="M343.4,220.9c-0.1,0.7-2.4,1.9-2.9,2.4c-1,0.9-2,1.9-3.1,2.7c-1,0.7-2,1.3-3.1,1.9
			c-1.2,0.6-2.4,1.1-3.6,1.7c-1,0.4-3.1,1.5-4.1,1.4c-0.6-0.1-1.2-1.2-1.6-2.2c0.4,0.6,0.8,1.2,1.2,1.2c1.1,0.2,3.1-0.9,4.1-1.4
			c1.2-0.5,2.4-1,3.6-1.7c1.1-0.6,2.1-1.2,3.1-1.9c1.1-0.8,2.1-1.8,3.1-2.7c0.6-0.5,2.9-1.7,2.9-2.4c0,0,0-0.1,0-0.1
			C343.1,220.2,343.5,220.7,343.4,220.9"/>
		<path class="st140" d="M300.5,182.4c-0.1,1.1-0.7,2.2-1.7,2.9c-1.8,1.3-4.4,2.1-7,2.1h0c-2.5,0-4.8-0.7-6.6-2.1
			c-0.9-0.7-1.5-1.8-1.5-2.9l0-0.4c3.9-0.7,7.5-1.4,7.5-1.4l0.3,0.1l0.1,0C291.6,180.7,296,181.5,300.5,182.4"/>
		<path class="st141" d="M302.1,162.4l0.3-1.1c0.1,0.1,0.7,0.2,0.8,0.6c0.1,0.2,0.3,0.7,0,2.2c-0.2,1-0.5,2-1,2.9
			c-0.2,0.4-0.7,0.7-1.2,0.8L302.1,162.4z"/>
		<path class="st138" d="M301.2,294.4c-0.3,0.3-0.5,0.9-0.6,1.9c-0.4,4.3,0.2,8.6,1.8,12.6c0.6,1.4,1.5,4.3,2.9,4.5
			c0.7,0.1,1.6-0.3,2.3-0.4c7.2-1.4,14.5-2.8,21.7-4.3l25.5-5.4l17.3-3.4c4-0.8,6.6-4.8,5.7-9.1l-0.5-2.4c-1.8-9.1-9.4-12-18-10.1
			c-1.6,0.4-3.2,0.8-4.8,1.2c-7.8,2-9.7,3.3-17.5,5.3l-26.1,6.7c-2.7,0.7-5.4,1.4-8.1,2.1C302,293.9,301.5,294,301.2,294.4"/>
		<path class="st138" d="M255.9,309.8c0.9,0.6,2.2,0.3,3.7,0.1c2.1-0.3,4.2-0.7,6.2-1.5c2.1-0.8,4.1-2,5.8-3.6
			c0.6-0.6,2-1.7,2.1-2.5c0.1-0.9-0.9-2.3-1.3-3.1c-3-7-6-14-9.1-21.1L250,247c-1.4-2.9-2.8-5.8-4.2-8.7
			c-2.5-5.1-5.7-10.7-12.1-11.4c-10.3-1-12.9,9.9-11.3,18.1c1,5,3.3,9.6,5.6,14.1c8.5,16.7,18.7,32.7,27,49.5
			C255.3,309.2,255.6,309.5,255.9,309.8"/>
	</g>
	<g>
		<defs>
			<path id="SVGID_80_" d="M283.8,172.2l0.2,10.1c0,0.8,0.4,1.5,1.2,2c4.4,3,10.6,2,13.6,0c0.8-0.5,1.3-1.3,1.3-2.2l-0.1-11.2
				L283.8,172.2z"/>
		</defs>
		<clipPath id="SVGID_81_">
			<use xlink:href="#SVGID_80_"  style="overflow:visible;"/>
		</clipPath>
		
			<linearGradient id="SVGID_82_" gradientUnits="userSpaceOnUse" x1="-255.3947" y1="650.6614" x2="-254.5744" y2="650.6614" gradientTransform="matrix(0 18.6475 18.6475 0 -11841.2334 4940.9399)">
			<stop  offset="0" style="stop-color:#F6BA86"/>
			<stop  offset="1" style="stop-color:#FBDDBA"/>
		</linearGradient>
		<rect x="283.8" y="170.9" class="st142" width="16.4" height="16.4"/>
	</g>
	<g>
		<defs>
			<polygon id="SVGID_83_" points="204.1,201.1 238.1,235.1 296.2,293.2 388.3,201.1 296.2,109 			"/>
		</defs>
		<clipPath id="SVGID_84_">
			<use xlink:href="#SVGID_83_"  style="overflow:visible;"/>
		</clipPath>
		<path class="st143" d="M282.8,168.8h-1.3c-1.2,0-2.3-0.6-2.8-1.4c-0.6-1-1-2.1-1.2-3.3c-0.6-3.6,1-3.5,1.8-3.9l2,1.4L282.8,168.8z
			"/>
		<path class="st144" d="M281.3,167.6c-0.6-0.1-1.1-0.4-1.4-0.8c-0.5-0.9-0.9-1.9-1.1-2.9c-0.3-1.5-0.1-2,0-2.2c0,0,0.1-0.1,0.2-0.2
			c0.3-0.2,0.9-0.1,1,0.3l0.1,0.4L281.3,167.6z"/>
		<path class="st143" d="M302.1,161.6l2-1.4c0.9,0.4,2.5,0.3,1.8,3.9c-0.2,1.1-0.6,2.2-1.2,3.3c-0.5,0.9-1.6,1.4-2.8,1.4h-1.3
			L302.1,161.6z"/>
		<path class="st144" d="M303.3,162.2l0.4-1.1c0.2,0.1,0.7,0.2,0.9,0.6c0.1,0.2,0.3,0.7,0,2.2c-0.2,1-0.5,2-1.1,2.9
			c-0.2,0.4-0.8,0.7-1.4,0.8L303.3,162.2z"/>
		<path class="st145" d="M280.4,163.4l-2.6-7.6c-1.1-3.1-0.3-6.6,2-9.1l5.4-5.8h14.8l4.3,6.2c1.6,2.3,2,5,1.3,7.6l-3,10.3l-6.4-12.7
			l-11.2-0.4L280.4,163.4z"/>
		<defs>
			<filter id="Adobe_OpacityMaskFilter_2_" filterUnits="userSpaceOnUse" x="282.3" y="168.6" width="19.5" height="15.8">
				<feFlood  style="flood-color:white;flood-opacity:1" result="back"/>
				<feBlend  in="SourceGraphic" in2="back" mode="normal"/>
			</filter>
		</defs>
		<mask maskUnits="userSpaceOnUse" x="282.3" y="168.6" width="19.5" height="15.8" id="SVGID_85_">
			<g class="st146">
				<g>
					<defs>
						<rect id="SVGID_86_" x="283.8" y="170.9" width="16.3" height="11.2"/>
					</defs>
					<clipPath id="SVGID_87_" class="st147">
						<use xlink:href="#SVGID_86_"  style="overflow:visible;"/>
					</clipPath>
					<g class="st120">
						<g>
							<defs>
								<path id="SVGID_88_" d="M300.2,176.8l0-5.9l-15.6,1.3c-0.2,0.4-0.4,0.9-0.6,1.3l0.1,4.1c0,0,0,0,0,0
									c1.9,1.6,3.7,3.6,6.4,4.4c0.5,0.1,1.1,0.2,1.7,0.2c1-0.1,1.9-0.6,2.7-1.1c1.7-1.3,3.1-3,5-3.9
									C299.9,177,300,176.9,300.2,176.8"/>
							</defs>
							<clipPath id="SVGID_89_" class="st148">
								<use xlink:href="#SVGID_88_"  style="overflow:visible;"/>
							</clipPath>
							<defs>
								<filter id="Adobe_OpacityMaskFilter_3_" filterUnits="userSpaceOnUse" x="282.3" y="168.6" width="19.5" height="15.8">
									<feFlood  style="flood-color:white;flood-opacity:1" result="back"/>
									<feBlend  in="SourceGraphic" in2="back" mode="normal"/>
								</filter>
							</defs>
							<mask maskUnits="userSpaceOnUse" x="282.3" y="168.6" width="19.5" height="15.8" id="SVGID_85_">
							</mask>
							
								<linearGradient id="SVGID_90_" gradientUnits="userSpaceOnUse" x1="-255.2948" y1="651.4848" x2="-254.4746" y2="651.4848" gradientTransform="matrix(3.1414 21.9664 21.9664 -3.1414 -13217.8965 7823.4604)">
								<stop  offset="0" style="stop-color:#FFFFFF"/>
								<stop  offset="1" style="stop-color:#201510"/>
							</linearGradient>
							<polygon class="st150" points="299.8,168.6 301.7,181.9 284.2,184.4 282.3,171.1 							"/>
						</g>
					</g>
				</g>
			</g>
		</mask>
		<g class="st147">
			<g>
				<defs>
					<rect id="SVGID_91_" x="283.8" y="170.9" width="16.3" height="11.2"/>
				</defs>
				<clipPath id="SVGID_92_">
					<use xlink:href="#SVGID_91_"  style="overflow:visible;"/>
				</clipPath>
				<g class="st151">
					<defs>
						<path id="SVGID_93_" d="M300.2,176.8l0-5.9l-15.6,1.3c-0.2,0.4-0.4,0.9-0.6,1.3l0.1,4.1c0,0,0,0,0,0c1.9,1.6,3.7,3.6,6.4,4.4
							c0.5,0.1,1.1,0.2,1.7,0.2c1-0.1,1.9-0.6,2.7-1.1c1.7-1.3,3.1-3,5-3.9C299.9,177,300,176.9,300.2,176.8"/>
					</defs>
					<clipPath id="SVGID_94_">
						<use xlink:href="#SVGID_93_"  style="overflow:visible;"/>
					</clipPath>
					
						<linearGradient id="SVGID_95_" gradientUnits="userSpaceOnUse" x1="-255.2948" y1="651.4848" x2="-254.4746" y2="651.4848" gradientTransform="matrix(3.1414 21.9664 21.9664 -3.1414 -13217.8955 7823.4604)">
						<stop  offset="0" style="stop-color:#4372B8"/>
						<stop  offset="1" style="stop-color:#B9E2DD"/>
					</linearGradient>
					<polygon class="st152" points="299.8,168.6 301.7,181.9 284.2,184.4 282.3,171.1 					"/>
				</g>
			</g>
		</g>
	</g>
	<g>
		<defs>
			<path id="SVGID_96_" d="M281.5,148.9l-1.2,2.9c-0.6,1.5-0.8,3-0.7,4.6l1.7,15.3c0.1,0.9,0.6,1.8,1.4,2.4l6.3,4.8
				c1.5,1.2,3.8,1.2,5.4,0l6.2-4.8c0.8-0.6,1.3-1.5,1.4-2.5l1.5-15.7c0.1-1.4-0.1-2.8-0.6-4.2l-1.1-2.8H281.5z"/>
		</defs>
		<clipPath id="SVGID_97_">
			<use xlink:href="#SVGID_96_"  style="overflow:visible;"/>
		</clipPath>
		
			<linearGradient id="SVGID_98_" gradientUnits="userSpaceOnUse" x1="-253.5426" y1="652.1331" x2="-252.7223" y2="652.1331" gradientTransform="matrix(-10.9676 35.9332 35.9332 10.9676 -25920.7031 2117.3157)">
			<stop  offset="0" style="stop-color:#F6BA86"/>
			<stop  offset="1" style="stop-color:#FBDDBA"/>
		</linearGradient>
		<polygon class="st153" points="312.5,151.5 301.7,186.9 270.7,177.4 281.5,142.1 		"/>
	</g>
	<g>
		<defs>
			<polygon id="SVGID_99_" points="204.1,201.1 238.1,235.1 296.2,293.2 388.3,201.1 296.2,109 			"/>
		</defs>
		<clipPath id="SVGID_100_">
			<use xlink:href="#SVGID_99_"  style="overflow:visible;"/>
		</clipPath>
		<defs>
			<filter id="Adobe_OpacityMaskFilter_4_" filterUnits="userSpaceOnUse" x="276.1" y="143.2" width="26.5" height="22.5">
				<feFlood  style="flood-color:white;flood-opacity:1" result="back"/>
				<feBlend  in="SourceGraphic" in2="back" mode="normal"/>
			</filter>
		</defs>
		<mask maskUnits="userSpaceOnUse" x="276.1" y="143.2" width="26.5" height="22.5" id="SVGID_101_">
			<g class="st154">
				<g>
					<defs>
						<rect id="SVGID_102_" x="279.3" y="148.9" width="20.1" height="11.2"/>
					</defs>
					<clipPath id="SVGID_103_" class="st155">
						<use xlink:href="#SVGID_102_"  style="overflow:visible;"/>
					</clipPath>
					<g class="st120">
						<g>
							<defs>
								<path id="SVGID_104_" d="M279.4,156.3l0.4,3.7c0.1-0.7,0.1-1.5,0.3-2.2c0.2-1,0.7-2.1,1.7-2.5c0.8-0.3,1.8-0.1,2.7,0
									c2.8,0.4,5.1-0.5,7.6-1.5c0.1-0.1,0.3-0.1,0.4-0.2c2.5-1,5.1-2.7,7-4.5l-0.1-0.4h-18.2l-1.1,2.9
									C279.4,153.2,279.2,154.8,279.4,156.3"/>
							</defs>
							<clipPath id="SVGID_105_" class="st156">
								<use xlink:href="#SVGID_104_"  style="overflow:visible;"/>
							</clipPath>
							<defs>
								<filter id="Adobe_OpacityMaskFilter_5_" filterUnits="userSpaceOnUse" x="276.1" y="143.2" width="26.5" height="22.5">
									<feFlood  style="flood-color:white;flood-opacity:1" result="back"/>
									<feBlend  in="SourceGraphic" in2="back" mode="normal"/>
								</filter>
							</defs>
							<mask maskUnits="userSpaceOnUse" x="276.1" y="143.2" width="26.5" height="22.5" id="SVGID_101_">
							</mask>
							
								<linearGradient id="SVGID_106_" gradientUnits="userSpaceOnUse" x1="-259.564" y1="648.2362" x2="-258.7437" y2="648.2362" gradientTransform="matrix(2.4261 7.8967 7.8967 -2.4261 -4201.9395 3770.0911)">
								<stop  offset="0" style="stop-color:#FFFFFF"/>
								<stop  offset="2.776710e-02" style="stop-color:#C3C4CB"/>
								<stop  offset="1" style="stop-color:#201510"/>
							</linearGradient>
							<polygon class="st158" points="297.7,143.2 302.6,159.1 281,165.7 276.1,149.8 							"/>
						</g>
					</g>
				</g>
			</g>
		</mask>
		<g class="st155">
			<g>
				<defs>
					<rect id="SVGID_107_" x="279.3" y="148.9" width="20.1" height="11.2"/>
				</defs>
				<clipPath id="SVGID_108_">
					<use xlink:href="#SVGID_107_"  style="overflow:visible;"/>
				</clipPath>
				<g class="st159">
					<defs>
						<path id="SVGID_109_" d="M279.4,156.3l0.4,3.7c0.1-0.7,0.1-1.5,0.3-2.2c0.2-1,0.7-2.1,1.7-2.5c0.8-0.3,1.8-0.1,2.7,0
							c2.8,0.4,5.1-0.5,7.6-1.5c0.1-0.1,0.3-0.1,0.4-0.2c2.5-1,5.1-2.7,7-4.5l-0.1-0.4h-18.2l-1.1,2.9
							C279.4,153.2,279.2,154.8,279.4,156.3"/>
					</defs>
					<clipPath id="SVGID_110_">
						<use xlink:href="#SVGID_109_"  style="overflow:visible;"/>
					</clipPath>
					
						<linearGradient id="SVGID_111_" gradientUnits="userSpaceOnUse" x1="-259.564" y1="648.2362" x2="-258.7437" y2="648.2362" gradientTransform="matrix(2.4261 7.8967 7.8967 -2.4261 -4201.939 3770.0911)">
						<stop  offset="0" style="stop-color:#705EA8"/>
						<stop  offset="2.776710e-02" style="stop-color:#7460A8"/>
						<stop  offset="1" style="stop-color:#FDF0F6"/>
					</linearGradient>
					<polygon class="st160" points="297.7,143.2 302.6,159.1 281,165.7 276.1,149.8 					"/>
				</g>
			</g>
		</g>
		<path class="st161" d="M308.2,141.1c-0.4-0.6-1.6-1-3.1-1.4c0-1.3-0.3-2.4-1.1-2.9c-2.2-1.4-11.9,1-11.9,1
			c-7.3,0.4-13,5.1-12.6,10.5l0,0l1.8-0.1l-2,1.2l1.9,1.4c1.6,1.2,3.8,1.7,5.9,1.2l14.8-3.2l-0.7-0.5l3.2,0.8
			C304.4,149.2,309.7,143.1,308.2,141.1"/>
		<path class="st162" d="M317.9,262h-53.6c-0.7,0-1.3-0.6-1.3-1.3v-1.2c0-0.7,0.6-1.3,1.3-1.3h53.6c0.7,0,1.3,0.6,1.3,1.3v1.2
			C319.2,261.5,318.6,262,317.9,262"/>
		<path class="st162" d="M320,214.1h-58.2c-2.4,0-4.3,1.9-4.3,4.3v4.2c0-2.4,1.9-4.3,4.3-4.3H320c2.4,0,4.3,1.9,4.3,4.3v-4.2
			C324.3,216,322.3,214.1,320,214.1"/>
		<path class="st163" d="M323.5,259.9h-65.3c-0.4,0-0.7-0.3-0.7-0.7v-42.5c0-0.4,0.3-0.7,0.7-0.7h65.3c0.4,0,0.7,0.3,0.7,0.7v42.5
			C324.3,259.6,323.9,259.9,323.5,259.9"/>
		<g class="st164">
			<g>
				<defs>
					<rect id="SVGID_112_" x="257.7" y="215.9" width="66.8" height="44"/>
				</defs>
				<clipPath id="SVGID_113_">
					<use xlink:href="#SVGID_112_"  style="overflow:visible;"/>
				</clipPath>
				<g class="st165">
					<defs>
						<path id="SVGID_114_" d="M323.7,259.9h-65.2c-0.4,0-0.8-0.4-0.8-0.8v-42.4c0-0.4,0.4-0.8,0.8-0.8h65.2c0.4,0,0.8,0.4,0.8,0.8
							v42.4C324.5,259.6,324.2,259.9,323.7,259.9"/>
					</defs>
					<clipPath id="SVGID_115_">
						<use xlink:href="#SVGID_114_"  style="overflow:visible;"/>
					</clipPath>
					
						<linearGradient id="SVGID_116_" gradientUnits="userSpaceOnUse" x1="-253.4566" y1="652.601" x2="-252.6363" y2="652.601" gradientTransform="matrix(-19.445 52.4425 52.4425 19.445 -38850.3281 810.1794)">
						<stop  offset="0" style="stop-color:#FFFFFF"/>
						<stop  offset="1" style="stop-color:#D2D2D0"/>
					</linearGradient>
					<polygon class="st166" points="338.9,221.3 316.4,281.7 243.4,254.6 265.8,194.2 					"/>
				</g>
			</g>
		</g>
		<path class="st163" d="M296.1,240.2c0,2.4-2,4.4-4.4,4.4c-2.4,0-4.4-2-4.4-4.4c0-2.4,2-4.4,4.4-4.4
			C294.1,235.7,296.1,237.7,296.1,240.2"/>
		<path class="st167" d="M259.7,315.3c-0.3,0.1-0.5,0.1-0.8,0.1c-0.4,0-0.8-0.1-1.1-0.2c0-0.2,0.1-0.3,0.1-0.5
			c0.5,0.2,1.1,0.3,1.7,0.1c0.1,0,0.3,0,0.3,0.2C259.9,315.1,259.8,315.2,259.7,315.3"/>
		<path class="st167" d="M259.3,316.3c0,0.1-0.1,0.2-0.2,0.3c-0.2,0-0.5,0.1-0.7,0.1c-0.3,0-0.7,0-1-0.1c0-0.2,0.1-0.3,0.1-0.4
			c0.5,0.1,1,0.1,1.5,0C259.1,316.1,259.2,316.2,259.3,316.3"/>
		<path class="st167" d="M258.8,317.4c0,0.1-0.1,0.2-0.2,0.3c-0.1,0-0.3,0-0.4,0c-0.4,0-0.8,0-1.2-0.1c0-0.1,0.1-0.3,0.1-0.4
			c0.5,0.1,0.9,0.1,1.4,0.1C258.7,317.2,258.8,317.3,258.8,317.4"/>
		<path class="st167" d="M297,315c-0.1,0.1-0.2,0.2-0.4,0.3c-0.3-0.4-0.6-0.8-0.8-1.2c0-0.1,0-0.3,0.1-0.3c0.1,0,0.3,0,0.3,0.1
			C296.5,314.3,296.7,314.7,297,315"/>
		<path class="st167" d="M296.2,315.7c-0.1,0.1-0.2,0.2-0.4,0.3c-0.4-0.4-0.7-0.8-0.9-1.3c-0.1-0.1,0-0.3,0.1-0.3
			c0.1-0.1,0.3,0,0.3,0.1C295.6,315,295.9,315.4,296.2,315.7"/>
		<path class="st167" d="M295.4,316.5c-0.1,0.1-0.2,0.2-0.3,0.3c-0.3-0.3-0.6-0.7-0.9-1.1c-0.1-0.1,0-0.3,0.1-0.3
			c0.1-0.1,0.3,0,0.3,0.1C294.8,315.8,295.1,316.1,295.4,316.5"/>
		<g class="st168">
			<g>
				<defs>
					<rect id="SVGID_117_" x="263.9" y="209.6" width="3.8" height="4.5"/>
				</defs>
				<clipPath id="SVGID_118_">
					<use xlink:href="#SVGID_117_"  style="overflow:visible;"/>
				</clipPath>
				<path class="st169" d="M267.6,214.1h-3.8l0-0.5l2.8-4C266.7,209.6,267,212.5,267.6,214.1"/>
			</g>
		</g>
		<g class="st168">
			<g>
				<defs>
					<rect id="SVGID_119_" x="315.9" y="210" width="3.3" height="4"/>
				</defs>
				<clipPath id="SVGID_120_">
					<use xlink:href="#SVGID_119_"  style="overflow:visible;"/>
				</clipPath>
				<path class="st170" d="M319.2,214.1H317c-0.2-1.5-1.1-4-1.1-4L319.2,214.1z"/>
			</g>
		</g>
		<g class="st168">
			<g>
				<defs>
					<rect id="SVGID_121_" x="319.2" y="259.9" width="2.4" height="1.2"/>
				</defs>
				<clipPath id="SVGID_122_">
					<use xlink:href="#SVGID_121_"  style="overflow:visible;"/>
				</clipPath>
				<path class="st171" d="M319.2,259.9h2.4c-0.7,0.4-1.5,0.8-2.4,1.2V259.9z"/>
			</g>
		</g>
		<g class="st168">
			<g>
				<defs>
					<rect id="SVGID_123_" x="266.7" y="262" width="50.4" height="4"/>
				</defs>
				<clipPath id="SVGID_124_">
					<use xlink:href="#SVGID_123_"  style="overflow:visible;"/>
				</clipPath>
				<path class="st172" d="M314.5,262L314.5,262h-46h-0.4h-1.5c0.9,0.5,1.6,0.8,1.6,0.8l0,0c0,0,18.3,7.2,46.1,0
					c0,0,1.8-0.5,2.7-0.8H314.5z"/>
			</g>
		</g>
		<g class="st168">
			<g>
				<defs>
					<rect id="SVGID_125_" x="250.6" y="248.3" width="22.6" height="42.3"/>
				</defs>
				<clipPath id="SVGID_126_">
					<use xlink:href="#SVGID_125_"  style="overflow:visible;"/>
				</clipPath>
				<path class="st173" d="M273.2,290.6c-1.2-0.5-2.2-1.1-3.1-1.8l0,0l0,0c-0.5-0.4-0.9-0.8-1.3-1.2l-2.4-2.3c-1-2.4-2-4.8-3.1-7.1
					l-12.8-29.8C255.5,258.7,269.4,288,273.2,290.6"/>
			</g>
		</g>
		<g class="st168">
			<g>
				<defs>
					<rect id="SVGID_127_" x="310.9" y="282.2" width="34.7" height="9.4"/>
				</defs>
				<clipPath id="SVGID_128_">
					<use xlink:href="#SVGID_127_"  style="overflow:visible;"/>
				</clipPath>
				<path class="st174" d="M310.9,291.6c0,0,22.3-10.4,34.7-9.3L310.9,291.6z"/>
			</g>
		</g>
	</g>
	<g>
		<defs>
			<polygon id="SVGID_129_" points="299.2,105.9 332.5,139.1 389.2,195.9 389.2,15.9 			"/>
		</defs>
		<clipPath id="SVGID_130_">
			<use xlink:href="#SVGID_129_"  style="overflow:visible;"/>
		</clipPath>
		<path class="st175" d="M389,171.7h-54.2c-0.7,0-1.3-0.6-1.3-1.3V170h56.8v0.4C390.3,171.2,389.7,171.7,389,171.7"/>
		<path class="st176" d="M382.1,115.1h-40.3c-6.2,0-11.3,5.1-11.3,11.3v7.1c0,6.2,5.1,11.3,11.3,11.3h40.3c6.2,0,11.3-5.1,11.3-11.3
			v-7.1C393.4,120.1,388.3,115.1,382.1,115.1"/>
		<path class="st177" d="M338,130.5c0,0-3.4,1.6-2.7,10.4c0.7,8.9,6.7-0.2,6.7-0.2L338,130.5z"/>
		<path class="st177" d="M367,119.4c0,0,0.9,8.3,6.3,9.4c5.5,1.1,0,8.4,0,8.4L364,148l-15.5-14.3l1.1-10.2c0,0,9.2-6.4,10.2-6.7
			C360.8,116.5,367,119.4,367,119.4"/>
		<polygon class="st178" points="380.1,130 373.3,128.9 366.5,140.9 380.1,140.9 		"/>
		<polygon class="st178" points="357.6,140.9 351,128.9 345.8,142.7 		"/>
		<path class="st179" d="M356.2,120.9c0,0-1.1,5.5-1.8,8.4c-0.7,3-1.1,12.1-10.9,11.6c-9.8-0.5-4.8-12.5-4.8-12.5s4.3-5.9,2.5-15.5
			c-1.8-9.6-10.7-37.3,20.7-37.5c0,0,24.6-0.5,22.8,23.7c0,0,0.5,17.3-15.8,19C368.9,118,359.2,112.7,356.2,120.9"/>
		<path class="st177" d="M388.8,140.9v-5.1c0,0,0.9-4.4-3.2-5.3c-4.1-0.9-5.5-0.5-5.5-0.5v10.9H388.8z"/>
		<path class="st180" d="M375.4,101.2c0,10.9-6,19.7-13.4,19.7c-7.4,0-13.4-8.8-13.4-19.7c0-10.9,6-19.7,13.4-19.7
			C369.4,81.5,375.4,90.3,375.4,101.2"/>
		<path class="st181" d="M333.5,170h56.8l3.1-27.3c0.2-2-1.3-3.7-3.3-3.7h-56.3c-2,0-3.5,1.7-3.3,3.7L333.5,170z"/>
		<path class="st179" d="M349.6,86.8c0,0,11.8,16.2,28.4,11.2c0,0,3.4-16.3-10.9-18.9C352.9,76.4,349.6,86.8,349.6,86.8"/>
	</g>
</g>
<ellipse class="st182" cx="201" cy="427.5" rx="109" ry="4.5"/>
</svg>
