<?xml version="1.0" encoding="utf-8"?>
<!-- Generator: Adobe Illustrator 21.0.2, SVG Export Plug-In . SVG Version: 6.00 Build 0)  -->
<svg version="1.1" id="Capa_1" xmlns="http://www.w3.org/2000/svg" xmlns:xlink="http://www.w3.org/1999/xlink" x="0px" y="0px"
	 viewBox="0 0 500 440" style="enable-background:new 0 0 500 440;" xml:space="preserve">
<style type="text/css">
	.st0{opacity:0.5;}
	.st1{fill:#FFFFFF;}
	.st2{fill:#F7F8F8;}
	.st3{fill:#F2F3F3;}
	.st4{fill:#EEEEEF;}
	.st5{fill:#E9EAEA;}
	.st6{fill:#E4E5E6;}
	.st7{fill:#DFE0E2;}
	.st8{fill:#DBDCDD;}
	.st9{fill:#D6D7D9;}
	.st10{fill:#D1D3D4;}
	.st11{fill:#1F1332;}
	.st12{fill:#E4E2E2;}
	.st13{fill:#D0CECE;}
	.st14{fill:#BFBCBC;}
	.st15{fill:#AEABAB;}
	.st16{fill:#9E9B9B;}
	.st17{fill:#8F8C8C;}
	.st18{fill:#817F7F;}
	.st19{fill:#747372;}
	.st20{fill:#676767;}
	.st21{fill:#654091;}
	.st22{fill:#4B286F;}
	.st23{fill:#F26327;}
	.st24{fill:#F8991D;}
	.st25{clip-path:url(#SVGID_2_);fill:#F9B9A1;}
	.st26{clip-path:url(#SVGID_2_);fill:#603A18;}
	.st27{clip-path:url(#SVGID_2_);fill:#1B0F2B;}
	.st28{clip-path:url(#SVGID_2_);fill:#8C6339;}
	.st29{clip-path:url(#SVGID_2_);fill:#754E23;}
	.st30{clip-path:url(#SVGID_2_);fill:#EEA895;}
	.st31{clip-path:url(#SVGID_2_);fill:#4B286F;}
	.st32{clip-path:url(#SVGID_2_);fill:#C6B299;}
	.st33{clip-path:url(#SVGID_2_);fill:#736458;}
	.st34{clip-path:url(#SVGID_2_);fill:#554741;}
	.st35{clip-path:url(#SVGID_2_);fill:#323232;}
	.st36{clip-path:url(#SVGID_2_);fill:#4E4E4E;}
	.st37{clip-path:url(#SVGID_2_);fill:#979797;}
	.st38{clip-path:url(#SVGID_2_);fill:#B3B3B3;}
	.st39{clip-path:url(#SVGID_2_);fill:#818181;}
	.st40{clip-path:url(#SVGID_2_);}
	.st41{clip-path:url(#SVGID_4_);fill:#CBCBCA;}
	.st42{clip-path:url(#SVGID_2_);fill:#676767;}
	.st43{opacity:0.42;clip-path:url(#SVGID_6_);}
	.st44{clip-path:url(#SVGID_8_);fill:#40296C;}
	.st45{clip-path:url(#SVGID_6_);fill-rule:evenodd;clip-rule:evenodd;fill:#3E3847;}
	.st46{clip-path:url(#SVGID_6_);fill-rule:evenodd;clip-rule:evenodd;fill:#818181;}
	.st47{clip-path:url(#SVGID_6_);fill-rule:evenodd;clip-rule:evenodd;fill:#AD653A;}
	.st48{clip-path:url(#SVGID_6_);fill-rule:evenodd;clip-rule:evenodd;fill:#C87442;}
	.st49{clip-path:url(#SVGID_6_);fill-rule:evenodd;clip-rule:evenodd;fill:#FCBF8C;}
	.st50{clip-path:url(#SVGID_6_);fill-rule:evenodd;clip-rule:evenodd;fill:#EAAB73;}
	.st51{clip-path:url(#SVGID_6_);fill-rule:evenodd;clip-rule:evenodd;fill:#2A373C;}
	.st52{clip-path:url(#SVGID_6_);fill-rule:evenodd;clip-rule:evenodd;fill:#068C91;}
	.st53{clip-path:url(#SVGID_6_);fill-rule:evenodd;clip-rule:evenodd;fill:#00989D;}
	.st54{clip-path:url(#SVGID_6_);fill-rule:evenodd;clip-rule:evenodd;fill:#00839D;}
	.st55{clip-path:url(#SVGID_6_);fill-rule:evenodd;clip-rule:evenodd;fill:#FCBD15;}
	.st56{clip-path:url(#SVGID_6_);fill-rule:evenodd;clip-rule:evenodd;fill:#F5B31A;}
	.st57{clip-path:url(#SVGID_6_);fill-rule:evenodd;clip-rule:evenodd;fill:#3B474C;}
	.st58{clip-path:url(#SVGID_6_);fill-rule:evenodd;clip-rule:evenodd;fill:#FFC907;}
	.st59{clip-path:url(#SVGID_6_);fill-rule:evenodd;clip-rule:evenodd;fill:#854F2E;}
	.st60{fill:#ED2227;}
	.st61{fill:#00839D;}
	.st62{fill:#61BB46;}
	.st63{clip-path:url(#SVGID_10_);fill:#F3BC8D;}
	.st64{clip-path:url(#SVGID_10_);fill:#3E3847;}
	
		.st65{clip-path:url(#SVGID_10_);fill:none;stroke:#F3BC8D;stroke-width:2;stroke-linecap:round;stroke-linejoin:round;stroke-miterlimit:10;}
	.st66{clip-path:url(#SVGID_10_);fill:#F26327;}
	.st67{clip-path:url(#SVGID_10_);fill:#CED0D2;}
	.st68{clip-path:url(#SVGID_10_);fill:#F1F0F0;}
	.st69{clip-path:url(#SVGID_10_);fill:#F3F0F2;}
	.st70{clip-path:url(#SVGID_10_);fill:#A6A6AA;}
	.st71{clip-path:url(#SVGID_10_);fill:#7E8082;}
	.st72{clip-path:url(#SVGID_10_);fill:#FFFFFF;}
	.st73{clip-path:url(#SVGID_12_);fill:#1E0D39;}
	.st74{clip-path:url(#SVGID_14_);fill:#FBC2A7;}
	.st75{clip-path:url(#SVGID_14_);fill:#EEA895;}
	.st76{clip-path:url(#SVGID_14_);fill:#3E3847;}
	.st77{clip-path:url(#SVGID_14_);fill:#FBC0A7;}
	.st78{clip-path:url(#SVGID_14_);fill:#EE333F;}
	.st79{clip-path:url(#SVGID_14_);fill:#CC202E;}
	.st80{clip-path:url(#SVGID_14_);fill:#B32028;}
	.st81{clip-path:url(#SVGID_16_);fill:#6D212B;}
	.st82{clip-path:url(#SVGID_16_);fill:#9F3847;}
	.st83{opacity:0.25;clip-path:url(#SVGID_16_);}
	.st84{clip-path:url(#SVGID_18_);fill:#FBC2A7;}
	.st85{clip-path:url(#SVGID_16_);fill:#3E3847;}
	.st86{clip-path:url(#SVGID_20_);}
	.st87{clip-path:url(#SVGID_22_);fill:#3E3847;}
	.st88{clip-path:url(#SVGID_20_);fill:#ED2227;}
	.st89{clip-path:url(#SVGID_24_);fill:#CBCBCA;}
	.st90{clip-path:url(#SVGID_26_);fill:#CBCBCA;}
	.st91{clip-path:url(#SVGID_28_);fill:#CBCBCA;}
	.st92{clip-path:url(#SVGID_30_);fill:#CBCBCA;}
	.st93{clip-path:url(#SVGID_32_);fill:#CBCBCA;}
	.st94{clip-path:url(#SVGID_34_);fill:#E5E5E4;}
	.st95{clip-path:url(#SVGID_36_);fill:#E5E5E4;}
	.st96{clip-path:url(#SVGID_38_);fill:#CBCBCA;}
	.st97{clip-path:url(#SVGID_40_);fill:#CBCBCA;}
	.st98{clip-path:url(#SVGID_20_);fill:#181818;}
	.st99{clip-path:url(#SVGID_20_);fill:#E1B59C;}
	.st100{clip-path:url(#SVGID_20_);fill:#CBCBCA;}
	.st101{clip-path:url(#SVGID_20_);fill:#089DD2;}
	.st102{clip-path:url(#SVGID_20_);fill:#EEC7B1;}
	.st103{clip-path:url(#SVGID_20_);fill:#00839D;}
	.st104{clip-path:url(#SVGID_20_);fill:#E5E5E4;}
	.st105{clip-path:url(#SVGID_20_);fill:#BBBBBB;}
	.st106{clip-path:url(#SVGID_20_);fill:#9C9C9C;}
	.st107{clip-path:url(#SVGID_42_);fill:#F2F2F2;}
	.st108{clip-path:url(#SVGID_20_);fill:#F2F2F2;}
	.st109{clip-path:url(#SVGID_20_);fill:#003246;}
	.st110{clip-path:url(#SVGID_20_);fill:#B3B3B3;}
	.st111{clip-path:url(#SVGID_20_);fill:#043F5E;}
	.st112{clip-path:url(#SVGID_20_);fill:#676767;}
	.st113{clip-path:url(#SVGID_20_);fill:#4E4E4E;}
	.st114{clip-path:url(#SVGID_20_);fill:#1072B9;}
	.st115{clip-path:url(#SVGID_44_);}
	.st116{clip-path:url(#SVGID_46_);fill:#F3F4F4;}
	.st117{clip-path:url(#SVGID_48_);fill:#AFB0B1;}
	.st118{clip-path:url(#SVGID_50_);fill:url(#SVGID_51_);}
	.st119{filter:url(#Adobe_OpacityMaskFilter);}
	.st120{enable-background:new    ;}
	.st121{clip-path:url(#SVGID_53_);}
	.st122{filter:url(#Adobe_OpacityMaskFilter_1_);}
	.st123{clip-path:url(#SVGID_56_);mask:url(#SVGID_54_);fill:url(#SVGID_57_);}
	.st124{clip-path:url(#SVGID_59_);}
	.st125{clip-path:url(#SVGID_61_);fill:url(#SVGID_62_);}
	.st126{clip-path:url(#SVGID_53_);fill:#F48480;}
	.st127{clip-path:url(#SVGID_64_);fill:url(#SVGID_65_);}
	.st128{clip-path:url(#SVGID_67_);}
	.st129{clip-path:url(#SVGID_69_);fill:url(#SVGID_70_);}
	.st130{clip-path:url(#SVGID_72_);fill:#F37239;}
	.st131{clip-path:url(#SVGID_72_);fill:#081837;}
	.st132{clip-path:url(#SVGID_72_);fill:#DFE0DE;}
	.st133{clip-path:url(#SVGID_74_);}
	.st134{clip-path:url(#SVGID_76_);fill:url(#SVGID_77_);}
	.st135{clip-path:url(#SVGID_79_);fill:#F37239;}
	.st136{clip-path:url(#SVGID_79_);fill:#081837;}
	.st137{clip-path:url(#SVGID_79_);fill:#DFE0DE;}
	.st138{clip-path:url(#SVGID_79_);fill:#1C2D59;}
	.st139{clip-path:url(#SVGID_79_);fill:#00839D;}
	.st140{clip-path:url(#SVGID_79_);fill:#FFFFFF;}
	.st141{clip-path:url(#SVGID_79_);fill:#F48480;}
	.st142{clip-path:url(#SVGID_81_);fill:url(#SVGID_82_);}
	.st143{clip-path:url(#SVGID_84_);fill:#FAD5A9;}
	.st144{clip-path:url(#SVGID_84_);fill:#F5AF75;}
	.st145{clip-path:url(#SVGID_84_);fill:#3E3847;}
	.st146{filter:url(#Adobe_OpacityMaskFilter_2_);}
	.st147{clip-path:url(#SVGID_84_);}
	.st148{clip-path:url(#SVGID_87_);}
	.st149{filter:url(#Adobe_OpacityMaskFilter_3_);}
	.st150{clip-path:url(#SVGID_89_);mask:url(#SVGID_85_);fill:url(#SVGID_90_);}
	.st151{clip-path:url(#SVGID_92_);}
	.st152{clip-path:url(#SVGID_94_);fill:url(#SVGID_95_);}
	.st153{clip-path:url(#SVGID_97_);fill:url(#SVGID_98_);}
	.st154{filter:url(#Adobe_OpacityMaskFilter_4_);}
	.st155{clip-path:url(#SVGID_100_);}
	.st156{clip-path:url(#SVGID_103_);}
	.st157{filter:url(#Adobe_OpacityMaskFilter_5_);}
	.st158{clip-path:url(#SVGID_105_);mask:url(#SVGID_101_);fill:url(#SVGID_106_);}
	.st159{clip-path:url(#SVGID_108_);}
	.st160{clip-path:url(#SVGID_110_);fill:url(#SVGID_111_);}
	.st161{clip-path:url(#SVGID_100_);fill:#3E3847;}
	.st162{clip-path:url(#SVGID_100_);fill:#0D172E;}
	.st163{clip-path:url(#SVGID_100_);fill:#FFFFFF;}
	.st164{opacity:0.67;clip-path:url(#SVGID_100_);}
	.st165{clip-path:url(#SVGID_113_);}
	.st166{clip-path:url(#SVGID_115_);fill:url(#SVGID_116_);}
	.st167{clip-path:url(#SVGID_100_);fill:#CBDAEF;}
	.st168{opacity:0.15;clip-path:url(#SVGID_100_);}
	.st169{clip-path:url(#SVGID_118_);fill:#020202;}
	.st170{clip-path:url(#SVGID_120_);fill:#020202;}
	.st171{clip-path:url(#SVGID_122_);fill:#020202;}
	.st172{clip-path:url(#SVGID_124_);fill:#020202;}
	.st173{clip-path:url(#SVGID_126_);fill:#020202;}
	.st174{clip-path:url(#SVGID_128_);fill:#020202;}
	.st175{clip-path:url(#SVGID_130_);fill:#BEBEBE;}
	.st176{clip-path:url(#SVGID_130_);fill:#61BB46;}
	.st177{clip-path:url(#SVGID_130_);fill:#F7BD8F;}
	.st178{clip-path:url(#SVGID_130_);fill:#00839D;}
	.st179{clip-path:url(#SVGID_130_);fill:#995825;}
	.st180{clip-path:url(#SVGID_130_);fill:#FACCA7;}
	.st181{clip-path:url(#SVGID_130_);fill:#EAEAE9;}
	.st182{fill:#CBCCCE;}
	.st183{fill:#3E3545;}
	.st184{fill:#84BB41;}
	.st185{fill:#5B408E;}
	.st186{fill:#41286C;}
	.st187{fill:#D71F27;}
	.st188{fill:#E26126;}
	.st189{fill:#12819B;}
	.st190{fill:#EE9C21;}
	.st191{fill-rule:evenodd;clip-rule:evenodd;fill:#E26126;}
	.st192{fill-rule:evenodd;clip-rule:evenodd;fill:#EE9C21;}
	.st193{fill-rule:evenodd;clip-rule:evenodd;fill:#41286C;}
	.st194{fill-rule:evenodd;clip-rule:evenodd;fill:#5B408E;}
	.st195{fill-rule:evenodd;clip-rule:evenodd;fill:#D71F27;}
	.st196{fill-rule:evenodd;clip-rule:evenodd;fill:#12819B;}
	.st197{fill-rule:evenodd;clip-rule:evenodd;fill:#84BB41;}
	.st198{fill-rule:evenodd;clip-rule:evenodd;fill:#0F809A;}
	.st199{fill-rule:evenodd;clip-rule:evenodd;fill:#D62027;}
	.st200{fill-rule:evenodd;clip-rule:evenodd;fill:#5D428B;}
	.st201{fill-rule:evenodd;clip-rule:evenodd;fill:#43286E;}
	.st202{fill-rule:evenodd;clip-rule:evenodd;fill:#82B941;}
	.st203{clip-path:url(#SVGID_132_);fill:#F9B9A1;}
	.st204{clip-path:url(#SVGID_132_);fill:#603A18;}
	.st205{clip-path:url(#SVGID_132_);fill:#1B0F2B;}
	.st206{clip-path:url(#SVGID_132_);fill:#8C6339;}
	.st207{clip-path:url(#SVGID_132_);fill:#754E23;}
	.st208{clip-path:url(#SVGID_132_);fill:#EEA895;}
	.st209{clip-path:url(#SVGID_132_);fill:#4B286F;}
	.st210{clip-path:url(#SVGID_132_);fill:#C6B299;}
	.st211{clip-path:url(#SVGID_132_);fill:#736458;}
	.st212{clip-path:url(#SVGID_132_);fill:#554741;}
	.st213{opacity:0.24;clip-path:url(#SVGID_132_);}
	.st214{clip-path:url(#SVGID_134_);fill:#FBAF53;}
	.st215{clip-path:url(#SVGID_132_);fill:#323232;}
	.st216{clip-path:url(#SVGID_132_);fill:#4E4E4E;}
	.st217{clip-path:url(#SVGID_132_);fill:#979797;}
	.st218{clip-path:url(#SVGID_132_);fill:#B3B3B3;}
	.st219{clip-path:url(#SVGID_132_);fill:#818181;}
	.st220{clip-path:url(#SVGID_132_);}
	.st221{clip-path:url(#SVGID_136_);fill:#CBCBCA;}
	.st222{clip-path:url(#SVGID_132_);fill:#676767;}
	.st223{opacity:0.42;clip-path:url(#SVGID_138_);}
	.st224{clip-path:url(#SVGID_140_);fill:#40296C;}
	.st225{clip-path:url(#SVGID_138_);fill-rule:evenodd;clip-rule:evenodd;fill:#3E3847;}
	.st226{clip-path:url(#SVGID_138_);fill-rule:evenodd;clip-rule:evenodd;fill:#818181;}
	.st227{clip-path:url(#SVGID_138_);fill-rule:evenodd;clip-rule:evenodd;fill:#AD653A;}
	.st228{clip-path:url(#SVGID_138_);fill-rule:evenodd;clip-rule:evenodd;fill:#C87442;}
	.st229{clip-path:url(#SVGID_138_);fill-rule:evenodd;clip-rule:evenodd;fill:#FCBF8C;}
	.st230{clip-path:url(#SVGID_138_);fill-rule:evenodd;clip-rule:evenodd;fill:#EAAB73;}
	.st231{clip-path:url(#SVGID_138_);fill-rule:evenodd;clip-rule:evenodd;fill:#2A373C;}
	.st232{clip-path:url(#SVGID_138_);fill-rule:evenodd;clip-rule:evenodd;fill:#068C91;}
	.st233{clip-path:url(#SVGID_138_);fill-rule:evenodd;clip-rule:evenodd;fill:#00989D;}
	.st234{clip-path:url(#SVGID_138_);fill-rule:evenodd;clip-rule:evenodd;fill:#00839D;}
	.st235{clip-path:url(#SVGID_138_);fill-rule:evenodd;clip-rule:evenodd;fill:#FCBD15;}
	.st236{clip-path:url(#SVGID_138_);fill-rule:evenodd;clip-rule:evenodd;fill:#F5B31A;}
	.st237{clip-path:url(#SVGID_138_);fill-rule:evenodd;clip-rule:evenodd;fill:#3B474C;}
	.st238{clip-path:url(#SVGID_138_);fill-rule:evenodd;clip-rule:evenodd;fill:#FFC907;}
	.st239{clip-path:url(#SVGID_138_);fill-rule:evenodd;clip-rule:evenodd;fill:#854F2E;}
	.st240{opacity:0.24;clip-path:url(#SVGID_138_);}
	.st241{clip-path:url(#SVGID_142_);fill:#693895;}
	.st242{clip-path:url(#SVGID_144_);fill:#F3BC8D;}
	.st243{clip-path:url(#SVGID_144_);fill:#3E3847;}
	
		.st244{clip-path:url(#SVGID_144_);fill:none;stroke:#F3BC8D;stroke-width:2;stroke-linecap:round;stroke-linejoin:round;stroke-miterlimit:10;}
	.st245{clip-path:url(#SVGID_144_);fill:#F26327;}
	.st246{clip-path:url(#SVGID_144_);fill:#CED0D2;}
	.st247{clip-path:url(#SVGID_144_);fill:#F1F0F0;}
	.st248{clip-path:url(#SVGID_144_);fill:#F3F0F2;}
	.st249{clip-path:url(#SVGID_144_);fill:#A6A6AA;}
	.st250{clip-path:url(#SVGID_144_);fill:#7E8082;}
	.st251{clip-path:url(#SVGID_144_);fill:#FFFFFF;}
	.st252{opacity:0.24;clip-path:url(#SVGID_144_);}
	.st253{clip-path:url(#SVGID_146_);fill:#89C540;}
	.st254{clip-path:url(#SVGID_148_);fill:#1E0D39;}
	.st255{clip-path:url(#SVGID_150_);fill:#FBC2A7;}
	.st256{clip-path:url(#SVGID_150_);fill:#EEA895;}
	.st257{clip-path:url(#SVGID_150_);fill:#3E3847;}
	.st258{clip-path:url(#SVGID_150_);fill:#FBC0A7;}
	.st259{clip-path:url(#SVGID_150_);fill:#EE333F;}
	.st260{clip-path:url(#SVGID_150_);fill:#CC202E;}
	.st261{clip-path:url(#SVGID_150_);fill:#B32028;}
	.st262{clip-path:url(#SVGID_152_);fill:#6D212B;}
	.st263{clip-path:url(#SVGID_152_);fill:#9F3847;}
	.st264{opacity:0.25;clip-path:url(#SVGID_152_);}
	.st265{clip-path:url(#SVGID_154_);fill:#FBC2A7;}
	.st266{clip-path:url(#SVGID_152_);fill:#3E3847;}
	.st267{opacity:0.24;clip-path:url(#SVGID_152_);}
	.st268{clip-path:url(#SVGID_156_);fill:#7455A3;}
	.st269{clip-path:url(#SVGID_158_);}
	.st270{clip-path:url(#SVGID_160_);fill:#3E3847;}
	.st271{clip-path:url(#SVGID_158_);fill:#ED2227;}
	.st272{clip-path:url(#SVGID_162_);fill:#CBCBCA;}
	.st273{clip-path:url(#SVGID_164_);fill:#CBCBCA;}
	.st274{clip-path:url(#SVGID_166_);fill:#CBCBCA;}
	.st275{clip-path:url(#SVGID_168_);fill:#CBCBCA;}
	.st276{clip-path:url(#SVGID_170_);fill:#CBCBCA;}
	.st277{clip-path:url(#SVGID_172_);fill:#E5E5E4;}
	.st278{clip-path:url(#SVGID_174_);fill:#E5E5E4;}
	.st279{clip-path:url(#SVGID_176_);fill:#CBCBCA;}
	.st280{clip-path:url(#SVGID_178_);fill:#CBCBCA;}
	.st281{clip-path:url(#SVGID_158_);fill:#181818;}
	.st282{clip-path:url(#SVGID_158_);fill:#E1B59C;}
	.st283{clip-path:url(#SVGID_158_);fill:#CBCBCA;}
	.st284{clip-path:url(#SVGID_158_);fill:#089DD2;}
	.st285{clip-path:url(#SVGID_158_);fill:#EEC7B1;}
	.st286{clip-path:url(#SVGID_158_);fill:#00839D;}
	.st287{clip-path:url(#SVGID_158_);fill:#E5E5E4;}
	.st288{clip-path:url(#SVGID_158_);fill:#BBBBBB;}
	.st289{clip-path:url(#SVGID_158_);fill:#9C9C9C;}
	.st290{clip-path:url(#SVGID_180_);fill:#F2F2F2;}
	.st291{clip-path:url(#SVGID_158_);fill:#F2F2F2;}
	.st292{clip-path:url(#SVGID_158_);fill:#003246;}
	.st293{clip-path:url(#SVGID_158_);fill:#B3B3B3;}
	.st294{clip-path:url(#SVGID_158_);fill:#043F5E;}
	.st295{clip-path:url(#SVGID_158_);fill:#676767;}
	.st296{clip-path:url(#SVGID_158_);fill:#4E4E4E;}
	.st297{clip-path:url(#SVGID_158_);fill:#1072B9;}
	.st298{opacity:0.24;clip-path:url(#SVGID_158_);}
	.st299{clip-path:url(#SVGID_182_);fill:#00ABC4;}
	.st300{clip-path:url(#SVGID_184_);}
	.st301{clip-path:url(#SVGID_186_);fill:#F3F4F4;}
	.st302{clip-path:url(#SVGID_188_);fill:#AFB0B1;}
	.st303{clip-path:url(#SVGID_190_);fill:url(#SVGID_191_);}
	.st304{filter:url(#Adobe_OpacityMaskFilter_6_);}
	.st305{clip-path:url(#SVGID_193_);}
	.st306{filter:url(#Adobe_OpacityMaskFilter_7_);}
	.st307{clip-path:url(#SVGID_196_);mask:url(#SVGID_194_);fill:url(#SVGID_197_);}
	.st308{clip-path:url(#SVGID_199_);}
	.st309{clip-path:url(#SVGID_201_);fill:url(#SVGID_202_);}
	.st310{clip-path:url(#SVGID_193_);fill:#F48480;}
	.st311{clip-path:url(#SVGID_204_);fill:url(#SVGID_205_);}
	.st312{clip-path:url(#SVGID_207_);}
	.st313{clip-path:url(#SVGID_209_);fill:url(#SVGID_210_);}
	.st314{clip-path:url(#SVGID_212_);fill:#F37239;}
	.st315{clip-path:url(#SVGID_212_);fill:#081837;}
	.st316{clip-path:url(#SVGID_212_);fill:#DFE0DE;}
	.st317{clip-path:url(#SVGID_214_);}
	.st318{clip-path:url(#SVGID_216_);fill:url(#SVGID_217_);}
	.st319{clip-path:url(#SVGID_219_);fill:#F37239;}
	.st320{clip-path:url(#SVGID_219_);fill:#081837;}
	.st321{clip-path:url(#SVGID_219_);fill:#DFE0DE;}
	.st322{clip-path:url(#SVGID_219_);fill:#1C2D59;}
	.st323{clip-path:url(#SVGID_219_);fill:#00839D;}
	.st324{clip-path:url(#SVGID_219_);fill:#FFFFFF;}
	.st325{clip-path:url(#SVGID_219_);fill:#F48480;}
	.st326{clip-path:url(#SVGID_221_);fill:url(#SVGID_222_);}
	.st327{clip-path:url(#SVGID_224_);fill:#FAD5A9;}
	.st328{clip-path:url(#SVGID_224_);fill:#F5AF75;}
	.st329{clip-path:url(#SVGID_224_);fill:#3E3847;}
	.st330{filter:url(#Adobe_OpacityMaskFilter_8_);}
	.st331{clip-path:url(#SVGID_224_);}
	.st332{clip-path:url(#SVGID_227_);}
	.st333{filter:url(#Adobe_OpacityMaskFilter_9_);}
	.st334{clip-path:url(#SVGID_229_);mask:url(#SVGID_225_);fill:url(#SVGID_230_);}
	.st335{clip-path:url(#SVGID_232_);}
	.st336{clip-path:url(#SVGID_234_);fill:url(#SVGID_235_);}
	.st337{clip-path:url(#SVGID_237_);fill:url(#SVGID_238_);}
	.st338{filter:url(#Adobe_OpacityMaskFilter_10_);}
	.st339{clip-path:url(#SVGID_240_);}
	.st340{clip-path:url(#SVGID_243_);}
	.st341{filter:url(#Adobe_OpacityMaskFilter_11_);}
	.st342{clip-path:url(#SVGID_245_);mask:url(#SVGID_241_);fill:url(#SVGID_246_);}
	.st343{clip-path:url(#SVGID_248_);}
	.st344{clip-path:url(#SVGID_250_);fill:url(#SVGID_251_);}
	.st345{clip-path:url(#SVGID_240_);fill:#3E3847;}
	.st346{clip-path:url(#SVGID_240_);fill:#0D172E;}
	.st347{clip-path:url(#SVGID_240_);fill:#FFFFFF;}
	.st348{opacity:0.67;clip-path:url(#SVGID_240_);}
	.st349{clip-path:url(#SVGID_253_);}
	.st350{clip-path:url(#SVGID_255_);fill:url(#SVGID_256_);}
	.st351{clip-path:url(#SVGID_240_);fill:#CBDAEF;}
	.st352{opacity:0.15;clip-path:url(#SVGID_240_);}
	.st353{clip-path:url(#SVGID_258_);fill:#020202;}
	.st354{clip-path:url(#SVGID_260_);fill:#020202;}
	.st355{clip-path:url(#SVGID_262_);fill:#020202;}
	.st356{clip-path:url(#SVGID_264_);fill:#020202;}
	.st357{clip-path:url(#SVGID_266_);fill:#020202;}
	.st358{clip-path:url(#SVGID_268_);fill:#020202;}
	.st359{opacity:0.24;clip-path:url(#SVGID_240_);}
	.st360{clip-path:url(#SVGID_270_);fill:#F27392;}
	.st361{clip-path:url(#SVGID_272_);fill:#BEBEBE;}
	.st362{clip-path:url(#SVGID_272_);fill:#61BB46;}
	.st363{clip-path:url(#SVGID_272_);fill:#F7BD8F;}
	.st364{clip-path:url(#SVGID_272_);fill:#00839D;}
	.st365{clip-path:url(#SVGID_272_);fill:#995825;}
	.st366{clip-path:url(#SVGID_272_);fill:#FACCA7;}
	.st367{clip-path:url(#SVGID_272_);fill:#EAEAE9;}
	.st368{opacity:0.24;clip-path:url(#SVGID_272_);}
	.st369{clip-path:url(#SVGID_274_);fill:#F6916F;}
	.st370{fill:#F9F6EE;}
</style>
<g>
	<g class="st0">
		<g>
			<path class="st1" d="M393.1,71.6c-7.2,0-13.8,4.5-15.8,10.6c-2.7-1.4-5.9-2.2-9-2.2c-3.2,0-6.2,0.8-8.8,2.3
				c-5.9,3.4-9.1,10.7-7.4,17c1.5,5.6,7,9.9,12.8,9.9c0.5,0,1,0,1.5-0.1c0,0.2,0,0.4,0,0.6c-0.2,0.9-0.3,1.8-0.3,2.6
				c0.1,8,8.6,14.2,19.2,14.2c0.2,0,0.3,0,0.5,0c5.9-0.1,11.4-2.2,15-5.7c1.6,2.8,4.9,4.5,8.9,4.5c2.4,0,4.9-0.6,7.2-1.8
				c5.3-2.6,8.6-7.5,8.2-12c1.6-0.3,3.1-0.9,4.5-1.6c1-0.3,1.9-0.9,2.6-1.7c3.7-2.9,5.8-7.1,5.9-11.6c0.2-8.7-7.2-15.9-16.6-16.2
				c-0.2,0-0.3,0-0.5,0c-3.4,0-6.6,0.9-9.4,2.6c-4-6.3-10.1-10.5-16.6-11.3C394.4,71.6,393.7,71.6,393.1,71.6z"/>
			<path class="st2" d="M393.2,71.8c-7.2,0-13.8,4.5-15.8,10.6c-2.7-1.4-5.9-2.2-9-2.2c-3.2,0-6.2,0.8-8.8,2.3
				c-5.9,3.4-9.1,10.7-7.4,17c1.5,5.6,7,9.9,12.8,9.9c0.5,0,1,0,1.5-0.1c0,0.2,0,0.4,0,0.6c-0.2,0.9-0.3,1.8-0.3,2.6
				c0.1,8,8.6,14.2,19.2,14.2c0.2,0,0.3,0,0.5,0c5.9-0.1,11.4-2.2,15-5.7c1.6,2.8,4.9,4.5,8.9,4.5c2.4,0,4.9-0.6,7.2-1.8
				c5.3-2.6,8.6-7.5,8.2-12c1.6-0.3,3.1-0.9,4.5-1.6c1-0.3,1.9-0.9,2.6-1.7c3.7-2.9,5.8-7.1,5.9-11.6c0.2-8.7-7.2-15.9-16.6-16.2
				c-0.2,0-0.3,0-0.5,0c-3.4,0-6.6,0.9-9.4,2.6c-4-6.3-10.1-10.5-16.6-11.3C394.6,71.8,393.9,71.8,393.2,71.8z"/>
			<path class="st3" d="M393.4,72c-7.2,0-13.8,4.5-15.8,10.6c-2.7-1.4-5.9-2.2-9-2.2c-3.2,0-6.2,0.8-8.8,2.3
				c-5.9,3.4-9.1,10.7-7.4,17c1.5,5.6,7,9.9,12.8,9.9c0.5,0,1,0,1.5-0.1c0,0.2,0,0.4,0,0.6c-0.2,0.9-0.3,1.8-0.3,2.6
				c0.1,8,8.6,14.2,19.2,14.2c0.2,0,0.3,0,0.5,0c5.9-0.1,11.4-2.2,15-5.7c1.6,2.8,4.9,4.5,8.9,4.5c2.4,0,4.9-0.6,7.2-1.8
				c5.3-2.6,8.6-7.5,8.2-12c1.6-0.3,3.1-0.9,4.5-1.6c1-0.3,1.9-0.9,2.6-1.7c3.7-2.9,5.8-7.1,5.9-11.6c0.2-8.7-7.2-15.9-16.6-16.2
				c-0.2,0-0.3,0-0.5,0c-3.4,0-6.6,0.9-9.4,2.6c-4-6.3-10.1-10.5-16.6-11.3C394.7,72.1,394,72,393.4,72z"/>
			<path class="st4" d="M393.5,72.3c-7.2,0-13.8,4.5-15.8,10.6c-2.7-1.4-5.9-2.2-9-2.2c-3.2,0-6.2,0.8-8.8,2.3
				c-5.9,3.4-9.1,10.7-7.4,17c1.5,5.6,7,9.9,12.8,9.9c0.5,0,1,0,1.5-0.1c0,0.2,0,0.4,0,0.6c-0.2,0.9-0.3,1.8-0.3,2.6
				c0.1,8,8.6,14.2,19.2,14.2c0.2,0,0.3,0,0.5,0c5.9-0.1,11.4-2.2,15-5.7c1.6,2.8,4.9,4.5,8.9,4.5c2.4,0,4.9-0.6,7.2-1.8
				c5.3-2.6,8.6-7.5,8.2-12c1.6-0.3,3.1-0.9,4.5-1.6c1-0.3,1.9-0.9,2.6-1.7c3.7-2.9,5.8-7.1,5.9-11.6c0.2-8.7-7.2-15.9-16.6-16.2
				c-0.2,0-0.3,0-0.5,0c-3.4,0-6.6,0.9-9.4,2.6c-4-6.3-10.1-10.5-16.6-11.3C394.9,72.3,394.2,72.3,393.5,72.3z"/>
			<path class="st5" d="M393.7,72.5c-7.2,0-13.8,4.5-15.8,10.6c-2.7-1.4-5.9-2.2-9-2.2c-3.2,0-6.2,0.8-8.8,2.3
				c-5.9,3.4-9.1,10.7-7.4,17c1.5,5.6,7,9.9,12.8,9.9c0.5,0,1,0,1.5-0.1c0,0.2,0,0.4,0,0.6c-0.2,0.9-0.3,1.8-0.3,2.6
				c0.1,8,8.6,14.2,19.2,14.2c0.2,0,0.3,0,0.5,0c5.9-0.1,11.4-2.2,15-5.7c1.6,2.8,4.9,4.5,8.9,4.5c2.4,0,4.9-0.6,7.2-1.8
				c5.3-2.6,8.6-7.5,8.2-12c1.6-0.3,3.1-0.9,4.5-1.6c1-0.3,1.9-0.9,2.6-1.7c3.7-2.9,5.8-7.1,5.9-11.6c0.2-8.7-7.2-15.9-16.6-16.2
				c-0.2,0-0.3,0-0.5,0c-3.4,0-6.6,0.9-9.4,2.6c-4-6.3-10.1-10.5-16.6-11.3C395,72.5,394.4,72.5,393.7,72.5z"/>
			<path class="st6" d="M393.8,72.7c-7.2,0-13.8,4.5-15.8,10.6c-2.7-1.4-5.9-2.2-9-2.2c-3.2,0-6.2,0.8-8.8,2.3
				c-5.9,3.4-9.1,10.7-7.4,17c1.5,5.6,7,9.9,12.8,9.9c0.5,0,1,0,1.5-0.1c0,0.2,0,0.4,0,0.6c-0.2,0.9-0.3,1.8-0.3,2.6
				c0.1,8,8.6,14.2,19.2,14.2c0.2,0,0.3,0,0.5,0c5.9-0.1,11.4-2.2,15-5.7c1.6,2.8,4.9,4.5,8.9,4.5c2.4,0,4.9-0.6,7.2-1.8
				c5.3-2.6,8.6-7.5,8.2-12c1.6-0.3,3.1-0.9,4.5-1.6c1-0.3,1.9-0.9,2.6-1.7c3.7-2.9,5.8-7.1,5.9-11.6c0.2-8.7-7.2-15.9-16.6-16.2
				c-0.2,0-0.3,0-0.5,0c-3.4,0-6.6,0.9-9.4,2.6c-4-6.3-10.1-10.5-16.6-11.3C395.2,72.8,394.5,72.7,393.8,72.7z"/>
			<path class="st7" d="M394,73c-7.2,0-13.8,4.5-15.8,10.6c-2.7-1.4-5.9-2.2-9-2.2c-3.2,0-6.2,0.8-8.8,2.3c-5.9,3.4-9.1,10.7-7.4,17
				c1.5,5.6,7,9.9,12.8,9.9c0.5,0,1,0,1.5-0.1c0,0.2,0,0.4,0,0.6c-0.2,0.9-0.3,1.8-0.3,2.6c0.1,8,8.6,14.2,19.2,14.2
				c0.2,0,0.3,0,0.5,0c5.9-0.1,11.4-2.2,15-5.7c1.6,2.8,4.9,4.5,8.9,4.5c2.4,0,4.9-0.6,7.2-1.8c5.3-2.6,8.6-7.5,8.2-12
				c1.6-0.3,3.1-0.9,4.5-1.6c1-0.3,1.9-0.9,2.6-1.7c3.7-2.9,5.8-7.1,5.9-11.6c0.2-8.7-7.2-15.9-16.6-16.2c-0.2,0-0.3,0-0.5,0
				c-3.4,0-6.6,0.9-9.4,2.6c-4-6.3-10.1-10.5-16.6-11.3C395.3,73,394.7,73,394,73z"/>
			<path class="st8" d="M394.2,73.2c-7.2,0-13.8,4.5-15.8,10.6c-2.7-1.4-5.9-2.2-9-2.2c-3.2,0-6.2,0.8-8.8,2.3
				c-5.9,3.4-9.1,10.7-7.4,17c1.5,5.6,7,9.9,12.8,9.9c0.5,0,1,0,1.5-0.1c0,0.2,0,0.4,0,0.6c-0.2,0.9-0.3,1.8-0.3,2.6
				c0.1,8,8.6,14.2,19.2,14.2c0.2,0,0.3,0,0.5,0c5.9-0.1,11.4-2.2,15-5.7c1.6,2.8,4.9,4.5,8.9,4.5c2.4,0,4.9-0.6,7.2-1.8
				c5.3-2.6,8.6-7.5,8.2-12c1.6-0.3,3.1-0.9,4.5-1.6c1-0.3,1.9-0.9,2.6-1.7c3.7-2.9,5.8-7.1,5.9-11.6c0.2-8.7-7.2-15.9-16.6-16.2
				c-0.2,0-0.3,0-0.5,0c-3.4,0-6.6,0.9-9.4,2.6c-4-6.3-10.1-10.5-16.6-11.3C395.5,73.2,394.8,73.2,394.2,73.2z"/>
			<path class="st9" d="M394.3,73.4c-7.2,0-13.8,4.5-15.8,10.6c-2.7-1.4-5.9-2.2-9-2.2c-3.2,0-6.2,0.8-8.8,2.3
				c-5.9,3.4-9.1,10.7-7.4,17c1.5,5.6,7,9.9,12.8,9.9c0.5,0,1,0,1.5-0.1c0,0.2,0,0.4,0,0.6c-0.2,0.9-0.3,1.8-0.3,2.6
				c0.1,8,8.6,14.2,19.2,14.2c0.2,0,0.3,0,0.5,0c5.9-0.1,11.4-2.2,15-5.7c1.6,2.8,4.9,4.5,8.9,4.5c2.4,0,4.9-0.6,7.2-1.8
				c5.3-2.6,8.6-7.5,8.2-12c1.6-0.3,3.1-0.9,4.5-1.6c1-0.3,1.9-0.9,2.6-1.7c3.7-2.9,5.8-7.1,5.9-11.6c0.2-8.7-7.2-15.9-16.6-16.2
				c-0.2,0-0.3,0-0.5,0c-3.4,0-6.6,0.9-9.4,2.6c-4-6.3-10.1-10.5-16.6-11.3C395.6,73.5,395,73.4,394.3,73.4z"/>
			<path class="st10" d="M394.5,73.7c-7.2,0-13.8,4.5-15.8,10.6c-2.7-1.4-5.9-2.2-9-2.2c-3.2,0-6.2,0.8-8.8,2.3
				c-5.9,3.4-9.1,10.7-7.4,17c1.5,5.6,7,9.9,12.8,9.9c0.5,0,1,0,1.5-0.1c0,0.2,0,0.4,0,0.6c-0.2,0.9-0.3,1.8-0.3,2.6
				c0.1,8,8.6,14.2,19.2,14.2c0.2,0,0.3,0,0.5,0c5.9-0.1,11.4-2.2,15-5.7c1.6,2.8,4.9,4.5,8.9,4.5c2.4,0,4.9-0.6,7.2-1.8
				c5.3-2.6,8.6-7.5,8.2-12c1.6-0.3,3.1-0.9,4.5-1.6c1-0.3,1.9-0.9,2.6-1.7c3.7-2.9,5.8-7.1,5.9-11.6c0.2-8.7-7.2-15.9-16.6-16.2
				c-0.2,0-0.3,0-0.5,0c-3.4,0-6.6,0.9-9.4,2.6c-4-6.3-10.1-10.5-16.6-11.3C395.8,73.7,395.1,73.7,394.5,73.7z"/>
		</g>
	</g>
</g>
<g>
	<g class="st0">
		<g>
			<path class="st1" d="M129.3,316c-5.5,0-10.5,3.4-12.1,8.1c-2.1-1.1-4.5-1.6-6.9-1.6c-2.4,0-4.7,0.6-6.7,1.7
				c-4.5,2.6-7,8.2-5.7,13c1.1,4.3,5.4,7.6,9.8,7.6c0.4,0,0.8,0,1.2-0.1c0,0.1,0,0.3,0,0.4c-0.2,0.7-0.2,1.4-0.2,2
				c0.1,6.1,6.6,10.9,14.7,10.9c0.1,0,0.3,0,0.4,0c4.5-0.1,8.7-1.7,11.5-4.4c1.2,2.2,3.7,3.5,6.8,3.5c1.8,0,3.7-0.5,5.5-1.3
				c4-2,6.6-5.8,6.2-9.2c1.2-0.3,2.4-0.7,3.4-1.2c0.7-0.2,1.4-0.7,2-1.3c2.8-2.2,4.5-5.4,4.5-8.8c0.2-6.6-5.5-12.2-12.7-12.4
				c-0.1,0-0.2,0-0.4,0c-2.6,0-5.1,0.7-7.2,2c-3.1-4.8-7.7-8.1-12.7-8.7C130.3,316,129.8,316,129.3,316z"/>
			<path class="st2" d="M129.4,316.1c-5.5,0-10.5,3.4-12.1,8.1c-2.1-1.1-4.5-1.6-6.9-1.6c-2.4,0-4.7,0.6-6.7,1.7
				c-4.5,2.6-7,8.2-5.7,13c1.1,4.3,5.4,7.6,9.8,7.6c0.4,0,0.8,0,1.2-0.1c0,0.1,0,0.3,0,0.4c-0.2,0.7-0.2,1.4-0.2,2
				c0.1,6.1,6.6,10.9,14.7,10.9c0.1,0,0.3,0,0.4,0c4.5-0.1,8.7-1.7,11.5-4.4c1.2,2.2,3.7,3.5,6.8,3.5c1.8,0,3.7-0.5,5.5-1.3
				c4-2,6.6-5.8,6.2-9.2c1.2-0.3,2.4-0.7,3.4-1.2c0.7-0.2,1.4-0.7,2-1.3c2.8-2.2,4.5-5.4,4.5-8.8c0.2-6.6-5.5-12.2-12.7-12.4
				c-0.1,0-0.2,0-0.4,0c-2.6,0-5.1,0.7-7.2,2c-3.1-4.8-7.7-8.1-12.7-8.7C130.5,316.2,129.9,316.1,129.4,316.1z"/>
			<path class="st3" d="M129.6,316.3c-5.5,0-10.5,3.4-12.1,8.1c-2.1-1.1-4.5-1.6-6.9-1.6c-2.4,0-4.7,0.6-6.7,1.7
				c-4.5,2.6-7,8.2-5.7,13c1.1,4.3,5.4,7.6,9.8,7.6c0.4,0,0.8,0,1.2-0.1c0,0.1,0,0.3,0,0.4c-0.2,0.7-0.2,1.4-0.2,2
				c0.1,6.1,6.6,10.9,14.7,10.9c0.1,0,0.3,0,0.4,0c4.5-0.1,8.7-1.7,11.5-4.4c1.2,2.2,3.7,3.5,6.8,3.5c1.8,0,3.7-0.5,5.5-1.3
				c4-2,6.6-5.8,6.2-9.2c1.2-0.3,2.4-0.7,3.4-1.2c0.7-0.2,1.4-0.7,2-1.3c2.8-2.2,4.5-5.4,4.5-8.8c0.2-6.6-5.5-12.2-12.7-12.4
				c-0.1,0-0.2,0-0.4,0c-2.6,0-5.1,0.7-7.2,2c-3.1-4.8-7.7-8.1-12.7-8.7C130.6,316.3,130.1,316.3,129.6,316.3z"/>
			<path class="st4" d="M129.7,316.5c-5.5,0-10.5,3.4-12.1,8.1c-2.1-1.1-4.5-1.6-6.9-1.6c-2.4,0-4.7,0.6-6.7,1.7
				c-4.5,2.6-7,8.2-5.7,13c1.1,4.3,5.4,7.6,9.8,7.6c0.4,0,0.8,0,1.2-0.1c0,0.1,0,0.3,0,0.4c-0.2,0.7-0.2,1.4-0.2,2
				c0.1,6.1,6.6,10.9,14.7,10.9c0.1,0,0.3,0,0.4,0c4.5-0.1,8.7-1.7,11.5-4.4c1.2,2.2,3.7,3.5,6.8,3.5c1.8,0,3.7-0.5,5.5-1.3
				c4-2,6.6-5.8,6.2-9.2c1.2-0.3,2.4-0.7,3.4-1.2c0.7-0.2,1.4-0.7,2-1.3c2.8-2.2,4.5-5.4,4.5-8.8c0.2-6.6-5.5-12.2-12.7-12.4
				c-0.1,0-0.2,0-0.4,0c-2.6,0-5.1,0.7-7.2,2c-3.1-4.8-7.7-8.1-12.7-8.7C130.7,316.5,130.2,316.5,129.7,316.5z"/>
			<path class="st5" d="M129.8,316.7c-5.5,0-10.5,3.4-12.1,8.1c-2.1-1.1-4.5-1.6-6.9-1.6c-2.4,0-4.7,0.6-6.7,1.7
				c-4.5,2.6-7,8.2-5.7,13c1.1,4.3,5.4,7.6,9.8,7.6c0.4,0,0.8,0,1.2-0.1c0,0.1,0,0.3,0,0.4c-0.2,0.7-0.2,1.4-0.2,2
				c0.1,6.1,6.6,10.9,14.7,10.9c0.1,0,0.3,0,0.4,0c4.5-0.1,8.7-1.7,11.5-4.4c1.2,2.2,3.7,3.5,6.8,3.5c1.8,0,3.7-0.5,5.5-1.3
				c4-2,6.6-5.8,6.2-9.2c1.2-0.3,2.4-0.7,3.4-1.2c0.7-0.2,1.4-0.7,2-1.3c2.8-2.2,4.5-5.4,4.5-8.8c0.2-6.6-5.5-12.2-12.7-12.4
				c-0.1,0-0.2,0-0.4,0c-2.6,0-5.1,0.7-7.2,2c-3.1-4.8-7.7-8.1-12.7-8.7C130.8,316.7,130.3,316.7,129.8,316.7z"/>
			<path class="st6" d="M129.9,316.9c-5.5,0-10.5,3.4-12.1,8.1c-2.1-1.1-4.5-1.6-6.9-1.6c-2.4,0-4.7,0.6-6.7,1.7
				c-4.5,2.6-7,8.2-5.7,13c1.1,4.3,5.4,7.6,9.8,7.6c0.4,0,0.8,0,1.2-0.1c0,0.1,0,0.3,0,0.4c-0.2,0.7-0.2,1.4-0.2,2
				c0.1,6.1,6.6,10.9,14.7,10.9c0.1,0,0.3,0,0.4,0c4.5-0.1,8.7-1.7,11.5-4.4c1.2,2.2,3.7,3.5,6.8,3.5c1.8,0,3.7-0.5,5.5-1.3
				c4-2,6.6-5.8,6.2-9.2c1.2-0.3,2.4-0.7,3.4-1.2c0.7-0.2,1.4-0.7,2-1.3c2.8-2.2,4.5-5.4,4.5-8.8c0.2-6.6-5.5-12.2-12.7-12.4
				c-0.1,0-0.2,0-0.4,0c-2.6,0-5.1,0.7-7.2,2c-3.1-4.8-7.7-8.1-12.7-8.7C130.9,316.9,130.4,316.9,129.9,316.9z"/>
			<path class="st7" d="M130,317c-5.5,0-10.5,3.4-12.1,8.1c-2.1-1.1-4.5-1.6-6.9-1.6c-2.4,0-4.7,0.6-6.7,1.7c-4.5,2.6-7,8.2-5.7,13
				c1.1,4.3,5.4,7.6,9.8,7.6c0.4,0,0.8,0,1.2-0.1c0,0.1,0,0.3,0,0.4c-0.2,0.7-0.2,1.4-0.2,2c0.1,6.1,6.6,10.9,14.7,10.9
				c0.1,0,0.3,0,0.4,0c4.5-0.1,8.7-1.7,11.5-4.4c1.2,2.2,3.7,3.5,6.8,3.5c1.8,0,3.7-0.5,5.5-1.3c4-2,6.6-5.8,6.2-9.2
				c1.2-0.3,2.4-0.7,3.4-1.2c0.7-0.2,1.4-0.7,2-1.3c2.8-2.2,4.5-5.4,4.5-8.8c0.2-6.6-5.5-12.2-12.7-12.4c-0.1,0-0.2,0-0.4,0
				c-2.6,0-5.1,0.7-7.2,2c-3.1-4.8-7.7-8.1-12.7-8.7C131,317.1,130.5,317,130,317z"/>
			<path class="st8" d="M130.1,317.2c-5.5,0-10.5,3.4-12.1,8.1c-2.1-1.1-4.5-1.6-6.9-1.6c-2.4,0-4.7,0.6-6.7,1.7
				c-4.5,2.6-7,8.2-5.7,13c1.1,4.3,5.4,7.6,9.8,7.6c0.4,0,0.8,0,1.2-0.1c0,0.1,0,0.3,0,0.4c-0.2,0.7-0.2,1.4-0.2,2
				c0.1,6.1,6.6,10.9,14.7,10.9c0.1,0,0.3,0,0.4,0c4.5-0.1,8.7-1.7,11.5-4.4c1.2,2.2,3.7,3.5,6.8,3.5c1.8,0,3.7-0.5,5.5-1.3
				c4-2,6.6-5.8,6.2-9.2c1.2-0.3,2.4-0.7,3.4-1.2c0.7-0.2,1.4-0.7,2-1.3c2.8-2.2,4.5-5.4,4.5-8.8c0.2-6.6-5.5-12.2-12.7-12.4
				c-0.1,0-0.2,0-0.4,0c-2.6,0-5.1,0.7-7.2,2c-3.1-4.8-7.7-8.1-12.7-8.7C131.2,317.2,130.7,317.2,130.1,317.2z"/>
			<path class="st9" d="M130.3,317.4c-5.5,0-10.5,3.4-12.1,8.1c-2.1-1.1-4.5-1.6-6.9-1.6c-2.4,0-4.7,0.6-6.7,1.7
				c-4.5,2.6-7,8.2-5.7,13c1.1,4.3,5.4,7.6,9.8,7.6c0.4,0,0.8,0,1.2-0.1c0,0.1,0,0.3,0,0.4c-0.2,0.7-0.2,1.4-0.2,2
				c0.1,6.1,6.6,10.9,14.7,10.9c0.1,0,0.3,0,0.4,0c4.5-0.1,8.7-1.7,11.5-4.4c1.2,2.2,3.7,3.5,6.8,3.5c1.8,0,3.7-0.5,5.5-1.3
				c4-2,6.6-5.8,6.2-9.2c1.2-0.3,2.4-0.7,3.4-1.2c0.7-0.2,1.4-0.7,2-1.3c2.8-2.2,4.5-5.4,4.5-8.8c0.2-6.6-5.5-12.2-12.7-12.4
				c-0.1,0-0.2,0-0.4,0c-2.6,0-5.1,0.7-7.2,2c-3.1-4.8-7.7-8.1-12.7-8.7C131.3,317.4,130.8,317.4,130.3,317.4z"/>
			<path class="st10" d="M130.4,317.6c-5.5,0-10.5,3.4-12.1,8.1c-2.1-1.1-4.5-1.6-6.9-1.6c-2.4,0-4.7,0.6-6.7,1.7
				c-4.5,2.6-7,8.2-5.7,13c1.1,4.3,5.4,7.6,9.8,7.6c0.4,0,0.8,0,1.2-0.1c0,0.1,0,0.3,0,0.4c-0.2,0.7-0.2,1.4-0.2,2
				c0.1,6.1,6.6,10.9,14.7,10.9c0.1,0,0.3,0,0.4,0c4.5-0.1,8.7-1.7,11.5-4.4c1.2,2.2,3.7,3.5,6.8,3.5c1.8,0,3.7-0.5,5.5-1.3
				c4-2,6.6-5.8,6.2-9.2c1.2-0.3,2.4-0.7,3.4-1.2c0.7-0.2,1.4-0.7,2-1.3c2.8-2.2,4.5-5.4,4.5-8.8c0.2-6.6-5.5-12.2-12.7-12.4
				c-0.1,0-0.2,0-0.4,0c-2.6,0-5.1,0.7-7.2,2c-3.1-4.8-7.7-8.1-12.7-8.7C131.4,317.6,130.9,317.6,130.4,317.6z"/>
		</g>
	</g>
</g>
<g>
	<g class="st0">
		<g>
			<path class="st1" d="M113.4,232.7c-3.7,0-7,2.3-8,5.4c-1.4-0.7-3-1.1-4.6-1.1c-1.6,0-3.1,0.4-4.4,1.2c-3,1.7-4.6,5.4-3.8,8.6
				c0.8,2.9,3.6,5,6.5,5c0.3,0,0.5,0,0.8-0.1c0,0.1,0,0.2,0,0.3c-0.1,0.4-0.1,0.9-0.1,1.3c0.1,4.1,4.3,7.2,9.7,7.2
				c0.1,0,0.2,0,0.3,0c3-0.1,5.8-1.1,7.6-2.9c0.8,1.4,2.5,2.3,4.5,2.3c1.2,0,2.5-0.3,3.7-0.9c2.7-1.3,4.4-3.8,4.1-6.1
				c0.8-0.2,1.6-0.4,2.3-0.8c0.5-0.2,0.9-0.5,1.3-0.9c1.9-1.5,3-3.6,3-5.9c0.1-4.4-3.7-8.1-8.5-8.2c-0.1,0-0.2,0-0.2,0
				c-1.7,0-3.4,0.5-4.8,1.3c-2-3.2-5.1-5.4-8.4-5.7C114.1,232.7,113.7,232.7,113.4,232.7z"/>
			<path class="st2" d="M113.5,232.8c-3.7,0-7,2.3-8,5.4c-1.4-0.7-3-1.1-4.6-1.1c-1.6,0-3.1,0.4-4.4,1.2c-3,1.7-4.6,5.4-3.8,8.6
				c0.8,2.9,3.6,5,6.5,5c0.3,0,0.5,0,0.8-0.1c0,0.1,0,0.2,0,0.3c-0.1,0.4-0.1,0.9-0.1,1.3c0.1,4.1,4.3,7.2,9.7,7.2
				c0.1,0,0.2,0,0.3,0c3-0.1,5.8-1.1,7.6-2.9c0.8,1.4,2.5,2.3,4.5,2.3c1.2,0,2.5-0.3,3.7-0.9c2.7-1.3,4.4-3.8,4.1-6.1
				c0.8-0.2,1.6-0.4,2.3-0.8c0.5-0.2,0.9-0.5,1.3-0.9c1.9-1.5,3-3.6,3-5.9c0.1-4.4-3.7-8.1-8.5-8.2c-0.1,0-0.2,0-0.2,0
				c-1.7,0-3.4,0.5-4.8,1.3c-2-3.2-5.1-5.4-8.4-5.7C114.1,232.8,113.8,232.8,113.5,232.8z"/>
			<path class="st3" d="M113.5,232.9c-3.7,0-7,2.3-8,5.4c-1.4-0.7-3-1.1-4.6-1.1c-1.6,0-3.1,0.4-4.4,1.2c-3,1.7-4.6,5.4-3.8,8.6
				c0.8,2.9,3.6,5,6.5,5c0.3,0,0.5,0,0.8-0.1c0,0.1,0,0.2,0,0.3c-0.1,0.4-0.1,0.9-0.1,1.3c0.1,4.1,4.3,7.2,9.7,7.2
				c0.1,0,0.2,0,0.3,0c3-0.1,5.8-1.1,7.6-2.9c0.8,1.4,2.5,2.3,4.5,2.3c1.2,0,2.5-0.3,3.7-0.9c2.7-1.3,4.4-3.8,4.1-6.1
				c0.8-0.2,1.6-0.4,2.3-0.8c0.5-0.2,0.9-0.5,1.3-0.9c1.9-1.5,3-3.6,3-5.9c0.1-4.4-3.7-8.1-8.5-8.2c-0.1,0-0.2,0-0.2,0
				c-1.7,0-3.4,0.5-4.8,1.3c-2-3.2-5.1-5.4-8.4-5.7C114.2,233,113.9,232.9,113.5,232.9z"/>
			<path class="st4" d="M113.6,233.1c-3.7,0-7,2.3-8,5.4c-1.4-0.7-3-1.1-4.6-1.1c-1.6,0-3.1,0.4-4.4,1.2c-3,1.7-4.6,5.4-3.8,8.6
				c0.8,2.9,3.6,5,6.5,5c0.3,0,0.5,0,0.8-0.1c0,0.1,0,0.2,0,0.3c-0.1,0.4-0.1,0.9-0.1,1.3c0.1,4.1,4.3,7.2,9.7,7.2
				c0.1,0,0.2,0,0.3,0c3-0.1,5.8-1.1,7.6-2.9c0.8,1.4,2.5,2.3,4.5,2.3c1.2,0,2.5-0.3,3.7-0.9c2.7-1.3,4.4-3.8,4.1-6.1
				c0.8-0.2,1.6-0.4,2.3-0.8c0.5-0.2,0.9-0.5,1.3-0.9c1.9-1.5,3-3.6,3-5.9c0.1-4.4-3.7-8.1-8.5-8.2c-0.1,0-0.2,0-0.2,0
				c-1.7,0-3.4,0.5-4.8,1.3c-2-3.2-5.1-5.4-8.4-5.7C114.3,233.1,114,233.1,113.6,233.1z"/>
			<path class="st5" d="M113.7,233.2c-3.7,0-7,2.3-8,5.4c-1.4-0.7-3-1.1-4.6-1.1c-1.6,0-3.1,0.4-4.4,1.2c-3,1.7-4.6,5.4-3.8,8.6
				c0.8,2.9,3.6,5,6.5,5c0.3,0,0.5,0,0.8-0.1c0,0.1,0,0.2,0,0.3c-0.1,0.4-0.1,0.9-0.1,1.3c0.1,4.1,4.3,7.2,9.7,7.2
				c0.1,0,0.2,0,0.3,0c3-0.1,5.8-1.1,7.6-2.9c0.8,1.4,2.5,2.3,4.5,2.3c1.2,0,2.5-0.3,3.7-0.9c2.7-1.3,4.4-3.8,4.1-6.1
				c0.8-0.2,1.6-0.4,2.3-0.8c0.5-0.2,0.9-0.5,1.3-0.9c1.9-1.5,3-3.6,3-5.9c0.1-4.4-3.7-8.1-8.5-8.2c-0.1,0-0.2,0-0.2,0
				c-1.7,0-3.4,0.5-4.8,1.3c-2-3.2-5.1-5.4-8.4-5.7C114.4,233.2,114,233.2,113.7,233.2z"/>
			<path class="st6" d="M113.8,233.3c-3.7,0-7,2.3-8,5.4c-1.4-0.7-3-1.1-4.6-1.1c-1.6,0-3.1,0.4-4.4,1.2c-3,1.7-4.6,5.4-3.8,8.6
				c0.8,2.9,3.6,5,6.5,5c0.3,0,0.5,0,0.8-0.1c0,0.1,0,0.2,0,0.3c-0.1,0.4-0.1,0.9-0.1,1.3c0.1,4.1,4.3,7.2,9.7,7.2
				c0.1,0,0.2,0,0.3,0c3-0.1,5.8-1.1,7.6-2.9c0.8,1.4,2.5,2.3,4.5,2.3c1.2,0,2.5-0.3,3.7-0.9c2.7-1.3,4.4-3.8,4.1-6.1
				c0.8-0.2,1.6-0.4,2.3-0.8c0.5-0.2,0.9-0.5,1.3-0.9c1.9-1.5,3-3.6,3-5.9c0.1-4.4-3.7-8.1-8.5-8.2c-0.1,0-0.2,0-0.2,0
				c-1.7,0-3.4,0.5-4.8,1.3c-2-3.2-5.1-5.4-8.4-5.7C114.4,233.3,114.1,233.3,113.8,233.3z"/>
			<path class="st7" d="M113.8,233.4c-3.7,0-7,2.3-8,5.4c-1.4-0.7-3-1.1-4.6-1.1c-1.6,0-3.1,0.4-4.4,1.2c-3,1.7-4.6,5.4-3.8,8.6
				c0.8,2.9,3.6,5,6.5,5c0.3,0,0.5,0,0.8-0.1c0,0.1,0,0.2,0,0.3c-0.1,0.4-0.1,0.9-0.1,1.3c0.1,4.1,4.3,7.2,9.7,7.2
				c0.1,0,0.2,0,0.3,0c3-0.1,5.8-1.1,7.6-2.9c0.8,1.4,2.5,2.3,4.5,2.3c1.2,0,2.5-0.3,3.7-0.9c2.7-1.3,4.4-3.8,4.1-6.1
				c0.8-0.2,1.6-0.4,2.3-0.8c0.5-0.2,0.9-0.5,1.3-0.9c1.9-1.5,3-3.6,3-5.9c0.1-4.4-3.7-8.1-8.5-8.2c-0.1,0-0.2,0-0.2,0
				c-1.7,0-3.4,0.5-4.8,1.3c-2-3.2-5.1-5.4-8.4-5.7C114.5,233.4,114.2,233.4,113.8,233.4z"/>
			<path class="st8" d="M113.9,233.5c-3.7,0-7,2.3-8,5.4c-1.4-0.7-3-1.1-4.6-1.1c-1.6,0-3.1,0.4-4.4,1.2c-3,1.7-4.6,5.4-3.8,8.6
				c0.8,2.9,3.6,5,6.5,5c0.3,0,0.5,0,0.8-0.1c0,0.1,0,0.2,0,0.3c-0.1,0.4-0.1,0.9-0.1,1.3c0.1,4.1,4.3,7.2,9.7,7.2
				c0.1,0,0.2,0,0.3,0c3-0.1,5.8-1.1,7.6-2.9c0.8,1.4,2.5,2.3,4.5,2.3c1.2,0,2.5-0.3,3.7-0.9c2.7-1.3,4.4-3.8,4.1-6.1
				c0.8-0.2,1.6-0.4,2.3-0.8c0.5-0.2,0.9-0.5,1.3-0.9c1.9-1.5,3-3.6,3-5.9c0.1-4.4-3.7-8.1-8.5-8.2c-0.1,0-0.2,0-0.2,0
				c-1.7,0-3.4,0.5-4.8,1.3c-2-3.2-5.1-5.4-8.4-5.7C114.6,233.6,114.3,233.5,113.9,233.5z"/>
			<path class="st9" d="M114,233.7c-3.7,0-7,2.3-8,5.4c-1.4-0.7-3-1.1-4.6-1.1c-1.6,0-3.1,0.4-4.4,1.2c-3,1.7-4.6,5.4-3.8,8.6
				c0.8,2.9,3.6,5,6.5,5c0.3,0,0.5,0,0.8-0.1c0,0.1,0,0.2,0,0.3c-0.1,0.4-0.1,0.9-0.1,1.3c0.1,4.1,4.3,7.2,9.7,7.2
				c0.1,0,0.2,0,0.3,0c3-0.1,5.8-1.1,7.6-2.9c0.8,1.4,2.5,2.3,4.5,2.3c1.2,0,2.5-0.3,3.7-0.9c2.7-1.3,4.4-3.8,4.1-6.1
				c0.8-0.2,1.6-0.4,2.3-0.8c0.5-0.2,0.9-0.5,1.3-0.9c1.9-1.5,3-3.6,3-5.9c0.1-4.4-3.7-8.1-8.5-8.2c-0.1,0-0.2,0-0.2,0
				c-1.7,0-3.4,0.5-4.8,1.3c-2-3.2-5.1-5.4-8.4-5.7C114.7,233.7,114.3,233.7,114,233.7z"/>
			<path class="st10" d="M114.1,233.8c-3.7,0-7,2.3-8,5.4c-1.4-0.7-3-1.1-4.6-1.1c-1.6,0-3.1,0.4-4.4,1.2c-3,1.7-4.6,5.4-3.8,8.6
				c0.8,2.9,3.6,5,6.5,5c0.3,0,0.5,0,0.8-0.1c0,0.1,0,0.2,0,0.3c-0.1,0.4-0.1,0.9-0.1,1.3c0.1,4.1,4.3,7.2,9.7,7.2
				c0.1,0,0.2,0,0.3,0c3-0.1,5.8-1.1,7.6-2.9c0.8,1.4,2.5,2.3,4.5,2.3c1.2,0,2.5-0.3,3.7-0.9c2.7-1.3,4.4-3.8,4.1-6.1
				c0.8-0.2,1.6-0.4,2.3-0.8c0.5-0.2,0.9-0.5,1.3-0.9c1.9-1.5,3-3.6,3-5.9c0.1-4.4-3.7-8.1-8.5-8.2c-0.1,0-0.2,0-0.2,0
				c-1.7,0-3.4,0.5-4.8,1.3c-2-3.2-5.1-5.4-8.4-5.7C114.8,233.8,114.4,233.8,114.1,233.8z"/>
		</g>
	</g>
</g>
<g>
	<polygon class="st191" points="373.1,262 327.6,308.5 281,263 	"/>
	<polygon class="st192" points="321.4,118 275.4,165.1 181,166.3 227,119.2 	"/>
	<polygon class="st193" points="167.8,166.8 168.4,356.5 73.4,262 	"/>
	<polygon class="st194" points="173.7,166.7 268.9,261.2 174.4,356.4 	"/>
	
		<rect x="389.5" y="226.3" transform="matrix(0.6751 -0.7377 0.7377 0.6751 -54.1709 396.293)" class="st195" width="66.7" height="66.7"/>
	<polygon class="st196" points="274.5,263.4 320.7,309.2 228.6,309.6 	"/>
	<polygon class="st197" points="96,99.7 161.9,166.2 29.4,165.6 	"/>
</g>
</svg>
