<svg width="83" height="72" viewBox="0 0 83 72" fill="none" xmlns="http://www.w3.org/2000/svg">
<g clip-path="url(#clip0)">
<path d="M71.8996 25.7324H51.7336C51.3848 25.7324 51.0503 25.8718 50.8037 26.1198C50.557 26.3679 50.4185 26.7043 50.4185 27.0551C50.4185 27.4059 50.557 27.7423 50.8037 27.9903C51.0503 28.2384 51.3848 28.3777 51.7336 28.3777H71.8996C72.2484 28.3777 72.5829 28.2384 72.8295 27.9903C73.0762 27.7423 73.2147 27.4059 73.2147 27.0551C73.2147 26.7043 73.0762 26.3679 72.8295 26.1198C72.5829 25.8718 72.2484 25.7324 71.8996 25.7324Z" fill="white"/>
<path d="M71.8996 31.6843H51.7336C51.3848 31.6843 51.0503 31.8237 50.8037 32.0717C50.557 32.3198 50.4185 32.6562 50.4185 33.007C50.4185 33.3578 50.557 33.6942 50.8037 33.9422C51.0503 34.1903 51.3848 34.3296 51.7336 34.3296H71.8996C72.2484 34.3296 72.5829 34.1903 72.8295 33.9422C73.0762 33.6942 73.2147 33.3578 73.2147 33.007C73.2147 32.6562 73.0762 32.3198 72.8295 32.0717C72.5829 31.8237 72.2484 31.6843 71.8996 31.6843Z" fill="white"/>
<path d="M71.8996 37.6365H51.7336C51.3848 37.6365 51.0503 37.7758 50.8037 38.0239C50.557 38.2719 50.4185 38.6083 50.4185 38.9591C50.4185 39.3099 50.557 39.6463 50.8037 39.8944C51.0503 40.1424 51.3848 40.2818 51.7336 40.2818H71.8996C72.2484 40.2818 72.5829 40.1424 72.8295 39.8944C73.0762 39.6463 73.2147 39.3099 73.2147 38.9591C73.2147 38.6083 73.0762 38.2719 72.8295 38.0239C72.5829 37.7758 72.2484 37.6365 71.8996 37.6365Z" fill="white"/>
<path d="M74.3853 0.381836H7.77629C5.74109 0.38416 3.78972 1.19736 2.34939 2.6434C0.909051 4.08944 0.0971056 6.0505 0.0913086 8.09725V63.6482C0.0971056 65.695 0.909051 67.6561 2.34939 69.1021C3.78972 70.5481 5.74109 71.3613 7.77629 71.3637H74.3853C76.4205 71.3613 78.3719 70.5481 79.8122 69.1021C81.2526 67.6561 82.0645 65.695 82.0703 63.6482V8.09725C82.0645 6.0505 81.2526 4.08944 79.8122 2.6434C78.3719 1.19736 76.4205 0.38416 74.3853 0.381836V0.381836ZM7.77629 3.02712H74.3853C75.7229 3.02944 77.0053 3.56393 77.9523 4.51389C78.8994 5.46384 79.4342 6.75207 79.44 8.09725V13.6171H79.3304H2.72165V8.09725C2.72744 6.75207 3.26226 5.46384 4.20931 4.51389C5.15636 3.56393 6.4387 3.02944 7.77629 3.02712V3.02712ZM74.3853 68.7184H7.77629C6.43835 68.7172 5.15534 68.1831 4.20804 67.2329C3.26074 66.2827 2.72629 64.9938 2.72165 63.6482V16.2535H79.3523H79.4619V63.6482C79.4607 64.9961 78.9278 66.2884 77.9801 67.2414C77.0324 68.1945 75.7475 68.7304 74.4072 68.7316" fill="white"/>
<path d="M64.6448 6.55387C64.9491 6.5495 65.2479 6.63626 65.5031 6.80314C65.7583 6.97002 65.9584 7.20946 66.0779 7.491C66.1974 7.77255 66.2309 8.08348 66.1742 8.38425C66.1175 8.68502 65.9731 8.96203 65.7594 9.18004C65.5457 9.39805 65.2724 9.54722 64.9742 9.60857C64.676 9.66992 64.3663 9.64068 64.0847 9.52456C63.803 9.40844 63.5621 9.2107 63.3925 8.95649C63.2229 8.70227 63.1324 8.40308 63.1323 8.09695C63.1323 7.6877 63.294 7.29521 63.5817 7.00583C63.8695 6.71644 64.2598 6.55387 64.6667 6.55387" fill="white"/>
<path d="M71.6589 6.55387C71.9633 6.5495 72.2621 6.63626 72.5173 6.80314C72.7724 6.97002 72.9725 7.20946 73.092 7.491C73.2115 7.77255 73.245 8.08348 73.1883 8.38425C73.1316 8.68502 72.9873 8.96203 72.7736 9.18004C72.5599 9.39805 72.2866 9.54722 71.9883 9.60857C71.6901 9.66992 71.3805 9.64068 71.0988 9.52456C70.8172 9.40844 70.5763 9.2107 70.4067 8.95649C70.2371 8.70227 70.1465 8.40308 70.1465 8.09695C70.1465 7.6877 70.3081 7.29521 70.5959 7.00583C70.8836 6.71644 71.2739 6.55387 71.6808 6.55387" fill="white"/>
<path d="M47.0868 27.2051C47.0856 26.1063 46.6511 25.0529 45.8785 24.2759C45.106 23.499 44.0585 23.062 42.9659 23.0608H13.0852C11.9927 23.062 10.9452 23.499 10.1726 24.2759C9.40005 25.0529 8.96552 26.1063 8.96436 27.2051V44.0423C8.96971 45.0892 9.37095 46.0949 10.0866 46.8551C10.1685 47.0649 10.3041 47.2493 10.4796 47.3894C10.6552 47.5295 10.8644 47.6205 11.0862 47.6531C11.7012 48.0034 12.396 48.1872 13.1028 48.1866H42.9659C44.0585 48.1854 45.106 47.7484 45.8785 46.9715C46.6511 46.1945 47.0856 45.1411 47.0868 44.0423V27.2051ZM13.0896 25.7061H42.9659C43.3612 25.7061 43.7403 25.864 44.0199 26.1451C44.2994 26.4262 44.4564 26.8075 44.4564 27.2051V44.0423C44.456 44.2856 44.3967 44.5251 44.2837 44.7402C44.1706 44.9552 44.0072 45.1394 43.8076 45.2768L36.7934 36.3798C36.5776 36.1059 36.2629 35.929 35.9179 35.8877C35.573 35.8464 35.2258 35.9441 34.9521 36.1594L27.0611 42.3846L21.1735 33.6948C21.0555 33.5203 20.8976 33.3767 20.7131 33.2761C20.5286 33.1754 20.3228 33.1207 20.113 33.1164C19.9031 33.1121 19.6953 33.1583 19.5069 33.2513C19.3184 33.3442 19.1548 33.4812 19.0298 33.6507L11.5772 43.7072V27.2051C11.5772 26.8083 11.7336 26.4277 12.0122 26.1467C12.2908 25.8657 12.6688 25.7072 13.0633 25.7061H13.0896ZM40.66 45.5457H27.1839C27.3194 45.5006 27.4467 45.4336 27.5609 45.3473L35.5483 39.0604L40.66 45.5457ZM26.3027 45.5457H13.5192L20.0381 36.7281L25.6626 45.0431C25.8198 45.2734 26.0453 45.4478 26.3071 45.5413L26.3027 45.5457Z" fill="white"/>
<path d="M20.4765 55.9329C20.9968 55.9329 21.5053 56.088 21.9379 56.3787C22.3704 56.6693 22.7076 57.0825 22.9067 57.5658C23.1057 58.0492 23.1578 58.5811 23.0563 59.0942C22.9548 59.6074 22.7043 60.0787 22.3365 60.4487C21.9686 60.8186 21.4999 61.0705 20.9897 61.1726C20.4794 61.2747 19.9506 61.2223 19.4699 61.0221C18.9893 60.8219 18.5785 60.4828 18.2895 60.0478C18.0005 59.6128 17.8462 59.1013 17.8462 58.5781C17.8462 57.8766 18.1233 57.2037 18.6166 56.7076C19.1099 56.2116 19.7789 55.9329 20.4765 55.9329" fill="white"/>
<path d="M34.5053 55.9329C35.0256 55.9329 35.5341 56.088 35.9667 56.3787C36.3992 56.6693 36.7364 57.0825 36.9355 57.5658C37.1346 58.0492 37.1866 58.5811 37.0851 59.0942C36.9837 59.6074 36.7331 60.0787 36.3653 60.4487C35.9974 60.8186 35.5287 61.0705 35.0185 61.1726C34.5083 61.2747 33.9794 61.2223 33.4988 61.0221C33.0181 60.8219 32.6073 60.4828 32.3183 60.0478C32.0293 59.6128 31.875 59.1013 31.875 58.5781C31.875 57.8766 32.1521 57.2037 32.6454 56.7076C33.1387 56.2116 33.8077 55.9329 34.5053 55.9329Z" fill="white"/>
<path d="M48.5337 55.9329C49.0539 55.9329 49.5624 56.088 49.995 56.3787C50.4275 56.6693 50.7647 57.0825 50.9638 57.5658C51.1628 58.0492 51.2149 58.5811 51.1134 59.0942C51.012 59.6074 50.7614 60.0787 50.3936 60.4487C50.0257 60.8186 49.557 61.0705 49.0468 61.1726C48.5366 61.2747 48.0077 61.2223 47.5271 61.0221C47.0464 60.8219 46.6356 60.4828 46.3466 60.0478C46.0576 59.6128 45.9033 59.1013 45.9033 58.5781C45.9033 57.8766 46.1804 57.2037 46.6737 56.7076C47.167 56.2116 47.836 55.9329 48.5337 55.9329Z" fill="white"/>
<path d="M62.562 55.9329C63.0822 55.9329 63.5908 56.088 64.0233 56.3787C64.4559 56.6693 64.793 57.0825 64.9921 57.5658C65.1912 58.0492 65.2433 58.5811 65.1418 59.0942C65.0403 59.6074 64.7898 60.0787 64.4219 60.4487C64.054 60.8186 63.5854 61.0705 63.0751 61.1726C62.5649 61.2747 62.036 61.2223 61.5554 61.0221C61.0748 60.8219 60.664 60.4828 60.3749 60.0478C60.0859 59.6128 59.9316 59.1013 59.9316 58.5781C59.9316 57.8766 60.2088 57.2037 60.702 56.7076C61.1953 56.2116 61.8644 55.9329 62.562 55.9329" fill="white"/>
</g>
<defs>
<clipPath id="clip0">
<rect x="0.0913086" y="0.381836" width="81.979" height="70.9818" fill="white"/>
</clipPath>
</defs>
</svg>
