<svg width="79" height="72" viewBox="0 0 79 72" fill="none" xmlns="http://www.w3.org/2000/svg">
<path d="M77.8027 51.665L74.0731 47.9686C73.9361 47.8126 73.7688 47.686 73.5813 47.5966C73.3937 47.5073 73.1899 47.457 72.9823 47.4489C72.7747 47.4408 72.5676 47.4751 72.3737 47.5495C72.1797 47.624 72.003 47.7372 71.8543 47.8821C71.7055 48.0271 71.5879 48.2008 71.5086 48.3926C71.4292 48.5845 71.3898 48.7905 71.3927 48.998C71.3957 49.2056 71.4409 49.4104 71.5256 49.5999C71.6104 49.7895 71.7328 49.9598 71.8856 50.1005L71.9215 50.1363L75.651 53.8326C75.9435 54.0925 76.3245 54.2305 76.7157 54.2182C77.1069 54.206 77.4786 54.0444 77.7542 53.7667C78.0298 53.4891 78.1884 53.1164 78.1974 52.7255C78.2064 52.3346 78.0652 51.955 77.8027 51.665Z" fill="#5B3F8E"/>
<path d="M70.271 44.1886C69.9841 43.902 69.595 43.741 69.1892 43.741C68.7835 43.741 68.3944 43.902 68.1074 44.1886C67.8934 44.4024 67.7477 44.6748 67.6886 44.9713C67.6295 45.2678 67.6598 45.5752 67.7756 45.8546C67.8914 46.1339 68.0875 46.3727 68.3391 46.5407C68.5908 46.7087 68.8866 46.7983 69.1892 46.7983C69.4919 46.7983 69.7877 46.7087 70.0393 46.5407C70.291 46.3727 70.4871 46.1339 70.6029 45.8546C70.7187 45.5752 70.7489 45.2678 70.6899 44.9713C70.6308 44.6748 70.4851 44.4024 70.271 44.1886Z" fill="#5B3F8E"/>
<path d="M47.2972 63.596L55.1806 71.4723C55.4689 71.7521 55.8558 71.9073 56.2578 71.9044C56.6597 71.9014 57.0443 71.7406 57.3285 71.4567C57.6127 71.1727 57.7737 70.7884 57.7766 70.3869C57.7795 69.9853 57.6242 69.5987 57.3442 69.3107L48.9766 60.9506C48.8209 60.7955 48.6335 60.6757 48.4272 60.5994C48.2209 60.5232 48.0006 60.4922 47.7813 60.5087L47.2972 60.5505C45.0807 60.7344 42.8598 60.2519 40.9199 59.1652L38.6846 61.3746C41.2493 63.0183 44.2749 63.7949 47.3151 63.59" fill="#EF9C0F"/>
<path d="M72.0766 28.2867C71.3116 27.5217 70.3463 26.9877 69.2914 26.746C69.6641 25.9444 69.847 25.0679 69.826 24.1843C69.805 23.3007 69.5806 22.4338 69.1702 21.6508C68.7599 20.8678 68.1746 20.1897 67.4597 19.6691C66.7448 19.1485 65.9195 18.7993 65.0478 18.6487C65.3085 17.8634 65.3962 17.0311 65.3051 16.2088C65.214 15.3864 64.9462 14.5934 64.52 13.8841C64.0937 13.1747 63.5192 12.5657 62.8356 12.0988C62.152 11.6318 61.3755 11.3178 60.5593 11.1784C60.9219 10.083 60.9467 8.90391 60.6304 7.79422C60.3141 6.68453 59.6713 5.69541 58.7854 4.95518C57.8996 4.21495 56.8115 3.75777 55.6624 3.64294C54.5133 3.52811 53.3562 3.76094 52.3411 4.31122L52.1917 4.15597C51.239 3.13657 50.087 2.32337 48.8071 1.76666C47.5272 1.20995 46.1465 0.921598 44.7506 0.919434H32.7431C32.3373 0.919434 31.9482 1.08049 31.6612 1.36718C31.3743 1.65386 31.2131 2.04269 31.2131 2.44813V4.44857C31.2122 5.23763 31.3456 6.0211 31.6075 6.7655C30.5879 6.34237 29.468 6.22085 28.3812 6.41542C27.2945 6.60999 26.2865 7.11245 25.4773 7.86299C24.6682 8.61353 24.0919 9.58055 23.8171 10.649C23.5423 11.7174 23.5806 12.8421 23.9273 13.8895C23.1115 14.03 22.3355 14.3445 21.6523 14.8117C20.9691 15.2788 20.3947 15.8876 19.9682 16.5965C19.5417 17.3054 19.2731 18.0978 19.1807 18.9198C19.0883 19.7418 19.1742 20.574 19.4328 21.3598C18.5619 21.5106 17.7374 21.8597 17.0231 22.3799C16.3089 22.9002 15.724 23.5776 15.3138 24.3598C14.9035 25.1421 14.6789 26.0081 14.6573 26.891C14.6357 27.7738 14.8177 28.6498 15.1892 29.4511C14.187 29.682 13.2649 30.1768 12.5187 30.8841C11.7725 31.5913 11.2294 32.4852 10.9458 33.473C10.6622 34.4608 10.6484 35.5065 10.9059 36.5014C11.1633 37.4963 11.6827 38.4042 12.41 39.1308L15.4582 42.1763L0.432452 57.1646C0.152432 57.4527 -0.00289641 57.8393 4.0913e-05 58.2409C0.00297823 58.6424 0.163943 59.0267 0.448147 59.3106C0.732351 59.5946 1.11697 59.7554 1.51889 59.7583C1.9208 59.7613 2.30773 59.6061 2.59606 59.3263L17.7652 44.1827C18.658 44.691 19.6706 44.9512 20.698 44.9364C21.7255 44.9216 22.7302 44.6323 23.6079 44.0985C24.4855 43.5646 25.2042 42.8058 25.6892 41.9007C26.1742 40.9957 26.4078 39.9774 26.3659 38.9517H26.599C27.3548 38.9525 28.1034 38.8045 28.802 38.5162C29.5006 38.228 30.1356 37.805 30.6706 37.2716C31.2056 36.7382 31.6302 36.1047 31.9202 35.4073C32.2102 34.7099 32.3598 33.9623 32.3606 33.2071C32.3606 33.1295 32.3606 33.0519 32.3606 32.9743H32.5937C33.3496 32.975 34.0982 32.8271 34.7968 32.5388C35.4954 32.2505 36.1303 31.8276 36.6654 31.2942C37.2004 30.7608 37.625 30.1273 37.915 29.4299C38.2049 28.7325 38.3546 27.9849 38.3554 27.2297C38.3554 27.1521 38.3554 27.0744 38.3554 26.9968H38.5825C39.6732 26.9976 40.7416 26.6887 41.6633 26.1061C42.5851 25.5236 43.3222 24.6914 43.7888 23.7065C44.2554 22.7215 44.4323 21.6244 44.2989 20.5429C44.1655 19.4614 43.7272 18.44 43.0352 17.5977L53.1958 7.44624C53.7103 6.97621 54.3864 6.72256 55.0834 6.73811C55.7804 6.75366 56.4445 7.03721 56.9374 7.52973C57.4304 8.02224 57.7142 8.68576 57.7298 9.38211C57.7453 10.0785 57.4914 10.754 57.021 11.268L55.5268 12.7608L50.0998 18.1829C49.9543 18.3241 49.8384 18.4928 49.7587 18.6791C49.6791 18.8655 49.6373 19.0658 49.6358 19.2684C49.6343 19.471 49.6732 19.6719 49.7501 19.8594C49.827 20.0469 49.9405 20.2172 50.0839 20.3605C50.2273 20.5038 50.3978 20.6172 50.5855 20.694C50.7731 20.7709 50.9742 20.8097 51.177 20.8082C51.3798 20.8067 51.5803 20.765 51.7668 20.6854C51.9533 20.6058 52.1221 20.49 52.2634 20.3446L57.6904 14.9225C58.2049 14.4525 58.881 14.1988 59.5779 14.2144C60.2749 14.2299 60.939 14.5135 61.432 15.006C61.9249 15.4985 62.2088 16.162 62.2243 16.8584C62.2399 17.5547 61.986 18.2302 61.5156 18.7443L60.0214 20.2371L56.0886 24.1663C55.9431 24.3075 55.8272 24.4762 55.7475 24.6625C55.6678 24.8489 55.626 25.0492 55.6246 25.2518C55.6231 25.4544 55.6619 25.6553 55.7389 25.8428C55.8158 26.0303 55.9293 26.2006 56.0727 26.3439C56.2161 26.4872 56.3866 26.6006 56.5742 26.6774C56.7619 26.7543 56.963 26.7931 57.1658 26.7916C57.3686 26.7901 57.5691 26.7484 57.7556 26.6688C57.9421 26.5892 58.1109 26.4734 58.2522 26.328L62.185 22.3988C62.4357 22.1478 62.7335 21.9487 63.0613 21.8128C63.3891 21.6768 63.7405 21.6067 64.0954 21.6064C64.4504 21.6061 64.8019 21.6757 65.1299 21.8111C65.4579 21.9466 65.756 22.1453 66.0071 22.3958C66.2583 22.6463 66.4576 22.9439 66.5937 23.2714C66.7298 23.5989 66.8 23.95 66.8002 24.3046C66.8005 24.6592 66.7309 25.0103 66.5953 25.3381C66.4597 25.6658 66.2609 25.9636 66.0101 26.2146L63.9541 28.2628L62.0774 30.1378C61.7974 30.4259 61.642 30.8125 61.645 31.214C61.6479 31.6156 61.8089 31.9998 62.0931 32.2838C62.3773 32.5677 62.7619 32.7286 63.1638 32.7315C63.5657 32.7344 63.9527 32.5792 64.241 32.2995L66.1177 30.4244C66.6249 29.9184 67.3126 29.6345 68.0294 29.635C68.7462 29.6356 69.4334 29.9206 69.9399 30.4274C70.4463 30.9342 70.7305 31.6213 70.73 32.3374C70.7294 33.0536 70.4441 33.7402 69.9369 34.2462L55.1084 49.0614C51.4021 52.7751 46.4223 54.9437 41.1764 55.1284C40.7894 55.1423 40.422 55.3023 40.1484 55.5762L26.4495 69.3106C26.2949 69.4495 26.1702 69.6184 26.0831 69.8071C25.996 69.9958 25.9483 70.2002 25.9429 70.4079C25.9375 70.6156 25.9746 70.8222 26.0518 71.0151C26.129 71.208 26.2448 71.3832 26.392 71.5299C26.5393 71.6766 26.7149 71.7918 26.9082 71.8684C27.1015 71.945 27.3084 71.9815 27.5163 71.9755C27.7242 71.9696 27.9286 71.9213 28.1172 71.8338C28.3058 71.7462 28.4746 71.6212 28.6132 71.4663L38.6841 61.3745L40.9075 59.1472L41.8877 58.1619C47.6712 57.7956 53.1213 55.33 57.2122 51.229L72.0407 36.4138C72.5753 35.8798 72.9993 35.2458 73.2886 34.5481C73.5779 33.8503 73.7269 33.1025 73.7269 32.3472C73.7269 31.592 73.5779 30.8441 73.2886 30.1464C72.9993 29.4486 72.5753 28.8147 72.0407 28.2807L72.0766 28.2867ZM22.5467 41.1193C22.0401 41.6251 21.3532 41.9092 20.6371 41.9092C19.9209 41.9092 19.2341 41.6251 18.7275 41.1193L14.5796 36.9393C14.3097 36.6927 14.0926 36.3941 13.9414 36.0613C13.7902 35.7286 13.708 35.3687 13.6999 35.0034C13.6917 34.6381 13.7577 34.2749 13.8939 33.9358C14.0301 33.5967 14.2336 33.2886 14.4922 33.0303C14.7508 32.7719 15.0591 32.5685 15.3986 32.4325C15.738 32.2964 16.1015 32.2305 16.4671 32.2386C16.8328 32.2468 17.193 32.3289 17.526 32.4799C17.859 32.631 18.1579 32.8479 18.4048 33.1176L22.5347 37.2438C23.0413 37.751 23.3258 38.4382 23.3258 39.1547C23.3258 39.8712 23.0413 40.5584 22.5347 41.0656L22.5467 41.1193ZM28.5115 35.0941C28.004 35.6003 27.3161 35.8845 26.599 35.8845C25.8818 35.8845 25.194 35.6003 24.6864 35.0941L20.5624 30.9678L18.5064 28.9137C18.0359 28.3996 17.782 27.7241 17.7976 27.0278C17.8132 26.3314 18.097 25.6679 18.5899 25.1754C19.0829 24.6829 19.747 24.3993 20.444 24.3838C21.1409 24.3682 21.817 24.6219 22.3315 25.0919L28.5235 31.2903C28.7751 31.541 28.9746 31.8389 29.1108 32.1667C29.247 32.4946 29.3171 32.8462 29.3171 33.2012C29.3171 33.5562 29.247 33.9077 29.1108 34.2356C28.9746 34.5635 28.7751 34.8613 28.5235 35.112L28.5115 35.0941ZM34.5003 29.1406C33.9927 29.6467 33.3049 29.931 32.5877 29.931C31.8706 29.931 31.1828 29.6467 30.6752 29.1406L22.9949 21.4613C22.4877 20.9553 22.2024 20.2687 22.2019 19.5525C22.2013 18.8364 22.4855 18.1493 22.992 17.6425C23.4984 17.1357 24.1856 16.8507 24.9024 16.8501C25.6192 16.8496 26.3069 17.1335 26.8141 17.6395L30.3166 21.1328L34.5003 25.3129C34.7519 25.5636 34.9515 25.8614 35.0876 26.1893C35.2238 26.5172 35.2939 26.8687 35.2939 27.2237C35.2939 27.5787 35.2238 27.9302 35.0876 28.2581C34.9515 28.586 34.7519 28.8839 34.5003 29.1346V29.1406ZM40.4771 23.1631C40.2262 23.4145 39.9281 23.6139 39.5999 23.7499C39.2717 23.886 38.9199 23.956 38.5646 23.956C38.2092 23.956 37.8574 23.886 37.5292 23.7499C37.201 23.6139 36.9029 23.4145 36.652 23.1631L28.9837 15.4838L27.4895 13.991C27.0191 13.477 26.7652 12.8014 26.7807 12.1051C26.7963 11.4087 27.0801 10.7452 27.5731 10.2527C28.066 9.7602 28.7301 9.47665 29.4271 9.46109C30.1241 9.44554 30.8002 9.69919 31.3147 10.1692L40.4771 19.3354C40.7287 19.5861 40.9283 19.884 41.0644 20.2119C41.2006 20.5398 41.2707 20.8913 41.2707 21.2463C41.2707 21.6013 41.2006 21.9528 41.0644 22.2807C40.9283 22.6086 40.7287 22.9064 40.4771 23.1572V23.1631ZM40.8776 15.3943L36.6938 11.2142C37.1751 11.3172 37.6659 11.3693 38.1581 11.3695H38.194H42.3778C42.7663 11.3452 43.1309 11.1739 43.3974 10.8904C43.6639 10.607 43.8123 10.2327 43.8123 9.84379C43.8123 9.45488 43.6639 9.0806 43.3974 8.79714C43.1309 8.51369 42.7663 8.34237 42.3778 8.31808H38.194C37.6841 8.31886 37.1791 8.2192 36.7077 8.02479C36.2364 7.83038 35.8081 7.54504 35.4473 7.18509C35.0865 6.82514 34.8002 6.39764 34.6049 5.92706C34.4096 5.45647 34.3091 4.95204 34.3091 4.4426V3.96488H44.7805C45.757 3.96618 46.7229 4.16771 47.6183 4.55699C48.5138 4.94628 49.3197 5.51504 49.9863 6.22806L50.046 6.29375L40.8776 15.3943Z" fill="#EF9C0F"/>
</svg>
