<?xml version="1.0" encoding="UTF-8" standalone="no"?>
<svg
   xmlns:dc="http://purl.org/dc/elements/1.1/"
   xmlns:cc="http://creativecommons.org/ns#"
   xmlns:rdf="http://www.w3.org/1999/02/22-rdf-syntax-ns#"
   xmlns:svg="http://www.w3.org/2000/svg"
   xmlns="http://www.w3.org/2000/svg"
   xmlns:sodipodi="http://sodipodi.sourceforge.net/DTD/sodipodi-0.dtd"
   xmlns:inkscape="http://www.inkscape.org/namespaces/inkscape"
   version="1.1"
   id="Capa_1"
   x="0px"
   y="0px"
   viewBox="0 0 730 730"
   style="enable-background:new 0 0 730 730;"
   xml:space="preserve"
   sodipodi:docname="economia_make.svg"
   inkscape:version="1.0.2 (e86c870879, 2021-01-15)"><metadata
   id="metadata54"><rdf:RDF><cc:Work
       rdf:about=""><dc:format>image/svg+xml</dc:format><dc:type
         rdf:resource="http://purl.org/dc/dcmitype/StillImage" /></cc:Work></rdf:RDF></metadata><defs
   id="defs52" /><sodipodi:namedview
   pagecolor="#ffffff"
   bordercolor="#666666"
   borderopacity="1"
   objecttolerance="10"
   gridtolerance="10"
   guidetolerance="10"
   inkscape:pageopacity="0"
   inkscape:pageshadow="2"
   inkscape:window-width="1920"
   inkscape:window-height="1017"
   id="namedview50"
   showgrid="false"
   inkscape:zoom="1.1328767"
   inkscape:cx="365"
   inkscape:cy="294.38331"
   inkscape:window-x="-8"
   inkscape:window-y="-8"
   inkscape:window-maximized="1"
   inkscape:current-layer="Capa_1" />
<style
   type="text/css"
   id="style33">
	.st0{fill:#634090;}
	.st1{fill:#EE9B10;}
</style>
<g
   id="g47"
   transform="matrix(1.512533,0,0,1.512533,-186.65255,-186.65461)">
	<circle
   class="st0"
   cx="224.7"
   cy="425.10001"
   r="14.1"
   id="circle35" />
	<polygon
   class="st1"
   points="224.7,561.4 196.6,513 168.6,508 168.6,561.4 "
   id="polygon37" />
	<path
   class="st1"
   d="m 434,206.9 81.3,96.3 c 0,0 68.4,-79 68.4,-83.3 0,-4.3 -6.6,-42.8 -6.6,-42.8 l -39.9,-41.3 -19.1,8.8 z"
   id="path39" />
	<g
   id="g45">
		<g
   id="g43">
			<path
   class="st0"
   d="m 574.3,425 c -20.8,-20.8 -48.8,-31.8 -77.9,-30.9 -1.7,0.1 -3.3,-0.6 -4.5,-1.8 l -23.1,-23.1 c -2.4,-2.4 -2.4,-6.2 0,-8.5 l 120,-120 c 10.6,-10.6 16.4,-24.7 16.4,-39.8 0,-15.1 -5.8,-29.2 -16.4,-39.8 l -19.9,-19.9 c -10.6,-10.6 -24.7,-16.4 -39.8,-16.4 -15.1,0 -29.2,5.8 -39.8,16.4 l -120,120 c -2.4,2.4 -6.2,2.4 -8.5,0 l -23.1,-23.1 c -1.2,-1.2 -1.8,-2.8 -1.8,-4.5 0.9,-29.1 -10,-57 -30.9,-77.9 -32.5,-32.5 -81.8,-40.3 -122.7,-19.4 l -9.8,5 c -3.6,1.9 -4.4,6.7 -1.5,9.6 l 55.2,55.2 c 2.4,2.4 2.4,6.2 0,8.5 L 214.8,226 c -2.4,2.4 -6.2,2.4 -8.5,0 L 151,170.9 c -2.9,-2.9 -7.8,-2.1 -9.6,1.5 l -5,9.8 c -20.9,40.9 -13.1,90.2 19.4,122.7 20.8,20.8 48.8,31.8 77.9,30.9 1.7,-0.1 3.3,0.6 4.5,1.8 l 23.1,23.1 c 2.4,2.4 2.4,6.2 0,8.5 L 243,387.5 c -5.5,5.5 -5.5,14.3 -0.1,19.8 0.3,0.3 0.7,0.7 1,1 4.9,5 13,5.1 18,0.1 L 431,239.3 c 2.4,-2.4 6.2,-2.4 8.5,0 l 11.4,11.4 c 2.4,2.4 2.4,6.2 0,8.5 L 214.8,495.3 c -2.4,2.4 -6.2,2.4 -8.5,0 l -11.4,-11.4 c -2.4,-2.4 -2.4,-6.2 0,-8.5 l 13.5,-13.5 c 4.8,-4.8 5,-12.5 0.5,-17.6 l -0.2,-0.2 C 203,437.7 193,437.4 187,443.5 l -27.8,27.8 c -0.8,0.8 -1.3,1.7 -1.6,2.8 l -23.8,95.4 c -4,16.2 10.6,30.8 26.8,26.8 L 256,572.5 c 1.1,-0.3 2,-0.8 2.8,-1.6 l 102,-102 c 2.4,-2.4 6.2,-2.4 8.5,0 l 23.1,23.1 c 1.2,1.2 1.8,2.8 1.8,4.5 -0.9,29.1 10,57 30.9,77.9 20.3,20.3 47.3,31 74.6,31 16.3,0 32.8,-3.8 48.1,-11.6 l 9.8,-5 c 3.6,-1.9 4.4,-6.7 1.5,-9.6 L 503.9,524 c -2.4,-2.4 -2.4,-6.2 0,-8.5 l 11.4,-11.4 c 2.4,-2.4 6.2,-2.4 8.5,0 l 55.2,55.2 c 2.9,2.9 7.8,2.1 9.6,-1.5 l 5,-9.8 c 21,-41.2 13.2,-90.5 -19.3,-123 z M 340.8,289.6 289.6,340.8 c -2.4,2.4 -6.2,2.4 -8.5,0 l -32.4,-32.4 c -1.3,-1.3 -3.2,-1.9 -5,-1.7 l -3.9,0.5 C 216,310.1 192.5,302.1 175.6,285.1 159.8,269.3 152,248.2 152.9,227 c 0.2,-5.3 6.6,-7.7 10.3,-4 l 42.9,42.9 c 2.4,2.4 6.2,2.4 8.5,0 l 51.1,-51.1 c 2.3,-2.3 2.4,-6.1 0,-8.5 -9.9,-10 -31,-31.2 -42.9,-43.1 -3.7,-3.7 -1.2,-10 4,-10.3 16.6,-0.7 33.2,3.9 47.2,13.5 0.1,0.1 0.2,0.2 0.3,0.2 3,2.4 48,38.1 33.4,76.5 -0.8,2.2 -0.2,4.7 1.4,6.3 9.4,9.3 24.4,24.3 31.6,31.6 2.5,2.5 2.5,6.3 0.1,8.6 z m 158.4,-118.5 10,-10 c 5.3,-5.3 12.4,-8.2 19.9,-8.2 7.6,0 14.6,2.9 19.9,8.2 l 19.9,19.9 c 5.3,5.3 8.2,12.4 8.2,19.9 0,7.6 -2.9,14.6 -8.2,19.9 l -10,10 c -2.4,2.4 -6.2,2.4 -8.5,0 l -51.2,-51.2 c -2.4,-2.3 -2.4,-6.2 0,-8.5 z m -39.8,39.8 11.4,-11.4 c 2.4,-2.4 6.2,-2.4 8.5,0 l 51.2,51.2 c 2.4,2.4 2.4,6.2 0,8.5 l -11.4,11.4 c -2.4,2.4 -6.2,2.4 -8.5,0 l -51.2,-51.2 c -2.4,-2.3 -2.4,-6.1 0,-8.5 z m -246.9,343.4 -27,6.8 c -9.9,2.5 -18.9,-6.5 -16.5,-16.5 l 6.8,-27 c 1.1,-4.5 6.8,-6.1 10.1,-2.8 l 29.4,29.4 c 3.3,3.3 1.7,8.9 -2.8,10.1 z m 42.1,-19.2 c -2.4,2.4 -6.2,2.4 -8.5,0 l -11.4,-11.4 c -2.4,-2.4 -2.4,-6.2 0,-8.5 L 470.8,279.1 c 2.4,-2.4 6.2,-2.4 8.5,0 l 11.4,11.4 c 2.4,2.4 2.4,6.2 0,8.5 z M 577.1,503 c -0.2,5.3 -6.6,7.7 -10.3,4 l -42.9,-42.9 c -2.4,-2.4 -6.2,-2.4 -8.5,0 L 464,515.5 c -2.4,2.4 -2.4,6.2 0,8.5 6.2,6.1 15.8,15.5 15.8,15.5 l 27.3,27.3 c 3.7,3.7 1.3,10.1 -4,10.3 -16.5,0.7 -32.9,-3.8 -46.8,-13.3 -0.3,-0.2 -0.6,-0.5 -0.9,-0.8 l -19.1,-19 c -0.3,-0.3 -0.5,-0.6 -0.8,-0.9 -10.4,-15.4 -15,-34 -12.7,-52.9 l 0.5,-3.9 c 0.2,-1.8 -0.4,-3.7 -1.7,-5 l -32.4,-32.4 c -2.4,-2.4 -2.4,-6.2 0,-8.5 l 51.2,-51.2 c 2.4,-2.4 6.2,-2.4 8.5,0 l 32.4,32.4 c 1.3,1.3 3.2,1.9 5,1.7 l 3.9,-0.5 c 23.8,-2.9 47.3,5.1 64.2,22.1 15.8,15.8 23.6,36.9 22.7,58.1 z"
   id="path41" />
		</g>
	</g>
</g>
</svg>
