<svg width="29" height="43" viewBox="0 0 29 43" fill="none" xmlns="http://www.w3.org/2000/svg">
<path d="M6.70672 11.5228C6.88748 11.421 7.09364 11.3769 7.2986 11.3961C7.50355 11.4153 7.69836 11.497 7.85848 11.6308C8.01859 11.7646 8.1364 11.9445 8.19774 12.1478C8.25907 12.3511 8.26117 12.5688 8.20307 12.7731C7.79205 14.2097 7.85522 15.7471 8.38303 17.1421C8.91084 18.5372 9.87288 19.7103 11.1171 20.476C12.3613 21.2418 13.8172 21.5566 15.2536 21.3704C16.6899 21.1842 18.0248 20.5076 19.0481 19.4479C20.0714 18.3881 20.7247 17.0057 20.9037 15.519C21.0827 14.0323 20.7779 12.5262 20.0372 11.239C19.2965 9.95174 18.1622 8.9568 16.8139 8.41141C15.4656 7.86602 13.9799 7.8013 12.5921 8.22757C12.3269 8.30891 12.0415 8.27794 11.7983 8.14152C11.5551 8.00509 11.3746 7.77436 11.2957 7.49998C11.2564 7.36423 11.2431 7.22173 11.2571 7.08075C11.271 6.93976 11.3119 6.80309 11.3771 6.67841C11.4422 6.55373 11.53 6.44351 11.6363 6.35419C11.7427 6.26487 11.865 6.19825 11.9963 6.15794C13.8279 5.59463 15.7891 5.6793 17.5691 6.39851C19.349 7.11773 20.8465 8.43035 21.8248 10.1291C22.8031 11.8278 23.2061 13.8155 22.9706 15.778C22.7351 17.7405 21.8745 19.5659 20.5244 20.9653C19.1743 22.3647 17.412 23.2585 15.5162 23.5052C13.6203 23.7519 11.6988 23.3376 10.056 22.3277C8.41317 21.3178 7.14243 19.7699 6.44478 17.9289C5.74713 16.0878 5.66269 14.0586 6.20416 12.1621C6.24248 12.0262 6.30639 11.8996 6.39279 11.7898C6.47919 11.68 6.58586 11.5892 6.70672 11.5228Z" fill="white"/>
<path d="M9.08954 10.2554C8.88432 10.2545 8.6841 10.1909 8.51367 10.0726C8.34323 9.95431 8.21035 9.78653 8.13175 9.59037C8.05315 9.39421 8.03223 9.17841 8.07176 8.97003C8.1113 8.76166 8.20926 8.57003 8.3537 8.41918L8.42235 8.48987L8.37103 8.40228C8.46753 8.3022 8.5821 8.22267 8.70829 8.16849C8.83449 8.11432 8.96958 8.08643 9.10621 8.08643C9.24283 8.08643 9.37793 8.11432 9.50412 8.16849C9.63032 8.22267 9.74489 8.3022 9.84138 8.40228C9.93869 8.50414 10.0161 8.62486 10.068 8.75762C10.1199 8.89039 10.1454 9.03251 10.144 9.17572C10.1425 9.31894 10.114 9.46049 10.0593 9.59209C10.0047 9.7237 9.92542 9.84272 9.82605 9.94243C9.72925 10.0422 9.6145 10.1212 9.48812 10.1748C9.36175 10.2285 9.22616 10.256 9.08954 10.2554Z" fill="white"/>
<path d="M22.4957 34.2962C22.4126 34.2959 22.3304 34.2853 22.2497 34.265C21.9845 34.1988 21.7549 34.0277 21.6105 33.7882C21.4661 33.5486 21.4181 33.2599 21.4772 32.9843C21.5363 32.7087 21.6977 32.4681 21.9264 32.3143C22.1552 32.1605 22.4336 32.106 22.7009 32.1622C22.7228 32.1672 22.7478 32.1727 22.7689 32.1791C23.0144 32.2458 23.2281 32.4029 23.3695 32.621C23.5108 32.8391 23.5703 33.1031 23.5368 33.3634C23.5032 33.6237 23.3785 33.8625 23.1868 34.0346C22.9952 34.2068 22.7494 34.3005 22.4957 34.2983V34.2962Z" fill="white"/>
<path d="M9.56643 31.522L3.57904 23.5793C1.91691 21.4549 0.869993 18.8868 0.559687 16.1721C0.24938 13.4575 0.688801 10.7076 1.82608 8.24043C2.96336 5.77328 4.7524 3.68994 6.98631 2.23162C9.22022 0.773289 11.8076 -0.00051489 14.4487 2.57045e-07C17.0899 0.000515404 19.6764 0.775349 21.9098 2.23455C24.1432 3.69375 25.9316 5.77767 27.068 8.24525C28.2044 10.7128 28.6424 13.4632 28.3311 16.1777C28.0198 18.8922 26.972 21.4598 25.3091 23.5836C25.2933 23.6106 25.2754 23.6363 25.2557 23.6605L15.2665 36.9069C15.1692 37.0354 15.0452 37.1393 14.9033 37.2107C14.7614 37.2822 14.6052 37.3192 14.4474 37.3192C14.2896 37.3192 14.134 37.2822 13.9921 37.2107C13.8503 37.1393 13.7263 37.0354 13.6289 36.9069L11.0761 33.5162C5.28901 34.0488 2.08803 35.8346 2.08803 36.8998C2.08803 37.3236 2.76317 38.268 5.29601 39.1411C11.2741 40.8702 17.5953 40.8702 23.5734 39.1411C26.107 38.268 26.7814 37.3215 26.7814 36.8998C26.7814 36.4371 26.1179 35.8133 25.0511 35.2751C24.8032 35.1493 24.614 34.9268 24.5246 34.6565C24.4352 34.3861 24.4531 34.0902 24.5746 33.8336C24.696 33.5771 24.9112 33.3809 25.1724 33.2883C25.4336 33.1958 25.719 33.2145 25.9669 33.3402C28.3605 34.5524 28.8623 35.9461 28.8623 36.9019C28.8623 40.6394 21.6033 42.5947 14.4327 42.5947C7.26216 42.5947 -0.00019455 40.6394 -0.00019455 36.9019C0.00253677 33.8404 4.83246 32.1507 9.56643 31.522ZM5.21602 22.2477C5.22968 22.2647 5.24179 22.2824 5.25135 22.2965L14.4461 34.4938L23.5414 22.435C23.5668 22.392 23.5951 22.3509 23.6261 22.312C25.0604 20.5129 25.972 18.3293 26.2542 16.0152C26.5364 13.7011 26.1778 11.3515 25.2204 9.24C24.263 7.12847 22.7455 5.34177 20.8454 4.08762C18.9452 2.83347 16.7404 2.16343 14.4867 2.15556C12.2331 2.14769 10.0237 2.80227 8.11541 4.04312C6.20712 5.28398 4.67819 7.06019 3.70701 9.16498C2.73584 11.2698 2.36215 13.6166 2.62924 15.9326C2.89634 18.2486 3.79348 20.4386 5.21602 22.2477Z" fill="white"/>
</svg>
