<svg width="74" height="69" viewBox="0 0 74 69" fill="none" xmlns="http://www.w3.org/2000/svg">
<path d="M28.9936 12.5997C28.9657 12.3587 28.8613 12.1331 28.6957 11.9557C28.53 11.7784 28.3119 11.6588 28.0732 11.6144L25.1864 11.0829C25.0182 10.5576 24.8042 10.0481 24.5468 9.56024L26.2144 7.17165C26.359 6.97634 26.437 6.73981 26.437 6.49687C26.437 6.25393 26.359 6.0174 26.2144 5.82209C25.5491 4.97924 24.7868 4.21761 23.9432 3.55295C23.7477 3.40846 23.511 3.33048 23.2678 3.33048C23.0246 3.33048 22.7879 3.40846 22.5924 3.55295L20.112 5.15329C19.6239 4.89568 19.1139 4.68186 18.588 4.51434L18.056 1.63014C18.0116 1.39166 17.8919 1.17367 17.7144 1.00817C17.5369 0.842665 17.311 0.738352 17.0698 0.710526C15.9983 0.575007 14.9139 0.575007 13.8424 0.710526C13.6012 0.738352 13.3753 0.842665 13.1978 1.00817C13.0203 1.17367 12.9006 1.39166 12.8562 1.63014L12.3243 4.51434C11.7983 4.68183 11.2883 4.89565 10.8002 5.15329L8.40945 3.48129C8.21397 3.33681 7.97722 3.25882 7.73406 3.25882C7.4909 3.25882 7.25416 3.33681 7.05868 3.48129C6.21514 4.14604 5.45284 4.90765 4.7875 5.75044C4.64288 5.94575 4.56483 6.18228 4.56483 6.42522C4.56483 6.66816 4.64288 6.90469 4.7875 7.1L6.38928 9.57815C6.13118 10.0657 5.91715 10.5753 5.74976 11.1009L2.86296 11.6323C2.62292 11.672 2.40183 11.7872 2.23196 11.9612C2.06208 12.1353 1.9523 12.359 1.91862 12.5997C1.78234 13.6703 1.78234 14.7537 1.91862 15.8243C1.94647 16.0653 2.05087 16.291 2.21653 16.4683C2.38218 16.6456 2.60036 16.7652 2.83905 16.8096L5.72584 17.341C5.89366 17.8665 6.10767 18.376 6.36537 18.8638L4.69187 21.2523C4.54725 21.4477 4.4692 21.6842 4.4692 21.9271C4.4692 22.1701 4.54725 22.4066 4.69187 22.6019C5.35692 23.4449 6.11925 24.2066 6.96305 24.871C7.15853 25.0155 7.39527 25.0935 7.63843 25.0935C7.88159 25.0935 8.11833 25.0155 8.31382 24.871L10.7942 23.2707C11.2813 23.5401 11.7913 23.7659 12.3183 23.9455L12.8502 26.8297C12.8946 27.0682 13.0143 27.2861 13.1918 27.4517C13.3693 27.6172 13.5952 27.7215 13.8364 27.7493C14.9079 27.8854 15.9923 27.8854 17.0639 27.7493C17.305 27.7215 17.531 27.6172 17.7084 27.4517C17.8859 27.2861 18.0057 27.0682 18.0501 26.8297L18.582 23.9455C19.1077 23.7774 19.6177 23.5636 20.1061 23.3065L22.4968 24.9785C22.6923 25.123 22.929 25.201 23.1722 25.201C23.4153 25.201 23.6521 25.123 23.8476 24.9785C24.6908 24.3134 25.453 23.5518 26.1188 22.7094C26.2634 22.5141 26.3414 22.2775 26.3414 22.0346C26.3414 21.7917 26.2634 21.5552 26.1188 21.3598L24.517 18.8877C24.7741 18.3996 24.9881 17.8901 25.1565 17.3649L28.0433 16.8335C28.282 16.7891 28.5001 16.6695 28.6658 16.4922C28.8314 16.3148 28.9359 16.0891 28.9637 15.8482C29.0993 14.7776 29.0993 13.6942 28.9637 12.6236L28.9936 12.5997ZM26.818 14.2538V14.7793L24.0926 15.2809C23.8765 15.3212 23.6767 15.4234 23.5176 15.575C23.3584 15.7266 23.2467 15.921 23.1961 16.1348C23.0052 16.9369 22.6863 17.7031 22.2518 18.404C22.1321 18.5879 22.0685 18.8026 22.0685 19.022C22.0685 19.2414 22.1321 19.4561 22.2518 19.6401L23.8177 21.9092C23.5884 22.1731 23.3407 22.4206 23.0765 22.6497L20.8054 21.0851C20.6212 20.9656 20.4063 20.902 20.1868 20.902C19.9672 20.902 19.7523 20.9656 19.5682 21.0851C18.8665 21.519 18.0997 21.8375 17.297 22.0286C17.083 22.0793 16.8883 22.1908 16.7366 22.3498C16.5849 22.5088 16.4827 22.7084 16.4423 22.9244L15.9522 25.5936H14.9062L14.4042 22.8706C14.3643 22.6554 14.2629 22.4564 14.1123 22.2975C13.9617 22.1385 13.7683 22.0265 13.5555 21.9749C12.7526 21.7844 11.9857 21.4658 11.2843 21.0314C11.1001 20.9119 10.8853 20.8483 10.6657 20.8483C10.4461 20.8483 10.2312 20.9119 10.0471 21.0314L7.77591 22.5959C7.51206 22.3686 7.26441 22.1232 7.03477 21.8614L8.60069 19.5923C8.72031 19.4083 8.78398 19.1936 8.78398 18.9742C8.78398 18.7548 8.72031 18.5402 8.60069 18.3562C8.16622 17.6553 7.84738 16.8891 7.65636 16.087C7.60571 15.8733 7.49403 15.6788 7.33489 15.5272C7.17574 15.3756 6.97598 15.2735 6.75984 15.2331L4.06429 14.7673V13.7223L6.80168 13.2207C7.01705 13.1808 7.21627 13.0796 7.37534 12.9291C7.53441 12.7787 7.64654 12.5855 7.6982 12.3728C7.88912 11.5707 8.20797 10.8045 8.64253 10.1036C8.74834 9.92094 8.80104 9.71237 8.79471 9.50139C8.78837 9.29041 8.72325 9.08538 8.60667 8.90935L7.04075 6.64018C7.26857 6.37686 7.5142 6.12947 7.77591 5.89973L10.059 7.45829C10.2432 7.5778 10.4581 7.6414 10.6776 7.6414C10.8972 7.6414 11.1121 7.5778 11.2962 7.45829C11.9977 7.02393 12.7646 6.70533 13.5674 6.51479C13.7814 6.46418 13.9761 6.3526 14.1278 6.1936C14.2795 6.0346 14.3817 5.83501 14.4221 5.61907L14.9003 2.914H15.9462L16.4483 5.63698C16.4886 5.85292 16.5909 6.05251 16.7426 6.21151C16.8943 6.37051 17.089 6.48209 17.303 6.5327C18.1057 6.72354 18.8726 7.04212 19.5741 7.4762C19.7583 7.59571 19.9732 7.65931 20.1927 7.65931C20.4123 7.65931 20.6272 7.59571 20.8113 7.4762L23.0825 5.91166C23.3464 6.14106 23.594 6.38848 23.8236 6.65214L22.2458 8.90935C22.1262 9.09333 22.0625 9.30801 22.0625 9.5274C22.0625 9.74678 22.1262 9.96147 22.2458 10.1454C22.6798 10.8466 22.9986 11.6127 23.1901 12.4146C23.2407 12.6284 23.3524 12.8228 23.5116 12.9744C23.6707 13.126 23.8705 13.2282 24.0866 13.2685L26.812 13.7701L26.818 14.2538Z" fill="#EF9C0F"/>
<path d="M73.8853 34.9509C74.0388 33.7475 74.0388 32.5296 73.8853 31.3262C73.8596 31.0956 73.7604 30.8793 73.6021 30.7094C73.4439 30.5394 73.2351 30.4249 73.0067 30.3827L69.7194 29.7856C69.682 29.7786 69.6472 29.7616 69.6188 29.7364C69.5904 29.7111 69.5694 29.6786 69.5581 29.6423C69.3733 29.0574 69.1373 28.4899 68.8528 27.9464C68.8333 27.9139 68.823 27.8767 68.823 27.8389C68.823 27.801 68.8333 27.7639 68.8528 27.7314L70.7534 24.9905C70.8936 24.8035 70.9693 24.5762 70.9693 24.3426C70.9693 24.109 70.8936 23.8817 70.7534 23.6947C70.0055 22.7479 69.1489 21.8922 68.2013 21.1449C68.0156 21.0067 67.7903 20.9321 67.5588 20.9321C67.3273 20.9321 67.102 21.0067 66.9163 21.1449L64.0833 22.9781C64.0513 22.9959 64.0153 23.0052 63.9787 23.0052C63.9421 23.0052 63.9061 22.9959 63.8741 22.9781C63.3299 22.6944 62.7619 22.4586 62.1767 22.2735C62.1404 22.2622 62.1078 22.2412 62.0825 22.2128C62.0573 22.1844 62.0402 22.1496 62.0333 22.1123L61.4356 18.828C61.3897 18.6037 61.2733 18.4 61.1035 18.2464C60.9336 18.0928 60.7191 17.9974 60.4912 17.974C59.2868 17.8199 58.0677 17.8199 56.8633 17.974C56.6321 17.9987 56.4151 18.0976 56.2449 18.2559C56.0746 18.4141 55.9603 18.6232 55.919 18.8518L55.3213 22.1361C55.3137 22.1733 55.2965 22.2077 55.2713 22.236C55.2461 22.2643 55.2139 22.2855 55.1778 22.2974C54.5923 22.4818 54.0243 22.7176 53.4804 23.002C53.447 23.022 53.4088 23.0326 53.3698 23.0326C53.3309 23.0326 53.2927 23.022 53.2593 23.002L50.5159 21.1031C50.3288 20.963 50.1012 20.8874 49.8674 20.8874C49.6336 20.8874 49.4061 20.963 49.219 21.1031C48.2733 21.8506 47.4187 22.7064 46.6728 23.6529C46.5346 23.8384 46.4599 24.0635 46.4599 24.2948C46.4599 24.5261 46.5346 24.7513 46.6728 24.9368L48.5077 27.7672C48.5261 27.799 48.5357 27.8351 48.5357 27.8717C48.5357 27.9084 48.5261 27.9445 48.5077 27.9762C48.2232 28.5197 47.9872 29.0872 47.8025 29.6721C47.7911 29.7084 47.7701 29.7409 47.7417 29.7662C47.7133 29.7915 47.6785 29.8085 47.6411 29.8154L44.3538 30.4126C44.1254 30.4548 43.9166 30.5693 43.7584 30.7392C43.6002 30.9091 43.5009 31.1254 43.4752 31.3561C43.3221 32.5595 43.3221 33.7774 43.4752 34.9808C43.5009 35.2114 43.6002 35.4277 43.7584 35.5976C43.9166 35.7676 44.1254 35.8821 44.3538 35.9243L47.6411 36.5214C47.6785 36.5284 47.7133 36.5454 47.7417 36.5707C47.7701 36.5959 47.7911 36.6284 47.8025 36.6647C47.9871 37.2516 48.2231 37.8211 48.5077 38.3666C48.5272 38.3991 48.5375 38.4362 48.5375 38.4741C48.5375 38.5119 48.5272 38.5491 48.5077 38.5816L46.6071 41.3225C46.4669 41.5094 46.3912 41.7368 46.3912 41.9704C46.3912 42.204 46.4669 42.4313 46.6071 42.6183C47.3554 43.5629 48.212 44.4166 49.1592 45.1621C49.3449 45.3002 49.5702 45.3749 49.8017 45.3749C50.0332 45.3749 50.2585 45.3002 50.4442 45.1621L53.2772 43.3289C53.309 43.3105 53.3451 43.3009 53.3818 43.3009C53.4185 43.3009 53.4546 43.3105 53.4864 43.3289C54.0305 43.6128 54.5985 43.8486 55.1838 44.0335C55.2201 44.0448 55.2527 44.0658 55.278 44.0942C55.3032 44.1226 55.3203 44.1574 55.3273 44.1947L55.9249 47.479C55.9663 47.7077 56.0806 47.9168 56.2508 48.075C56.4211 48.2333 56.6381 48.3321 56.8693 48.3568C58.0737 48.5098 59.2927 48.5098 60.4972 48.3568C60.7281 48.3312 60.9446 48.232 61.1146 48.0739C61.2847 47.9158 61.3993 47.7073 61.4415 47.479L62.0392 44.1947C62.0462 44.1574 62.0633 44.1226 62.0885 44.0942C62.1138 44.0658 62.1464 44.0448 62.1827 44.0335C62.7703 43.8495 63.3403 43.6137 63.8861 43.3289C63.9192 43.3082 63.9576 43.2973 63.9966 43.2973C64.0357 43.2973 64.074 43.3082 64.1072 43.3289L66.8506 45.2278C67.0377 45.3678 67.2652 45.4435 67.4991 45.4435C67.7329 45.4435 67.9604 45.3678 68.1475 45.2278C69.0932 44.4803 69.9477 43.6245 70.6937 42.678C70.8319 42.4925 70.9066 42.2674 70.9066 42.0361C70.9066 41.8048 70.8319 41.5796 70.6937 41.3941L68.8588 38.5637C68.8404 38.5319 68.8308 38.4958 68.8308 38.4591C68.8308 38.4225 68.8404 38.3864 68.8588 38.3546C69.1435 37.8092 69.3795 37.2397 69.564 36.6528C69.5759 36.6168 69.5971 36.5846 69.6254 36.5594C69.6538 36.5343 69.6883 36.517 69.7254 36.5095L73.0127 35.9123C73.2411 35.8701 73.4499 35.7556 73.6081 35.5857C73.7663 35.4158 73.8656 35.1995 73.8913 34.9688L73.8853 34.9509ZM71.9129 33.1774C71.9096 33.2879 71.8956 33.3979 71.8711 33.5058C71.8504 33.594 71.8384 33.684 71.8352 33.7745C71.836 33.8243 71.8189 33.8727 71.7872 33.911C71.7554 33.9493 71.711 33.975 71.6619 33.9835L68.554 34.5807C68.3484 34.6196 68.1585 34.7169 68.0069 34.861C67.8553 35.005 67.7485 35.1897 67.6993 35.3928C67.4771 36.3278 67.1058 37.221 66.5995 38.0382C66.4828 38.2155 66.4206 38.4231 66.4206 38.6353C66.4206 38.8475 66.4828 39.0551 66.5995 39.2325L68.3926 41.8121C68.4212 41.8488 68.4367 41.894 68.4367 41.9405C68.4367 41.987 68.4212 42.0322 68.3926 42.0689C68.126 42.3751 67.8384 42.6624 67.5319 42.9288C67.4952 42.9574 67.45 42.9729 67.4034 42.9729C67.3569 42.9729 67.3117 42.9574 67.2749 42.9288L64.687 41.1373C64.5095 41.0207 64.3017 40.9586 64.0893 40.9586C63.8769 40.9586 63.6691 41.0207 63.4916 41.1373C62.6715 41.643 61.7756 42.0139 60.8379 42.2361C60.6371 42.2806 60.453 42.381 60.307 42.5258C60.161 42.6707 60.0591 42.8539 60.0131 43.0542L59.4811 46.1175C59.4726 46.1666 59.4469 46.2109 59.4085 46.2427C59.3702 46.2744 59.3217 46.2915 59.272 46.2907H58.0766C58.0268 46.2915 57.9784 46.2744 57.94 46.2427C57.9017 46.2109 57.8759 46.1666 57.8674 46.1175L57.2697 43.0124C57.2308 42.807 57.1334 42.6173 56.9892 42.4658C56.845 42.3143 56.6602 42.2076 56.4569 42.1585C55.521 41.9365 54.627 41.5655 53.8091 41.0597C53.6319 40.9424 53.4241 40.8798 53.2115 40.8798C52.9989 40.8798 52.791 40.9424 52.6138 41.0597L50.0318 42.8512C49.9951 42.8797 49.9498 42.8952 49.9033 42.8952C49.8567 42.8952 49.8115 42.8797 49.7748 42.8512C49.4684 42.5847 49.1809 42.2973 48.9141 41.9913C48.8855 41.9546 48.87 41.9094 48.87 41.8629C48.87 41.8164 48.8855 41.7712 48.9141 41.7345L50.7072 39.1488C50.8239 38.9715 50.8861 38.7639 50.8861 38.5517C50.8861 38.3395 50.8239 38.1319 50.7072 37.9545C50.1983 37.136 49.8249 36.2407 49.6015 35.3032C49.5529 35.0997 49.4464 34.9147 49.2946 34.7705C49.1429 34.6264 48.9526 34.5293 48.7468 34.4911L45.6807 33.9596C45.6316 33.9511 45.5872 33.9254 45.5554 33.8871C45.5237 33.8488 45.5066 33.8004 45.5073 33.7507V32.5564C45.5066 32.5066 45.5237 32.4582 45.5554 32.4199C45.5872 32.3816 45.6316 32.3559 45.6807 32.3474L48.7886 31.7502C48.9945 31.712 49.1848 31.6149 49.3365 31.4707C49.4882 31.3266 49.5948 31.1416 49.6433 30.9381C49.8655 30.0031 50.2368 29.1099 50.743 28.2927C50.8598 28.1154 50.922 27.9078 50.922 27.6956C50.922 27.4833 50.8598 27.2758 50.743 27.0984L48.95 24.5188C48.9214 24.4821 48.9059 24.4369 48.9059 24.3904C48.9059 24.3439 48.9214 24.2987 48.95 24.262C49.2169 23.9561 49.5045 23.6688 49.8107 23.4021C49.8474 23.3735 49.8926 23.358 49.9392 23.358C49.9857 23.358 50.0309 23.3735 50.0677 23.4021L52.6556 25.1935C52.8331 25.3101 53.0409 25.3723 53.2533 25.3723C53.4657 25.3723 53.6735 25.3101 53.851 25.1935C54.6703 24.6851 55.5664 24.312 56.5047 24.0888C56.7084 24.0403 56.8936 23.9338 57.0379 23.7823C57.1821 23.6307 57.2793 23.4405 57.3175 23.2349L57.9152 20.1297C57.9236 20.0817 57.9485 20.0382 57.9856 20.0065C58.0227 19.9749 58.0697 19.9572 58.1184 19.9566H59.3138C59.3636 19.9558 59.412 19.9729 59.4504 20.0046C59.4887 20.0363 59.5145 20.0807 59.523 20.1297L60.1207 23.2349C60.1596 23.4403 60.257 23.63 60.4012 23.7815C60.5454 23.9329 60.7302 24.0396 60.9335 24.0888C61.8715 24.3102 62.7675 24.6812 63.5872 25.1876C63.7647 25.3042 63.9725 25.3663 64.1849 25.3663C64.3973 25.3663 64.6051 25.3042 64.7826 25.1876L67.3646 23.3961C67.4013 23.3675 67.4465 23.352 67.4931 23.352C67.5396 23.352 67.5848 23.3675 67.6216 23.3961C67.9285 23.662 68.2161 23.9493 68.4822 24.256C68.5108 24.2927 68.5264 24.3379 68.5264 24.3844C68.5264 24.4309 68.5108 24.4761 68.4822 24.5128L66.6892 27.0984C66.5717 27.2755 66.5091 27.4832 66.5091 27.6956C66.5091 27.908 66.5717 28.1157 66.6892 28.2927C67.1981 29.1113 67.5715 30.0066 67.7949 30.9441C67.8392 31.1458 67.9404 31.3306 68.0866 31.4767C68.2328 31.6227 68.4178 31.7239 68.6197 31.7681L71.7277 32.3653C71.7767 32.3738 71.8211 32.3995 71.8529 32.4378C71.8847 32.4761 71.9017 32.5245 71.901 32.5743L71.9129 33.1774Z" fill="#EF9C0F"/>
<path d="M27.9055 52.925C27.8776 52.6841 27.7732 52.4584 27.6076 52.281C27.4419 52.1037 27.2237 51.9841 26.9851 51.9397L24.0983 51.4083C23.9322 50.8831 23.7202 50.3736 23.4647 49.8856L25.1382 47.497C25.2828 47.3017 25.3609 47.0651 25.3609 46.8222C25.3609 46.5792 25.2828 46.3427 25.1382 46.1474C24.4725 45.305 23.7102 44.5434 22.867 43.8783C22.6716 43.7338 22.4348 43.6558 22.1917 43.6558C21.9485 43.6558 21.7117 43.7338 21.5163 43.8783L19.012 45.4428C18.5238 45.1869 18.0138 44.975 17.4879 44.8098L16.9559 41.9256C16.9116 41.6871 16.7918 41.4691 16.6143 41.3036C16.4369 41.1381 16.211 41.0338 15.9698 41.006C14.8983 40.8693 13.8138 40.8693 12.7423 41.006C12.5011 41.0338 12.2752 41.1381 12.0977 41.3036C11.9202 41.4691 11.8005 41.6871 11.7561 41.9256L11.2421 44.8456C10.7163 45.0111 10.2063 45.2229 9.71803 45.4786L7.3273 43.8126C7.13182 43.6681 6.89508 43.5901 6.65192 43.5901C6.40876 43.5901 6.17202 43.6681 5.97654 43.8126C5.133 44.4773 4.3707 45.239 3.70535 46.0817C3.56074 46.277 3.48268 46.5136 3.48268 46.7565C3.48268 46.9995 3.56074 47.236 3.70535 47.4313L5.30714 49.9094C5.05132 50.3973 4.83931 50.9069 4.6736 51.4322L1.78678 51.9636C1.5481 52.008 1.32993 52.1276 1.16428 52.3049C0.998623 52.4822 0.894216 52.708 0.866365 52.9489C0.729441 54.0194 0.729441 55.103 0.866365 56.1735C0.894216 56.4145 0.998623 56.6402 1.16428 56.8175C1.32993 56.9948 1.5481 57.1144 1.78678 57.1588L4.6736 57.6962C4.8281 58.2058 5.02606 58.7013 5.2653 59.1771L3.59179 61.5657C3.44718 61.761 3.36912 61.9976 3.36912 62.2405C3.36912 62.4834 3.44718 62.72 3.59179 62.9153C4.25751 63.7577 5.01977 64.5193 5.86298 65.1844C6.05846 65.3289 6.2952 65.4069 6.53836 65.4069C6.78152 65.4069 7.01826 65.3289 7.21374 65.1844L9.68814 63.5841C10.1766 63.8393 10.6866 64.0511 11.2122 64.2171L11.7442 67.1013C11.7886 67.3397 11.9083 67.5577 12.0858 67.7232C12.2633 67.8887 12.4892 67.993 12.7303 68.0209C13.8018 68.157 14.8863 68.157 15.9578 68.0209C16.199 67.993 16.4249 67.8887 16.6024 67.7232C16.7799 67.5577 16.8996 67.3397 16.944 67.1013L17.4759 64.2171C18.0016 64.0513 18.5117 63.8395 19 63.5841L21.3908 65.2501C21.5862 65.3946 21.823 65.4726 22.0661 65.4726C22.3093 65.4726 22.546 65.3946 22.7415 65.2501C23.5852 64.5855 24.3475 63.8239 25.0127 62.981C25.1573 62.7857 25.2354 62.5491 25.2354 62.3062C25.2354 62.0632 25.1573 61.8267 25.0127 61.6314L23.4587 59.1771C23.7139 58.689 23.9259 58.1795 24.0923 57.6544L26.9791 57.117C27.2178 57.0726 27.4359 56.953 27.6016 56.7757C27.7672 56.5984 27.8717 56.3727 27.8995 56.1317C28.0358 55.0611 28.0358 53.9777 27.8995 52.9071L27.9055 52.925ZM25.7957 54.5194V55.0449L23.0702 55.5465C22.8541 55.5868 22.6543 55.689 22.4952 55.8406C22.3361 55.9922 22.2244 56.1866 22.1737 56.4004C21.9831 57.2026 21.6642 57.9688 21.2294 58.6696C21.1098 58.8535 21.0461 59.0682 21.0461 59.2876C21.0461 59.507 21.1098 59.7217 21.2294 59.9057L22.7953 62.1748C22.5678 62.4384 22.3221 62.6858 22.0602 62.9153L19.789 61.3508C19.6048 61.2313 19.39 61.1676 19.1704 61.1676C18.9508 61.1676 18.7359 61.2313 18.5518 61.3508C17.85 61.7845 17.0832 62.103 16.2806 62.2942C16.0677 62.3459 15.8743 62.4579 15.7237 62.6168C15.5732 62.7757 15.4718 62.9748 15.4319 63.19L14.8939 65.8831H13.848L13.3459 63.1601C13.3056 62.9442 13.2033 62.7446 13.0516 62.5856C12.8999 62.4266 12.7052 62.315 12.4913 62.2644C11.6883 62.0742 10.9213 61.7556 10.2201 61.3209C10.0359 61.2014 9.82106 61.1378 9.60148 61.1378C9.3819 61.1378 9.16702 61.2014 8.98288 61.3209L6.71169 62.8854C6.4478 62.656 6.20016 62.4086 5.97055 62.145L7.53648 59.8758C7.65609 59.6918 7.71977 59.4771 7.71977 59.2578C7.71977 59.0384 7.65609 58.8237 7.53648 58.6397C7.10237 57.9386 6.78356 57.1725 6.59215 56.3705C6.5415 56.1568 6.42982 55.9623 6.27067 55.8107C6.11153 55.6591 5.91176 55.557 5.69563 55.5166L3.00008 55.0509V54.0059L5.7255 53.5043C5.94164 53.4639 6.14142 53.3617 6.30057 53.2102C6.45971 53.0586 6.57137 52.8641 6.62203 52.6503C6.81304 51.8483 7.1319 51.0821 7.56637 50.3812C7.68527 50.1969 7.7485 49.9823 7.7485 49.7631C7.7485 49.5439 7.68527 49.3293 7.56637 49.1451L6.00045 46.8759C6.22827 46.6126 6.47389 46.3652 6.73559 46.1355L9.00679 47.7C9.19093 47.8195 9.40581 47.8831 9.62539 47.8831C9.84497 47.8831 10.0598 47.8195 10.244 47.7C10.9456 47.2661 11.7125 46.9476 12.5152 46.7565C12.7291 46.7059 12.9238 46.5943 13.0755 46.4353C13.2272 46.2763 13.3295 46.0767 13.3699 45.8608L13.8719 43.1378H14.9179L15.4199 45.8608C15.4598 46.076 15.5612 46.275 15.7118 46.4339C15.8624 46.5929 16.0558 46.7049 16.2686 46.7565C17.0713 46.9478 17.8381 47.2663 18.5398 47.7C18.7239 47.8195 18.9388 47.8831 19.1584 47.8831C19.378 47.8831 19.5929 47.8195 19.777 47.7L22.0482 46.1355C22.3102 46.3649 22.5558 46.6123 22.7833 46.8759L21.2174 49.1451C21.0978 49.3291 21.0342 49.5437 21.0342 49.7631C21.0342 49.9825 21.0978 50.1972 21.2174 50.3812C21.6522 51.082 21.971 51.8482 22.1618 52.6503C22.2124 52.8641 22.3241 53.0586 22.4832 53.2102C22.6424 53.3617 22.8421 53.4639 23.0583 53.5043L25.7837 54.0059L25.7957 54.5194Z" fill="#EF9C0F"/>
<path d="M15.4615 17.6157C14.7879 17.6157 14.1295 17.4162 13.5694 17.0425C13.0093 16.6687 12.5726 16.1375 12.3146 15.5159C12.0566 14.8943 11.9887 14.2102 12.1197 13.5501C12.2507 12.89 12.5745 12.2835 13.0504 11.8073C13.5262 11.331 14.1327 11.0064 14.7932 10.8744C15.4536 10.7424 16.1384 10.8089 16.761 11.0656C17.3837 11.3223 17.9161 11.7576 18.2912 12.3166C18.6663 12.8756 18.8671 13.5331 18.8682 14.206C18.8682 15.1087 18.5093 15.9745 17.8704 16.6128C17.2315 17.2511 16.365 17.6097 15.4615 17.6097" fill="#EF9C0F"/>
<path d="M58.6799 37.0171C57.9115 37.0171 57.1604 36.7894 56.5215 36.3629C55.8826 35.9364 55.3847 35.3302 55.0906 34.621C54.7966 33.9117 54.7197 33.1313 54.8696 32.3784C55.0195 31.6254 55.3895 30.9338 55.9328 30.391C56.4761 29.8482 57.1683 29.4785 57.9219 29.3287C58.6755 29.179 59.4567 29.2558 60.1666 29.5496C60.8764 29.8434 61.4832 30.3409 61.9101 30.9792C62.337 31.6175 62.5648 32.3679 62.5648 33.1356C62.5648 34.165 62.1555 35.1523 61.4269 35.8802C60.6984 36.6081 59.7102 37.0171 58.6799 37.0171Z" fill="#EF9C0F"/>
<path d="M14.3687 57.947C13.6949 57.947 13.0362 57.7474 12.476 57.3734C11.9158 56.9993 11.4791 56.4678 11.2212 55.8458C10.9634 55.2239 10.8959 54.5395 11.0274 53.8792C11.1588 53.219 11.4833 52.6125 11.9597 52.1365C12.4362 51.6604 13.0432 51.3363 13.7041 51.2049C14.3649 51.0736 15.0499 51.141 15.6724 51.3986C16.2949 51.6562 16.827 52.0925 17.2013 52.6522C17.5757 53.212 17.7755 53.8701 17.7755 54.5433C17.7755 55.446 17.4165 56.3117 16.7776 56.9501C16.1388 57.5884 15.2722 57.947 14.3687 57.947Z" fill="#EF9C0F"/>
<path d="M30.9661 8.69434C31.1535 8.69552 31.3364 8.75205 31.4918 8.85683C31.6471 8.96161 31.768 9.10996 31.8392 9.2832C31.9104 9.45645 31.9287 9.64685 31.8918 9.83047C31.855 10.0141 31.7646 10.1827 31.632 10.3151C31.4995 10.4476 31.3307 10.5379 31.1469 10.5747C30.9631 10.6115 30.7726 10.5932 30.5992 10.5221C30.4258 10.451 30.2773 10.3302 30.1724 10.175C30.0675 10.0198 30.0109 9.83704 30.0098 9.64976C30.0098 9.39637 30.1105 9.15335 30.2899 8.97417C30.4692 8.795 30.7124 8.69434 30.9661 8.69434Z" fill="#5B3F8E"/>
<path d="M34.7913 10.3544C34.9804 10.3544 35.1653 10.4104 35.3225 10.5154C35.4798 10.6204 35.6024 10.7696 35.6747 10.9442C35.7471 11.1188 35.7661 11.3109 35.7292 11.4962C35.6923 11.6815 35.6012 11.8518 35.4675 11.9854C35.3337 12.119 35.1633 12.21 34.9778 12.2469C34.7923 12.2838 34.6 12.2648 34.4253 12.1925C34.2506 12.1202 34.1012 11.9977 33.9961 11.8406C33.891 11.6835 33.835 11.4988 33.835 11.3098C33.835 11.0564 33.9357 10.8134 34.1151 10.6342C34.2944 10.455 34.5376 10.3544 34.7913 10.3544Z" fill="#5B3F8E"/>
<path d="M38.592 12.0026C38.7812 12.0026 38.9661 12.0586 39.1233 12.1636C39.2806 12.2686 39.4031 12.4178 39.4755 12.5924C39.5479 12.767 39.5668 12.9591 39.5299 13.1444C39.493 13.3297 39.402 13.5 39.2682 13.6336C39.1345 13.7672 38.9641 13.8582 38.7786 13.8951C38.5931 13.9319 38.4008 13.913 38.2261 13.8407C38.0513 13.7684 37.902 13.6459 37.7969 13.4888C37.6918 13.3317 37.6357 13.147 37.6357 12.958C37.6357 12.7046 37.7365 12.4616 37.9158 12.2824C38.0952 12.1032 38.3384 12.0026 38.592 12.0026Z" fill="#5B3F8E"/>
<path d="M42.3938 13.6744C42.5829 13.6744 42.7678 13.7305 42.9251 13.8355C43.0823 13.9404 43.2049 14.0897 43.2773 14.2643C43.3497 14.4388 43.3686 14.6309 43.3317 14.8163C43.2948 15.0016 43.2037 15.1718 43.07 15.3055C42.9363 15.4391 42.7659 15.5301 42.5804 15.5669C42.3949 15.6038 42.2026 15.5849 42.0278 15.5126C41.8531 15.4403 41.7037 15.3178 41.5987 15.1607C41.4936 15.0036 41.4375 14.8188 41.4375 14.6299C41.4375 14.5044 41.4622 14.3802 41.5103 14.2643C41.5584 14.1483 41.6288 14.043 41.7176 13.9543C41.8064 13.8656 41.9118 13.7952 42.0278 13.7472C42.1439 13.6992 42.2682 13.6744 42.3938 13.6744Z" fill="#5B3F8E"/>
<path d="M46.1946 15.3346C46.3837 15.3346 46.5686 15.3906 46.7259 15.4956C46.8831 15.6006 47.0057 15.7498 47.0781 15.9244C47.1505 16.099 47.1694 16.2911 47.1325 16.4764C47.0956 16.6618 47.0045 16.832 46.8708 16.9656C46.737 17.0993 46.5666 17.1903 46.3811 17.2271C46.1956 17.264 46.0034 17.2451 45.8286 17.1727C45.6539 17.1004 45.5045 16.978 45.3994 16.8208C45.2944 16.6637 45.2383 16.479 45.2383 16.29C45.2383 16.0366 45.339 15.7936 45.5184 15.6144C45.6977 15.4353 45.941 15.3346 46.1946 15.3346Z" fill="#5B3F8E"/>
<path d="M49.9963 16.9948C50.1838 16.9959 50.3667 17.0525 50.522 17.1573C50.6774 17.262 50.7983 17.4104 50.8694 17.5836C50.9406 17.7569 50.9589 17.9473 50.9221 18.1309C50.8852 18.3145 50.7948 18.4831 50.6623 18.6156C50.5298 18.748 50.361 18.8383 50.1772 18.8751C49.9934 18.9119 49.8028 18.8936 49.6294 18.8225C49.456 18.7514 49.3076 18.6306 49.2027 18.4754C49.0978 18.3202 49.0412 18.1375 49.04 17.9502C49.04 17.6968 49.1408 17.4538 49.3201 17.2746C49.4995 17.0954 49.7427 16.9948 49.9963 16.9948Z" fill="#5B3F8E"/>
<path d="M21.6721 28.3764C21.8596 28.3775 22.0425 28.4341 22.1978 28.5389C22.3532 28.6436 22.4741 28.792 22.5453 28.9652C22.6164 29.1385 22.6348 29.3289 22.5979 29.5125C22.561 29.6961 22.4707 29.8648 22.3381 29.9972C22.2056 30.1296 22.0368 30.2199 21.853 30.2567C21.6692 30.2936 21.4786 30.2752 21.3052 30.2041C21.1318 30.133 20.9834 30.0122 20.8785 29.857C20.7736 29.7018 20.717 29.5191 20.7158 29.3318C20.715 29.2061 20.7392 29.0815 20.787 28.9652C20.8348 28.8489 20.9052 28.7433 20.9942 28.6544C21.0831 28.5656 21.1889 28.4952 21.3052 28.4475C21.4216 28.3997 21.5463 28.3756 21.6721 28.3764Z" fill="#5B3F8E"/>
<path d="M25.4729 30.0304C25.662 30.0304 25.8469 30.0864 26.0042 30.1914C26.1615 30.2964 26.284 30.4456 26.3564 30.6202C26.4288 30.7948 26.4477 30.9869 26.4108 31.1722C26.3739 31.3576 26.2828 31.5278 26.1491 31.6614C26.0154 31.795 25.845 31.886 25.6595 31.9229C25.474 31.9598 25.2817 31.9409 25.1069 31.8686C24.9322 31.7962 24.7828 31.6738 24.6778 31.5167C24.5727 31.3595 24.5166 31.1748 24.5166 30.9858C24.5166 30.7324 24.6174 30.4894 24.7967 30.3102C24.976 30.1311 25.2193 30.0304 25.4729 30.0304Z" fill="#5B3F8E"/>
<path d="M29.2747 31.7084C29.4638 31.7084 29.6487 31.7644 29.8059 31.8694C29.9632 31.9744 30.0857 32.1236 30.1581 32.2982C30.2305 32.4728 30.2495 32.6649 30.2126 32.8502C30.1757 33.0355 30.0846 33.2058 29.9508 33.3394C29.8171 33.473 29.6467 33.564 29.4612 33.6009C29.2757 33.6378 29.0834 33.6188 28.9087 33.5465C28.7339 33.4742 28.5846 33.3518 28.4795 33.1946C28.3744 33.0375 28.3184 32.8528 28.3184 32.6638C28.3184 32.4104 28.4191 32.1674 28.5984 31.9882C28.7778 31.809 29.021 31.7084 29.2747 31.7084Z" fill="#5B3F8E"/>
<path d="M33.0755 33.3505C33.2646 33.3505 33.4495 33.4065 33.6067 33.5115C33.764 33.6165 33.8866 33.7657 33.959 33.9403C34.0313 34.1149 34.0503 34.307 34.0134 34.4923C33.9765 34.6777 33.8854 34.8479 33.7517 34.9815C33.6179 35.1152 33.4475 35.2061 33.262 35.243C33.0765 35.2799 32.8842 35.261 32.7095 35.1886C32.5348 35.1163 32.3854 34.9939 32.2803 34.8367C32.1752 34.6796 32.1192 34.4949 32.1192 34.3059C32.1184 34.1802 32.1426 34.0556 32.1903 33.9394C32.2381 33.8231 32.3085 33.7174 32.3975 33.6286C32.4864 33.5397 32.5922 33.4693 32.7086 33.4216C32.8249 33.3739 32.9497 33.3497 33.0755 33.3505Z" fill="#5B3F8E"/>
<path d="M36.8772 35.0105C37.0663 35.0105 37.2512 35.0666 37.4085 35.1715C37.5657 35.2765 37.6883 35.4257 37.7607 35.6003C37.8331 35.7749 37.852 35.967 37.8151 36.1524C37.7782 36.3377 37.6871 36.5079 37.5534 36.6416C37.4197 36.7752 37.2493 36.8662 37.0638 36.903C36.8783 36.9399 36.686 36.921 36.5112 36.8487C36.3365 36.7764 36.1872 36.6539 36.0821 36.4968C35.977 36.3397 35.9209 36.1549 35.9209 35.966C35.9201 35.8403 35.9443 35.7157 35.9921 35.5994C36.0399 35.4831 36.1103 35.3775 36.1992 35.2886C36.2882 35.1997 36.3939 35.1294 36.5103 35.0816C36.6267 35.0339 36.7514 35.0097 36.8772 35.0105Z" fill="#5B3F8E"/>
<path d="M40.678 36.6707C40.8671 36.6707 41.052 36.7267 41.2093 36.8317C41.3665 36.9367 41.4891 37.0859 41.5615 37.2605C41.6339 37.435 41.6528 37.6272 41.6159 37.8125C41.579 37.9978 41.4879 38.1681 41.3542 38.3017C41.2204 38.4353 41.05 38.5263 40.8645 38.5632C40.679 38.6 40.4868 38.5811 40.312 38.5088C40.1373 38.4365 39.9879 38.314 39.8828 38.1569C39.7778 37.9998 39.7217 37.8151 39.7217 37.6261C39.7217 37.3727 39.8224 37.1297 40.0018 36.9505C40.1811 36.7713 40.4244 36.6707 40.678 36.6707Z" fill="#5B3F8E"/>
<path d="M44.4914 38.277C44.6789 38.2782 44.8618 38.3347 45.0171 38.4395C45.1725 38.5443 45.2934 38.6926 45.3646 38.8659C45.4357 39.0391 45.4541 39.2295 45.4172 39.4131C45.3803 39.5967 45.29 39.7654 45.1574 39.8978C45.0249 40.0302 44.8561 40.1205 44.6723 40.1573C44.4885 40.1942 44.298 40.1759 44.1246 40.1048C43.9512 40.0336 43.8027 39.9129 43.6978 39.7577C43.5929 39.6024 43.5363 39.4197 43.5352 39.2324C43.5352 39.1069 43.5599 38.9827 43.608 38.8668C43.656 38.7509 43.7264 38.6455 43.8152 38.5568C43.904 38.4681 44.0095 38.3977 44.1255 38.3497C44.2415 38.3017 44.3659 38.277 44.4914 38.277Z" fill="#5B3F8E"/>
<path d="M21.4026 40.7074C21.5917 40.7074 21.7766 40.7634 21.9339 40.8684C22.0911 40.9734 22.2137 41.1226 22.2861 41.2972C22.3585 41.4718 22.3774 41.6639 22.3405 41.8492C22.3036 42.0346 22.2125 42.2048 22.0788 42.3384C21.9451 42.4721 21.7746 42.5631 21.5891 42.5999C21.4036 42.6368 21.2114 42.6179 21.0366 42.5455C20.8619 42.4732 20.7125 42.3508 20.6075 42.1936C20.5024 42.0365 20.4463 41.8518 20.4463 41.6628C20.4463 41.5374 20.471 41.4131 20.5191 41.2972C20.5671 41.1813 20.6376 41.076 20.7264 40.9872C20.8152 40.8985 20.9206 40.8281 21.0366 40.7801C21.1526 40.7321 21.277 40.7074 21.4026 40.7074Z" fill="#5B3F8E"/>
<path d="M25.2766 39.1967C25.4641 39.1978 25.6469 39.2544 25.8023 39.3592C25.9577 39.4639 26.0785 39.6123 26.1497 39.7855C26.2209 39.9588 26.2392 40.1492 26.2024 40.3328C26.1655 40.5164 26.0751 40.685 25.9426 40.8175C25.81 40.9499 25.6413 41.0402 25.4575 41.077C25.2737 41.1138 25.0831 41.0955 24.9097 41.0244C24.7363 40.9533 24.5878 40.8325 24.483 40.6773C24.3781 40.5221 24.3215 40.3394 24.3203 40.1521C24.3203 39.8987 24.4211 39.6557 24.6004 39.4765C24.7797 39.2973 25.023 39.1967 25.2766 39.1967Z" fill="#5B3F8E"/>
<path d="M29.1428 37.6798C29.3303 37.681 29.5132 37.7375 29.6685 37.8423C29.8239 37.9471 29.9448 38.0955 30.016 38.2687C30.0871 38.4419 30.1055 38.6324 30.0686 38.816C30.0317 38.9996 29.9414 39.1682 29.8088 39.3006C29.6763 39.4331 29.5075 39.5234 29.3237 39.5602C29.1399 39.597 28.9493 39.5787 28.7759 39.5076C28.6025 39.4365 28.4541 39.3157 28.3492 39.1605C28.2443 39.0053 28.1877 38.8225 28.1865 38.6353C28.1857 38.5096 28.2099 38.385 28.2577 38.2687C28.3055 38.1524 28.3759 38.0468 28.4649 37.9579C28.5538 37.869 28.6596 37.7987 28.7759 37.7509C28.8923 37.7032 29.017 37.679 29.1428 37.6798Z" fill="#5B3F8E"/>
<path d="M33.0041 36.175C33.1933 36.175 33.3782 36.2311 33.5354 36.3361C33.6927 36.441 33.8153 36.5903 33.8877 36.7649C33.96 36.9394 33.979 37.1315 33.9421 37.3169C33.9052 37.5022 33.8141 37.6724 33.6804 37.8061C33.5466 37.9397 33.3762 38.0307 33.1907 38.0676C33.0052 38.1044 32.8129 38.0855 32.6382 38.0132C32.4634 37.9409 32.3141 37.8184 32.209 37.6613C32.1039 37.5042 32.0479 37.3194 32.0479 37.1305C32.0479 36.8771 32.1486 36.6341 32.3279 36.4549C32.5073 36.2757 32.7505 36.175 33.0041 36.175Z" fill="#5B3F8E"/>
<path d="M40.7317 33.1475C40.9208 33.1475 41.1057 33.2035 41.263 33.3085C41.4202 33.4135 41.5428 33.5627 41.6152 33.7373C41.6876 33.9119 41.7065 34.104 41.6696 34.2893C41.6327 34.4747 41.5416 34.6449 41.4079 34.7785C41.2742 34.9121 41.1038 35.0031 40.9183 35.04C40.7328 35.0769 40.5405 35.058 40.3657 34.9856C40.191 34.9133 40.0417 34.7909 39.9366 34.6337C39.8315 34.4766 39.7754 34.2919 39.7754 34.1029C39.7746 33.9772 39.7988 33.8526 39.8466 33.7364C39.8944 33.6201 39.9648 33.5144 40.0537 33.4256C40.1427 33.3367 40.2484 33.2663 40.3648 33.2186C40.4812 33.1709 40.6059 33.1467 40.7317 33.1475Z" fill="#5B3F8E"/>
<path d="M28.7541 61.2074C28.9433 61.2074 29.1282 61.2634 29.2854 61.3684C29.4427 61.4734 29.5652 61.6226 29.6376 61.7972C29.71 61.9718 29.7289 62.1639 29.692 62.3492C29.6551 62.5346 29.5641 62.7048 29.4303 62.8384C29.2966 62.972 29.1262 63.063 28.9407 63.0999C28.7552 63.1368 28.5629 63.1179 28.3882 63.0455C28.2134 62.9732 28.0641 62.8508 27.959 62.6936C27.8539 62.5365 27.7979 62.3518 27.7979 62.1628C27.7979 61.9094 27.8986 61.6664 28.0779 61.4872C28.2573 61.3081 28.5005 61.2074 28.7541 61.2074Z" fill="#5B3F8E"/>
<path d="M32.6213 59.6907C32.8104 59.6907 32.9953 59.7467 33.1526 59.8517C33.3098 59.9567 33.4324 60.1059 33.5048 60.2805C33.5772 60.4551 33.5961 60.6472 33.5592 60.8325C33.5223 61.0178 33.4312 61.1881 33.2975 61.3217C33.1638 61.4553 32.9934 61.5463 32.8079 61.5832C32.6224 61.62 32.4301 61.6011 32.2554 61.5288C32.0806 61.4565 31.9313 61.334 31.8262 61.1769C31.7211 61.0198 31.665 60.8351 31.665 60.6461C31.665 60.3927 31.7658 60.1497 31.9451 59.9705C32.1245 59.7914 32.3677 59.6907 32.6213 59.6907Z" fill="#5B3F8E"/>
<path d="M36.4827 58.1798C36.6701 58.181 36.853 58.2375 37.0084 58.3423C37.1637 58.4471 37.2846 58.5955 37.3558 58.7687C37.427 58.9419 37.4453 59.1324 37.4084 59.316C37.3716 59.4996 37.2812 59.6682 37.1486 59.8006C37.0161 59.9331 36.8473 60.0234 36.6635 60.0602C36.4798 60.097 36.2892 60.0787 36.1158 60.0076C35.9424 59.9365 35.7939 59.8157 35.689 59.6605C35.5842 59.5053 35.5276 59.3225 35.5264 59.1353C35.5256 59.0096 35.5498 58.885 35.5976 58.7687C35.6453 58.6524 35.7157 58.5468 35.8047 58.4579C35.8937 58.369 35.9994 58.2987 36.1158 58.251C36.2322 58.2032 36.3569 58.179 36.4827 58.1798Z" fill="#5B3F8E"/>
<path d="M40.344 56.6691C40.5314 56.6703 40.7143 56.7268 40.8697 56.8316C41.0251 56.9364 41.1459 57.0847 41.2171 57.258C41.2883 57.4312 41.3066 57.6216 41.2698 57.8052C41.2329 57.9888 41.1425 58.1575 41.01 58.2899C40.8774 58.4223 40.7086 58.5126 40.5249 58.5495C40.3411 58.5863 40.1505 58.568 39.9771 58.4969C39.8037 58.4257 39.6552 58.305 39.5504 58.1498C39.4455 57.9945 39.3889 57.8118 39.3877 57.6245C39.3869 57.4988 39.4111 57.3742 39.4589 57.258C39.5067 57.1417 39.5771 57.036 39.666 56.9472C39.755 56.8583 39.8607 56.7879 39.9771 56.7402C40.0935 56.6925 40.2182 56.6683 40.344 56.6691Z" fill="#5B3F8E"/>
<path d="M44.2102 55.1583C44.3993 55.1583 44.5842 55.2144 44.7415 55.3193C44.8988 55.4243 45.0213 55.5736 45.0937 55.7481C45.1661 55.9227 45.185 56.1148 45.1481 56.3002C45.1112 56.4855 45.0202 56.6557 44.8864 56.7894C44.7527 56.923 44.5823 57.014 44.3968 57.0508C44.2113 57.0877 44.019 57.0688 43.8442 56.9965C43.6695 56.9242 43.5202 56.8017 43.4151 56.6446C43.31 56.4875 43.2539 56.3027 43.2539 56.1138C43.2539 55.8604 43.3547 55.6173 43.534 55.4382C43.7133 55.259 43.9566 55.1583 44.2102 55.1583Z" fill="#5B3F8E"/>
<path d="M48.0715 53.6475C48.2607 53.6475 48.4456 53.7035 48.6028 53.8085C48.7601 53.9135 48.8827 54.0627 48.955 54.2373C49.0274 54.4119 49.0464 54.604 49.0095 54.7893C48.9726 54.9746 48.8815 55.1449 48.7477 55.2785C48.614 55.4121 48.4436 55.5031 48.2581 55.54C48.0726 55.5769 47.8803 55.5579 47.7056 55.4856C47.5309 55.4133 47.3815 55.2908 47.2764 55.1337C47.1713 54.9766 47.1153 54.7919 47.1153 54.6029C47.1145 54.4772 47.1387 54.3526 47.1864 54.2363C47.2342 54.1201 47.3046 54.0144 47.3936 53.9255C47.4825 53.8367 47.5883 53.7663 47.7047 53.7186C47.821 53.6709 47.9457 53.6467 48.0715 53.6475Z" fill="#5B3F8E"/>
<path d="M51.8372 52.4353C52.0263 52.4353 52.2112 52.4913 52.3684 52.5963C52.5257 52.7013 52.6482 52.8505 52.7206 53.0251C52.793 53.1997 52.812 53.3918 52.7751 53.5771C52.7382 53.7625 52.6471 53.9327 52.5133 54.0664C52.3796 54.2 52.2092 54.291 52.0237 54.3278C51.8382 54.3647 51.6459 54.3458 51.4712 54.2735C51.2964 54.2011 51.1471 54.0787 51.042 53.9216C50.9369 53.7644 50.8809 53.5797 50.8809 53.3907C50.8809 53.1373 50.9816 52.8943 51.1609 52.7151C51.3403 52.536 51.5835 52.4353 51.8372 52.4353Z" fill="#5B3F8E"/>
<path d="M55.6985 50.9245C55.8876 50.9245 56.0725 50.9805 56.2298 51.0855C56.3871 51.1905 56.5096 51.3397 56.582 51.5143C56.6544 51.6888 56.6733 51.8809 56.6364 52.0663C56.5995 52.2516 56.5085 52.4219 56.3747 52.5555C56.241 52.6891 56.0706 52.7801 55.8851 52.817C55.6996 52.8538 55.5073 52.8349 55.3325 52.7626C55.1578 52.6903 55.0085 52.5678 54.9034 52.4107C54.7983 52.2536 54.7422 52.0689 54.7422 51.8799C54.7414 51.7542 54.7656 51.6296 54.8134 51.5133C54.8612 51.3971 54.9316 51.2914 55.0205 51.2025C55.1095 51.1136 55.2152 51.0433 55.3316 50.9956C55.448 50.9478 55.5727 50.9237 55.6985 50.9245Z" fill="#5B3F8E"/>
<path d="M59.511 49.2883C59.7001 49.2883 59.885 49.3444 60.0423 49.4494C60.1995 49.5543 60.3221 49.7036 60.3945 49.8781C60.4669 50.0527 60.4858 50.2448 60.4489 50.4302C60.412 50.6155 60.3209 50.7857 60.1872 50.9194C60.0534 51.053 59.883 51.144 59.6975 51.1808C59.512 51.2177 59.3198 51.1988 59.145 51.1265C58.9703 51.0542 58.8209 50.9317 58.7159 50.7746C58.6108 50.6175 58.5547 50.4327 58.5547 50.2438C58.5547 49.9904 58.6554 49.7474 58.8348 49.5682C59.0141 49.389 59.2574 49.2883 59.511 49.2883Z" fill="#5B3F8E"/>
</svg>
