<svg width="151" height="72" viewBox="0 0 151 72" fill="none" xmlns="http://www.w3.org/2000/svg">
<g clip-path="url(#clip0)">
<path d="M111.987 0.381836C112.413 0.381836 112.831 0.509671 113.185 0.749173C113.54 0.988676 113.816 1.32909 113.98 1.72737C114.143 2.12565 114.186 2.5639 114.103 2.98671C114.019 3.40952 113.814 3.7979 113.512 4.10273C113.21 4.40756 112.826 4.61515 112.408 4.69925C111.989 4.78335 111.555 4.74019 111.161 4.57522C110.767 4.41024 110.43 4.13087 110.193 3.77243C109.956 3.41399 109.83 2.99258 109.83 2.56148C109.83 1.98341 110.057 1.429 110.461 1.02024C110.866 0.611476 111.415 0.381836 111.987 0.381836Z" fill="white"/>
<path d="M123.888 13.9208C123.48 13.823 123.056 13.8188 122.646 13.9087C122.236 13.9986 121.851 14.1801 121.52 14.44C121.189 14.7 120.92 15.0316 120.732 15.4106C120.545 15.7895 120.444 16.2062 120.437 16.6298C120.437 18.577 119.734 20.4574 118.458 21.917L114.76 26.158C114.639 25.9672 114.472 25.8103 114.275 25.7015C114.078 25.5927 113.857 25.5355 113.632 25.5352H106.384C106.028 25.5352 105.686 25.6783 105.434 25.9329C105.182 26.1875 105.041 26.5328 105.041 26.8928V43.3523C105.044 43.7102 105.187 44.0523 105.438 44.3042C105.69 44.5562 106.03 44.6975 106.384 44.6975H113.626C113.886 44.6992 114.14 44.6248 114.359 44.4834C114.578 44.3419 114.752 44.1394 114.859 43.9003C116.324 44.8159 118.011 45.3071 119.734 45.3202H132.529C132.999 45.3147 133.463 45.2143 133.893 45.0249C134.324 44.8355 134.712 44.5609 135.036 44.2173C135.36 43.8737 135.613 43.4681 135.779 43.0244C135.946 42.5806 136.023 42.1077 136.005 41.6335C135.962 40.7616 136.005 29.0476 136.005 28.786C136.005 27.8539 135.639 26.9599 134.988 26.3002C134.336 25.6405 133.452 25.2691 132.529 25.2674H125.879L126.156 24.6073C126.778 23.1114 127.052 21.4911 126.956 19.8714C126.86 18.2516 126.396 16.6759 125.602 15.266C125.418 14.94 125.171 14.655 124.875 14.4281C124.58 14.2012 124.242 14.0371 123.882 13.9457L123.888 13.9208ZM112.252 41.9947H107.703V28.2567H112.252V41.9947ZM132.504 27.9827C132.714 27.9827 132.914 28.0667 133.062 28.2161C133.21 28.3656 133.293 28.5684 133.293 28.7798C133.293 29.0414 133.293 29.7388 133.293 30.6917C133.293 35.9477 133.263 40.9236 133.293 41.7518C133.298 41.8596 133.282 41.9673 133.244 42.0684C133.207 42.1694 133.15 42.2618 133.076 42.3398C133.002 42.4178 132.913 42.4799 132.815 42.5223C132.717 42.5646 132.611 42.5864 132.504 42.5863H119.734C118.204 42.5838 116.72 42.0519 115.531 41.0792L114.964 40.6184V30.0315L120.467 23.7355C122.176 21.7785 123.119 19.2583 123.118 16.6485C123.118 16.6328 123.124 16.6177 123.134 16.6054C123.144 16.5932 123.157 16.5843 123.172 16.5802C123.187 16.576 123.203 16.5768 123.218 16.5824C123.232 16.5879 123.245 16.598 123.253 16.6111C123.84 17.6546 124.184 18.8198 124.257 20.0177C124.331 21.2157 124.133 22.4148 123.679 23.5237L122.618 26.0646C122.536 26.2697 122.504 26.4921 122.527 26.7124C122.549 26.9327 122.624 27.1441 122.745 27.3284C122.867 27.5126 123.031 27.664 123.224 27.7693C123.417 27.8747 123.632 27.9308 123.851 27.9328L132.504 27.9827Z" fill="white"/>
<path d="M63.6717 34.3906C63.2475 34.3906 62.8407 34.5609 62.5407 34.8639C62.2408 35.167 62.0723 35.5781 62.0723 36.0067C62.0723 36.4353 62.2408 36.8463 62.5407 37.1494C62.8407 37.4525 63.2475 37.6227 63.6717 37.6227H68.3866L67.5053 43.0033C67.4358 43.4262 67.5354 43.8596 67.7822 44.2082C68.029 44.5568 68.4027 44.7921 68.8212 44.8623C69.2396 44.9325 69.6685 44.8318 70.0136 44.5825C70.3586 44.3331 70.5914 43.9555 70.6609 43.5327L71.6286 37.6227H75.4868L74.6055 43.0033C74.5693 43.2137 74.5749 43.4291 74.6218 43.6373C74.6687 43.8454 74.756 44.0421 74.8787 44.2159C75.0014 44.3897 75.157 44.5371 75.3365 44.6497C75.516 44.7622 75.7159 44.8377 75.9244 44.8716C76.0126 44.8791 76.1013 44.8791 76.1895 44.8716C76.561 44.8643 76.9184 44.7267 77.2006 44.4825C77.4828 44.2382 77.6722 43.9025 77.7365 43.5327L78.7041 37.6227H85.1325C85.5395 37.5972 85.9216 37.4158 86.2009 37.1155C86.4802 36.8153 86.6357 36.4187 86.6357 36.0067C86.6357 35.5946 86.4802 35.1981 86.2009 34.8978C85.9216 34.5975 85.5395 34.4162 85.1325 34.3906H79.2465L79.8628 30.4486H85.1325C85.5567 30.4486 85.9635 30.2783 86.2635 29.9752C86.5634 29.6722 86.7319 29.2611 86.7319 28.8325C86.7319 28.4039 86.5634 27.9929 86.2635 27.6898C85.9635 27.3867 85.5567 27.2165 85.1325 27.2165H80.4175L81.2989 21.8358C81.3684 21.413 81.2688 20.9796 81.022 20.631C80.7752 20.2824 80.4015 20.0471 79.983 19.9769C79.5646 19.9067 79.1356 20.0074 78.7906 20.2567C78.4456 20.506 78.2127 20.8837 78.1433 21.3065L77.1756 27.2165H73.3173L74.1987 21.8358C74.2331 21.6265 74.2263 21.4123 74.1788 21.2056C74.1313 20.9989 74.044 20.8036 73.9218 20.631C73.675 20.2824 73.3013 20.0471 72.8828 19.9769C72.4644 19.9067 72.0354 20.0074 71.6904 20.2567C71.3454 20.506 71.1125 20.8837 71.0431 21.3065L70.0754 27.2165H63.6717C63.2475 27.2165 62.8407 27.3867 62.5407 27.6898C62.2408 27.9929 62.0723 28.4039 62.0723 28.8325C62.0723 29.2611 62.2408 29.6722 62.5407 29.9752C62.8407 30.2783 63.2475 30.4486 63.6717 30.4486H69.5577L68.9413 34.3906H63.6717ZM72.8058 30.4486H76.664L76.0477 34.3906H72.1894L72.8058 30.4486Z" fill="white"/>
<path d="M36.6088 20.8702C35.4538 20.5893 34.2504 20.5796 33.0912 20.8419C31.9319 21.1042 30.8476 21.6316 29.9215 22.3835C28.9787 21.5993 27.8667 21.0498 26.6751 20.7794C25.4836 20.509 24.2459 20.5251 23.0617 20.8266C19.8629 21.6113 16.6333 24.6316 16.6333 29.6199C16.6332 31.1527 16.9363 32.67 17.5248 34.0828C18.1133 35.4955 18.9753 36.7752 20.0601 37.8466C21.94 39.8394 24.658 41.7326 28.8676 43.9807C29.2018 44.1596 29.5742 44.2531 29.9523 44.2531C30.3305 44.2531 30.7029 44.1596 31.0371 43.9807C38.3777 40.0511 43.2652 36.1028 43.2652 29.6137C43.3305 27.6055 42.7019 25.6369 41.4873 24.046C40.2727 22.4551 38.5478 21.341 36.6088 20.8951V20.8702ZM30.5995 40.431L29.9832 40.7922L29.3668 40.431C23.4993 37.2238 19.9307 34.2782 19.9307 29.6137C19.9307 26.2197 22.0386 24.5009 23.8444 24.0587C24.2157 23.9676 24.5964 23.9216 24.9785 23.9217C25.8383 23.9207 26.6806 24.1667 27.4074 24.6309C28.1341 25.0951 28.7153 25.7584 29.0833 26.5435C29.1709 26.7044 29.2992 26.8388 29.4552 26.9329C29.6112 27.027 29.7892 27.0775 29.9708 27.0791C30.1539 27.0774 30.3327 27.0232 30.4866 26.9229C30.6404 26.8226 30.7629 26.6802 30.8399 26.5124C31.2697 25.5781 32.0131 24.8278 32.9382 24.3946C33.8634 23.9614 34.9105 23.8733 35.8938 24.1459C37.7736 24.5631 39.9678 26.257 39.9678 29.6386C39.9678 34.3093 36.3807 37.2425 30.5933 40.4621" fill="white"/>
<path d="M139.605 1.0044H121.984C121.732 1.00403 121.484 1.05545 121.253 1.15551C121.022 1.25557 120.813 1.40217 120.64 1.58635C120.467 1.77052 120.333 1.98842 120.246 2.22672C120.159 2.46501 120.121 2.71871 120.135 2.97231C120.179 3.46666 120.408 3.92532 120.776 4.2542C121.144 4.58308 121.622 4.75723 122.113 4.74094H139.63C141.513 4.78344 143.304 5.57885 144.608 6.95283C145.912 8.3268 146.624 10.1673 146.588 12.0708V50.9682C146.624 52.8717 145.912 54.7122 144.608 56.0861C143.304 57.4601 141.513 58.2555 139.63 58.298H117.799C117.396 58.2985 117.004 58.4319 116.683 58.6779L107.438 65.7338V60.1663C107.438 59.6708 107.243 59.1956 106.897 58.8452C106.55 58.4949 106.08 58.298 105.589 58.298H11.1726C9.28886 58.2555 7.49859 57.4601 6.19423 56.0861C4.88988 54.7122 4.17785 52.8717 4.21421 50.9682V12.0708C4.17785 10.1673 4.88988 8.3268 6.19423 6.95283C7.49859 5.57885 9.28886 4.78344 11.1726 4.74094H100.899C101.389 4.74094 101.86 4.5441 102.206 4.19373C102.553 3.84337 102.748 3.36816 102.748 2.87267C102.748 2.37717 102.553 1.90197 102.206 1.5516C101.86 1.20123 101.389 1.0044 100.899 1.0044H11.1726C9.22753 1.03336 7.32613 1.59181 5.66874 2.62094C4.01135 3.65006 2.65931 5.11176 1.75502 6.85208V6.92059C0.93035 8.50844 0.506901 10.2776 0.522351 12.0708V50.9682C0.486116 53.8616 1.58695 56.6514 3.58346 58.7259C5.57996 60.8004 8.30918 61.9903 11.1726 62.0346H103.734V69.5077C103.734 69.8551 103.831 70.1957 104.012 70.491C104.193 70.7863 104.452 71.0246 104.76 71.1792C105.068 71.3339 105.413 71.3986 105.755 71.3663C106.098 71.3339 106.424 71.2057 106.699 70.996L118.409 62.0533H139.617C142.482 62.0106 145.213 60.8215 147.21 58.7468C149.208 56.6721 150.31 53.8813 150.274 50.9869V12.0708C150.31 9.17633 149.208 6.38556 147.21 4.31087C145.213 2.23619 142.482 1.04705 139.617 1.0044" fill="white"/>
</g>
<defs>
<clipPath id="clip0">
<rect x="0.491211" y="0.381836" width="149.77" height="70.9818" fill="white"/>
</clipPath>
</defs>
</svg>
