<svg width="54" height="82" viewBox="0 0 54 82" fill="none" xmlns="http://www.w3.org/2000/svg">
<path d="M26.1485 78.5248C26.3554 78.5248 26.5576 78.5861 26.7296 78.7009C26.9016 78.8157 27.0356 78.9789 27.1148 79.1699C27.194 79.3608 27.2147 79.5709 27.1743 79.7736C27.134 79.9764 27.0344 80.1626 26.8881 80.3087C26.7418 80.4548 26.5554 80.5544 26.3525 80.5947C26.1496 80.635 25.9393 80.6143 25.7482 80.5352C25.5571 80.4561 25.3937 80.3222 25.2788 80.1503C25.1639 79.9785 25.1025 79.7765 25.1025 79.5698C25.1025 79.2926 25.2127 79.0268 25.4089 78.8309C25.605 78.6349 25.8711 78.5248 26.1485 78.5248Z" fill="#5B3F8E"/>
<path d="M26.1485 81.5105C25.7643 81.5105 25.3888 81.3967 25.0693 81.1834C24.7499 80.9702 24.5009 80.6671 24.3539 80.3124C24.2069 79.9578 24.1684 79.5676 24.2434 79.1911C24.3183 78.8147 24.5033 78.4689 24.775 78.1975C25.0467 77.926 25.3928 77.7412 25.7696 77.6663C26.1464 77.5914 26.5369 77.6299 26.8919 77.7768C27.2468 77.9236 27.5502 78.1724 27.7636 78.4916C27.9771 78.8107 28.091 79.1859 28.091 79.5698C28.091 80.0845 27.8863 80.5781 27.5221 80.9421C27.1578 81.306 26.6637 81.5105 26.1485 81.5105ZM26.1485 79.4205C26.1089 79.4205 26.0709 79.4362 26.0429 79.4642C26.0148 79.4922 25.9991 79.5302 25.9991 79.5698C25.9991 79.737 26.2979 79.737 26.2979 79.5698C26.2979 79.5302 26.2822 79.4922 26.2542 79.4642C26.2262 79.4362 26.1882 79.4205 26.1485 79.4205Z" fill="#5B3F8E"/>
<path d="M33.918 0.895752C34.1249 0.895752 34.3271 0.957037 34.4991 1.07186C34.6711 1.18669 34.8052 1.3499 34.8843 1.54085C34.9635 1.7318 34.9842 1.94192 34.9439 2.14463C34.9035 2.34734 34.8039 2.53354 34.6576 2.67969C34.5113 2.82584 34.325 2.92537 34.1221 2.96569C33.9192 3.00601 33.7089 2.98532 33.5177 2.90623C33.3266 2.82713 33.1633 2.69318 33.0483 2.52133C32.9334 2.34948 32.8721 2.14745 32.8721 1.94076C32.8721 1.66361 32.9823 1.39781 33.1784 1.20183C33.3746 1.00586 33.6406 0.895752 33.918 0.895752Z" fill="#5B3F8E"/>
<path d="M33.9181 3.88144C33.5339 3.88144 33.1583 3.76761 32.8389 3.55436C32.5194 3.34112 32.2705 3.03802 32.1234 2.6834C31.9764 2.32878 31.938 1.93858 32.0129 1.56211C32.0879 1.18565 32.2729 0.839844 32.5445 0.56843C32.8162 0.297016 33.1623 0.112175 33.5391 0.0372923C33.9159 -0.0375906 34.3065 0.000837714 34.6614 0.147726C35.0163 0.294614 35.3197 0.54337 35.5332 0.862519C35.7466 1.18167 35.8605 1.55689 35.8605 1.94072C35.8605 2.45543 35.6559 2.94906 35.2916 3.31301C34.9273 3.67697 34.4332 3.88144 33.9181 3.88144ZM33.9181 1.79144C33.8784 1.79144 33.8404 1.80716 33.8124 1.83515C33.7844 1.86315 33.7686 1.90113 33.7686 1.94072C33.7686 2.10792 34.0675 2.10792 34.0675 1.94072C34.0675 1.90113 34.0517 1.86315 34.0237 1.83515C33.9957 1.80716 33.9577 1.79144 33.9181 1.79144Z" fill="#5B3F8E"/>
<path d="M43.4815 4.47864C43.6884 4.47864 43.8906 4.53992 44.0626 4.65475C44.2346 4.76957 44.3687 4.93278 44.4478 5.12373C44.527 5.31468 44.5477 5.52479 44.5073 5.7275C44.467 5.93021 44.3674 6.11641 44.2211 6.26256C44.0748 6.40871 43.8884 6.50824 43.6855 6.54856C43.4827 6.58888 43.2723 6.56819 43.0812 6.4891C42.8901 6.41 42.7267 6.27605 42.6118 6.1042C42.4969 5.93235 42.4355 5.73032 42.4355 5.52364C42.4355 5.24649 42.5457 4.98069 42.7419 4.78472C42.938 4.58874 43.2041 4.47864 43.4815 4.47864Z" fill="#5B3F8E"/>
<path d="M43.4815 7.46434C43.0973 7.46434 42.7218 7.35052 42.4024 7.13727C42.0829 6.92402 41.8339 6.62092 41.6869 6.2663C41.5399 5.91167 41.5014 5.52147 41.5764 5.14501C41.6513 4.76854 41.8363 4.42273 42.108 4.15132C42.3797 3.8799 42.7258 3.69506 43.1026 3.62018C43.4794 3.54529 43.8699 3.58372 44.2249 3.73061C44.5798 3.8775 44.8832 4.12626 45.0966 4.44541C45.3101 4.76456 45.424 5.13978 45.424 5.52362C45.424 6.03833 45.2193 6.53196 44.8551 6.89592C44.4908 7.25987 43.9967 7.46434 43.4815 7.46434ZM43.4815 5.37433C43.4419 5.37433 43.4039 5.39005 43.3759 5.41805C43.3479 5.44605 43.3321 5.48402 43.3321 5.52362C43.3321 5.69082 43.631 5.69082 43.631 5.52362C43.631 5.48402 43.6152 5.44605 43.5872 5.41805C43.5592 5.39005 43.5212 5.37433 43.4815 5.37433Z" fill="#5B3F8E"/>
<path d="M50.0557 12.8387C50.2626 12.8387 50.4648 12.9 50.6368 13.0149C50.8088 13.1297 50.9429 13.2929 51.022 13.4838C51.1012 13.6748 51.1219 13.8849 51.0816 14.0876C51.0412 14.2903 50.9416 14.4765 50.7953 14.6227C50.649 14.7688 50.4627 14.8683 50.2598 14.9087C50.0569 14.949 49.8466 14.9283 49.6554 14.8492C49.4643 14.7701 49.301 14.6362 49.186 14.4643C49.0711 14.2925 49.0098 14.0904 49.0098 13.8837C49.0098 13.6066 49.12 13.3408 49.3161 13.1448C49.5123 12.9488 49.7783 12.8387 50.0557 12.8387Z" fill="#5B3F8E"/>
<path d="M50.0557 15.8244C49.6716 15.8244 49.296 15.7106 48.9766 15.4974C48.6571 15.2841 48.4082 14.981 48.2611 14.6264C48.1141 14.2718 48.0757 13.8816 48.1506 13.5051C48.2256 13.1287 48.4106 12.7828 48.6822 12.5114C48.9539 12.24 49.3 12.0552 49.6768 11.9803C50.0536 11.9054 50.4442 11.9438 50.7991 12.0907C51.154 12.2376 51.4574 12.4864 51.6708 12.8055C51.8843 13.1247 51.9982 13.4999 51.9982 13.8837C51.9982 14.3984 51.7936 14.8921 51.4293 15.256C51.065 15.62 50.5709 15.8244 50.0557 15.8244ZM50.0557 13.7344C50.0161 13.7344 49.9781 13.7502 49.9501 13.7782C49.9221 13.8062 49.9063 13.8441 49.9063 13.8837C49.9063 14.0509 50.2052 14.0509 50.2052 13.8837C50.2052 13.8441 50.1894 13.8062 50.1614 13.7782C50.1334 13.7502 50.0954 13.7344 50.0557 13.7344Z" fill="#5B3F8E"/>
<path d="M51.8487 23.5873C52.0555 23.5873 52.2578 23.6486 52.4298 23.7634C52.6018 23.8782 52.7358 24.0414 52.815 24.2324C52.8942 24.4233 52.9149 24.6334 52.8745 24.8361C52.8342 25.0389 52.7346 25.2251 52.5883 25.3712C52.442 25.5173 52.2556 25.6169 52.0527 25.6572C51.8498 25.6975 51.6395 25.6768 51.4484 25.5977C51.2573 25.5186 51.0939 25.3847 50.979 25.2128C50.8641 25.041 50.8027 24.839 50.8027 24.6323C50.8027 24.3551 50.9129 24.0893 51.1091 23.8934C51.3052 23.6974 51.5713 23.5873 51.8487 23.5873Z" fill="#5B3F8E"/>
<path d="M51.8487 26.573C51.4645 26.573 51.089 26.4592 50.7695 26.2459C50.4501 26.0327 50.2011 25.7296 50.0541 25.3749C49.9071 25.0203 49.8686 24.6301 49.9436 24.2536C50.0185 23.8772 50.2035 23.5314 50.4752 23.26C50.7468 22.9885 51.093 22.8037 51.4698 22.7288C51.8466 22.6539 52.2371 22.6924 52.5921 22.8393C52.947 22.9861 53.2504 23.2349 53.4638 23.5541C53.6773 23.8732 53.7912 24.2484 53.7912 24.6323C53.7912 25.147 53.5865 25.6406 53.2223 26.0046C52.858 26.3685 52.3639 26.573 51.8487 26.573ZM51.8487 24.483C51.8091 24.483 51.7711 24.4987 51.7431 24.5267C51.715 24.5547 51.6993 24.5927 51.6993 24.6323C51.6993 24.7995 51.9981 24.7995 51.9981 24.6323C51.9981 24.5927 51.9824 24.5547 51.9544 24.5267C51.9263 24.4987 51.8883 24.483 51.8487 24.483Z" fill="#5B3F8E"/>
<path d="M45.8721 43.2931C46.079 43.2931 46.2812 43.3544 46.4532 43.4692C46.6252 43.584 46.7593 43.7472 46.8384 43.9382C46.9176 44.1291 46.9383 44.3392 46.898 44.542C46.8576 44.7447 46.758 44.9309 46.6117 45.077C46.4654 45.2232 46.2791 45.3227 46.0762 45.363C45.8733 45.4033 45.663 45.3826 45.4719 45.3035C45.2807 45.2245 45.1174 45.0905 45.0024 44.9187C44.8875 44.7468 44.8262 44.5448 44.8262 44.3381C44.8262 44.0609 44.9364 43.7951 45.1325 43.5992C45.3287 43.4032 45.5947 43.2931 45.8721 43.2931Z" fill="#5B3F8E"/>
<path d="M45.8722 46.2788C45.488 46.2788 45.1124 46.165 44.793 45.9517C44.4735 45.7385 44.2246 45.4354 44.0775 45.0808C43.9305 44.7261 43.8921 44.3359 43.967 43.9595C44.042 43.583 44.227 43.2372 44.4986 42.9658C44.7703 42.6944 45.1164 42.5095 45.4932 42.4346C45.87 42.3597 46.2606 42.3982 46.6155 42.5451C46.9705 42.692 47.2738 42.9407 47.4873 43.2599C47.7007 43.579 47.8146 43.9542 47.8146 44.3381C47.8146 44.8528 47.61 45.3464 47.2457 45.7104C46.8814 46.0743 46.3873 46.2788 45.8722 46.2788ZM45.8722 44.1888C45.8325 44.1888 45.7945 44.2045 45.7665 44.2325C45.7385 44.2605 45.7227 44.2985 45.7227 44.3381C45.7227 44.5053 46.0216 44.5053 46.0216 44.3381C46.0216 44.2985 46.0058 44.2605 45.9778 44.2325C45.9498 44.2045 45.9118 44.1888 45.8722 44.1888Z" fill="#5B3F8E"/>
<path d="M41.0899 54.6389C41.2968 54.6389 41.499 54.7002 41.671 54.815C41.843 54.9299 41.9771 55.0931 42.0562 55.284C42.1354 55.475 42.1561 55.6851 42.1157 55.8878C42.0754 56.0905 41.9758 56.2767 41.8295 56.4229C41.6832 56.569 41.4968 56.6685 41.2939 56.7089C41.0911 56.7492 40.8807 56.7285 40.6896 56.6494C40.4985 56.5703 40.3351 56.4363 40.2202 56.2645C40.1053 56.0926 40.0439 55.8906 40.0439 55.6839C40.0439 55.4068 40.1541 55.141 40.3503 54.945C40.5464 54.749 40.8125 54.6389 41.0899 54.6389Z" fill="#5B3F8E"/>
<path d="M41.0899 57.6246C40.7057 57.6246 40.3302 57.5108 40.0108 57.2975C39.6913 57.0843 39.4423 56.7812 39.2953 56.4266C39.1483 56.072 39.1098 55.6817 39.1848 55.3053C39.2597 54.9288 39.4447 54.583 39.7164 54.3116C39.9881 54.0402 40.3342 53.8553 40.711 53.7805C41.0878 53.7056 41.4783 53.744 41.8333 53.8909C42.1882 54.0378 42.4916 54.2865 42.705 54.6057C42.9185 54.9248 43.0324 55.3001 43.0324 55.6839C43.0324 56.1986 42.8277 56.6922 42.4635 57.0562C42.0992 57.4202 41.6051 57.6246 41.0899 57.6246ZM41.0899 55.5346C41.0503 55.5346 41.0123 55.5503 40.9843 55.5783C40.9563 55.6063 40.9405 55.6443 40.9405 55.6839C40.9405 55.8511 41.2393 55.8511 41.2393 55.6839C41.2393 55.6443 41.2236 55.6063 41.1956 55.5783C41.1676 55.5503 41.1296 55.5346 41.0899 55.5346Z" fill="#5B3F8E"/>
<path fill-rule="evenodd" clip-rule="evenodd" d="M52.6614 32.0608C52.4163 31.3588 51.9587 30.7505 51.352 30.32C50.7453 29.8896 50.0197 29.6583 49.2756 29.6583C48.5315 29.6583 47.8058 29.8896 47.1991 30.32C46.5925 30.7505 46.1349 31.3588 45.8897 32.0608H38.4665V27.2836H43.248C43.565 27.2836 43.869 27.1578 44.0932 26.9338C44.3174 26.7098 44.4433 26.406 44.4433 26.0893V21.0733C45.2409 20.7915 45.9131 20.2372 46.3411 19.5082C46.7691 18.7792 46.9254 17.9224 46.7824 17.0894C46.6393 16.2564 46.2062 15.5007 45.5594 14.956C44.9126 14.4112 44.0939 14.1124 43.248 14.1124C42.402 14.1124 41.5833 14.4112 40.9365 14.956C40.2897 15.5007 39.8566 16.2564 39.7135 17.0894C39.5705 17.9224 39.7268 18.7792 40.1548 19.5082C40.5828 20.2372 41.255 20.7915 42.0526 21.0733V24.895H38.4665V22.5064C38.4665 22.1897 38.3406 21.8859 38.1164 21.6619C37.8922 21.438 37.5882 21.3121 37.2711 21.3121H34.8804V15.06C35.678 14.7783 36.3502 14.2239 36.7782 13.4949C37.2062 12.7659 37.3625 11.9092 37.2195 11.0762C37.0764 10.2431 36.6432 9.48748 35.9965 8.94272C35.3497 8.39795 34.531 8.09915 33.685 8.09915C32.8391 8.09915 32.0204 8.39795 31.3736 8.94272C30.7268 9.48748 30.2936 10.2431 30.1506 11.0762C30.0075 11.9092 30.1638 12.7659 30.5919 13.4949C31.0199 14.2239 31.6921 14.7783 32.4897 15.06V21.2763H27.7082V11.722H25.3175C25.0007 11.722 24.672 11.7757 24.3253 11.8175C24.0767 11.8473 23.8436 11.9545 23.6592 12.1237C23.4747 12.293 23.3481 12.5159 23.2973 12.761L22.9327 14.4987C22.6299 14.5703 22.3291 14.652 22.0302 14.7435L20.8349 13.4119C20.6683 13.2248 20.4472 13.0948 20.2027 13.0401C19.9581 12.9855 19.7026 13.009 19.4722 13.1073C18.1283 13.6862 16.8599 14.4261 15.6948 15.3108C15.4941 15.4609 15.3457 15.6702 15.2707 15.9092C15.1956 16.1482 15.1976 16.4047 15.2764 16.6424L15.8263 18.3204C15.5992 18.5354 15.378 18.7563 15.1629 18.9833L13.4296 18.416C13.1916 18.3372 12.9349 18.3352 12.6957 18.4102C12.4565 18.4852 12.247 18.6335 12.0968 18.834C11.211 19.9979 10.4704 21.2652 9.89132 22.6079C9.79289 22.8381 9.76937 23.0935 9.82406 23.3378C9.87876 23.5821 10.0089 23.803 10.1961 23.9694L11.529 25.1637C11.4413 25.4623 11.3616 25.7589 11.2899 26.0535L9.42513 26.4237C9.14886 26.4771 8.90029 26.6261 8.72318 26.8445C8.54607 27.063 8.45177 27.3369 8.45688 27.618V31.7084C8.45177 31.9895 8.54607 32.2634 8.72318 32.4819C8.90029 32.7003 9.14886 32.8494 9.42513 32.9027L11.2899 33.273C11.3616 33.5715 11.4413 33.8681 11.529 34.1627L10.1961 35.357C10.0089 35.5234 9.87876 35.7444 9.82406 35.9887C9.76937 36.233 9.79289 36.4883 9.89132 36.7185C10.469 38.0676 11.2096 39.341 12.0968 40.5104C12.247 40.7109 12.4565 40.8591 12.6957 40.9341C12.9349 41.0092 13.1916 41.0071 13.4296 40.9284L15.1091 40.379C15.3242 40.6059 15.5454 40.8269 15.7725 41.0418L15.2226 42.7138C15.1438 42.9516 15.1418 43.2081 15.2169 43.4471C15.292 43.6861 15.4403 43.8954 15.641 44.0455C16.8057 44.9308 18.0742 45.6707 19.4184 46.2489C19.6488 46.3473 19.9043 46.3708 20.1489 46.3162C20.3934 46.2615 20.6145 46.1315 20.7811 45.9444L21.9764 44.6128C22.2753 44.7043 22.5761 44.7839 22.8789 44.8516L23.2435 46.5893C23.2943 46.8344 23.4209 47.0573 23.6054 47.2266C23.7898 47.3959 24.0229 47.503 24.2715 47.5328C24.6182 47.5746 24.9469 47.6045 25.2637 47.6284V60.5685H16.6989C16.1012 57.1469 13.7105 53.6775 11.511 50.5723C10.5129 49.1511 9.57455 47.8135 8.88722 46.5953C4.98435 39.6923 2.46214 31.3501 2.46214 25.3309C2.46214 13.388 12.3597 3.95308 25.2159 3.37384C25.2637 3.37384 25.6462 3.33802 26.7101 3.3201C26.859 3.32611 27.0072 3.29706 27.1427 3.23529C27.2783 3.17353 27.3974 3.08079 27.4905 2.96455C27.5836 2.84831 27.648 2.71182 27.6785 2.56613C27.7091 2.42043 27.7049 2.2696 27.6664 2.12581C27.6664 1.80907 27.5404 1.50529 27.3163 1.28132C27.0921 1.05734 26.788 0.931519 26.471 0.931519C11.6605 0.931519 0.0654297 11.6443 0.0654297 25.319C0.0654297 31.8159 2.64741 40.4148 6.8013 47.7597C7.54841 49.0794 8.52263 50.4648 9.55064 51.9398C11.523 54.7464 13.6866 57.8694 14.2783 60.682C13.2109 60.9122 12.2371 61.457 11.483 62.2461C10.7288 63.0352 10.229 64.0322 10.0481 65.1081C9.8672 66.1841 10.0136 67.2896 10.4683 68.2815C10.9231 69.2735 11.6652 70.1063 12.5988 70.6722C11.5786 71.2894 10.7889 72.2234 10.3504 73.3315C9.91196 74.4396 9.84889 75.6606 10.1709 76.8079C10.4929 77.9552 11.1822 78.9655 12.1334 79.6843C13.0845 80.403 14.2452 80.7907 15.4378 80.7879H20.7691C20.9863 80.7391 21.1803 80.6179 21.3194 80.4442C21.4584 80.2706 21.5342 80.0548 21.5342 79.8325C21.5342 79.6101 21.4584 79.3943 21.3194 79.2207C21.1803 79.047 20.9863 78.9258 20.7691 78.877H20.7153H20.548H17.1472H16.9798H15.7845C15.3112 78.8965 14.8388 78.8202 14.3957 78.6527C13.9527 78.4852 13.5481 78.23 13.2063 77.9023C12.8645 77.5746 12.5925 77.1812 12.4068 76.7458C12.221 76.3105 12.1252 75.8421 12.1252 75.3688C12.1252 74.8955 12.221 74.4271 12.4068 73.9917C12.5925 73.5564 12.8645 73.163 13.2063 72.8353C13.5481 72.5076 13.9527 72.2524 14.3957 72.0849C14.8388 71.9173 15.3112 71.841 15.7845 71.8606H36.7033C37.6095 71.8979 38.4662 72.2839 39.0942 72.9377C39.7222 73.5915 40.0728 74.4626 40.0728 75.3688C40.0728 76.275 39.7222 77.146 39.0942 77.7999C38.4662 78.4537 37.6095 78.8397 36.7033 78.877H35.2569H35.0896H31.7665C31.519 78.8963 31.2878 79.0082 31.1192 79.1903C30.9507 79.3724 30.857 79.6113 30.857 79.8593C30.857 80.1074 30.9507 80.3463 31.1192 80.5284C31.2878 80.7105 31.519 80.8223 31.7665 80.8416H37.1456C38.3374 80.8449 39.4975 80.4582 40.4486 79.7407C41.3997 79.0232 42.0896 78.0143 42.4128 76.8682C42.736 75.7221 42.6748 74.5018 42.2385 73.3938C41.8022 72.2857 41.0147 71.3508 39.9966 70.7319C41.0128 70.1114 41.7979 69.1757 42.232 68.0676C42.6662 66.9596 42.7256 65.74 42.4012 64.5951C42.0768 63.4501 41.3863 62.4427 40.4352 61.7265C39.4842 61.0102 38.3247 60.6245 37.1337 60.6282H27.6604V38.0681H30.0511V41.6509C30.0511 41.9677 30.1771 42.2715 30.4012 42.4954C30.6254 42.7194 30.9295 42.8452 31.2465 42.8452H34.8326V44.2664C34.035 44.5482 33.3628 45.1025 32.9348 45.8315C32.5068 46.5605 32.3505 47.4172 32.4935 48.2503C32.6366 49.0833 33.0698 49.839 33.7165 50.3837C34.3633 50.9285 35.182 51.2273 36.028 51.2273C36.8739 51.2273 37.6926 50.9285 38.3394 50.3837C38.9862 49.839 39.4193 49.0833 39.5624 48.2503C39.7054 47.4172 39.5491 46.5605 39.1211 45.8315C38.6931 45.1025 38.0209 44.5482 37.2233 44.2664V41.645C37.2233 41.3282 37.0974 41.0244 36.8732 40.8005C36.649 40.5765 36.345 40.4507 36.028 40.4507H32.4419V38.0621H37.2233C37.5403 38.0621 37.8444 37.9362 38.0686 37.7123C38.2927 37.4883 38.4187 37.1845 38.4187 36.8678V34.4792H45.8718C46.1888 35.3764 46.8496 36.111 47.7087 36.5214C48.5679 36.9319 49.555 36.9845 50.453 36.6677C51.351 36.351 52.0863 35.6908 52.4971 34.8324C52.9079 33.9741 52.9605 32.9878 52.6435 32.0906L52.6614 32.0608ZM43.2659 16.4872C43.5023 16.4872 43.7334 16.5572 43.93 16.6885C44.1266 16.8197 44.2798 17.0062 44.3703 17.2244C44.4607 17.4427 44.4844 17.6828 44.4383 17.9145C44.3922 18.1461 44.2783 18.3589 44.1111 18.526C43.944 18.693 43.731 18.8067 43.4991 18.8528C43.2672 18.8989 43.0269 18.8753 42.8084 18.7849C42.59 18.6945 42.4033 18.5414 42.272 18.345C42.1406 18.1486 42.0705 17.9177 42.0705 17.6815C42.0705 17.3647 42.1965 17.0609 42.4206 16.837C42.6448 16.613 42.9488 16.4872 43.2659 16.4872ZM25.2577 18.9534V21.4017C21.6119 21.4017 18.6832 24.8233 18.1393 28.5137C17.9797 29.6042 18.0375 30.7154 18.3094 31.7835C18.5812 32.8515 19.0617 33.8554 19.7233 34.7372C20.3849 35.619 21.2144 36.3615 22.1642 36.9219C23.114 37.4822 24.1653 37.8494 25.2577 38.0024V44.571L25.0605 43.6275C25.0127 43.3928 24.8953 43.178 24.7237 43.0108C24.5521 42.8436 24.3342 42.7318 24.0982 42.69C23.3866 42.5611 22.6868 42.3734 22.0063 42.1286C21.876 42.0814 21.7385 42.0571 21.5999 42.057C21.4306 42.0564 21.2632 42.0919 21.1086 42.1608C20.9541 42.2298 20.816 42.3308 20.7034 42.4571L19.5738 43.6633C18.9531 43.3514 18.3541 42.9983 17.7807 42.6064L18.3007 41.0239C18.376 40.7971 18.3816 40.553 18.3166 40.3231C18.2516 40.0932 18.1191 39.888 17.9361 39.7341C17.3826 39.2657 16.8688 38.7524 16.4001 38.1994C16.246 38.0167 16.0407 37.8842 15.8105 37.8193C15.5804 37.7544 15.3361 37.7599 15.1091 37.8352L13.5252 38.3547C13.1309 37.782 12.7754 37.1835 12.4614 36.5632L13.7225 35.4346C13.9004 35.276 14.0267 35.0679 14.0853 34.837C14.1439 34.6061 14.132 34.3629 14.0512 34.1388C13.8067 33.4588 13.6188 32.7597 13.4894 32.0488C13.4471 31.8122 13.3343 31.5939 13.1658 31.4224C12.9973 31.2509 12.781 31.1341 12.545 31.0874L10.8655 30.753V28.6331L12.545 28.2987C12.781 28.252 12.9973 28.1353 13.1658 27.9637C13.3343 27.7922 13.4471 27.5739 13.4894 27.3373C13.6186 26.6264 13.8065 25.9273 14.0512 25.2473C14.132 25.0232 14.1439 24.7801 14.0853 24.5492C14.0267 24.3182 13.9004 24.1101 13.7225 23.9515L12.4614 22.8229C12.7763 22.2031 13.1317 21.6047 13.5252 21.0315L15.1091 21.551C15.3361 21.6263 15.5804 21.6318 15.8105 21.5668C16.0407 21.5019 16.246 21.3695 16.4001 21.1867C16.8667 20.6208 17.3784 20.0936 17.9301 19.6103C18.1119 19.4568 18.2437 19.2527 18.3087 19.024C18.3736 18.7952 18.3688 18.5523 18.2947 18.3264L17.7807 16.744C18.3543 16.3523 18.9533 15.9992 19.5738 15.687L20.7034 16.947C20.8626 17.1259 21.072 17.2529 21.3043 17.3114C21.5366 17.37 21.7812 17.3574 22.0063 17.2754C22.6868 17.0304 23.3865 16.8426 24.0982 16.7141C24.3334 16.6726 24.5508 16.5617 24.7223 16.3957C24.8938 16.2297 25.0116 16.0161 25.0605 15.7825L25.2577 14.8391V18.9534ZM36.7511 62.5033C37.6574 62.5406 38.514 62.9266 39.142 63.5804C39.77 64.2343 40.1206 65.1053 40.1206 66.0115C40.1206 66.9177 39.77 67.7888 39.142 68.4426C38.514 69.0964 37.6574 69.4824 36.7511 69.5197H15.8323C14.9261 69.4824 14.0694 69.0964 13.4414 68.4426C12.8135 67.7888 12.4628 66.9177 12.4628 66.0115C12.4628 65.1053 12.8135 64.2343 13.4414 63.5804C14.0694 62.9266 14.9261 62.5406 15.8323 62.5033H36.7511ZM36.0638 46.4818C36.3002 46.4818 36.5313 46.5519 36.7279 46.6831C36.9245 46.8144 37.0777 47.0009 37.1682 47.2191C37.2587 47.4373 37.2823 47.6774 37.2362 47.9091C37.1901 48.1408 37.0762 48.3536 36.9091 48.5206C36.7419 48.6877 36.5289 48.8014 36.297 48.8475C36.0651 48.8936 35.8248 48.8699 35.6064 48.7795C35.3879 48.6891 35.2013 48.536 35.0699 48.3396C34.9386 48.1432 34.8684 47.9123 34.8684 47.6761C34.8684 47.3594 34.9944 47.0556 35.2186 46.8316C35.4427 46.6077 35.7468 46.4818 36.0638 46.4818ZM33.6731 10.5038C33.9095 10.5038 34.1406 10.5738 34.3372 10.7051C34.5338 10.8363 34.687 11.0228 34.7775 11.241C34.8679 11.4593 34.8916 11.6994 34.8455 11.9311C34.7994 12.1627 34.6855 12.3755 34.5183 12.5426C34.3512 12.7096 34.1382 12.8233 33.9063 12.8694C33.6744 12.9155 33.4341 12.8918 33.2156 12.8014C32.9972 12.711 32.8105 12.558 32.6792 12.3616C32.5478 12.1652 32.4777 11.9343 32.4777 11.6981C32.4777 11.3813 32.6037 11.0775 32.8278 10.8536C33.052 10.6296 33.3561 10.5038 33.6731 10.5038ZM36.0638 35.6914H27.6664V23.6768H36.0698L36.0638 35.6914ZM49.2666 34.4971C49.0302 34.4971 48.7991 34.4271 48.6025 34.2958C48.4059 34.1646 48.2527 33.9781 48.1622 33.7599C48.0718 33.5416 48.0481 33.3015 48.0942 33.0698C48.1403 32.8382 48.2542 32.6253 48.4214 32.4583C48.5885 32.2913 48.8015 32.1775 49.0334 32.1315C49.2653 32.0854 49.5056 32.109 49.7241 32.1994C49.9425 32.2898 50.1292 32.4429 50.2605 32.6393C50.3919 32.8357 50.462 33.0666 50.462 33.3028C50.462 33.6196 50.336 33.9233 50.1119 34.1473C49.8877 34.3713 49.5836 34.4971 49.2666 34.4971Z" fill="#EF9C0F"/>
</svg>
