<svg width="114" height="7" viewBox="0 0 114 7" fill="none" xmlns="http://www.w3.org/2000/svg">
<path d="M94.7058 5.9198H2.77756C2.13311 5.9198 1.51505 5.66402 1.05935 5.20873C0.603654 4.75344 0.347656 4.13594 0.347656 3.49207C0.347656 2.84819 0.603654 2.23066 1.05935 1.77537C1.51505 1.32009 2.13311 1.06433 2.77756 1.06433H94.6961C95.3405 1.06433 95.9586 1.32009 96.4143 1.77537C96.87 2.23066 97.126 2.84819 97.126 3.49207C97.126 4.13594 96.87 4.75344 96.4143 5.20873C95.9586 5.66402 95.3405 5.9198 94.6961 5.9198" fill="#5B3F8E"/>
<path d="M107.351 3.49199C107.351 2.87546 107.534 2.27278 107.877 1.76015C108.22 1.24753 108.707 0.847983 109.277 0.612049C109.847 0.376114 110.474 0.314373 111.08 0.434651C111.685 0.554929 112.241 0.851816 112.677 1.28777C113.114 1.72372 113.411 2.27916 113.531 2.88384C113.651 3.48852 113.59 4.11528 113.354 4.68488C113.117 5.25447 112.718 5.74132 112.204 6.08384C111.691 6.42637 111.088 6.60919 110.471 6.60919C109.644 6.60919 108.85 6.28077 108.265 5.69618C107.68 5.11159 107.351 4.31873 107.351 3.49199Z" fill="#5B3F8E"/>
</svg>
